<svg width="1381" height="300" viewBox="0 0 1381 300" fill="none" xmlns="http://www.w3.org/2000/svg">
<rect width="300" height="300" fill="#5764BD"/>
<rect x="40" y="128" width="219.722" height="45" stroke="white" stroke-width="10"/>
<rect x="35" y="209" width="120.33" height="50" fill="white"/>
<rect x="40.1931" y="42" width="219.722" height="45" stroke="white" stroke-width="10"/>
<path d="M439.413 223V81H535.813V109.8H472.213V140.4H524.613V167H472.213V223H439.413ZM617.527 224.2C606.86 224.2 597.193 222.2 588.527 218.2C579.993 214.067 572.593 208.6 566.327 201.8C560.193 194.867 555.46 187.133 552.127 178.6C548.793 169.933 547.127 161 547.127 151.8C547.127 142.333 548.86 133.333 552.327 124.8C555.927 116.267 560.86 108.667 567.127 102C573.527 95.2 581.06 89.8667 589.727 86C598.393 82.1333 607.86 80.2 618.127 80.2C628.66 80.2 638.193 82.2667 646.727 86.4C655.393 90.4 662.793 95.8667 668.927 102.8C675.193 109.733 679.993 117.533 683.327 126.2C686.66 134.733 688.327 143.467 688.327 152.4C688.327 161.867 686.593 170.867 683.127 179.4C679.66 187.933 674.727 195.6 668.327 202.4C661.927 209.067 654.393 214.4 645.727 218.4C637.193 222.267 627.793 224.2 617.527 224.2ZM580.527 152.2C580.527 157.667 581.327 163 582.927 168.2C584.527 173.267 586.86 177.8 589.927 181.8C593.127 185.8 597.06 189 601.727 191.4C606.393 193.8 611.727 195 617.727 195C623.993 195 629.46 193.8 634.127 191.4C638.793 188.867 642.66 185.533 645.727 181.4C648.793 177.267 651.06 172.667 652.527 167.6C654.127 162.4 654.927 157.133 654.927 151.8C654.927 146.333 654.127 141.067 652.527 136C650.927 130.933 648.527 126.4 645.327 122.4C642.127 118.267 638.193 115.067 633.527 112.8C628.86 110.533 623.593 109.4 617.727 109.4C611.46 109.4 605.993 110.6 601.327 113C596.793 115.4 592.927 118.667 589.727 122.8C586.66 126.8 584.327 131.4 582.727 136.6C581.26 141.667 580.527 146.867 580.527 152.2ZM711.28 223V81H775.28C781.946 81 788.08 82.4 793.68 85.2C799.413 87.8667 804.346 91.5333 808.48 96.2C812.613 100.733 815.813 105.867 818.08 111.6C820.48 117.333 821.68 123.133 821.68 129C821.68 134.867 820.746 140.467 818.88 145.8C817.013 151 814.346 155.733 810.88 160C807.413 164.133 803.28 167.533 798.48 170.2L829.68 223H793.48L766.28 177.2H744.08V223H711.28ZM744.08 148.6H774.08C776.746 148.6 779.08 147.8 781.08 146.2C783.213 144.467 784.946 142.133 786.28 139.2C787.613 136.267 788.28 132.867 788.28 129C788.28 125.133 787.48 121.8 785.88 119C784.413 116.067 782.546 113.8 780.28 112.2C778.013 110.6 775.613 109.8 773.08 109.8H744.08V148.6ZM961.264 223V138.4L930.664 200H912.664L882.064 138.4V223H849.264V81H884.864L921.664 155.2L958.664 81H994.064V223H961.264ZM1125.13 194.2V223H1025.33V81H1123.33V109.8H1058.13V137.4H1114.13V164H1058.13V194.2H1125.13ZM1248.86 194.2V223H1149.06V81H1247.06V109.8H1181.86V137.4H1237.86V164H1181.86V194.2H1248.86Z" fill="#5764BD"/>
<circle cx="217" cy="234" r="25" fill="white"/>
</svg>
