<svg xmlns="http://www.w3.org/2000/svg" viewBox="0 0 500 500"><g id="freepik--Shadows--inject-97"><ellipse id="freepik--Shadow--inject-97" cx="164.31" cy="411.36" rx="123.16" ry="71.11" style="fill:#f5f5f5"></ellipse><ellipse id="freepik--shadow--inject-97" cx="421.94" cy="430.3" rx="54.35" ry="31.38" style="fill:#f5f5f5"></ellipse></g><g id="freepik--Spices--inject-97"><g id="freepik--Chives--inject-97"><path d="M474.81,278.24c-3.28-4.39-10.37-7.77-15.84-7.55-2.74.1-4.55,1.09-5.27,2.59L451.92,277c-.72,1.5-.35,3.53,1.3,5.72,3.27,4.38,10.37,7.76,15.84,7.55,2.73-.11,4.54-1.09,5.26-2.6l1.79-3.75C476.83,282.46,476.45,280.43,474.81,278.24Zm-4,8.32c-5.48.21-12.57-3.17-15.85-7.55a7.75,7.75,0,0,1-1.61-3.57,7.61,7.61,0,0,1,3.79-1c5.47-.22,12.56,3.16,15.84,7.55a7.65,7.65,0,0,1,1.61,3.57A7.68,7.68,0,0,1,470.85,286.56Z" style="fill:#e0e0e0"></path><path d="M476.11,284a3.83,3.83,0,0,1-1.48,1.6A7.65,7.65,0,0,0,473,282c-3.28-4.39-10.37-7.77-15.84-7.55a7.61,7.61,0,0,0-3.79,1,3.87,3.87,0,0,1,.31-2.16c.72-1.5,2.53-2.49,5.27-2.59,5.47-.22,12.56,3.16,15.84,7.55C476.45,280.43,476.83,282.46,476.11,284Z" style="opacity:0.1"></path><path d="M264.7,67.9c-3.5-4.88-11.2-8.73-17.19-8.62-3,.06-5,1.1-5.83,2.73l-2,4.07c-.82,1.64-.45,3.87,1.3,6.3,3.5,4.87,11.19,8.73,17.19,8.61,3-.06,5-1.09,5.82-2.73l2-4.07C266.81,72.56,266.44,70.33,264.7,67.9Zm-4.53,9c-6,.12-13.69-3.74-17.19-8.61a8.53,8.53,0,0,1-1.69-4,8.53,8.53,0,0,1,4.18-1c6-.11,13.69,3.74,17.19,8.62a8.41,8.41,0,0,1,1.68,3.94A8.38,8.38,0,0,1,260.17,76.92Z" style="fill:#e0e0e0"></path><path d="M266,74.19a4.18,4.18,0,0,1-1.65,1.72A8.41,8.41,0,0,0,262.66,72c-3.5-4.88-11.2-8.73-17.19-8.62a8.53,8.53,0,0,0-4.18,1,4.25,4.25,0,0,1,.39-2.35c.82-1.63,2.83-2.67,5.83-2.73,6-.11,13.69,3.74,17.19,8.62C266.44,70.33,266.81,72.56,266,74.19Z" style="opacity:0.1"></path><path d="M45.26,350.42c-2.64-4.58-9-8.63-14.3-9.05-2.63-.21-4.48.52-5.34,1.88l-2.14,3.39c-.86,1.36-.73,3.34.59,5.63,2.63,4.57,9,8.62,14.3,9,2.62.21,4.47-.52,5.33-1.88l2.14-3.38C46.7,354.69,46.58,352.7,45.26,350.42Zm-4.75,7.51c-5.27-.43-11.67-4.48-14.3-9.05a7.39,7.39,0,0,1-1.13-3.6,7.34,7.34,0,0,1,3.74-.52c5.26.42,11.66,4.47,14.3,9a7.43,7.43,0,0,1,1.12,3.61A7.52,7.52,0,0,1,40.51,357.93Z" style="fill:#e0e0e0"></path><path d="M45.84,356.05a3.72,3.72,0,0,1-1.6,1.36,7.43,7.43,0,0,0-1.12-3.61c-2.64-4.57-9-8.62-14.3-9a7.34,7.34,0,0,0-3.74.52,3.67,3.67,0,0,1,.54-2c.86-1.36,2.71-2.09,5.34-1.88,5.26.42,11.66,4.47,14.3,9.05C46.58,352.7,46.7,354.69,45.84,356.05Z" style="opacity:0.1"></path><path d="M315.19,428.88l.6,3c.25,1.21,1.37,2.24,3.31,2.81a15.55,15.55,0,0,0,12.73-2.55c1.58-1.27,2.21-2.66,2-3.87l-.6-3c-.24-1.21-1.36-2.25-3.31-2.82A15.64,15.64,0,0,0,317.16,425C315.59,426.28,315,427.67,315.19,428.88Zm.77,1.42a5.59,5.59,0,0,1,1.8-2.27,15.58,15.58,0,0,1,12.74-2.55,5.63,5.63,0,0,1,2.53,1.4,5.66,5.66,0,0,1-1.8,2.27,15.64,15.64,0,0,1-12.73,2.55A5.71,5.71,0,0,1,316,430.3Z" style="fill:#e0e0e0"></path><path d="M315.19,428.88a2.85,2.85,0,0,0,.77,1.42,5.59,5.59,0,0,1,1.8-2.27,15.58,15.58,0,0,1,12.74-2.55,5.63,5.63,0,0,1,2.53,1.4,2.8,2.8,0,0,0,.17-1.6c-.24-1.21-1.36-2.25-3.31-2.82A15.64,15.64,0,0,0,317.16,425C315.59,426.28,315,427.67,315.19,428.88Z" style="opacity:0.1"></path><path d="M27.23,117.71l2.07,2.84c.83,1.14,2.49,1.67,4.78,1.33a17.86,17.86,0,0,0,12-8.74c1-2.08,1-3.82.19-5l-2.07-2.83c-.83-1.14-2.49-1.68-4.78-1.34a17.84,17.84,0,0,0-12,8.75C26.39,114.83,26.4,116.57,27.23,117.71Zm1.48,1.1a6.47,6.47,0,0,1,.77-3.22,17.82,17.82,0,0,1,12-8.74,6.43,6.43,0,0,1,3.3.24A6.48,6.48,0,0,1,44,110.3a17.87,17.87,0,0,1-12,8.75A6.53,6.53,0,0,1,28.71,118.81Z" style="fill:#e0e0e0"></path><path d="M27.23,117.71a3.29,3.29,0,0,0,1.48,1.1,6.47,6.47,0,0,1,.77-3.22,17.82,17.82,0,0,1,12-8.74,6.43,6.43,0,0,1,3.3.24,3.18,3.18,0,0,0-.59-1.74c-.83-1.14-2.49-1.68-4.78-1.34a17.84,17.84,0,0,0-12,8.75C26.39,114.83,26.4,116.57,27.23,117.71Z" style="opacity:0.1"></path><path d="M380.72,114.41l1.1,2.87c.44,1.16,1.72,2,3.73,2.22a15.66,15.66,0,0,0,12.13-4.66c1.33-1.52,1.72-3,1.28-4.15l-1.1-2.87c-.45-1.15-1.73-2-3.74-2.22A15.62,15.62,0,0,0,382,110.27C380.67,111.79,380.27,113.26,380.72,114.41Zm1,1.27a5.57,5.57,0,0,1,1.39-2.54,15.61,15.61,0,0,1,12.12-4.67,5.64,5.64,0,0,1,2.73,1,5.72,5.72,0,0,1-1.39,2.54,15.6,15.6,0,0,1-12.12,4.66A5.64,5.64,0,0,1,381.72,115.68Z" style="fill:#e0e0e0"></path><path d="M380.72,114.41a2.76,2.76,0,0,0,1,1.27,5.57,5.57,0,0,1,1.39-2.54,15.61,15.61,0,0,1,12.12-4.67,5.64,5.64,0,0,1,2.73,1,2.89,2.89,0,0,0-.1-1.61c-.45-1.15-1.73-2-3.74-2.22A15.62,15.62,0,0,0,382,110.27C380.67,111.79,380.27,113.26,380.72,114.41Z" style="opacity:0.1"></path></g><g id="freepik--Pepper--inject-97"><circle cx="384.07" cy="292.86" r="2.58" style="fill:#e0e0e0"></circle><path d="M448.45,136.8a2.58,2.58,0,1,1-2.57-2.58A2.58,2.58,0,0,1,448.45,136.8Z" style="fill:#e0e0e0"></path><circle cx="464.33" cy="84.83" r="2.58" style="fill:#e0e0e0"></circle><path d="M322.75,47.3a2.58,2.58,0,1,1-2.58-2.58A2.57,2.57,0,0,1,322.75,47.3Z" style="fill:#e0e0e0"></path><circle cx="55.43" cy="42.14" r="2.58" style="fill:#e0e0e0"></circle><path d="M27.6,276.22a2.58,2.58,0,1,1-2.48-2.67A2.59,2.59,0,0,1,27.6,276.22Z" style="fill:#e0e0e0"></path></g></g><g id="freepik--Ramen--inject-97"><g id="freepik--Bowl--inject-97"><path d="M277,403.39c3.75-14.39-2-31.27-18.16-47.21-32.32-31.89-94-48-137.77-35.93-21.89,6-35.15,17.93-38.91,32.33-.78,3-4.54,17.42-5.32,20.41-3.75,14.39,2,31.26,18.16,47.21,32.32,31.88,94,48,137.77,35.93,21.89-6,35.15-17.94,38.9-32.33Z" style="fill:#263238"></path><path d="M183.91,361.39c-40.15-10.47-75.49-29.29-99.51-53C61,285.33,51.3,260.49,57,238.48s26.35-38.94,58-47.65c32.53-9,72.55-8.12,112.7,2.36s75.49,29.28,99.51,53c23.39,23.08,33.1,47.91,27.36,69.92s-26.35,38.94-58,47.66C264.08,372.7,224.06,371.86,183.91,361.39Z" style="fill:#37474f"></path><path d="M183.91,361.39c33.54,8.75,67,10.77,96.06,6a76.75,76.75,0,0,0-14.72-19.46c-16.49-16.28-40.76-29.2-68.34-36.39s-55.06-7.77-77.4-1.62a77,77,0,0,0-22.35,9.79C120.19,338.07,150.37,352.64,183.91,361.39Z" style="fill:#263238"></path><path d="M358.22,319.65c0,.09-.05.2-.09.29-6.81,21.39-27.35,39-60.34,48.07C229,386.94,132.08,361.66,81.3,311.55c-24.36-24-33.68-49.42-29.18-71.42a2.46,2.46,0,0,1,.07-.29c.18-.84.35-1.66.57-2.48-.22.82-.89,3.57-1,4a158.16,158.16,0,1,0,306.08,79.82c.11-.4.86-3.12,1.08-3.94C358.71,318,358.47,318.83,358.22,319.65Z" style="fill:#37474f"></path><path d="M50.79,245.3c-5.91,22.64,2.68,49.36,28.33,74.2,51,49.42,148,74.72,216.69,56.51,34.51-9.15,55.05-28.27,61-50.91a145.25,145.25,0,0,1-16.94,38.51c-9.49,15.43-27.45,27.9-53.25,35C219.71,417,125.5,392.43,76.14,343.73,57,324.84,47.42,305.11,46.75,286.94A155.29,155.29,0,0,1,50.79,245.3Z" style="fill:#455a64"></path><path d="M123.12,354.92a234.59,234.59,0,0,1-28.95-18.24.41.41,0,0,0-.44-.05.45.45,0,0,0-.26.35c-.46,3.9-.63,8.11-.8,12.18-.07,1.54-.13,3-.21,4.54a.45.45,0,0,0,.19.38c8.34,5.78,16.64,10.95,26.12,16.25l.11,0a.39.39,0,0,0,.28,0,.43.43,0,0,0,.25-.29c.67-2.44,1.19-4.44,1.7-6.36.67-2.58,1.31-5,2.23-8.27A.46.46,0,0,0,123.12,354.92Zm-2.87,8.55c-.22.86-.45,1.73-.69,2.64a185.4,185.4,0,0,1-20.37-12c.09-.85.17-1.63.24-2.37.21-2,.39-3.81.68-6.09,5.91,4.09,9.1,6.06,15.09,9.54-.4,1.63-.64,2.66-1,4.28-3.49-2-5.32-3.08-8.6-5.14v-.09c.12-.76.2-1.25.34-2.1a.44.44,0,1,0-.87-.14c-.14.85-.22,1.34-.34,2.1l-.06.38a.43.43,0,0,0,.2.44c3.62,2.28,5.46,3.38,9.4,5.61a.47.47,0,0,0,.4,0,.46.46,0,0,0,.25-.31l.13-.56c.4-1.73.65-2.77,1.1-4.6a.44.44,0,0,0-.21-.49c-6.35-3.69-9.54-5.66-15.92-10.08a.44.44,0,0,0-.43-.05.47.47,0,0,0-.26.35c-.34,2.65-.54,4.59-.77,6.84-.08.82-.17,1.68-.27,2.64a.44.44,0,0,0,.19.41,187.41,187.41,0,0,0,20.74,12.27l.1,0h0c-.2.73-.4,1.49-.62,2.31-9.17-5.15-17.25-10.18-25.35-15.79.07-1.4.13-2.84.19-4.29.16-3.79.32-7.7.71-11.35a237.74,237.74,0,0,0,28.13,17.69C121.52,358.62,120.91,361,120.25,363.47ZM88,331.9a137.34,137.34,0,0,1-24.79-25.73.46.46,0,0,0-.52-.15.47.47,0,0,0-.28.48c.24,1.65.48,3.59.73,5.67a142.17,142.17,0,0,0,2.55,16,.31.31,0,0,0,.09.18A200.59,200.59,0,0,0,87.39,350a.46.46,0,0,0,.18.1.52.52,0,0,0,.3,0,.44.44,0,0,0,.25-.41c-.11-5.94-.21-12.18.08-17.41A.44.44,0,0,0,88,331.9Zm-14.81-5.5c.13,1.33.2,2,.34,3.37a.42.42,0,0,0,.12.26c3.06,3.17,4.64,4.68,8.06,7.71a.44.44,0,0,0,.48.07.46.46,0,0,0,.25-.43c-.13-2.75-.19-4.26-.27-6.75a.41.41,0,0,0-.14-.31,114.76,114.76,0,0,1-13.54-14,.47.47,0,0,0-.52-.13.45.45,0,0,0-.26.46l.18,1.64c.45,3.89.79,7,1.44,11.1a.37.37,0,0,0,.1.22A115.17,115.17,0,0,0,87,346.24a.65.65,0,0,0,.16.09h0c0,.8,0,1.59,0,2.38a200.35,200.35,0,0,1-20.66-20.85,143.23,143.23,0,0,1-2.5-15.79c-.17-1.4-.33-2.74-.5-4A139.46,139.46,0,0,0,87.3,332.45c-.2,3.91-.2,8.35-.14,12.8a113.16,113.16,0,0,1-16.94-16.13c-.63-4.05-1-7.09-1.41-10.93l0-.18a113.57,113.57,0,0,0,12.55,12.84c.06,2,.11,3.45.21,5.53-2.84-2.53-4.39-4-7.12-6.85-.13-1.25-.19-1.93-.32-3.21a.43.43,0,0,0-.48-.4A.45.45,0,0,0,73.23,326.4ZM59.78,305.87c-.27-2.2-.53-4.27-.78-6a.49.49,0,0,0-.06-.17c-5.47-8.85-9-18.33-11.78-31.33q-.12,1.56-.21,3.15c2.66,11.57,6.11,20.34,11.18,28.57.25,1.69.5,3.72.77,5.88.41,3.34.86,6.93,1.4,10.24A112.92,112.92,0,0,1,49.06,295c-.36-4.47-.58-8.27-.74-12.72a76.93,76.93,0,0,0,6.47,15.26l.13,1.15c.23,1.88.41,3.48.67,5.51a87.71,87.71,0,0,1-4.08-8.33c-.17-1.71-.25-2.62-.39-4.34a.45.45,0,0,0-.48-.4.44.44,0,0,0-.41.48c.15,1.74.23,2.65.4,4.42a.5.5,0,0,0,0,.13,91.27,91.27,0,0,0,5.27,10.45.47.47,0,0,0,.53.2.46.46,0,0,0,.3-.48c-.43-3.22-.67-5.22-1-7.75l-.14-1.22a.43.43,0,0,0,0-.16,78.05,78.05,0,0,1-7.41-18.51.44.44,0,0,0-.5-.31.43.43,0,0,0-.37.44c.16,6.12.4,10.69.85,16.31l0,.13a113,113,0,0,0,12.28,22.82.37.37,0,0,0,.15.13c.13.74.27,1.47.42,2.16a142.36,142.36,0,0,1-13.31-24.63c.29,1.51.64,3,1,4.57a140.46,140.46,0,0,0,12.87,22.5.49.49,0,0,0,.25.17.45.45,0,0,0,.54-.54A139.36,139.36,0,0,1,59.78,305.87Zm215.3,76.94a214.77,214.77,0,0,1-35,2.61.45.45,0,0,0-.43.34c-1,4-1.7,6.82-2.53,10.05-.36,1.4-.75,2.9-1.19,4.63a.44.44,0,0,0,.08.38.45.45,0,0,0,.24.16h.1a206.2,206.2,0,0,0,31.39-1.73.45.45,0,0,0,.33-.24c3.08-6,5.3-10.66,7.44-15.6a.45.45,0,0,0-.05-.45A.45.45,0,0,0,275.08,382.81Zm-6,12.32a.43.43,0,0,0-.23,0,165,165,0,0,1-24,1.79l.19-.65c.72-2.5,1.2-4.18,1.93-6.85A178.75,178.75,0,0,0,265.24,388c-.61,1.54-1,2.59-1.8,4.41-4.08.44-6.28.63-10.35.86.19-.57.33-1,.55-1.71a.43.43,0,0,0-.28-.55.44.44,0,0,0-.56.28l-.75,2.32a.46.46,0,0,0,.06.41.43.43,0,0,0,.38.17c4.6-.25,6.82-.44,11.31-.93a.46.46,0,0,0,.36-.27c.93-2.24,1.38-3.33,2.17-5.36a.42.42,0,0,0-.06-.43.47.47,0,0,0-.4-.17,180.72,180.72,0,0,1-19.26,1.48.45.45,0,0,0-.41.33c-.78,2.85-1.27,4.56-2,7.16l-.35,1.22a.45.45,0,0,0,.07.39.43.43,0,0,0,.24.16l.12,0A169.28,169.28,0,0,0,268.65,396l-1.22,2.41a207.45,207.45,0,0,1-30.47,1.7l1-4.09c.81-3.14,1.52-5.87,2.46-9.72a214.91,214.91,0,0,0,34-2.5C272.82,387.46,271.14,391,269.09,395.13Zm75.06-40.44a.44.44,0,0,0-.58.05,72.2,72.2,0,0,1-14.76,11.73.46.46,0,0,0-.12.12l-2.05,3c-1.94,2.86-3.77,5.56-6.38,9.13a.45.45,0,0,0,0,.55.44.44,0,0,0,.22.14.42.42,0,0,0,.33,0A108.32,108.32,0,0,0,335.28,370c.77-.94,1.51-1.9,2.21-2.87a109.94,109.94,0,0,1-15.35,10.55c2-2.81,3.59-5.12,5.23-7.55.63-.94,1.29-1.91,2-2.94a73.48,73.48,0,0,0,12.72-9.75c-.92,1.69-1.8,3.26-3.12,5.56a81.31,81.31,0,0,1-7.05,5.55l1.07-1.65a.45.45,0,0,0-.75-.48c-.89,1.39-1.36,2.11-2.3,3.54a.45.45,0,0,0,.06.56.47.47,0,0,0,.56.05,85.26,85.26,0,0,0,9.05-6.95.27.27,0,0,0,.09-.12c2-3.44,3-5.24,4.57-8.22A.45.45,0,0,0,344.15,354.69Zm-19.36,12.12a.53.53,0,0,0-.14.12c-1.43,1.9-2.95,4.1-4.55,6.43-2.79,4-6,8.62-9.47,12.79a.44.44,0,0,0,0,.55.43.43,0,0,0,.24.16.4.4,0,0,0,.3,0,137.42,137.42,0,0,0,17.09-9.5q1.92-1.72,3.66-3.54a137.38,137.38,0,0,1-19.33,11.39c3-3.76,5.78-7.75,8.25-11.32,1.57-2.29,3.07-4.45,4.47-6.32a80.3,80.3,0,0,0,22-17.33c.5-1,1-2.06,1.45-3.1A77.82,77.82,0,0,1,324.79,366.81ZM318.44,371a.44.44,0,0,0,0-.54.45.45,0,0,0-.53-.13c-11.69,5.41-23.69,8.52-34.91,11.08a.47.47,0,0,0-.3.23c-2.42,4.79-5.15,10-8.63,15.93a.44.44,0,0,0,0,.47.45.45,0,0,0,.25.18.61.61,0,0,0,.19,0,150.06,150.06,0,0,0,30.24-8.6.41.41,0,0,0,.17-.12c3.4-4.06,6.43-8.43,9.09-12.29C315.57,375,317,372.85,318.44,371ZM307.33,385a.39.39,0,0,0-.28,0,135.45,135.45,0,0,1-22.68,7.21c2-3.19,3.22-5.35,5-8.48l.11-.19a129.66,129.66,0,0,0,17.69-5.47l-.76,1.11c-.83,1.2-1.62,2.36-2.77,4-3.78,1.4-5.89,2.1-9.62,3.17l1.14-1.78a.44.44,0,0,0-.14-.61.45.45,0,0,0-.61.13c-.69,1.09-1.05,1.66-1.77,2.77a.45.45,0,0,0,0,.51.44.44,0,0,0,.48.16c4.54-1.29,6.69-2,10.95-3.57a.47.47,0,0,0,.21-.16c1.19-1.71,2-2.9,2.85-4.14l1.56-2.28a.43.43,0,0,0,0-.52.45.45,0,0,0-.51-.14,131,131,0,0,1-19.09,6,.43.43,0,0,0-.28.21l-.2.35c-2,3.4-3.29,5.65-5.58,9.34a.44.44,0,0,0,0,.49.49.49,0,0,0,.25.17.37.37,0,0,0,.21,0,136.74,136.74,0,0,0,22.84-7.06c-.67.86-1.36,1.72-2.06,2.55a148.39,148.39,0,0,1-29,8.33c3.22-5.49,5.78-10.42,8.08-15,10.71-2.45,22.13-5.41,33.33-10.39-1.1,1.52-2.24,3.16-3.42,4.88C311.48,379.33,309.49,382.2,307.33,385ZM158.19,370.53a255.83,255.83,0,0,1-28.93-12.4.45.45,0,0,0-.63.28l-4,14.59a.44.44,0,0,0,.22.51A256.53,256.53,0,0,0,154,386h0a.42.42,0,0,0,.31,0,.44.44,0,0,0,.22-.28l3.89-14.62A.43.43,0,0,0,158.19,370.53Zm-3.48,11.24a210.75,210.75,0,0,1-22-9.06l2-7.31c6,2.81,9.17,4.17,15.38,6.59l-1.1,4.1c-3.57-1.39-5.5-2.19-9.05-3.73l.5-1.84a.44.44,0,0,0-.32-.54h0a.44.44,0,0,0-.54.31l-.59,2.2a.44.44,0,0,0,.25.52c3.94,1.73,5.88,2.53,9.89,4.09a.45.45,0,0,0,.36,0,.43.43,0,0,0,.23-.28l1.33-5a.45.45,0,0,0-.27-.53c-6.6-2.56-9.77-3.92-16.17-6.92a.4.4,0,0,0-.37,0,.42.42,0,0,0-.24.28l-2.21,8.17a.44.44,0,0,0,.23.52,212.31,212.31,0,0,0,22.38,9.25h.07l-.63,2.37a259.06,259.06,0,0,1-28.24-12.11l3.74-13.72a254.75,254.75,0,0,0,28.16,12.06Zm78.81,3.64a.44.44,0,0,0-.33-.18,253.82,253.82,0,0,1-31.3-3.31.44.44,0,0,0-.5.33l-3.76,14.66a.44.44,0,0,0,.06.35.4.4,0,0,0,.26.18h0a255.12,255.12,0,0,0,31.5,3.33.45.45,0,0,0,.45-.33l3.66-14.67A.45.45,0,0,0,233.52,385.41Zm-34.91,11.25,3.53-13.8a254.12,254.12,0,0,0,30.47,3.23L230,396.68a.35.35,0,0,0-.11,0,210.72,210.72,0,0,1-23.54-2.16l1.88-7.35c6.59.93,10,1.29,16.63,1.77l-1,4.11c-3.85-.28-5.93-.47-9.75-.9l.43-1.72a.44.44,0,0,0-.31-.53h0a.44.44,0,0,0-.54.32l-.56,2.21a.47.47,0,0,0,.07.36.48.48,0,0,0,.31.19c4.3.48,6.39.68,10.66,1a.44.44,0,0,0,.46-.34l1.26-5a.46.46,0,0,0-.08-.37.44.44,0,0,0-.32-.18c-7-.5-10.48-.86-17.49-1.85a.44.44,0,0,0-.49.33l-2.1,8.21a.44.44,0,0,0,.07.35.41.41,0,0,0,.25.18h0a212.26,212.26,0,0,0,24.05,2.24l-.59,2.35A255.85,255.85,0,0,1,198.61,396.66Zm-3.18-15.77a.5.5,0,0,0-.29-.2,258.15,258.15,0,0,1-30.46-7.94.48.48,0,0,0-.35,0,.46.46,0,0,0-.21.28l-3.87,14.63a.44.44,0,0,0,.29.53q7.52,2.46,15.21,4.46c5.12,1.34,10.28,2.52,15.44,3.53a.44.44,0,0,0,.52-.32l3.77-14.66A.45.45,0,0,0,195.43,380.89Zm-34.21,6.62,3.63-13.78a257,257,0,0,0,29.66,7.74l-2.73,10.58-.06,0a210.62,210.62,0,0,1-23-5.68l1.93-7.33c6.36,1.88,9.71,2.76,16.19,4.22l-1.07,4.12C182,386.51,180,386,176.25,385l.47-1.78a.44.44,0,0,0-.86-.22l-.58,2.21a.45.45,0,0,0,.31.54c4.16,1.11,6.2,1.61,10.4,2.56a.44.44,0,0,0,.52-.32l1.29-5a.45.45,0,0,0-.05-.34.51.51,0,0,0-.28-.2c-6.91-1.55-10.25-2.43-17-4.44a.49.49,0,0,0-.34,0,.46.46,0,0,0-.21.28l-2.15,8.19a.45.45,0,0,0,.3.54c3.72,1.11,6.69,2,9.53,2.7,4.27,1.11,8.23,2,14,3.11h0l-.61,2.37A258.13,258.13,0,0,1,161.22,387.51Z" style="fill:#9DA2AD"></path><path d="M88.06,317.8c-.45,3.2-.88,6.39-1.27,9.59a144.63,144.63,0,0,0-.87,23.81,148.51,148.51,0,0,0,2.55,20.91,104.74,104.74,0,0,0,5.43,19.25q.93,2.34,2,4.6A156.88,156.88,0,0,0,124,417.26c-4.17-14.58-10.36-44.85-1.73-75.56A197.24,197.24,0,0,1,88.06,317.8Z" style="fill:#fff;opacity:0.1"></path><path d="M91.44,390.47a111.49,111.49,0,0,1-5.21-19.6A146.23,146.23,0,0,1,83.87,349a144.06,144.06,0,0,1,1.48-24.38c.38-2.7.81-5.39,1.26-8.07-1.82-1.63-3.6-3.29-5.31-5q-5.05-5-9.24-10C70.18,332.08,76.64,367,87.21,387c1.6,1.78,3.24,3.5,4.92,5.21C91.89,391.64,91.66,391.06,91.44,390.47Z" style="fill:#fff;opacity:0.1"></path><path d="M330.39,243c-50.79-50.11-147.71-75.38-216.5-56.46C79.5,196,58.65,214.75,52.76,237.36c-.22.82-.39,1.64-.57,2.48a2.46,2.46,0,0,0-.07.29c-4.5,22,4.82,47.39,29.18,71.42C132.08,361.66,229,386.94,297.79,368c33-9.07,53.53-26.68,60.34-48.07,0-.09.05-.2.09-.29.25-.82.49-1.62.71-2.44C364.82,294.6,355.78,268.08,330.39,243ZM296.61,363.75c-32.53,8.95-72.55,8.12-112.7-2.36s-75.49-29.29-99.51-53C61,285.32,51.3,260.5,57,238.48s26.35-38.94,58-47.65c32.53-9,72.55-8.12,112.71,2.35s75.48,29.29,99.5,53c23.39,23.08,33.11,47.91,27.36,69.92S328.3,355,296.61,363.75Z" style="fill:#455a64"></path></g><g id="freepik--Chopsticks--inject-97"><path d="M449.87,164,159.61,91.47a2.63,2.63,0,1,0-1.33,5.08L446.74,176a6.18,6.18,0,1,0,3.13-12Z" style="fill:#9DA2AD"></path><path d="M449.87,164,159.61,91.47a2.63,2.63,0,1,0-1.33,5.08L446.74,176a6.18,6.18,0,1,0,3.13-12Z" style="fill:#fff;opacity:0.30000000000000004"></path><path d="M295.62,125.48c-5.3.16-14.18,5-14.18,5L225,114.93l7.76-5.17Z" style="fill:#9DA2AD;opacity:0.5"></path><polygon points="264.61 117.72 251.28 122.16 258.33 124.1 271.73 119.5 264.61 117.72" style="fill:#9DA2AD;opacity:0.5"></polygon><path d="M449.87,164l-76.15-19c-4.09,1.82-5.29,7.18-2.66,10.15L446.74,176a6.18,6.18,0,1,0,3.13-12Z" style="fill:#9DA2AD"></path><path d="M449.87,164l-76.15-19c-4.09,1.82-5.29,7.18-2.66,10.15L446.74,176a6.18,6.18,0,1,0,3.13-12Z" style="opacity:0.30000000000000004"></path><path d="M403.22,152.38l-2.23-.56c-.16.22-.32.43-.46.65a15,15,0,0,0-1.92,4.48,12.79,12.79,0,0,0-.3,4.44c.05.39.11.85.2,1.32l2,.56a8.78,8.78,0,0,1-.29-1.23,10.88,10.88,0,0,1,.17-4,13.76,13.76,0,0,1,1.72-4C402.47,153.42,402.84,152.9,403.22,152.38Z" style="fill:#9DA2AD"></path><path d="M392.94,160.12a10.88,10.88,0,0,1,.17-4,13.76,13.76,0,0,1,1.72-4c.32-.53.67-1,1-1.52l-2.24-.56c-.13.19-.27.37-.4.57A15,15,0,0,0,391.3,155a12.79,12.79,0,0,0-.3,4.44c0,.37.1.79.18,1.22l2,.56A8.8,8.8,0,0,1,392.94,160.12Z" style="fill:#9DA2AD"></path><path d="M234.53,108.21c-17.82,2.41-29.81,23.49-24.18,47.4,4.63,19.66,6.49,30.44-10.49,48.9-13.86,15.07-11.28,21.87-11.29,43.75,0,18.23-13,26.34-13,26.34l71.84,16.25s21.62-13.09,16.44-29.37S248.07,233.1,256,221.19c15.78-23.86,17.18-37.78,13.91-53.89-3-14.57-9.05-38.38,20.27-43.2,1.31-1.84-5.62-5.75-12.61-3.62.3-2.26-4.53-4.8-9.59-3.55-.08-2.08-5.16-2-7.76-1.31,1.56-1.72-2.74-3.81-7.36-2.85.33-2.42-6-3.91-9.63-2.15C242.29,108.73,239.75,107.26,234.53,108.21Z" style="fill:#9DA2AD"></path><path d="M234.53,108.21c-17.82,2.41-29.81,23.49-24.18,47.4,4.63,19.66,6.49,30.44-10.49,48.9-13.86,15.07-11.28,21.87-11.29,43.75,0,18.23-13,26.34-13,26.34l71.84,16.25s21.62-13.09,16.44-29.37S248.07,233.1,256,221.19c15.78-23.86,17.18-37.78,13.91-53.89-3-14.57-9.05-38.38,20.27-43.2,1.31-1.84-5.62-5.75-12.61-3.62.3-2.26-4.53-4.8-9.59-3.55-.08-2.08-5.16-2-7.76-1.31,1.56-1.72-2.74-3.81-7.36-2.85.33-2.42-6-3.91-9.63-2.15C242.29,108.73,239.75,107.26,234.53,108.21Z" style="fill:#fff;opacity:0.7000000000000001"></path><path d="M266.59,194.46c-9-2.36-17.91-1.82-25,1,0,0,0,0,0,0a28.39,28.39,0,0,0-3.06,1.41c-.26.13-.5.27-.75.41a24,24,0,0,0-4.48,3.24c-.28.24-.55.5-.8.76a19,19,0,0,0-1.87,2.15c-.2.26-.4.53-.57.8a18.53,18.53,0,0,0-2.7,5.88c-.07.27-.13.55-.2.82,0,.07,0,.13,0,.19-1.83,8.35,2.4,10.9,9,12,1.22,3.18,5.89,6.7,12.4,9.4a58,58,0,0,1-3.52,7.81l-.24-.31c-.25-.3-.51-.59-.76-.88s-.54-.56-.82-.83c-8.29-8.23-23.49-11.12-38.7-6.31a48.28,48.28,0,0,0-16,8.57c.05,2.37.09,4.93.09,7.75a32.24,32.24,0,0,1-10.4,24.28,13.13,13.13,0,0,0,1.92,3.08l9.51,2.15a26.6,26.6,0,0,0,3.31-1.19c3,2.25,9.45,2.79,17.12,1.49.33,1.4.6,3,.81,4.51l21.27,4.81a2.23,2.23,0,0,0,.24-2.68A71.28,71.28,0,0,1,226.23,273c7.06-3.33,12.06-7.46,13.29-11.05,6.5-1.5,11-4.41,9.91-11.7,0-.24-.08-.47-.13-.71s-.05-.27-.08-.41a24.15,24.15,0,0,0,2.57.85,20,20,0,0,0,7.81.68c-4.9-11.11-9.68-20.33-3.65-29.44,6.72-10.16,10.82-18.52,13.08-26C268.23,194.92,267.42,194.68,266.59,194.46Z" style="fill:#9DA2AD;opacity:0.30000000000000004"></path><path d="M267.93,116.93c0-1.09-1.44-1.57-3.14-1.69l-55,19.8a45,45,0,0,0-.79,7.08l68.27-22.76C276.21,117.49,272.16,115.88,267.93,116.93Z" style="fill:#9DA2AD;opacity:0.2"></path><path d="M238,148.79c.38,2.27.79,4.47,1.19,6.61,2.46,13.16,4.59,24.53-2.1,39.39a101.06,101.06,0,0,1-7.32,12.88c-5.73,9-11.15,17.47-9.29,31.14,2.69,19.76-7.95,29.53-18.71,36.47l.54.84c10.38-6.7,21.94-17,19.16-37.44-1.81-13.31,3.51-21.65,9.14-30.47a101.54,101.54,0,0,0,7.39-13c6.82-15.15,4.67-26.66,2.18-40-.4-2.14-.81-4.33-1.2-6.6-2.81-16.54,3.67-26.6,21.57-33.09l-.4.09a1,1,0,0,0,.25-1.1C241.83,121.19,235.1,131.61,238,148.79Z" style="fill:#9DA2AD;opacity:0.30000000000000004"></path><path d="M277.52,120.48a1.77,1.77,0,0,0-.18-1c-15.92,5.55-22.76,17.56-19.32,34.35l.34,1.63c3.18,15.45,5.93,28.79-4.94,48.32-8.29,14.9-13.77,24.74-10.6,44.46S235.59,278,225,285.19l.48.7.2,0c10.18-6.95,21.4-17.53,18.13-37.82-3.11-19.37,2.3-29.1,10.49-43.81,11.05-19.86,8.26-33.37,5-49l-.34-1.63c-4.1-20,6.82-29.13,18.73-33.23Z" style="fill:#9DA2AD;opacity:0.30000000000000004"></path><path d="M183.57,276.41c8.68-6.74,16.42-16.75,14.09-33.88-2.48-18.25,5.19-28.42,14.9-41.29l1.57-2.09c10.84-14.44,8.16-31.91,4.1-47.09-7.84-29.32,17.76-39.32,25.8-41.69l0-.08a5.85,5.85,0,0,0-.82.33,3.84,3.84,0,0,0-.56-.86c-9.25,3-33.1,13.61-25.36,42.56,4,15,6.66,32.13-3.93,46.23l-1.57,2.09c-9.46,12.54-17.63,23.37-15.09,42,2.32,17.08-5.3,26.69-14.36,33.46Z" style="fill:#9DA2AD;opacity:0.30000000000000004"></path><path d="M227.32,147.68c.5,2.9,1,5.59,1.57,8.19,2.42,12,4.33,21.41-2.12,37a83.38,83.38,0,0,1-8,14c-5.72,8.66-11.12,16.84-9.33,30,2.68,19.76-8,29.52-18.72,36.47l.54.84c10.39-6.7,21.95-17,19.17-37.45-1.74-12.76,3.56-20.79,9.18-29.29a84.07,84.07,0,0,0,8.06-14.2c6.57-15.85,4.63-25.43,2.18-37.56-.53-2.59-1.07-5.27-1.56-8.16-2.54-14.93.77-26.62,24.5-34.77a1.39,1.39,0,0,0-.27-1C228.1,120.14,224.7,132.22,227.32,147.68Z" style="fill:#9DA2AD;opacity:0.30000000000000004"></path><path d="M247.61,150.62c.35,2.08.73,4.13,1.1,6.17,2.59,14,5,27.3-2.82,41.7-1.41,2.58-2.83,5-4.21,7.35-6.57,11.2-12.24,20.87-9.63,37.11,3.17,19.69-7.23,29.71-17.82,36.91l.56.83c10.22-6.95,21.52-17.54,18.25-37.9-2.56-15.88,2.77-25,9.51-36.45,1.37-2.35,2.8-4.78,4.21-7.37,8-14.71,5.55-28.14,2.94-42.36-.38-2-.76-4.08-1.11-6.15-2.52-15,4.48-27,19.33-33.56a1.2,1.2,0,0,0-.47-.88C252.19,122.81,245,135.16,247.61,150.62Z" style="fill:#9DA2AD;opacity:0.30000000000000004"></path><path d="M441.45,45.77,159.92,147.08a2.62,2.62,0,1,0,1.72,5l283.85-94.6a6.17,6.17,0,0,0-4-11.67Z" style="fill:#9DA2AD"></path><path d="M441.45,45.77,159.92,147.08a2.62,2.62,0,1,0,1.72,5l283.85-94.6a6.17,6.17,0,0,0-4-11.67Z" style="fill:#fff;opacity:0.30000000000000004"></path><path d="M441.45,45.77,367.58,72.35c-2.38,3.78-.4,8.9,3.44,9.91l74.47-24.82a6.17,6.17,0,0,0-4-11.67Z" style="fill:#9DA2AD"></path><path d="M441.45,45.77,367.58,72.35c-2.38,3.78-.4,8.9,3.44,9.91l74.47-24.82a6.17,6.17,0,0,0-4-11.67Z" style="opacity:0.30000000000000004"></path><path d="M396.2,62.05l-2.17.78c0,.26,0,.53,0,.79a15.11,15.11,0,0,0,.9,4.8,12.92,12.92,0,0,0,2.23,3.85c.25.3.56.64.89,1l2-.66a9.47,9.47,0,0,1-.93-.86A10.73,10.73,0,0,1,397,68.29a14.08,14.08,0,0,1-.83-4.31C396.15,63.33,396.17,62.69,396.2,62.05Z" style="fill:#9DA2AD"></path><path d="M392,74.2a10.65,10.65,0,0,1-2.1-3.43,13.84,13.84,0,0,1-.82-4.32c0-.61,0-1.22,0-1.83l-2.16.78c0,.23,0,.46,0,.7a15.05,15.05,0,0,0,.9,4.79A12.67,12.67,0,0,0,390,74.74c.23.28.51.6.82.92l2-.67A7,7,0,0,1,392,74.2Z" style="fill:#9DA2AD"></path></g><g id="freepik--Algae--inject-97"><path d="M241.2,261.9c31-15.12,62.39-52.78,76-100.59,0,0,45.62,27.09,65.22,79.36-15.85,46.07-61.91,76-85.92,81.66C296.54,322.33,243.89,300.61,241.2,261.9Z" style="fill:#263238"></path><path d="M382.46,240.67C368,202,339.19,177.09,325.23,166.77a3.64,3.64,0,0,0-1.29,1.38,4.12,4.12,0,0,0,.4,4.13,2.17,2.17,0,0,0,.52.43l.66.49a1.17,1.17,0,0,0-1,1.49,1.94,1.94,0,0,0,1.52,1.25,3.4,3.4,0,0,0-2,1.08c-.44.63-.18,1.75.58,1.82a2.37,2.37,0,0,0-1.41,1.63c-.1.73.61,1.56,1.32,1.32a1.69,1.69,0,0,0-.23,2,1.67,1.67,0,0,0,1.88.71,2,2,0,0,0,1.89,2.4,3.53,3.53,0,0,0,2-1,1,1,0,0,1,.61-.32c.49,0,.68.65.61,1.14s-.22,1.06.12,1.42,1.24.1,1.77-.3a1.38,1.38,0,0,0,1.1,1.08,1.4,1.4,0,0,0,1.4-.66,1.1,1.1,0,0,0,.2,1.47,1.18,1.18,0,0,0,1.5-.08,1.46,1.46,0,0,0,0,1.51,1.48,1.48,0,0,0,1.36.65c0,.34-.34.59-.68.59a2.84,2.84,0,0,1-1-.29,2,2,0,0,0-1.83.09,1.07,1.07,0,0,0-.18,1.63c.28.22.75.33.76.69-.79.16-1.7.46-1.95,1.23a1.2,1.2,0,0,0,1.62,1.48,3.33,3.33,0,0,0-.17,1.84,1.14,1.14,0,0,0,1.44.81,1.92,1.92,0,0,0,2.73,2.16,1.42,1.42,0,0,0,1.36,1.57,6.38,6.38,0,0,0,1.44-.42c.49-.13,1.13,0,1.29.46s-.13.85,0,1.24a1,1,0,0,0,.93.54,4,4,0,0,1,1.14.11,1.79,1.79,0,0,1,.43.35l.5.47a2.5,2.5,0,0,1,1,1.86,1.61,1.61,0,0,1-.26.7c-.17.25-.43.42-.6.66a1,1,0,0,0-.13.33,4,4,0,0,0-.13.77,4.11,4.11,0,0,0,.19,1.56,2.82,2.82,0,0,1,.29,1.41,9.93,9.93,0,0,1-.4,1c-.18.6.1,1.25,0,1.88a1.7,1.7,0,0,1-3.29.39c-.15-.4-.17-.88-.5-1.15-.56-.45-1.36.16-1.71.79s-.68,1.42-1.39,1.52a1.66,1.66,0,0,1-1-.23c-1-.46-2-1.27-1.93-2.35,0-.46.28-.94.11-1.37a1,1,0,0,0-1.07-.54,1.77,1.77,0,0,0-1.06.7c-.53-.88-1.46-1.88-2.39-1.44a1.71,1.71,0,0,1-.48.21c-.34,0-.57-.31-.79-.57a2.12,2.12,0,0,0-2.26-.55,2.09,2.09,0,0,0-1.35,1.9,2.13,2.13,0,0,0-1.79,1.07,1.47,1.47,0,0,0,.53,1.9c.49.25,1.09.15,1.59.37s.72,1.11.18,1.23c.6.13,1.36.56,1.15,1.13s-.8.46-1.28.43a3,3,0,0,0-1.63.27,1.38,1.38,0,0,0-.76,1.37,2.9,2.9,0,0,0-2.64,1.11,1.61,1.61,0,0,0,2.08,2.24,2.22,2.22,0,0,0,2.41,2.3,2.79,2.79,0,0,0,1.79,2.06,2.76,2.76,0,0,0,2.67-.53,1.48,1.48,0,0,0,2,0,2.11,2.11,0,0,0,.51-2.07,9.72,9.72,0,0,1-.38-1.27,1,1,0,0,1,.55-1.1,5.25,5.25,0,0,1,.89,0c.66-.08,1.33-.83,1.84-.41s-.05,1.22.11,1.84a1.09,1.09,0,0,0,1,.71,3.11,3.11,0,0,0,1.26-.27,1.91,1.91,0,0,0,2.87,1.44c.05.79-1.37,1.07-1.3,1.86.06.6.89.71,1.49.64a3.54,3.54,0,0,0-.58,1.52,1.19,1.19,0,0,0,.84,1.25c.4.07.88-.13,1.2.13.57.47-.29,1.52.17,2.1s1.37-.09,2.07.08c.22.06.41.19.64.24.81.16,1.29-.88,1.45-1.7a3.27,3.27,0,0,0,3-.3l.29,1.26a.89.89,0,0,1,1.31,1c-.11.28-.35.49-.38.78a.79.79,0,0,0,.63.77,4.7,4.7,0,0,0,1.06.09,3.11,3.11,0,0,1,2,1,.72.72,0,0,1,.23.39c.05.33-.26.6-.57.68s-.65.07-1,.18a1.18,1.18,0,1,0,.82,2.22,1.59,1.59,0,0,0-.35,1.81,1.92,1.92,0,0,0,1.55,1.06,2.06,2.06,0,0,0-1.7,2.85c-.06-.11-.62,0-.71.07a2.63,2.63,0,0,0-1.15,3.78,2.34,2.34,0,0,0,.24.31,1.67,1.67,0,0,0-1.61.42,3.58,3.58,0,0,0-.88,1.49,5.62,5.62,0,0,1-1.19-2.51,2.5,2.5,0,0,0-.34-1,1.37,1.37,0,0,0-1.47-.38,4,4,0,0,0-1.37.83,4.31,4.31,0,0,0-1.83-2.38,1.43,1.43,0,0,0-.84-.25.59.59,0,0,0-.55.58,7.84,7.84,0,0,0-2.29-.77,3.37,3.37,0,0,0-2.33.46,2.18,2.18,0,0,0-1,2.08,1.62,1.62,0,0,0,1.74,1.33,4.84,4.84,0,0,0-.45,2,1.64,1.64,0,0,0,1.12,1.54c.45.1,1,0,1.29.34s0,.85-.26,1.19a.75.75,0,0,0-.19.35c0,.2.15.36.27.53a1.13,1.13,0,0,1-1.5,1.61c-.46-.26-.68-.82-1.1-1.15a1.51,1.51,0,0,0-2.31.94c0,.25-.11.61-.36.55a.38.38,0,0,1-.19-.13,4.41,4.41,0,0,0-1.18-1,1.6,1.6,0,0,0-1.5-.06,1,1,0,0,0-.38,1.34c-.61-.18-1.22-.34-1.83-.47a.64.64,0,0,0-.89.48,2.71,2.71,0,0,0-.09,2.05,1.29,1.29,0,0,0,1.72.7,2.65,2.65,0,0,0,.34,2.07,2,2,0,0,0,1.64.63,6.06,6.06,0,0,0,1.76-.48,1.6,1.6,0,0,0,1.1,1.25,2,2,0,0,0,1.67-.28c.43-.29.76-.73,1.22-1s1.16-.23,1.38.25,0,.82.16,1.17a.86.86,0,0,0,.95.32,9.47,9.47,0,0,0,1-.4,2.18,2.18,0,0,1,2.38.5,1.65,1.65,0,0,1-.15,2.31.69.69,0,0,0-.19.19c-.14.24.15.5.25.76.15.42-.26.88-.7,1a3.61,3.61,0,0,1-1.34-.14,3,3,0,0,0-2.46.48,1.8,1.8,0,0,0-.58,2c.08.16.22.23.31.36a1.34,1.34,0,0,1,.19.55,2.13,2.13,0,0,1-.13,1.06,4.13,4.13,0,0,1-2.93,2.26c-1.73.4-3.66.24-5.17,1.17-2.67,1.65-2.41,5.89-.37,8.27s5.19,3.43,8.1,4.58a7.12,7.12,0,0,1,3.4,2.24,4.12,4.12,0,0,1,.68,1.64C360.3,281.15,374.86,262.77,382.46,240.67Z" style="fill:#37474f"></path><path d="M352.5,210.77a1.58,1.58,0,0,1,.4-1.59,2.71,2.71,0,0,1,2.34-.62c.39.06.75.2,1.14.3a.85.85,0,0,1,.49.22c.15.17.32,1.59.15,1.55l1.88.38c-.07.55-.13,1.11-.2,1.67a3.65,3.65,0,0,1,1.51.27,1.2,1.2,0,0,1,.71,1.26c-.12.5-.68.87-.65,1.39s.55.77,1,.84a7.61,7.61,0,0,1,1.43.13,1.67,1.67,0,0,1,.88,2.21,2.05,2.05,0,0,1-2.25,1.07,7.13,7.13,0,0,1,.89,2.68.74.74,0,0,1-.09.55c-.17.2-.48.15-.75.13-1.39-.08-2.94,1.19-4,.32-.32-.25-.53-.66-.91-.79s-.85.1-1.27.21a2,2,0,0,1-2-.65,1.85,1.85,0,0,1-.18-2.05,2.21,2.21,0,0,1-2.52-.35,1.81,1.81,0,0,1,0-2.46c.73-.73,1.92-.59,3-.56a1.08,1.08,0,0,0,.59-.11.84.84,0,0,0,.16-1,5.84,5.84,0,0,1-.46-1,1.55,1.55,0,0,1,0-.74c.14-.63.7-1.4.18-2-.32-.37-.84-.51-1.18-.87A1.46,1.46,0,0,1,352.5,210.77Z" style="fill:#263238"></path><path d="M364.12,234.27h.32a2.71,2.71,0,0,1,.93.28.68.68,0,0,1,.28.25c.11.15.38,1.15.23,1.14l1.81.16c.31,0,.68.1.77.39s-.19.59-.49.7a3.84,3.84,0,0,0-.89.28.9.9,0,0,0,.06,1.48l2.08.06c.59,0,1.31.13,1.53.68s-.32,1.21-.84,1.62a12.09,12.09,0,0,0-2.48-.07,2.89,2.89,0,0,0,4.11,2c0,.33.08.67.13,1,1.14-.06,2.51,0,3.11,1a2.23,2.23,0,0,1,0,2.11,6.85,6.85,0,0,1-1.42,1.67,1.51,1.51,0,0,1-1,.52c-.45,0-.85-.41-1.29-.34s-.75.63-1.22.7-.94-.52-1-1.06a3.7,3.7,0,0,0-.33-1.6c-.56-.84-1.85-.58-2.8-.22a2.6,2.6,0,0,0-1.31.82.9.9,0,0,0,.28,1.33,3.53,3.53,0,0,0,.58.08c.6.11,1,.71,1.52,1,.72.42,1.66.26,2.4.64a1.82,1.82,0,0,1-.5,3.41,2,2,0,0,1-2.46,1.1,2.93,2.93,0,0,0-1.09-.17,3.67,3.67,0,0,0-.95.43,2.2,2.2,0,0,1-3-2.22,11.61,11.61,0,0,1,.6-1.68,1.43,1.43,0,0,0-.38-1.62c-.45-.3-1.11-.15-1.52-.5s-.3-1.24.13-1.73a16,16,0,0,0,1.4-1.33c-.1.14-.48-.34-.5-.41a1.06,1.06,0,0,1,.26-1.1,4,4,0,0,1,.35-.37c.21-.2.44-.37.66-.55a1.42,1.42,0,0,0,.68-1c0-.25-.17-.55-.11-.78s.4-.33.46-.59c.17-.73-1.05-.71-1.4-1a1.07,1.07,0,0,1-.06-1.38,4.35,4.35,0,0,1,1.16-1,.79.79,0,0,0,.39-.51c0-.28-.24-.51-.51-.62a3,3,0,0,1-.78-.32,1,1,0,0,1-.32-1,1.83,1.83,0,0,1,.53-.91A2.58,2.58,0,0,1,364.12,234.27Z" style="fill:#263238"></path><path d="M352.18,262.42a2.21,2.21,0,0,0,.89,0,2,2,0,0,0,1-.53,1.33,1.33,0,0,1,.6-.45,1.07,1.07,0,0,1,.47,0,3.19,3.19,0,0,1,2,1.58c.35.69.63,1.64,1.4,1.69a2.6,2.6,0,0,0,.86-.22,2.22,2.22,0,0,1,2.46.78,1.84,1.84,0,0,1-.36,2.47,1.69,1.69,0,0,1-2.09-.13.91.91,0,0,1-1.26.62,2.11,2.11,0,0,1-1-1.24,1.29,1.29,0,0,0-.38-.61c-.45-.33-1.08.08-1.38.54s-.54,1.05-1.06,1.25a1.91,1.91,0,0,1-.95,0,4,4,0,0,1-1.45-.37,1.39,1.39,0,0,1-.77-1.19c0-.55.44-1.23,0-1.56a1.78,1.78,0,0,0-.58-.17,1.19,1.19,0,0,1-.54-1.74,2.13,2.13,0,0,1,1.9-.83Z" style="fill:#263238"></path><path d="M316.29,199.06c.22.28,0,.71-.3.92a2.93,2.93,0,0,0-.86.64,1.11,1.11,0,0,1,.06,1.44c-.42.49-1.33.68-1.32,1.33,0,.4.39.69.77.81a5.3,5.3,0,0,1,1.13.35,3.52,3.52,0,0,1,1,1.33c.29.48.79.94,1.34.81.24-.05.45-.23.7-.26.49-.06.87.4,1.32.6a1.33,1.33,0,0,0,1.43-.29,1.32,1.32,0,0,0,.23-1.45c-.18-.36-.55-.7-.47-1.1s.65-.57,1.09-.5a3.83,3.83,0,0,0,1.29.18,1,1,0,0,0,.8-.84,1,1,0,0,0-.5-1,6.21,6.21,0,0,0-1.42-.31.91.91,0,0,1-.56-1.3c.19-.31.69-.23.81-.78s-.28-.87-.78-1a4.32,4.32,0,0,1-2-1.44,2,2,0,0,0-2.1-.69,2.85,2.85,0,0,0-1.63,1,2,2,0,0,0-.47.83C315.73,198.74,316.05,198.75,316.29,199.06Z" style="fill:#37474f"></path></g><g id="freepik--Noodles--inject-97"><path d="M303.34,197.81a37.54,37.54,0,0,0-8.43-12.46,32.31,32.31,0,0,0-15.09-8.19.87.87,0,0,0-1.05.92,1.79,1.79,0,0,0,1.14,1.5A46,46,0,0,1,288,184a28.76,28.76,0,0,1,5.28,4.7,35,35,0,0,1,6.07,9.9c3.73,8.83,4,19.32,2.4,28.67a67.74,67.74,0,0,1-26.9,42.35c-8.8,6.17-19.89,8.81-30.32,11.06-1.11.24-.2,2.08.65,2.1,20.4.59,39.52-12.24,50.39-28.94C306,237.74,310.84,216,303.34,197.81Z" style="fill:#9DA2AD"></path><path d="M303.34,197.81a37.54,37.54,0,0,0-8.43-12.46,32.31,32.31,0,0,0-15.09-8.19.87.87,0,0,0-1.05.92,1.79,1.79,0,0,0,1.14,1.5A46,46,0,0,1,288,184a28.76,28.76,0,0,1,5.28,4.7,35,35,0,0,1,6.07,9.9c3.73,8.83,4,19.32,2.4,28.67a67.74,67.74,0,0,1-26.9,42.35c-8.8,6.17-19.89,8.81-30.32,11.06-1.11.24-.2,2.08.65,2.1,20.4.59,39.52-12.24,50.39-28.94C306,237.74,310.84,216,303.34,197.81Z" style="fill:#fff;opacity:0.4"></path><path d="M295.81,244.92a67.16,67.16,0,0,1-20.95,24.67c-8.8,6.17-19.89,8.81-30.32,11.06-1.11.24-.2,2.08.65,2.1,20.4.59,39.52-12.24,50.39-28.94a73.27,73.27,0,0,0,5-9A18,18,0,0,1,295.81,244.92Z" style="fill:#9DA2AD;opacity:0.8"></path><path d="M218.49,244.93A90.48,90.48,0,0,1,186.92,229c-9.59-7.48-17.86-16.8-25.26-26.42s-14-19.84-21.2-29.65c-7.28-10-15.74-18.76-26.09-25.57-9.41-6.18-20.49-10.73-31.91-10.6A33.52,33.52,0,0,0,66.29,141a35,35,0,0,0-11.63,11.1c-4.76,7.16-6.88,15.5-7.55,24A47.31,47.31,0,0,0,37,194a60.41,60.41,0,0,0,0,33.17A76.21,76.21,0,0,0,50.15,254,75.17,75.17,0,0,0,60.48,265,68.29,68.29,0,0,0,74.21,274q3.06,1.56,6.26,2.8c1.86.72,1.49-2.16.2-2.76-8.84-4-16.49-10.56-22.75-17.91a76,76,0,0,1-13.56-23.73c-5.29-14.93-5.53-32.63,2.57-46.29,0,.13,0,.25,0,.38a110.43,110.43,0,0,0,6.59,34.22,90.09,90.09,0,0,0,17.19,28.86,78.11,78.11,0,0,0,5.51,5.56,42.37,42.37,0,0,0,7.29,5.14,101.26,101.26,0,0,0,18.2,8.37,63.79,63.79,0,0,0,7.29,2.09c1.57.36,1-2.29-.14-2.62-5.46-1.56-11.16-3.75-15.73-7.2a85.69,85.69,0,0,1-6.64-5.53c-1.12-1-2.1-2.25-3.27-3.26-1-.85-2-1.72-2.9-2.62a80.41,80.41,0,0,1-17.7-25.26A100.46,100.46,0,0,1,54.38,192a94.73,94.73,0,0,1-.33-14.71,32.76,32.76,0,0,1,23.36-9.16c9.34.21,18.08,3.32,26.12,8.17,17.94,10.83,29.39,29.48,42.72,45.19S178.24,252,200,252.1a35.27,35.27,0,0,0,8.19-.9c1.75-.4.06-3.28-1.31-3.19a46.33,46.33,0,0,1-16.69-1.62,59.44,59.44,0,0,1-13.74-6.33c-9-5.49-16.46-13-23.2-21-13.66-16.31-25.4-35.14-43.66-46.81-8.39-5.36-18.11-9.24-28.11-10a41.88,41.88,0,0,0-26.33,6.88,41.84,41.84,0,0,1,3.36-10,31.23,31.23,0,0,1,8.78-10.93l.18-.14.79-.55c.48-.32,1-.62,1.48-.91a22.29,22.29,0,0,1,3.08-1.5,32.16,32.16,0,0,1,3.62-1.1,18,18,0,0,1,3.31-.54c10.51-1,20.64,3.09,29.4,8.49C119,158,127.05,166,134,175.19s13.42,19.11,20.73,28.22c7.76,9.65,16.13,18.62,25.94,26.22a93.87,93.87,0,0,0,29.87,15.92,54.7,54.7,0,0,0,8,1.69C219.72,247.4,219.34,245.17,218.49,244.93Z" style="fill:#9DA2AD"></path><path d="M218.49,244.93A90.48,90.48,0,0,1,186.92,229c-9.59-7.48-17.86-16.8-25.26-26.42s-14-19.84-21.2-29.65c-7.28-10-15.74-18.76-26.09-25.57-9.41-6.18-20.49-10.73-31.91-10.6A33.52,33.52,0,0,0,66.29,141a35,35,0,0,0-11.63,11.1c-4.76,7.16-6.88,15.5-7.55,24A47.31,47.31,0,0,0,37,194a60.41,60.41,0,0,0,0,33.17A76.21,76.21,0,0,0,50.15,254,75.17,75.17,0,0,0,60.48,265,68.29,68.29,0,0,0,74.21,274q3.06,1.56,6.26,2.8c1.86.72,1.49-2.16.2-2.76-8.84-4-16.49-10.56-22.75-17.91a76,76,0,0,1-13.56-23.73c-5.29-14.93-5.53-32.63,2.57-46.29,0,.13,0,.25,0,.38a110.43,110.43,0,0,0,6.59,34.22,90.09,90.09,0,0,0,17.19,28.86,78.11,78.11,0,0,0,5.51,5.56,42.37,42.37,0,0,0,7.29,5.14,101.26,101.26,0,0,0,18.2,8.37,63.79,63.79,0,0,0,7.29,2.09c1.57.36,1-2.29-.14-2.62-5.46-1.56-11.16-3.75-15.73-7.2a85.69,85.69,0,0,1-6.64-5.53c-1.12-1-2.1-2.25-3.27-3.26-1-.85-2-1.72-2.9-2.62a80.41,80.41,0,0,1-17.7-25.26A100.46,100.46,0,0,1,54.38,192a94.73,94.73,0,0,1-.33-14.71,32.76,32.76,0,0,1,23.36-9.16c9.34.21,18.08,3.32,26.12,8.17,17.94,10.83,29.39,29.48,42.72,45.19S178.24,252,200,252.1a35.27,35.27,0,0,0,8.19-.9c1.75-.4.06-3.28-1.31-3.19a46.33,46.33,0,0,1-16.69-1.62,59.44,59.44,0,0,1-13.74-6.33c-9-5.49-16.46-13-23.2-21-13.66-16.31-25.4-35.14-43.66-46.81-8.39-5.36-18.11-9.24-28.11-10a41.88,41.88,0,0,0-26.33,6.88,41.84,41.84,0,0,1,3.36-10,31.23,31.23,0,0,1,8.78-10.93l.18-.14.79-.55c.48-.32,1-.62,1.48-.91a22.29,22.29,0,0,1,3.08-1.5,32.16,32.16,0,0,1,3.62-1.1,18,18,0,0,1,3.31-.54c10.51-1,20.64,3.09,29.4,8.49C119,158,127.05,166,134,175.19s13.42,19.11,20.73,28.22c7.76,9.65,16.13,18.62,25.94,26.22a93.87,93.87,0,0,0,29.87,15.92,54.7,54.7,0,0,0,8,1.69C219.72,247.4,219.34,245.17,218.49,244.93Z" style="fill:#fff;opacity:0.7000000000000001"></path><path d="M55.13,169.13a44.64,44.64,0,0,0-1.08,8.12l2.13-1.84a25.45,25.45,0,0,1,.31-7.16Z" style="fill:#9DA2AD;opacity:0.30000000000000004"></path><path d="M47.11,176.12c-.17,2.35-.24,6.62-.18,10l-.21.35a37,37,0,0,1-.75-9Z" style="fill:#9DA2AD;opacity:0.30000000000000004"></path><g style="opacity:0.30000000000000004"><path d="M200,252.1a35.27,35.27,0,0,0,8.19-.9c1.75-.4.06-3.28-1.31-3.19a46.33,46.33,0,0,1-16.69-1.62,59.44,59.44,0,0,1-13.74-6.33c-9-5.49-16.46-13-23.2-21q-2.8-3.36-5.53-6.83a29.08,29.08,0,0,0-4.41,5.67c1,1.2,2,2.39,3,3.57C159.68,237.28,178.24,252,200,252.1Z" style="fill:#9DA2AD"></path><path d="M218.49,244.93A90.48,90.48,0,0,1,186.92,229c-9.22-7.19-17.21-16.08-24.38-25.3l-.52.13a31.94,31.94,0,0,0-5.29,1.95,151.56,151.56,0,0,0,24,23.81,93.87,93.87,0,0,0,29.87,15.92,54.7,54.7,0,0,0,8,1.69C219.72,247.4,219.34,245.17,218.49,244.93Z" style="fill:#9DA2AD"></path></g><g style="opacity:0.8"><path d="M153.23,219l-1.44-1.76-5.54,4.17a119.2,119.2,0,0,0,14.05,14.11,55.71,55.71,0,0,0,5.74-3.22A119.28,119.28,0,0,1,153.23,219Z" style="fill:#9DA2AD"></path><path d="M165.24,207.15l-4.49,3.38A153.4,153.4,0,0,0,175,224.91a39.14,39.14,0,0,0,3-3.67A157.85,157.85,0,0,1,165.24,207.15Z" style="fill:#9DA2AD"></path></g></g><g id="freepik--Naruto--inject-97"><path d="M355.39,282.49c-.2-.85-1.08-1.54-2.55-1.78a4.75,4.75,0,0,1-1.27-.39l-.86-4c-.25-1.28-2-2.14-4.47-1.88s-4.25-.56-4.48-1.93c-.3-1.82-3.5-2.55-6.45-1.47-2.2.81-4.68.63-5.84-.42-1.56-1.41-5.29-1.19-7.52.45a7.74,7.74,0,0,1-6.2,1.15c-2.53-.76-6.15.38-7.29,2.29-.86,1.43-3.19,2.5-5.49,2.52-3.07,0-6,1.89-5.8,3.74.11,1.39-1.51,2.86-3.82,3.46-2.54.67-4.09,2.32-3.77,3.7h0l.67,3.09a4.36,4.36,0,0,1-1.69,1.55h0c-1.46.83-2.12,1.92-2,2.86h0l1.77,8.17v0a2,2,0,0,0,.93,1.25l1.25,5.78h0c.25,1,1.52,1.83,3.47,1.87,2.27,0,3.75,1.13,3.49,2.56-.36,1.91,2.36,3.08,5.47,2.35,2.33-.54,4.57,0,5.28,1.21.95,1.65,4.49,1.91,7.14.52a7.21,7.21,0,0,1,6.16-.37h0c2.08,1.1,5.84.41,7.57-1.4a7.5,7.5,0,0,1,6-1.88c2.86.37,6.18-1.16,6.69-3.08.38-1.44,2.4-2.74,4.75-3.06,3.15-.44,5.46-2.53,4.66-4.23-.59-1.27.56-2.85,2.72-3.72,2-.79,3-2.13,2.85-3.27h0l-1.06-4.89.23-.2a2.52,2.52,0,0,0,1.2-2.52C356.9,289.7,355.57,283.26,355.39,282.49Z" style="fill:#e0e0e0"></path><path d="M297.17,280.81h0c-.15-1.85,2.73-3.7,5.8-3.74h0c2.3,0,4.63-1.09,5.49-2.52h0c1.14-1.91,4.76-3.05,7.29-2.29h0a7.74,7.74,0,0,0,6.2-1.15h0c2.23-1.64,6-1.86,7.52-.45h0c1.16,1,3.64,1.23,5.84.42h0c2.95-1.08,6.15-.35,6.45,1.47h0c.23,1.37,2.13,2.18,4.48,1.93h0c3.14-.34,5.26,1.21,4.26,3.13h0c-.75,1.44.25,2.75,2.34,3.1h0c2.8.46,3.46,2.57,1.34,4.25h0c-1.59,1.26-1.68,2.85-.21,3.73h0c2,1.18,1.07,3.49-1.82,4.65h0c-2.16.86-3.31,2.44-2.71,3.71h0c.8,1.7-1.51,3.8-4.66,4.23h0c-2.35.32-4.37,1.62-4.75,3.06h0c-.51,1.92-3.83,3.45-6.69,3.08h0a7.57,7.57,0,0,0-6,1.88h0c-1.72,1.81-5.48,2.51-7.57,1.4h0a7.21,7.21,0,0,0-6.16.37h0c-2.64,1.39-6.18,1.13-7.13-.52h0c-.71-1.24-2.95-1.75-5.28-1.2h0c-3.11.72-5.83-.44-5.47-2.36h0c.26-1.43-1.22-2.52-3.49-2.56h0c-3-.06-4.46-1.94-2.86-3.78h0c1.19-1.38.73-2.86-1.1-3.49h0c-2.43-.84-2.31-3.09.25-4.55h0c1.92-1.08,2.55-2.7,1.49-3.8h0c-1.41-1.47.23-3.72,3.31-4.54h0C295.66,283.67,297.28,282.2,297.17,280.81Z" style="fill:#fafafa"></path><path d="M329.83,274.64a51.83,51.83,0,0,0-8.24.33c-.95.12-.32.63.35.59,8.7-.53,17.57,1.4,21.83,5.6a7.19,7.19,0,0,1,2.26,7c-.64,2.64-2.7,5.29-5.24,7.61-4.62,4.24-12.54,7.6-21,8.08-8.72.49-15.87-1.9-18.76-6.47s-.64-10.17,6.51-13.8a32.94,32.94,0,0,1,13.36-3.31c4-.1,7.62.58,10.18,2.16a8.89,8.89,0,0,1,4.47,6,5.33,5.33,0,0,1-.86,3.85,13.12,13.12,0,0,1-4.95,3.87c-3.46,1.67-7.55,3.06-11.89,2.65-3.85-.36-6.95-2-8.07-4.18s-.49-5,2.48-7a15.58,15.58,0,0,1,10.56-2.33c4,.78,5.78,4,2.76,6.24a11.13,11.13,0,0,1-6,1.81c-1.83,0-3.42-.55-3.56-1.66s1.16-2.14,3-2.28c.85-.07.45-.64-.21-.61a5.73,5.73,0,0,0-4.54,2c-.79,1.19,0,2.35,1.51,3,3.82,1.63,9.31,0,12.07-2.28,3-2.5,1.33-5.8-2.77-7.15-3.73-1.24-8.51-.71-12.79,1.5-3.75,1.94-5.61,4.8-5.39,7.39s2.94,5,7,6.08a24.15,24.15,0,0,0,14.6-1.18c4.77-1.89,8.65-4.58,9.36-7.95,1.13-5.39-5-10.84-14.11-11.46-10.32-.69-21.24,4.26-25,10.06S298.43,301.17,307,304s19.87,1.54,28.14-2.59a32.55,32.55,0,0,0,9.53-7c2.6-2.86,4.53-6.07,4.07-9.15C347.87,279.39,339.76,275.06,329.83,274.64Z" style="fill:#9DA2AD"></path></g><g id="freepik--naruto--inject-97"><path d="M319.44,257.13c-.39-.78-1.4-1.25-2.89-1.15a4.36,4.36,0,0,1-1.33-.09l-1.74-3.65c-.54-1.19-2.49-1.61-4.78-.8s-4.27.43-4.81-.85c-.71-1.7-4-1.68-6.61,0-2,1.3-4.41,1.69-5.79.93-1.83-1-5.41.06-7.21,2.17a7.67,7.67,0,0,1-5.77,2.54c-2.64-.15-5.9,1.79-6.57,3.91-.5,1.58-2.52,3.16-4.76,3.71-3,.74-5.36,3.21-4.78,5,.42,1.33-.82,3.13-2.92,4.25-2.32,1.24-3.46,3.2-2.83,4.47h0l1.36,2.85a4.47,4.47,0,0,1-1.29,1.9h0c-1.23,1.14-1.63,2.36-1.27,3.24h0l3.6,7.55v0a2,2,0,0,0,1.19,1l2.54,5.34h0c.48.95,1.9,1.43,3.8,1,2.23-.48,3.92.24,4,1.69.09,2,3,2.46,5.86,1,2.15-1.07,4.44-1.09,5.42-.05,1.3,1.39,4.81.83,7.07-1.13a7.22,7.22,0,0,1,5.9-1.78h0c2.29.6,5.79-.94,7.05-3.1a7.55,7.55,0,0,1,5.38-3.2c2.87-.3,5.75-2.55,5.81-4.54,0-1.48,1.7-3.21,3.92-4.07,3-1.14,4.73-3.72,3.56-5.18-.87-1.1-.11-2.9,1.79-4.24,1.75-1.23,2.46-2.78,2-3.85h0l-2.16-4.52.18-.24a2.53,2.53,0,0,0,.59-2.74C322.57,263.8,319.79,257.84,319.44,257.13Z" style="fill:#e0e0e0"></path><path d="M262.4,268.87h0c-.58-1.76,1.8-4.23,4.78-5h0c2.24-.55,4.26-2.13,4.76-3.71h0c.67-2.12,3.93-4.06,6.57-3.91h0a7.67,7.67,0,0,0,5.77-2.54h0c1.8-2.11,5.38-3.18,7.21-2.17h0c1.38.76,3.83.37,5.79-.93h0c2.62-1.73,5.9-1.75,6.61,0h0c.54,1.28,2.58,1.63,4.81.85h0c3-1.06,5.39,0,4.86,2.07h0c-.39,1.57.88,2.62,3,2.47h0c2.83-.19,4,1.71,2.28,3.84h0c-1.26,1.59-1,3.15.66,3.67h0c2.19.7,1.84,3.15-.7,4.94h0c-1.91,1.34-2.67,3.14-1.79,4.24h0c1.17,1.47-.6,4-3.56,5.18h0c-2.22.86-3.89,2.59-3.93,4.08h0c-.05,2-2.93,4.23-5.8,4.53h0a7.57,7.57,0,0,0-5.38,3.2h0c-1.27,2.16-4.76,3.7-7.05,3.11h0a7.2,7.2,0,0,0-5.91,1.77h0c-2.26,2-5.76,2.52-7.06,1.13h0c-1-1-3.28-1-5.42.05h0c-2.86,1.42-5.77.91-5.87-1h0c-.07-1.46-1.76-2.18-4-1.7h0c-3,.64-4.78-.86-3.65-3h0c.85-1.62.05-3-1.87-3.14h0c-2.56-.26-3-2.48-.8-4.49h0c1.62-1.5,1.86-3.21.58-4h0c-1.72-1.11-.64-3.68,2.18-5.18h0C261.58,272,262.82,270.2,262.4,268.87Z" style="fill:#fafafa"></path><path d="M292.76,255.36a51.59,51.59,0,0,0-7.94,2.22c-.9.33-.17.69.48.5,8.34-2.52,17.42-2.68,22.52.43a7.22,7.22,0,0,1,3.81,6.25c0,2.71-1.42,5.77-3.35,8.61-3.53,5.19-10.47,10.28-18.59,12.69-8.38,2.48-15.89,1.8-19.75-2s-3-9.75,3.16-14.93a33,33,0,0,1,12.25-6.29c3.89-1,7.55-1.19,10.4-.24a8.86,8.86,0,0,1,5.73,4.85,5.29,5.29,0,0,1,0,3.94,13.14,13.14,0,0,1-3.92,4.9c-3,2.43-6.65,4.71-11,5.31-3.83.53-7.23-.39-8.81-2.21s-1.63-4.77.81-7.38a15.45,15.45,0,0,1,9.84-4.27c4.06-.15,6.44,2.13,4,5a11,11,0,0,1-5.43,3.14c-1.77.43-3.45.25-3.84-.79s.63-2.36,2.37-2.91c.82-.26.29-.72-.34-.55a5.73,5.73,0,0,0-3.94,3c-.5,1.34.5,2.31,2.15,2.59,4.1.71,9.07-2.12,11.23-5,2.36-3.13-.25-5.42-4.55-5.79a16,16,0,0,0-11.89,3.87c-3.21,2.74-4.36,5.95-3.55,8.42s4,4.2,8.21,4.31a24.22,24.22,0,0,0,13.95-4.5c4.21-2.94,7.36-6.45,7.28-9.9-.14-5.5-7.34-9.4-16.37-7.9-10.2,1.7-19.69,9-22,15.52s2.52,12.06,11.51,12.83,19.69-3.07,26.79-9a32.44,32.44,0,0,0,7.66-9c1.88-3.38,3-6.95,1.87-9.84C311.41,255.84,302.53,253.49,292.76,255.36Z" style="fill:#9DA2AD"></path></g><g id="freepik--Egg--inject-97"><path d="M176.37,213.66a39.59,39.59,0,0,1-71.7-12.93c-.15-.65-.28-1.32-.4-2s-.22-1.33-.29-2c-.36-2.35-.58-4.66-.72-7a78.78,78.78,0,0,1,.95-17.76A77.66,77.66,0,0,1,108,157.71a79.25,79.25,0,0,1,5.68-12.17c1.19-2,2.45-4,3.8-5.95a23.43,23.43,0,0,1,15-9.52l1.17-.16.54-.06a23.14,23.14,0,0,1,15.62,4.1c1.31.93,2.58,1.9,3.83,2.9a79,79,0,0,1,26.21,38.36,81.38,81.38,0,0,1,2,7.93c.15.66.29,1.32.41,2s.21,1.35.29,2a34.75,34.75,0,0,1,.28,4.53,36.56,36.56,0,0,1-.24,4.69h0A39.48,39.48,0,0,1,176.37,213.66Z" style="fill:#9DA2AD"></path><path d="M176.37,213.66a39.59,39.59,0,0,1-71.7-12.93c-.15-.65-.28-1.32-.4-2s-.22-1.33-.29-2c-.36-2.35-.58-4.66-.72-7a78.78,78.78,0,0,1,.95-17.76A77.66,77.66,0,0,1,108,157.71a79.25,79.25,0,0,1,5.68-12.17c1.19-2,2.45-4,3.8-5.95a23.43,23.43,0,0,1,15-9.52l1.17-.16.54-.06a23.14,23.14,0,0,1,15.62,4.1c1.31.93,2.58,1.9,3.83,2.9a79,79,0,0,1,26.21,38.36,81.38,81.38,0,0,1,2,7.93c.15.66.29,1.32.41,2s.21,1.35.29,2a34.75,34.75,0,0,1,.28,4.53,36.56,36.56,0,0,1-.24,4.69h0A39.48,39.48,0,0,1,176.37,213.66Z" style="fill:#fff;opacity:0.5"></path><path d="M176.37,213.66c-2.94,4.48-8.17,10.35-14.1,12-15.81,4.29-31.68-4.57-40.06-17.5a39.52,39.52,0,0,1-5.35-12.71c-.16-.65-.29-1.32-.41-2s-.22-1.33-.29-2c-.35-2.34-.57-4.67-.71-7a78.82,78.82,0,0,1,1-17.76,77.63,77.63,0,0,1,3.8-14.26,78.86,78.86,0,0,1,5.69-12.17,31.75,31.75,0,0,1,4.5-6c6.27-6.38,15-3.38,19.44-.28,1.31.93,2.58,1.9,3.83,2.9a79,79,0,0,1,26.21,38.36,81.38,81.38,0,0,1,2,7.93c.15.66.29,1.32.41,2s.21,1.35.29,2a34.75,34.75,0,0,1,.28,4.53,36.56,36.56,0,0,1-.24,4.69h0A39.48,39.48,0,0,1,176.37,213.66Z" style="fill:#fafafa"></path><path d="M175.1,185.27a23.14,23.14,0,0,0-27.26-18.1h0c-3.36.67-6.27,4-8.73,8.55-5.93,11.12-2.18,25.9,5.52,32.17,4,3.3,9,5.32,12.36,4.65h0A23.15,23.15,0,0,0,175.1,185.27Z" style="fill:#9DA2AD"></path><path d="M173,200.33c-6.4,7.76-18.27,6.11-27.16-2.78-7.56-7.57-8-19.14-4.19-25.88a29.73,29.73,0,0,0-2.58,4.05c-5.93,11.12-2.18,25.9,5.52,32.17,4,3.3,9,5.32,12.36,4.65h0A23.1,23.1,0,0,0,173,200.33Z" style="opacity:0.1"></path><path d="M155.44,169.44c-3.09,0-3.81,1.9-3.7,2.87.24,2.07,2.38,2.53,7.54,3.47s9.37,6.38,10.39,5c.43-.58.54-1.09.06-2.36a11.86,11.86,0,0,0-3.29-4.31C162.93,171.06,158.78,169.41,155.44,169.44Z" style="fill:#fff;opacity:0.2"></path><path d="M150.08,230.94A39.56,39.56,0,0,0,165,225c.72-.47,1.41-1,2.09-1.49-4.71,3.3-18.4,9.67-37.27.8-21.13-9.94-26.44-32.43-26-50.37a78.63,78.63,0,0,0-.64,15.76c.14,2.33.36,4.64.72,7,.07.68.18,1.34.29,2s.25,1.35.4,2a39.59,39.59,0,0,0,45.41,30.21Z" style="fill:#9DA2AD;opacity:0.30000000000000004"></path></g><g id="freepik--egg--inject-97"><path d="M138.91,243.69A39.57,39.57,0,0,1,67.73,259.2c-.39-.54-.77-1.1-1.14-1.69s-.71-1.14-1-1.74c-1.23-2-2.32-4.09-3.34-6.19a78.45,78.45,0,0,1-7.86-31.4,79.13,79.13,0,0,1,.58-13.42q.48-3.49,1.24-6.95a23.39,23.39,0,0,1,2.57-6.56,23.12,23.12,0,0,1,7.63-8q.51-.32,1-.6l.49-.26a23.13,23.13,0,0,1,16-2.19c1.57.35,3.11.77,4.65,1.21a80.25,80.25,0,0,1,15.41,6.24,79.39,79.39,0,0,1,23.49,19.16c1.72,2.08,3.36,4.26,4.9,6.55.39.56.77,1.11,1.13,1.69s.72,1.16,1,1.75a34.17,34.17,0,0,1,2,4.08,39.45,39.45,0,0,1,1.58,4.42h0A39.25,39.25,0,0,1,138.91,243.69Z" style="fill:#9DA2AD"></path><path d="M138.91,243.69A39.57,39.57,0,0,1,67.73,259.2c-.39-.54-.77-1.1-1.14-1.69s-.71-1.14-1-1.74c-1.23-2-2.32-4.09-3.34-6.19a78.45,78.45,0,0,1-7.86-31.4,79.13,79.13,0,0,1,.58-13.42q.48-3.49,1.24-6.95a23.39,23.39,0,0,1,2.57-6.56,23.12,23.12,0,0,1,7.63-8q.51-.32,1-.6l.49-.26a23.13,23.13,0,0,1,16-2.19c1.57.35,3.11.77,4.65,1.21a80.25,80.25,0,0,1,15.41,6.24,79.39,79.39,0,0,1,23.49,19.16c1.72,2.08,3.36,4.26,4.9,6.55.39.56.77,1.11,1.13,1.69s.72,1.16,1,1.75a34.17,34.17,0,0,1,2,4.08,39.45,39.45,0,0,1,1.58,4.42h0A39.25,39.25,0,0,1,138.91,243.69Z" style="fill:#fff;opacity:0.5"></path><path d="M138.91,243.69c-1,5.27-3.59,12.69-8.45,16.45-13,10-31,7.91-43.7-.83a39.28,39.28,0,0,1-9.81-9.7c-.4-.54-.77-1.1-1.15-1.69s-.71-1.14-1-1.74c-1.22-2-2.31-4.1-3.34-6.19a78.76,78.76,0,0,1-5.91-16.76,77.55,77.55,0,0,1-2-14.64,80.13,80.13,0,0,1,.59-13.42A32.34,32.34,0,0,1,66,187.92c3.35-8.28,12.59-8.86,17.85-7.69,1.57.35,3.11.77,4.65,1.21a80.25,80.25,0,0,1,15.41,6.24,79.39,79.39,0,0,1,23.49,19.16c1.72,2.08,3.36,4.26,4.9,6.55.39.56.77,1.11,1.13,1.69s.72,1.16,1,1.75a34.17,34.17,0,0,1,2,4.08,39.45,39.45,0,0,1,1.58,4.42h0A39.25,39.25,0,0,1,138.91,243.69Z" style="fill:#fafafa"></path><path d="M126.87,218a23.15,23.15,0,0,0-32.12-6.29h0c-2.84,1.91-4.28,6.05-4.78,11.24-1.23,12.55,7.9,24.77,17.41,27.62,5,1.49,10.36,1.46,13.2-.45h0A23.14,23.14,0,0,0,126.87,218Z" style="fill:#9DA2AD"></path><path d="M130.73,232.65c-2.94,9.63-14.54,12.65-26.15,7.84-9.88-4.1-14.68-14.63-13.78-22.31a28.15,28.15,0,0,0-.83,4.73c-1.23,12.55,7.9,24.77,17.41,27.62,5,1.49,10.36,1.46,13.2-.45h0A23.09,23.09,0,0,0,130.73,232.65Z" style="opacity:0.1"></path><path d="M102.65,210.87c-2.85,1.21-2.8,3.21-2.33,4.06,1,1.82,3.18,1.43,8.3.32s11.1,2.3,11.52.66c.18-.7.08-1.21-.85-2.2A11.63,11.63,0,0,0,114.6,211C110.18,209.49,105.72,209.56,102.65,210.87Z" style="fill:#fff;opacity:0.2"></path><path d="M121.24,269.73a39.48,39.48,0,0,0,11.56-11.19c.48-.71.93-1.44,1.36-2.18-3.09,4.85-13.3,16-34.13,15-23.32-1.09-36.84-19.84-43.26-36.59a78.28,78.28,0,0,0,5.44,14.8c1,2.1,2.11,4.16,3.34,6.19.33.6.68,1.17,1,1.74s.75,1.15,1.14,1.69a39.55,39.55,0,0,0,53.51,10.53Z" style="fill:#9DA2AD;opacity:0.30000000000000004"></path></g><g id="freepik--noodles--inject-97"><path d="M242.55,337.26c-41.07,2-87.24-11.83-130-38.92-1.26-.79-2.5-1.6-3.74-2.41,17.63-24.24,45.71-45.85,82.26-47.59,45.56-2.15,86.39,37.86,98.44,77.87C276.13,332.63,260.31,336.4,242.55,337.26Z" style="fill:#9DA2AD"></path><path d="M242.55,337.26c-41.07,2-87.24-11.83-130-38.92-1.26-.79-2.5-1.6-3.74-2.41,17.63-24.24,45.71-45.85,82.26-47.59,45.56-2.15,86.39,37.86,98.44,77.87C276.13,332.63,260.31,336.4,242.55,337.26Z" style="fill:#fff;opacity:0.4"></path><path d="M242.55,337.26c17.76-.86,33.58-4.63,47-11.05a110.83,110.83,0,0,0-12.8-27.42c-43.06-11.9-76.22,16.41-76.22,16.41s-7.65-17.33-18.2-28.63c-10.41-11.15-27.06-24.82-18.34-33-23.52,8.12-42.17,24.53-55.14,42.37,1.24.81,2.48,1.62,3.74,2.41C155.31,325.43,201.48,339.26,242.55,337.26Z" style="fill:#9DA2AD;opacity:0.30000000000000004"></path><g style="opacity:0.30000000000000004"><path d="M199.76,298.28c22.15,2.58,40.65,22.78,47.64,38.66l-1.2.1c-7-15.53-25.07-35-46.64-37.51-22.76-2.65-37.94,7.88-48.29,19.34l-1.07-.47C160.73,306.58,176.28,295.55,199.76,298.28Z" style="fill:#9DA2AD"></path><path d="M197.89,310.84c16.6,1.64,30.51,14.74,37.24,26.61h-1.37c-6.89-11.53-20.64-23.83-36-25.36s-26.3,4.27-34.3,11.66l-1.19-.44C170.44,315.49,181.83,309.25,197.89,310.84Z" style="fill:#9DA2AD"></path><path d="M196,323.39c9.47.67,18.73,6.45,25,13.5-.59,0-1.18-.08-1.78-.14-5.8-6.21-14.13-11.46-23.34-12.11a32.2,32.2,0,0,0-18.33,3.87L176,328A33.13,33.13,0,0,1,196,323.39Z" style="fill:#9DA2AD"></path><path d="M201.62,285.73c27.23,3.5,50.07,30.41,57.31,49.83l-1.15.18c-7.27-19.11-29.67-45.35-56.37-48.77-29.94-3.84-49,11.63-61.5,26.67l-1-.5C151.54,297.77,171,281.8,201.62,285.73Z" style="fill:#9DA2AD"></path><path d="M205.34,260.62c36.49,5.23,66.5,42.74,75.35,69.3l-1.07.39c-7.73-22.57-35.68-62.88-74.5-68.45C161.53,255.6,135,280.67,118.48,302l-1-.57C134.24,279.82,161.08,254.27,205.34,260.62Z" style="fill:#9DA2AD"></path><path d="M203.48,273.18c32.3,4.42,58.66,36.84,66.51,60.06l-1.1.28c-7.85-22.92-33.82-54.75-65.62-59.11C166.38,269.36,143.53,289.73,129,308l-1-.54C142.72,288.89,165.91,268,203.48,273.18Z" style="fill:#9DA2AD"></path></g><path d="M200.51,360.84c-1.47,0-2.95-.07-4.41-.13q-10.08-.37-19.89-1.44c-37-10.79-69.34-28.7-91.81-50.87-13.33-13.14-22.21-26.86-26.32-40.3,31.33-14.07,71.41-15.33,100,6.31C187.47,296.69,199,330.65,200.51,360.84Z" style="fill:#9DA2AD"></path><path d="M200.51,360.84c-1.47,0-2.95-.07-4.41-.13q-10.08-.37-19.89-1.44c-37-10.79-69.34-28.7-91.81-50.87-13.33-13.14-22.21-26.86-26.32-40.3,31.33-14.07,71.41-15.33,100,6.31C187.47,296.69,199,330.65,200.51,360.84Z" style="fill:#fff;opacity:0.7000000000000001"></path><path d="M101.82,257.86A117.31,117.31,0,0,0,58.08,268.1c4.11,13.44,13,27.16,26.32,40.3,22.47,22.17,54.85,40.08,91.81,50.87q9.81,1.07,19.89,1.44c1.46.06,2.94.1,4.41.13a130.87,130.87,0,0,0-8-39.51c-9.71,8.27-20.07,20-24.12,30-8-1-52.65-20.29-66.82-39.38C87.78,293.4,86.81,261.15,101.82,257.86Z" style="fill:#9DA2AD;opacity:0.30000000000000004"></path><g style="opacity:0.30000000000000004"><path d="M134.26,288c-20.66-10.42-46.44-7.53-66.54.28.21.34.44.67.67,1,19.81-7.61,45.09-10.37,65.37-.14,33.39,16.83,41.3,46.78,43.42,70.26l1.1.11C176.18,335.67,168.27,305.12,134.26,288Z" style="fill:#9DA2AD"></path><path d="M139.54,276.48c-24-11.9-54.29-7.86-77.49,1.73.19.39.39.79.59,1.18,21.93-9.05,51.61-14.07,76.41-1.76,39.61,19.66,48,55.6,50.15,82.73l1.1.07C188.16,333,179.76,296.44,139.54,276.48Z" style="fill:#9DA2AD"></path><path d="M123.7,311c-12.35-6.54-27.24-6.59-40.2-3.46l.9.91.09.09c12.55-2.87,26.81-2.7,38.7,3.6,18.24,9.66,25.66,24.66,28.7,38.77l1.24.49C150.16,336.72,142.69,321,123.7,311Z" style="fill:#9DA2AD"></path><path d="M118.42,322.44c-7.38-4.07-15.77-5.35-23.82-4.85l1.57,1.27c7.49-.24,15.13,1.07,21.73,4.71a43.17,43.17,0,0,1,19.34,20.89l1.55.72A44.11,44.11,0,0,0,118.42,322.44Z" style="fill:#9DA2AD"></path><path d="M129,299.46c-16.58-8.54-37.29-7-54.1-1.46l.82,1c16.46-5.34,36.61-6.7,52.77,1.62,26,13.37,33.83,35.88,36.33,55L166,356C163.52,336.44,155.67,313.2,129,299.46Z" style="fill:#9DA2AD"></path></g><path d="M345.69,334.28c-10,13.16-26.8,23.34-49.08,29.47-32.53,8.95-72.55,8.12-112.7-2.36q-5.5-1.42-10.87-3.07c14-26.47,38.27-52.19,73.58-61.32C284.23,287.28,323.16,306.61,345.69,334.28Z" style="fill:#9DA2AD"></path><path d="M345.69,334.28c-10,13.16-26.8,23.34-49.08,29.47-32.53,8.95-72.55,8.12-112.7-2.36q-5.5-1.42-10.87-3.07c14-26.47,38.27-52.19,73.58-61.32C284.23,287.28,323.16,306.61,345.69,334.28Z" style="fill:#fff;opacity:0.5"></path><path d="M310.89,305.86c11.3,5.69,13.58,28.67-6.73,43.79s-61.63,17.16-88.55,13.09-40.31-8.41-40.36-8.43c-.76,1.34-1.5,2.67-2.21,4q5.37,1.64,10.87,3.07c40.15,10.48,80.17,11.31,112.7,2.36,22.28-6.13,39.07-16.31,49.08-29.47A113.45,113.45,0,0,0,310.89,305.86Z" style="fill:#9DA2AD;opacity:0.30000000000000004"></path><g style="opacity:0.4"><path d="M263.12,343.56c-20.84,2-34,12.88-42.76,24.71l1.27.14c8.61-11.36,21.42-21.69,41.49-23.61,16.23-1.56,32,6.3,42.92,16l1.28-.46C296.19,350.24,279.9,342,263.12,343.56Z" style="fill:#9DA2AD"></path><path d="M271.08,368.61a30.38,30.38,0,0,0-7.74.05,39.59,39.59,0,0,0-4.78,1C262.8,369.41,267,369.08,271.08,368.61Z" style="fill:#9DA2AD"></path><path d="M263.23,356.11a46.29,46.29,0,0,0-28.31,13.42l1.53.08a45.23,45.23,0,0,1,26.8-12.26c10.22-1.15,20.46,2.32,28.75,7.58l1.77-.43C285.26,358.76,274.44,354.84,263.23,356.11Z" style="fill:#9DA2AD"></path><path d="M262.77,305.9c-43.53,3-66.26,31.34-79.74,55.25l.88.24.19.05c13.37-23.57,35.84-51.31,78.65-54.3,31-2.15,58.63,17.63,74.63,36l1-.89C321.31,322.52,292.49,303.83,262.77,305.9Z" style="fill:#9DA2AD"></path><path d="M262.89,318.45C226.67,321.2,206.94,343.75,195,364l1.12.24c11.85-19.91,31.31-41.88,66.78-44.57,25.74-2,50.5,13.61,65.36,30.39l1-.66C314.22,332.37,289.05,316.47,262.89,318.45Z" style="fill:#9DA2AD"></path><path d="M263,331c-28.66,2.42-45.24,19.11-55.67,35.41l1.17.19c10.3-15.89,26.59-32,54.49-34.35,21.09-1.78,41.75,10.28,54.75,23.7l1.13-.55C305.7,341.65,284.57,329.19,263,331Z" style="fill:#9DA2AD"></path></g></g><g id="freepik--pepper--inject-97"><path d="M281.76,353.63a1.8,1.8,0,0,1-3.59-.28,1.8,1.8,0,1,1,3.59.28Z" style="fill:#455a64"></path><path d="M88.33,268.06A1.91,1.91,0,1,1,86.58,266,1.9,1.9,0,0,1,88.33,268.06Z" style="fill:#455a64"></path><path d="M136.36,328a2.6,2.6,0,1,1-2.39-2.8A2.6,2.6,0,0,1,136.36,328Z" style="fill:#455a64"></path><path d="M179.91,301.78a1.84,1.84,0,1,1-1.69-2A1.84,1.84,0,0,1,179.91,301.78Z" style="fill:#455a64"></path><path d="M304.15,315.4a2.6,2.6,0,1,1-2.39-2.8A2.61,2.61,0,0,1,304.15,315.4Z" style="fill:#455a64"></path><path d="M218.21,339.1a2.6,2.6,0,1,1-2.39-2.79A2.61,2.61,0,0,1,218.21,339.1Z" style="fill:#455a64"></path><path d="M169.51,263.82a2.6,2.6,0,1,1-2.39-2.8A2.61,2.61,0,0,1,169.51,263.82Z" style="fill:#455a64"></path></g><g id="freepik--chives--inject-97"><path d="M260.29,302.52A15.61,15.61,0,0,0,248,306.76c-1.39,1.48-1.83,2.94-1.43,4.11l1,2.9c.4,1.17,1.65,2,3.65,2.35a15.69,15.69,0,0,0,12.28-4.25c1.38-1.48,1.83-2.94,1.42-4.1l-1-2.91C263.54,303.69,262.29,302.82,260.29,302.52Zm2.23,6.44a15.59,15.59,0,0,1-12.27,4.25,5.64,5.64,0,0,1-2.7-1,5.58,5.58,0,0,1,1.47-2.49,15.65,15.65,0,0,1,12.28-4.25,5.73,5.73,0,0,1,2.7,1.05A5.71,5.71,0,0,1,262.52,309Z" style="fill:#9DA2AD"></path><path d="M260.29,302.52A15.61,15.61,0,0,0,248,306.76c-1.39,1.48-1.83,2.94-1.43,4.11l1,2.9c.4,1.17,1.65,2,3.65,2.35a15.69,15.69,0,0,0,12.28-4.25c1.38-1.48,1.83-2.94,1.42-4.1l-1-2.91C263.54,303.69,262.29,302.82,260.29,302.52Zm2.23,6.44a15.59,15.59,0,0,1-12.27,4.25,5.64,5.64,0,0,1-2.7-1,5.58,5.58,0,0,1,1.47-2.49,15.65,15.65,0,0,1,12.28-4.25,5.73,5.73,0,0,1,2.7,1.05A5.71,5.71,0,0,1,262.52,309Z" style="opacity:0.30000000000000004"></path><path d="M264,304.86a2.82,2.82,0,0,1,.05,1.61,5.73,5.73,0,0,0-2.7-1.05A15.65,15.65,0,0,0,249,309.67a5.58,5.58,0,0,0-1.47,2.49,2.76,2.76,0,0,1-1-1.29c-.4-1.17,0-2.63,1.43-4.11a15.61,15.61,0,0,1,12.27-4.24C262.29,302.82,263.54,303.69,264,304.86Z" style="opacity:0.30000000000000004"></path><path d="M301.79,335.55a15.59,15.59,0,0,0-11.61-5.82c-2,0-3.38.74-3.93,1.84l-1.38,2.75c-.55,1.1-.3,2.61.88,4.25a15.59,15.59,0,0,0,11.61,5.82c2,0,3.38-.74,3.93-1.84l1.38-2.75C303.22,338.7,303,337.19,301.79,335.55Zm-3.05,6.09a15.61,15.61,0,0,1-11.61-5.81,5.64,5.64,0,0,1-1.14-2.67,5.61,5.61,0,0,1,2.82-.68,15.63,15.63,0,0,1,11.61,5.81,5.71,5.71,0,0,1,1.13,2.67A5.6,5.6,0,0,1,298.74,341.64Z" style="fill:#9DA2AD"></path><path d="M301.79,335.55a15.59,15.59,0,0,0-11.61-5.82c-2,0-3.38.74-3.93,1.84l-1.38,2.75c-.55,1.1-.3,2.61.88,4.25a15.59,15.59,0,0,0,11.61,5.82c2,0,3.38-.74,3.93-1.84l1.38-2.75C303.22,338.7,303,337.19,301.79,335.55Zm-3.05,6.09a15.61,15.61,0,0,1-11.61-5.81,5.64,5.64,0,0,1-1.14-2.67,5.61,5.61,0,0,1,2.82-.68,15.63,15.63,0,0,1,11.61,5.81,5.71,5.71,0,0,1,1.13,2.67A5.6,5.6,0,0,1,298.74,341.64Z" style="opacity:0.30000000000000004"></path><path d="M302.67,339.8a2.83,2.83,0,0,1-1.12,1.16,5.71,5.71,0,0,0-1.13-2.67,15.63,15.63,0,0,0-11.61-5.81,5.61,5.61,0,0,0-2.82.68,2.89,2.89,0,0,1,.26-1.59c.55-1.1,1.91-1.8,3.93-1.84a15.59,15.59,0,0,1,11.61,5.82C303,337.19,303.22,338.7,302.67,339.8Z" style="opacity:0.30000000000000004"></path><path d="M241.79,344a15.61,15.61,0,0,0-11.59,5.88c-1.17,1.65-1.41,3.15-.85,4.25l1.39,2.75c.56,1.1,1.91,1.79,3.94,1.82a15.63,15.63,0,0,0,11.58-5.87c1.17-1.65,1.41-3.16.86-4.26l-1.39-2.74C245.17,344.73,243.81,344,241.79,344Zm3.08,6.09A15.63,15.63,0,0,1,233.29,356a5.78,5.78,0,0,1-2.82-.67,5.75,5.75,0,0,1,1.12-2.67,15.63,15.63,0,0,1,11.59-5.87,5.57,5.57,0,0,1,2.82.67A5.75,5.75,0,0,1,244.87,350.09Z" style="fill:#9DA2AD"></path><path d="M241.79,344a15.61,15.61,0,0,0-11.59,5.88c-1.17,1.65-1.41,3.15-.85,4.25l1.39,2.75c.56,1.1,1.91,1.79,3.94,1.82a15.63,15.63,0,0,0,11.58-5.87c1.17-1.65,1.41-3.16.86-4.26l-1.39-2.74C245.17,344.73,243.81,344,241.79,344Zm3.08,6.09A15.63,15.63,0,0,1,233.29,356a5.78,5.78,0,0,1-2.82-.67,5.75,5.75,0,0,1,1.12-2.67,15.63,15.63,0,0,1,11.59-5.87,5.57,5.57,0,0,1,2.82.67A5.75,5.75,0,0,1,244.87,350.09Z" style="opacity:0.30000000000000004"></path><path d="M245.73,345.83a3,3,0,0,1,.27,1.59,5.57,5.57,0,0,0-2.82-.67,15.63,15.63,0,0,0-11.59,5.87,5.75,5.75,0,0,0-1.12,2.67,2.77,2.77,0,0,1-1.12-1.16c-.56-1.1-.32-2.6.85-4.25A15.61,15.61,0,0,1,241.79,344C243.81,344,245.17,344.73,245.73,345.83Z" style="opacity:0.30000000000000004"></path><path d="M128.5,285.29a15.63,15.63,0,0,0-9.85-8.46c-2-.45-3.46-.1-4.26.84l-2,2.33c-.81.93-.93,2.46-.19,4.34a15.68,15.68,0,0,0,9.86,8.46c2,.45,3.45.1,4.26-.83l2-2.34C129.12,288.7,129.25,287.18,128.5,285.29Zm-4.44,5.18a15.63,15.63,0,0,1-9.85-8.46,5.8,5.8,0,0,1-.46-2.87,5.79,5.79,0,0,1,2.9,0,15.62,15.62,0,0,1,9.85,8.47,5.77,5.77,0,0,1,.46,2.86A5.79,5.79,0,0,1,124.06,290.47Z" style="fill:#9DA2AD"></path><path d="M128.5,285.29a15.63,15.63,0,0,0-9.85-8.46c-2-.45-3.46-.1-4.26.84l-2,2.33c-.81.93-.93,2.46-.19,4.34a15.68,15.68,0,0,0,9.86,8.46c2,.45,3.45.1,4.26-.83l2-2.34C129.12,288.7,129.25,287.18,128.5,285.29Zm-4.44,5.18a15.63,15.63,0,0,1-9.85-8.46,5.8,5.8,0,0,1-.46-2.87,5.79,5.79,0,0,1,2.9,0,15.62,15.62,0,0,1,9.85,8.47,5.77,5.77,0,0,1,.46,2.86A5.79,5.79,0,0,1,124.06,290.47Z" style="opacity:0.30000000000000004"></path><path d="M128.32,289.63a2.82,2.82,0,0,1-1.36.86,5.77,5.77,0,0,0-.46-2.86,15.62,15.62,0,0,0-9.85-8.47,5.79,5.79,0,0,0-2.9,0,2.78,2.78,0,0,1,.64-1.47c.8-.94,2.29-1.29,4.26-.84a15.63,15.63,0,0,1,9.85,8.46C129.25,287.18,129.12,288.7,128.32,289.63Z" style="opacity:0.30000000000000004"></path><path d="M167.23,318.61a15.58,15.58,0,0,0-12.41,3.82c-1.44,1.43-1.94,2.87-1.57,4.05l.9,2.94c.36,1.18,1.59,2.1,3.58,2.47a15.67,15.67,0,0,0,12.41-3.82c1.43-1.43,1.93-2.88,1.56-4.05l-.9-2.94C170.44,319.9,169.22,319,167.23,318.61Zm2,6.52A15.66,15.66,0,0,1,156.82,329a5.7,5.7,0,0,1-2.66-1.14,5.63,5.63,0,0,1,1.56-2.44,15.59,15.59,0,0,1,12.41-3.82,5.64,5.64,0,0,1,2.67,1.14A5.81,5.81,0,0,1,169.23,325.13Z" style="fill:#9DA2AD"></path><path d="M167.23,318.61a15.58,15.58,0,0,0-12.41,3.82c-1.44,1.43-1.94,2.87-1.57,4.05l.9,2.94c.36,1.18,1.59,2.1,3.58,2.47a15.67,15.67,0,0,0,12.41-3.82c1.43-1.43,1.93-2.88,1.56-4.05l-.9-2.94C170.44,319.9,169.22,319,167.23,318.61Zm2,6.52A15.66,15.66,0,0,1,156.82,329a5.7,5.7,0,0,1-2.66-1.14,5.63,5.63,0,0,1,1.56-2.44,15.59,15.59,0,0,1,12.41-3.82,5.64,5.64,0,0,1,2.67,1.14A5.81,5.81,0,0,1,169.23,325.13Z" style="opacity:0.30000000000000004"></path><path d="M170.8,321.08a2.93,2.93,0,0,1,0,1.61,5.64,5.64,0,0,0-2.67-1.14,15.59,15.59,0,0,0-12.41,3.82,5.63,5.63,0,0,0-1.56,2.44,2.8,2.8,0,0,1-.91-1.33c-.37-1.18.13-2.62,1.57-4.05a15.58,15.58,0,0,1,12.41-3.82C169.22,319,170.44,319.9,170.8,321.08Z" style="opacity:0.30000000000000004"></path></g><g id="freepik--Mushroom--inject-97"><path d="M252.11,230c.57,3.5-4.39,12.68-5.93,15.17s3.57,5.49,8.39,6.79,10.73,1.29,10.66-1.63.27-13.36,2.52-16.09Z" style="fill:#e0e0e0"></path><path d="M252.11,230c.57,3.5-4.39,12.68-5.93,15.17s3.57,5.49,8.39,6.79,10.73,1.29,10.66-1.63.27-13.36,2.52-16.09Z" style="opacity:0.05"></path><path d="M295.91,229.28l0,.17c-.15.53-.31,1.05-.5,1.58-.06.16-.11.31-.17.46s-.16.41-.25.6c-2.67,6.12-7.53,6.17-13.24,4.19-3.58,2.88-12.83,3.26-23,.6S240.58,229.3,238.93,225c-6.65-1.06-10.87-3.61-9-12a.72.72,0,0,1,0-.19c.06-.27.12-.55.2-.82a18.4,18.4,0,0,1,2.69-5.88c.18-.27.38-.54.57-.8a20,20,0,0,1,1.87-2.15c.26-.26.53-.52.8-.76a24.32,24.32,0,0,1,4.48-3.24l.75-.41a28.39,28.39,0,0,1,3.06-1.41l0,0c7.07-2.78,15.95-3.32,25-1,14,3.65,24.23,13.2,26.61,23.5.08.35.16.7.22,1s.12.69.16,1a21,21,0,0,1,.17,2.5,7,7,0,0,1,0,.79,5.63,5.63,0,0,1,0,.58c0,.19,0,.39-.05.58s0,.36-.06.55c0,.34-.1.68-.17,1S296,228.87,295.91,229.28Z" style="fill:#f5f5f5"></path><path d="M295.91,229.28l0,.17c-.15.53-.31,1.05-.5,1.58-.06.16-.11.31-.17.46s-.16.41-.25.6c-2.67,6.12-7.53,6.17-13.24,4.19-3.58,2.88-12.83,3.26-23,.6S240.58,229.3,238.93,225c-6.65-1.06-10.87-3.61-9-12a.72.72,0,0,1,0-.19c.06-.27.12-.55.2-.82a18.4,18.4,0,0,1,2.69-5.88c.18-.27.38-.54.57-.8a20,20,0,0,1,1.87-2.15c.26-.26.53-.52.8-.76a24.32,24.32,0,0,1,4.48-3.24l.75-.41a28.39,28.39,0,0,1,3.06-1.41c-3.78,3.15-6,7.21-4,12.22,1.46,3.69,5.53,5.06,9,5.94,3,.75,6.22.9,9.27,1.49,4.27.84,8.39,4.52,12,6.73,9.45,5.7,22.51,3.15,22.41-9.58,0-.43-.06-.86-.09-1.29a24.29,24.29,0,0,1,2.92,7c.08.35.16.7.22,1s.12.69.16,1a21,21,0,0,1,.17,2.5,7,7,0,0,1,0,.79,5.63,5.63,0,0,1,0,.58c0,.19,0,.39-.05.58s0,.36-.06.55c0,.34-.1.68-.17,1S296,228.87,295.91,229.28Z" style="opacity:0.05"></path><path d="M254.75,227.38c-.63,2.05-3.08,7.22-3.43,7a20.47,20.47,0,0,0,.37-4.44c-.55-5.38-3.3-5.76-7.94-6.3a3.33,3.33,0,0,1-2.79-1.56c-1.27-2.39,1.78-6.63,5.2-6.8s9.41,2.08,9.84,5.75C256.25,223.22,255.36,225.37,254.75,227.38Z" style="fill:#e0e0e0"></path><path d="M254.75,227.38c-.63,2.05-3.08,7.22-3.43,7a20.47,20.47,0,0,0,.37-4.44c-.55-5.38-3.3-5.76-7.94-6.3a3.33,3.33,0,0,1-2.79-1.56c-1.27-2.39,1.78-6.63,5.2-6.8s9.41,2.08,9.84,5.75C256.25,223.22,255.36,225.37,254.75,227.38Z" style="opacity:0.1"></path><path d="M268.48,224.45c-1.3,1.73-1.61,4-2.1,6.08s-.56,7.78-.18,7.8a12.56,12.56,0,0,1,1.52-4c3.18-4.37,5.75-3.3,10-1.44,5.56,2.43,5.94-5.94,2.14-8.43C277.08,222.6,270.7,221.5,268.48,224.45Z" style="fill:#e0e0e0"></path><path d="M268.48,224.45c-1.3,1.73-1.61,4-2.1,6.08s-.56,7.78-.18,7.8a12.56,12.56,0,0,1,1.52-4c3.18-4.37,5.75-3.3,10-1.44,5.56,2.43,5.94-5.94,2.14-8.43C277.08,222.6,270.7,221.5,268.48,224.45Z" style="opacity:0.1"></path><path d="M254.75,227.38a13.55,13.55,0,0,0-.71-5.88c-1.1-2.56-7.07-3.84-9.17-2.48s-2.76,4.19-3.9,3.1h0c-1.27-2.39,1.78-6.63,5.2-6.8s9.41,2.08,9.84,5.75C256.25,223.22,255.36,225.37,254.75,227.38Z" style="opacity:0.1"></path><path d="M266.37,230.53A13.52,13.52,0,0,1,270,225.8c2.24-1.65,8.05.25,9.17,2.48s.27,5,1.81,4.66h0c2.3-1.43,1.8-6.62-1.07-8.5s-9.17-2.95-11.4,0C267.18,226.18,266.86,228.48,266.37,230.53Z" style="opacity:0.1"></path><path d="M210.91,275.4c2.58,2.93,3.35,14.43,3.38,17.66s6.57,3,11.83,1.41,10.79-5.11,9-7.8S227.52,274,228,270.15Z" style="fill:#e0e0e0"></path><path d="M210.91,275.4c2.58,2.93,3.35,14.43,3.38,17.66s6.57,3,11.83,1.41,10.79-5.11,9-7.8S227.52,274,228,270.15Z" style="opacity:0.05"></path><path d="M251.44,249l.06.19c.18.58.33,1.17.47,1.77,0,.18.08.35.11.53s.09.47.12.71c1.1,7.29-3.41,10.2-9.9,11.7-1.66,4.81-10.08,10.61-21.15,14.11s-21.4,3.58-25.46.55c-6.84,2.93-12.29,3-15.5-5.85a1.18,1.18,0,0,1-.07-.2c-.1-.29-.21-.59-.3-.89a20.38,20.38,0,0,1-.94-7.08c0-.35,0-.72.07-1.08a20.7,20.7,0,0,1,.48-3.11c.08-.39.18-.79.29-1.18a27.28,27.28,0,0,1,2.29-5.67c.14-.27.29-.55.46-.82a27.71,27.71,0,0,1,2-3.12s0,0,0,0c5-6.76,13-12.5,22.78-15.61,15.21-4.81,30.41-1.92,38.7,6.31.28.27.56.55.82.83s.51.58.76.88a22.47,22.47,0,0,1,1.63,2.24c.16.24.31.49.45.74s.22.38.31.57.2.38.29.57.18.36.27.55c.16.34.31.69.45,1.06S251.31,248.53,251.44,249Z" style="fill:#f5f5f5"></path><path d="M251.44,249l.06.19c.18.58.33,1.17.47,1.77,0,.18.08.35.11.53s.09.47.12.71c1.1,7.29-3.41,10.2-9.9,11.7-1.66,4.81-10.08,10.61-21.15,14.11s-21.4,3.58-25.46.55c-6.84,2.93-12.29,3-15.5-5.85a1.18,1.18,0,0,1-.07-.2c-.1-.29-.21-.59-.3-.89a20.38,20.38,0,0,1-.94-7.08c0-.35,0-.72.07-1.08a20.7,20.7,0,0,1,.48-3.11c.08-.39.18-.79.29-1.18a27.28,27.28,0,0,1,2.29-5.67c.14-.27.29-.55.46-.82a27.71,27.71,0,0,1,2-3.12c-1.69,5.17-1.35,10.25,3.47,13.77,3.54,2.58,8.15,1.47,11.95.22,3.28-1.08,6.34-2.82,9.54-4.07,4.49-1.72,10.5-.71,15.21-.8,12.19-.23,22.9-10.3,15.3-22.14-.25-.4-.55-.76-.84-1.15a26.89,26.89,0,0,1,6.86,4.84c.28.27.56.55.82.83s.51.58.76.88a22.47,22.47,0,0,1,1.63,2.24c.16.24.31.49.45.74s.22.38.31.57.2.38.29.57.18.36.27.55c.16.34.31.69.45,1.06S251.31,248.53,251.44,249Z" style="opacity:0.05"></path><path d="M211.86,271.44c.62,2.28,1.37,8.56.94,8.6a22.66,22.66,0,0,0-2.27-4.38c-3.68-4.7-6.47-3.43-11.13-1.21a3.7,3.7,0,0,1-3.53.19c-2.59-1.49-2.23-7.24.86-9.42s10-3.59,12.58-.42C210.81,266.67,211.25,269.2,211.86,271.44Z" style="fill:#e0e0e0"></path><path d="M211.86,271.44c.62,2.28,1.37,8.56.94,8.6a22.66,22.66,0,0,0-2.27-4.38c-3.68-4.7-6.47-3.43-11.13-1.21a3.7,3.7,0,0,1-3.53.19c-2.59-1.49-2.23-7.24.86-9.42s10-3.59,12.58-.42C210.81,266.67,211.25,269.2,211.86,271.44Z" style="opacity:0.1"></path><path d="M223,260.61c-.2,2.38.86,4.73,1.62,6.93s4,7.59,4.41,7.39a14,14,0,0,1-.94-4.65c.4-5.95,3.43-6.47,8.52-7.25,6.63-1,2.06-9-3-9.13C229.91,253.82,223.3,256.55,223,260.61Z" style="fill:#e0e0e0"></path><path d="M223,260.61c-.2,2.38.86,4.73,1.62,6.93s4,7.59,4.41,7.39a14,14,0,0,1-.94-4.65c.4-5.95,3.43-6.47,8.52-7.25,6.63-1,2.06-9-3-9.13C229.91,253.82,223.3,256.55,223,260.61Z" style="opacity:0.1"></path><path d="M211.86,271.44a14.84,14.84,0,0,0-4.12-5.08c-2.54-1.75-8.88.57-10,3.08s-.11,5.54-1.82,5.2h0c-2.59-1.49-2.23-7.24.86-9.42s10-3.59,12.58-.42C210.81,266.67,211.25,269.2,211.86,271.44Z" style="opacity:0.1"></path><path d="M224.58,267.54a14.81,14.81,0,0,1,.55-6.52c1.13-2.87,7.68-4.5,10-3.08s3.2,4.52,4.42,3.28h0c1.31-2.69-2.21-7.25-6-7.32s-10.31,2.65-10.66,6.71C222.77,263,223.82,265.34,224.58,267.54Z" style="opacity:0.1"></path></g></g><g id="freepik--Shrimps--inject-97"><g id="freepik--Shrimp--inject-97"><path d="M421.37,261.4c1.87,7.62-1,20.17-7,18.83s-4.69-8.42-.31-15.14c-8.2,3-13.79.55-13.36-4.21s8.45-8,16.63-2.7Z" style="fill:#9DA2AD"></path><path d="M421.37,261.4c1.87,7.62-1,20.17-7,18.83s-4.69-8.42-.31-15.14c-8.2,3-13.79.55-13.36-4.21s8.45-8,16.63-2.7Z" style="fill:#fff;opacity:0.30000000000000004"></path><path d="M416.16,274.42c1.84-1.74,2.71-4.67,3-7.11a23.92,23.92,0,0,0,.16-3.78c0-.63-.07-1.27-.12-1.91a5.25,5.25,0,0,0-.28-1.77c.53-.49-.64-1-1.1-.64a11.35,11.35,0,0,1-5.4,2.57,15.28,15.28,0,0,1-6-.32c-.36-.08-.35.34-.1.48a10.17,10.17,0,0,0,6.87.73,12.7,12.7,0,0,0,4.65-2c0,.28.07.57.09.84,0,.64.08,1.28.09,1.92a28.58,28.58,0,0,1-.12,3.82,22.66,22.66,0,0,1-.63,3.48,31.45,31.45,0,0,1-1.36,3.41C415.86,274.28,416.05,274.52,416.16,274.42Z" style="fill:#9DA2AD;opacity:0.4"></path><path d="M421.64,261.62c21.28-10.89,26.74-38.08,17-53.48-4.85-7.64-13.21-14.58-24.88-15.11-11.42-.52-12.32,24.56-6.05,27,11.61,4.54,15.75,12.2,15.62,20.88-.11,7.42-6,17.25-6,17.25S417.91,262,421.64,261.62Z" style="fill:#9DA2AD"></path><path d="M421.64,261.62c21.28-10.89,26.74-38.08,17-53.48-4.85-7.64-13.21-14.58-24.88-15.11-11.42-.52-12.32,24.56-6.05,27,11.61,4.54,15.75,12.2,15.62,20.88-.11,7.42-6,17.25-6,17.25S417.91,262,421.64,261.62Z" style="fill:#fff;opacity:0.5"></path><path d="M425.14,233.35c4.67-1.32,9.22-4.42,11.28-8.9,0-.08-.08-.27-.17-.2a53.82,53.82,0,0,1-4.69,3.54,23,23,0,0,1-6.3,2.8,13.88,13.88,0,0,1-4,.6,18.38,18.38,0,0,1,1.11,2.73A19.73,19.73,0,0,0,425.14,233.35Z" style="fill:#9DA2AD;opacity:0.4"></path><path d="M420.49,223.34c3.65-3.2,6.42-8,6.35-12.89,0-.09-.19-.21-.24-.1a52.3,52.3,0,0,1-2.71,5.2,22.72,22.72,0,0,1-4.48,5.25,11.66,11.66,0,0,1-4.92,2.8,25.46,25.46,0,0,1,2.61,2.1A16.91,16.91,0,0,0,420.49,223.34Z" style="fill:#9DA2AD;opacity:0.4"></path><path d="M423.22,242.5a24.59,24.59,0,0,1-.45,2.61c4.63-.14,9.48-1.86,12.54-5.39.06-.08,0-.29-.11-.24a51.89,51.89,0,0,1-5.48,2.09A22.8,22.8,0,0,1,423.22,242.5Z" style="fill:#9DA2AD;opacity:0.4"></path><path d="M412.22,219.46a3.66,3.66,0,0,0,.49-.31c.34-.24.6-.56.94-.79a5.71,5.71,0,0,0,2.61-4.24c.22-2.91-1.55-4.53,2.21-8.77s3.49-8.62,0-10.26a8.61,8.61,0,0,1-.87-.56,1.31,1.31,0,0,1-.32-.25c-.31-.33-.55-.72-.83-1.07a7.46,7.46,0,0,0-2-1.82l-.07,0a3.62,3.62,0,0,0-4.16.21c-.78.72-1.14,1.92-2.12,2.33A5,5,0,0,1,406,194a4.85,4.85,0,0,0-3.55,1.52,5.26,5.26,0,0,0-1.25,2.45c-.15.63-.41,1.24-.51,1.88-.07.45-.08.91-.17,1.35a4.58,4.58,0,0,1-.49,1.24,13.7,13.7,0,0,1-1.6,2.12,5.61,5.61,0,0,0-1.63,3.41c0,1.58,1.17,2.88,1.8,4.33,1,2.21.71,4.92,2.18,6.83a4.64,4.64,0,0,0,4.45,1.7c1.12-.21,2.15-.84,3.28-1,.7-.06,1.41.07,2.11,0A4.15,4.15,0,0,0,412.22,219.46Z" style="fill:#9DA2AD"></path><path d="M412.22,219.46a3.66,3.66,0,0,0,.49-.31c.34-.24.6-.56.94-.79a5.71,5.71,0,0,0,2.61-4.24c.22-2.91-1.55-4.53,2.21-8.77s3.49-8.62,0-10.26a8.61,8.61,0,0,1-.87-.56,1.31,1.31,0,0,1-.32-.25c-.31-.33-.55-.72-.83-1.07a7.46,7.46,0,0,0-2-1.82l-.07,0a3.62,3.62,0,0,0-4.16.21c-.78.72-1.14,1.92-2.12,2.33A5,5,0,0,1,406,194a4.85,4.85,0,0,0-3.55,1.52,5.26,5.26,0,0,0-1.25,2.45c-.15.63-.41,1.24-.51,1.88-.07.45-.08.91-.17,1.35a4.58,4.58,0,0,1-.49,1.24,13.7,13.7,0,0,1-1.6,2.12,5.61,5.61,0,0,0-1.63,3.41c0,1.58,1.17,2.88,1.8,4.33,1,2.21.71,4.92,2.18,6.83a4.64,4.64,0,0,0,4.45,1.7c1.12-.21,2.15-.84,3.28-1,.7-.06,1.41.07,2.11,0A4.15,4.15,0,0,0,412.22,219.46Z" style="fill:#fff;opacity:0.8"></path><path d="M405.79,216c.18,0,.41-.11.41-.33,0-.59-.55-1.09-.75-1.64a4.84,4.84,0,0,1-.24-1.69,5.49,5.49,0,0,1,1.12-3.26,5.16,5.16,0,0,1,2.76-1.7,6,6,0,0,1,1.88-.23c1.14,0,2.19.08,2.32.07s.34-.16.17-.31a21.71,21.71,0,0,1-2.25-1.92,4.72,4.72,0,0,1-1.15-2.64,4.21,4.21,0,0,1,2.6-4.61c.15,0,0-.21-.07-.23a2.9,2.9,0,0,0-2.89,1.36,5.51,5.51,0,0,0-1,3.51,5.62,5.62,0,0,0,1.22,3.26,6,6,0,0,0,.42.45,5.59,5.59,0,0,0-1.48.12,6.63,6.63,0,0,0-3.62,2.35c-.08.11-.17.22-.25.34-.07-.13-.14-.25-.2-.38a7.26,7.26,0,0,1-.43-1.09,4.73,4.73,0,0,1-.15-2.24,3.71,3.71,0,0,1,.85-1.73,2.76,2.76,0,0,1,.81-.64c.12-.06.31-.1.36-.24s-.08-.29-.12-.25c.14-.18-.51,0-.63,0a1.84,1.84,0,0,0-.25.09,4.44,4.44,0,0,0-.49.24,3.57,3.57,0,0,0-.94.88,4.26,4.26,0,0,0-.82,2,5.33,5.33,0,0,0,.19,2.28,8.81,8.81,0,0,0,.44,1.15,5.41,5.41,0,0,0,.72,1.16,6.33,6.33,0,0,0-.53,2.34C403.73,213.68,404.12,216.18,405.79,216Z" style="fill:#9DA2AD;opacity:0.5"></path></g><g id="freepik--shrimp--inject-97"><path d="M170.19,47.56c9.21-7,27.86-10.49,29.56-1.62s-8.63,11.29-20.3,9.3c8.91,9.32,8.84,18.34,2.16,20.54s-15.82-6.71-13.42-20.9Z" style="fill:#9DA2AD"></path><path d="M170.19,47.56c9.21-7,27.86-10.49,29.56-1.62s-8.63,11.29-20.3,9.3c8.91,9.32,8.84,18.34,2.16,20.54s-15.82-6.71-13.42-20.9Z" style="fill:#fff;opacity:0.30000000000000004"></path><path d="M190.85,47c-3.42-1.47-7.9-.92-11.38.1a34.45,34.45,0,0,0-5.2,2q-1.28.61-2.52,1.29a7.43,7.43,0,0,0-2.23,1.42c-1-.43-1,1.47-.22,1.85a16.84,16.84,0,0,1,6.64,5.8,22.09,22.09,0,0,1,3.11,8.33c.11.54.67.28.71-.15.37-3.39-1.14-7-3-9.72a18.65,18.65,0,0,0-5.39-5.12c.37-.21.73-.43,1.08-.61.84-.44,1.69-.87,2.55-1.26a41.39,41.39,0,0,1,5.24-2.08,31.5,31.5,0,0,1,5.08-1.19,46.32,46.32,0,0,1,5.4-.17C190.85,47.45,191.06,47.06,190.85,47Z" style="fill:#9DA2AD;opacity:0.4"></path><path d="M170.32,47.07C143.09,24.68,103.12,33.25,88,55.5c-7.5,11-12,26.42-5.84,42.51,6,15.76,40.46,2.24,40.1-7.67-.67-18.37,7.26-28.47,19.07-33.4,10.1-4.21,26.84-2.06,26.84-2.06S173.07,51.88,170.32,47.07Z" style="fill:#9DA2AD"></path><path d="M170.32,47.07C143.09,24.68,103.12,33.25,88,55.5c-7.5,11-12,26.42-5.84,42.51,6,15.76,40.46,2.24,40.1-7.67-.67-18.37,7.26-28.47,19.07-33.4,10.1-4.21,26.84-2.06,26.84-2.06S173.07,51.88,170.32,47.07Z" style="fill:#fff;opacity:0.5"></path><path d="M130,58.94c-4.52-5.55-11.4-9.88-18.66-10-.14,0-.33.27-.16.35a79.57,79.57,0,0,1,7.53,4.26,33.81,33.81,0,0,1,7.49,6.89,20.51,20.51,0,0,1,3.17,5.07,28.55,28.55,0,0,1,3-3.09A27.57,27.57,0,0,0,130,58.94Z" style="fill:#9DA2AD;opacity:0.4"></path><path d="M119.22,71.11c-6.47-3.06-14.54-4-21.16-1-.13.06-.18.39,0,.4a77.53,77.53,0,0,1,8.63.6,34,34,0,0,1,9.73,3,17.08,17.08,0,0,1,6.68,5,34.81,34.81,0,0,1,1.31-4.76A24.31,24.31,0,0,0,119.22,71.11Z" style="fill:#9DA2AD;opacity:0.4"></path><path d="M143.54,56.16a32.26,32.26,0,0,1,3.79-.92c-2.91-6.18-8.09-11.74-14.66-13.8-.13,0-.39.17-.26.29a76.8,76.8,0,0,1,6.05,6.19A33.17,33.17,0,0,1,143.54,56.16Z" style="fill:#9DA2AD;opacity:0.4"></path><path d="M118.83,84.58a5.51,5.51,0,0,0-.7-.49c-.53-.32-1.12-.49-1.63-.81a8.4,8.4,0,0,0-7.26-1C105.17,83.64,104,87,96.07,84.4s-13.71.34-13.86,6c0,.52-.19,1-.26,1.51a2,2,0,0,1-.14.58c-.27.6-.66,1.15-1,1.74a11.39,11.39,0,0,0-1.28,3.8.49.49,0,0,1,0,.12c-.22,2.19.72,4.64,2.73,5.51,1.44.62,3.27.41,4.4,1.49A7.57,7.57,0,0,1,88,107.91a7.19,7.19,0,0,0,4.13,3.91,7.81,7.81,0,0,0,4,.24c1-.16,1.93-.16,2.86-.41.65-.17,1.27-.43,1.92-.56a6.51,6.51,0,0,1,2-.07,20.54,20.54,0,0,1,3.79.92c1.82.54,3.83,1,5.58.21,2.14-.92,3.21-3.28,4.8-5,2.42-2.59,6.24-3.85,8-7a6.86,6.86,0,0,0-.32-7c-.94-1.39-2.4-2.41-3.21-3.88-.5-.91-.74-2-1.21-2.87A6,6,0,0,0,118.83,84.58Z" style="fill:#9DA2AD"></path><path d="M118.83,84.58a5.51,5.51,0,0,0-.7-.49c-.53-.32-1.12-.49-1.63-.81a8.4,8.4,0,0,0-7.26-1C105.17,83.64,104,87,96.07,84.4s-13.71.34-13.86,6c0,.52-.19,1-.26,1.51a2,2,0,0,1-.14.58c-.27.6-.66,1.15-1,1.74a11.39,11.39,0,0,0-1.28,3.8.49.49,0,0,1,0,.12c-.22,2.19.72,4.64,2.73,5.51,1.44.62,3.27.41,4.4,1.49A7.57,7.57,0,0,1,88,107.91a7.19,7.19,0,0,0,4.13,3.91,7.81,7.81,0,0,0,4,.24c1-.16,1.93-.16,2.86-.41.65-.17,1.27-.43,1.92-.56a6.51,6.51,0,0,1,2-.07,20.54,20.54,0,0,1,3.79.92c1.82.54,3.83,1,5.58.21,2.14-.92,3.21-3.28,4.8-5,2.42-2.59,6.24-3.85,8-7a6.86,6.86,0,0,0-.32-7c-.94-1.39-2.4-2.41-3.21-3.88-.5-.91-.74-2-1.21-2.87A6,6,0,0,0,118.83,84.58Z" style="fill:#fff;opacity:0.8"></path><path d="M118,95.28c-.12-.23-.4-.49-.68-.36-.79.36-1.16,1.4-1.79,2a7.11,7.11,0,0,1-2.13,1.32,8.12,8.12,0,0,1-5.08.39,7.53,7.53,0,0,1-3.92-2.73,9.18,9.18,0,0,1-1.41-2.4c-.62-1.57-1.18-3-1.27-3.19s-.42-.36-.51-.05a32,32,0,0,1-1.28,4.18A7,7,0,0,1,97,97.53c-2.48,1.41-5.76,1.41-7.76-.81-.16-.18-.3.07-.27.23a4.25,4.25,0,0,0,3.54,3.1,8.26,8.26,0,0,0,9-4.22,6.79,6.79,0,0,0,.37-.83,8.11,8.11,0,0,0,1,1.93,9.77,9.77,0,0,0,5.3,3.52l.61.14c-.13.17-.26.34-.4.5a10.73,10.73,0,0,1-1.22,1.21,6.85,6.85,0,0,1-2.94,1.52,5.47,5.47,0,0,1-2.84-.13,4,4,0,0,1-1.34-.73c-.15-.12-.32-.36-.54-.33s-.35.27-.26.29c-.34-.08.26.73.38.86l.27.29a5,5,0,0,0,.61.51,5.3,5.3,0,0,0,1.74.76,6.38,6.38,0,0,0,3.13,0,7.93,7.93,0,0,0,3-1.61,9.68,9.68,0,0,0,1.29-1.27,7.68,7.68,0,0,0,1.16-1.65,9.31,9.31,0,0,0,3.47-.66C116,99.44,119.15,97.45,118,95.28Z" style="fill:#9DA2AD;opacity:0.5"></path></g></g><g id="freepik--Sauce--inject-97"><g id="freepik--sauce--inject-97"><path d="M458.26,407.32c-1.22-5.66-6.18-10.51-14.58-13.22-16.81-5.41-41.05-.2-54.15,11.66-6.54,5.92-9.06,12.39-7.85,18,.26,1.17,1.48,6.85,1.73,8,1.22,5.66,6.18,10.51,14.58,13.22,16.81,5.41,41.05.19,54.15-11.66,6.54-5.92,9.06-12.39,7.85-18C459.73,414.16,458.51,408.49,458.26,407.32Z" style="fill:#e0e0e0"></path><g style="opacity:0.1"><path d="M458.26,407.32c-1.22-5.66-6.18-10.51-14.58-13.22-16.81-5.41-41.05-.2-54.15,11.66-6.54,5.92-9.06,12.39-7.85,18,.26,1.17,1.48,6.85,1.73,8,1.22,5.66,6.18,10.51,14.58,13.22,16.81,5.41,41.05.19,54.15-11.66,6.54-5.92,9.06-12.39,7.85-18C459.73,414.16,458.51,408.49,458.26,407.32Z"></path></g><path d="M418.57,409c-15.78,3.39-31.35,3-43.85-1-12.16-3.92-19.89-10.84-21.75-19.5s2.33-18.14,11.8-26.71c9.73-8.81,23.78-15.53,39.56-18.93s31.35-3.05,43.85,1c12.16,3.92,19.89,10.84,21.75,19.49s-2.33,18.14-11.8,26.72C448.4,398.92,434.35,405.64,418.57,409Z" style="fill:#e0e0e0"></path><path d="M418.57,409c13.18-2.84,25.15-8,34.41-14.76a30,30,0,0,0-8.52-4.18c-8.58-2.76-19.28-3-30.11-.66s-20.49,6.95-27.17,13a30.12,30.12,0,0,0-6.05,7.32C392.35,412.1,405.39,411.88,418.57,409Z" style="fill:#e0e0e0"></path><path d="M471.8,364a.36.36,0,0,0,0,.11c1.38,8.63-2.67,18.34-12.54,27.28C438.71,410,400.61,418.21,374.2,409.7c-12.67-4.08-20.36-11.26-22.65-19.69l0-.11c-.08-.32-.17-.64-.23-1,.06.32.31,1.39.35,1.55a61.52,61.52,0,1,0,120.29-25.9c0-.16-.24-1.24-.31-1.56C471.69,363.35,471.74,363.67,471.8,364Z" style="fill:#e0e0e0"></path><path d="M435.08,434.45a39.79,39.79,0,0,0,3.13-5.92,46.35,46.35,0,0,0,3-10.24,73,73,0,0,0,.88-10.34c0-1.73,0-3.46,0-5.18-2.48,1.21-5,2.33-7.67,3.34,2.4,12-1.6,23.8-4.45,30.19C431.72,435.76,433.41,435.13,435.08,434.45Z" style="fill:#ebebeb"></path><path d="M459.28,391.39a72.89,72.89,0,0,1-15.54,10.54,67.19,67.19,0,0,1,.16,6.95,64.61,64.61,0,0,1-1,10.66,40.68,40.68,0,0,1-5.18,13.76,61.23,61.23,0,0,0,17.79-12.52c5.11-9.47,8.27-21.87,8.47-34.25A52.3,52.3,0,0,1,459.28,391.39Z" style="fill:#ebebeb"></path><path d="M448.71,342.26c-26.42-8.51-64.51-.3-85.09,18.32-10.29,9.31-14.25,19.47-12.33,28.36.06.32.15.64.23,1l0,.11c2.29,8.43,10,15.61,22.65,19.69,26.41,8.51,64.51.31,85.08-18.31,9.87-8.94,13.92-18.65,12.54-27.28a.36.36,0,0,1,0-.11c-.06-.33-.11-.65-.18-1C469.7,354.14,461.91,346.51,448.71,342.26Zm9.42,47.85c-9.73,8.81-23.78,15.53-39.56,18.93s-31.35,3-43.85-1c-12.16-3.92-19.89-10.84-21.75-19.5s2.33-18.13,11.8-26.71c9.74-8.81,23.78-15.53,39.56-18.93s31.35-3.05,43.85,1c12.17,3.92,19.89,10.84,21.75,19.49S467.6,381.53,458.13,390.11Z" style="fill:#f0f0f0"></path><path d="M460.79,328.51c-2.8-4.77-6.53-9.2-11.52-11.61s-11.37-2.43-15.7,1a16.55,16.55,0,0,0-4.72,6.67c-2.07,5-2.55,10.41-3.17,15.74a2.72,2.72,0,0,0,0,.3c-.06.45-.12.91-.2,1.38s-.16.93-.26,1.39c0,.15-.07.32-.11.47-.11.48-.24.93-.39,1.38-.07.24-.16.45-.24.67l-.24.58a8.46,8.46,0,0,1-.5.94,3.26,3.26,0,0,1-.24.4,6.8,6.8,0,0,1-1.26,1.46c-.17.15-.34.29-.53.43a5.8,5.8,0,0,1-.59.36c-3.66,2-8.1-.1-12.22-.88-6-1.13-12.88,1.23-16.1,6.46-2.48,4-2.62,9-2.51,13.71,0,1.78-.08,3.9-1.6,4.84a4.89,4.89,0,0,1-2.43.53c-4.61.14-9.37-.41-13.74,1.08-6.93,2.35-11.45,9.74-11.56,17.05,0,.4,0,.81,0,1.21v.16c0,.36.05.73.09,1.09s.09.82.16,1.22.13.8.22,1.2.19.81.3,1.2a20.72,20.72,0,0,0,.74,2.27c0,.1.08.2.11.3.13.31.25.61.39.92a44.48,44.48,0,0,0,11.76,5.63c12.49,4,28.06,4.36,43.84,1s29.83-10.13,39.57-18.93c.69-.63,1.35-1.27,2-1.91.2-.38.4-.75.59-1.13.59-1.12,1.14-2.27,1.65-3.42.18-.39.34-.79.51-1.17.5-1.17,1-2.34,1.4-3.54.36-1,.71-2,1-3q1-3,1.62-6.11c.21-1,.41-2.07.58-3.11s.3-2.06.42-3.09c.18-1.66.3-3.3.34-5A56.3,56.3,0,0,0,460.79,328.51Z" style="fill:#9DA2AD"></path><path d="M460.79,328.51c-2.8-4.77-6.53-9.2-11.52-11.61s-11.37-2.43-15.7,1a16.55,16.55,0,0,0-4.72,6.67c-2.07,5-2.55,10.41-3.17,15.74a2.72,2.72,0,0,0,0,.3c-.06.45-.12.91-.2,1.38s-.16.93-.26,1.39c0,.15-.07.32-.11.47-.11.48-.24.93-.39,1.38-.07.24-.16.45-.24.67l-.24.58a8.46,8.46,0,0,1-.5.94,3.26,3.26,0,0,1-.24.4,6.8,6.8,0,0,1-1.26,1.46c-.17.15-.34.29-.53.43a5.8,5.8,0,0,1-.59.36c-3.66,2-8.1-.1-12.22-.88-6-1.13-12.88,1.23-16.1,6.46-2.48,4-2.62,9-2.51,13.71,0,1.78-.08,3.9-1.6,4.84a4.89,4.89,0,0,1-2.43.53c-4.61.14-9.37-.41-13.74,1.08-6.93,2.35-11.45,9.74-11.56,17.05,0,.4,0,.81,0,1.21v.16c0,.36.05.73.09,1.09s.09.82.16,1.22.13.8.22,1.2.19.81.3,1.2a20.72,20.72,0,0,0,.74,2.27c0,.1.08.2.11.3.13.31.25.61.39.92a44.48,44.48,0,0,0,11.76,5.63c12.49,4,28.06,4.36,43.84,1s29.83-10.13,39.57-18.93c.69-.63,1.35-1.27,2-1.91.2-.38.4-.75.59-1.13.59-1.12,1.14-2.27,1.65-3.42.18-.39.34-.79.51-1.17.5-1.17,1-2.34,1.4-3.54.36-1,.71-2,1-3q1-3,1.62-6.11c.21-1,.41-2.07.58-3.11s.3-2.06.42-3.09c.18-1.66.3-3.3.34-5A56.3,56.3,0,0,0,460.79,328.51Z" style="opacity:0.1"></path><path d="M420.17,366c5.42,1.69,11.91,1.47,16.1-2.38,4.5-4.13,5-11,4.61-17.1a50.53,50.53,0,0,0-2.09-12.34c-1.16-3.58-2.94-7.17-2.51-10.92a10.64,10.64,0,0,1,5.73-8,13.32,13.32,0,0,0-8.44,2.71,16.55,16.55,0,0,0-4.72,6.67c-2.07,5-2.55,10.41-3.17,15.74a2.72,2.72,0,0,0,0,.3c-.06.45-.12.91-.2,1.38s-.16.93-.26,1.39c0,.15-.07.32-.11.47-.11.48-.24.93-.39,1.38-.07.24-.16.45-.24.67l-.24.58a8.46,8.46,0,0,1-.5.94,3.26,3.26,0,0,1-.24.4,6.8,6.8,0,0,1-1.26,1.46c-.17.15-.34.29-.53.43a5.8,5.8,0,0,1-.59.36c-3.66,2-8.1-.1-12.21-.88-5.63-1.05-11.93.92-15.39,5.41A31.07,31.07,0,0,1,405,358.34C410,361,414.74,364.26,420.17,366Z" style="fill:#9DA2AD"></path><path d="M424,309.92c-.19-2.86-3-5.71-7.42-2.9-4.64,3-8.1,9.51-5,15.15,2.47,4.48,7.45,1.92,9.36-1.93C422.47,317.2,424.17,312.77,424,309.92Z" style="fill:#9DA2AD"></path><path d="M468.25,358.67a58,58,0,0,0-3.67-22.23,75,75,0,0,1-1.34,18.22c-1.06,5.26-4,10.72-7,15.16-5.07,7.48-14.34,11.43-23.37,11.55-4.4.06-8.78-.69-13.18-.66s-9,1-12.32,3.86c-3,2.6-4.52,6.45-7,9.52a21.76,21.76,0,0,1-17,7.59A29.07,29.07,0,0,1,365.76,395c-1.47-1.2-2.95-2.56-4.79-3,0,.29,0,.59-.05.89s0,.81,0,1.21v.16c0,.36.05.73.09,1.09s.09.82.16,1.22.13.8.22,1.2.19.81.3,1.2a20.72,20.72,0,0,0,.74,2.27c0,.1.08.2.11.3.13.31.25.61.39.92a44.48,44.48,0,0,0,11.76,5.63c12.49,4,28.06,4.36,43.84,1s29.83-10.13,39.57-18.93c.69-.63,1.35-1.27,2-1.91.2-.38.4-.75.59-1.13.59-1.12,1.14-2.27,1.65-3.42.18-.39.34-.79.51-1.17.5-1.17,1-2.34,1.4-3.54.36-1,.71-2,1-3q1-3,1.62-6.11c.21-1,.41-2.07.58-3.11s.3-2.06.42-3.09C468.09,362,468.21,360.33,468.25,358.67Z" style="opacity:0.1"></path><path d="M434.25,321.4c-1.62,1.61-3.55,5.12-1.72,7.19,2.1,2.37,5.31-.79,8-2.08,5.78-2.81,11.72,0,16.52,3.72.38.3,1,.3,1-.27-.25-3.67-3.25-6.77-6.07-8.69C446.21,317.39,438.85,316.84,434.25,321.4Z" style="fill:#fff;opacity:0.30000000000000004"></path><path d="M429.13,335.11a2.48,2.48,0,0,0,4.91-.58,4.12,4.12,0,0,0-1.66-3.74C430.32,329.39,428.79,333.34,429.13,335.11Z" style="fill:#fff;opacity:0.30000000000000004"></path><path d="M424,309.92a4.74,4.74,0,0,0-.92-2.51c1.58,3.17-.65,11.66-6.92,12.59-5.55.81-5.52-4.19-5.5-4.65a9.62,9.62,0,0,0,.92,6.82c2.47,4.48,7.45,1.92,9.36-1.93C422.47,317.2,424.17,312.77,424,309.92Z" style="opacity:0.1"></path><path d="M413.41,312.7c-.5,1.25.84,2.26,2.44,1.28,1.92-1.16,4.32-2.44,4.9-2.78,2.48-1.43,1.74-2.95,1-3.48C420.32,306.65,415.48,307.63,413.41,312.7Z" style="fill:#fff;opacity:0.30000000000000004"></path><path d="M394,354a12.16,12.16,0,0,0-1.26,1.69c-2.48,4-2.62,9-2.51,13.71,0,1.78-.08,3.9-1.6,4.84a4.89,4.89,0,0,1-2.43.53c-1.35,0-2.72,0-4.08,0,6.75.08,11.51,7,14.32.21S390,362.89,394,354Z" style="opacity:0.1"></path><path d="M401.29,357.79c3.44-.43,6.71-2.13,10.17-2,.87.05,2,.11,2.37-.65s-.28-1.73-1-2.29a9.13,9.13,0,0,0-6.64-2.12,13.8,13.8,0,0,0-6.8,1.89,5.88,5.88,0,0,0-1.24,1.1C395.79,356.37,398,358.36,401.29,357.79Z" style="fill:#fff;opacity:0.30000000000000004"></path></g></g></svg>