<svg xmlns="http://www.w3.org/2000/svg" viewBox="0 0 500 500"><g id="freepik--Floor--inject-235"><ellipse id="freepik--floor--inject-235" cx="250.12" cy="358.63" rx="235.47" ry="130.91" style="fill:#f5f5f5"></ellipse></g><g id="freepik--Shadows--inject-235"><ellipse id="freepik--Shadow--inject-235" cx="391.83" cy="335.32" rx="48.79" ry="28.17" style="fill:#e0e0e0"></ellipse><polygon id="freepik--shadow--inject-235" points="142.84 355.7 67.59 399.14 26.51 375.39 101.75 331.95 142.84 355.7" style="fill:#e0e0e0"></polygon><path id="freepik--shadow--inject-235" d="M229.41,461.63l-56.33-32.52c-2.39-1.38-2.39-3.62,0-5l56.33-32.53a9.57,9.57,0,0,1,8.66,0l56.34,32.53c2.39,1.38,2.39,3.62,0,5l-56.34,32.52A9.57,9.57,0,0,1,229.41,461.63Z" style="fill:#e0e0e0"></path></g><g id="freepik--Dresser--inject-235"><g id="freepik--dresser--inject-235"><g id="freepik--Wall--inject-235"><polygon points="264.87 285.41 222.93 261.2 222.93 19.05 264.87 43.26 264.87 285.41" style="fill:#96D0A4"></polygon><polygon points="264.87 43.26 268.36 41.25 268.36 283.39 264.87 285.41 264.87 43.26" style="fill:#96D0A4"></polygon><polygon points="264.87 43.26 268.36 41.25 268.36 283.39 264.87 285.41 264.87 43.26" style="fill:#fff;opacity:0.6000000000000001"></polygon></g><polygon points="104.09 83.62 222.93 15.01 222.93 261.2 104.09 329.81 104.09 83.62" style="fill:#f5f5f5"></polygon><g id="freepik--Shirts--inject-235"><polygon id="freepik--wall--inject-235" points="222.93 176.44 222.93 19.05 264.87 43.26 264.87 200.65 222.93 176.44" style="fill:#96D0A4"></polygon><polygon id="freepik--wall--inject-235" points="222.93 176.44 222.93 19.05 264.87 43.26 264.87 200.65 222.93 176.44" style="opacity:0.1"></polygon><polygon id="freepik--wall--inject-235" points="222.93 176.44 222.93 19.05 264.87 43.26 264.87 200.65 222.93 176.44" style="fill:#fff;opacity:0.5"></polygon><g id="freepik--Drawers--inject-235"><polygon points="264.87 200.65 222.93 176.44 160.01 212.76 201.96 236.98 264.87 200.65" style="fill:#96D0A4"></polygon><polygon points="264.87 200.65 222.93 176.44 160.01 212.76 201.96 236.98 264.87 200.65" style="fill:#fff;opacity:0.8"></polygon><polygon points="201.96 236.98 201.96 321.73 264.87 285.41 264.87 200.66 201.96 236.98" style="fill:#96D0A4"></polygon><polygon points="201.96 236.98 201.96 321.73 264.87 285.41 264.87 200.66 201.96 236.98" style="fill:#fff;opacity:0.6000000000000001"></polygon><polygon points="261.38 206.71 201.96 241.02 201.96 257.16 261.38 222.85 261.38 206.71" style="fill:#fafafa"></polygon><polygon points="240.4 226.86 226.42 234.93 226.41 230.89 240.41 222.82 240.4 226.86" style="fill:#96D0A4"></polygon><polygon points="261.38 226.87 201.96 261.18 201.96 277.33 261.38 243.02 261.38 226.87" style="fill:#fafafa"></polygon><polygon points="240.4 247.02 226.42 255.09 226.41 251.06 240.41 242.99 240.4 247.02" style="fill:#96D0A4"></polygon><polygon points="261.38 247.04 201.96 281.35 201.96 297.49 261.38 263.18 261.38 247.04" style="fill:#fafafa"></polygon><polygon points="240.4 267.19 226.42 275.26 226.41 271.23 240.41 263.15 240.4 267.19" style="fill:#96D0A4"></polygon><polygon points="261.38 267.21 201.96 301.52 201.96 317.66 261.38 283.35 261.38 267.21" style="fill:#fafafa"></polygon><polygon points="240.4 287.36 226.42 295.43 226.41 291.39 240.41 283.32 240.4 287.36" style="fill:#96D0A4"></polygon><polygon points="240.4 226.86 226.42 234.93 226.41 230.89 240.41 222.82 240.4 226.86" style="fill:#96D0A4"></polygon><polygon points="240.4 247.02 226.42 255.09 226.41 251.06 240.41 242.99 240.4 247.02" style="fill:#96D0A4"></polygon><polygon points="240.4 267.19 226.42 275.26 226.41 271.23 240.41 263.15 240.4 267.19" style="fill:#96D0A4"></polygon><polygon points="240.4 287.36 226.42 295.43 226.41 291.39 240.41 283.32 240.4 287.36" style="fill:#96D0A4"></polygon></g><g id="freepik--Blouses--inject-235"><g id="freepik--Blouse--inject-235"><path d="M249.59,98.68s-3.9,3.65-13.84-2.09a39.65,39.65,0,0,1-14.37-14.2s-1.38,22.54,14.11,31.48S249.59,98.68,249.59,98.68Z" style="fill:#96D0A4"></path><path d="M249.59,98.68s-3.9,3.65-13.84-2.09a39.65,39.65,0,0,1-14.37-14.2s-1.38,22.54,14.11,31.48S249.59,98.68,249.59,98.68Z" style="opacity:0.30000000000000004"></path><path d="M249.59,98.68s-3.9,3.65-13.84-2.09a39.65,39.65,0,0,1-14.37-14.2s0,.09,0,.25v2.75c0,.11,0,.22,0,.33a39.69,39.69,0,0,0,14.36,14.17c9.77,5.64,13.7,2.22,13.83,2.1s0-.19,0-.28Z" style="opacity:0.30000000000000004"></path><path d="M235.79,80.65c0-2.28.08-2.86.82-3.11s2.68-1.28,1.7-5.55c-.61-2.65-2.81-4.85-4.66-4.67-.6.07-2,.53-2,3.32a.63.63,0,1,0,1.26,0c0-.59.09-2,.88-2.06s2.76,1.39,3.29,3.7c.5,2.15.15,3.71-.89,4.07-1.53.53-1.65,1.86-1.66,3.86m0,0a1,1,0,0,0-.24,0L217,83.54A1.65,1.65,0,0,0,215.76,85a4.6,4.6,0,0,0,1.94,4.3l34.52,19.92a1.9,1.9,0,0,0,1,.29,1.39,1.39,0,0,0,1.06-.48c.84-1,.64-2.91-.45-4.38L236.56,81.42a3.48,3.48,0,0,0-.73-.75l0,0M216.9,85.21q.09-.48.36-.54l17.25-3.32c.23,0,.69.17,1.12.76l17.26,23.24c.86,1.16.87,2.51.51,2.92-.05.06-.18.2-.61,0L218.28,88.3A3.44,3.44,0,0,1,216.9,85.21Z" style="fill:#455a64"></path><path d="M219.3,114l-.58,33.54c0,1.41-7.18-2.74-7.18-4.15V98.11c0-8.31.94-17.32,5-16.76,0,0,1.25,23.63,2,29C218.72,111.36,219,112.6,219.3,114Z" style="fill:#96D0A4"></path><path d="M219.3,114l-.58,33.54c0,1.41-7.18-2.74-7.18-4.15V98.11c0-8.31.94-17.32,5-16.76,0,0,1.25,23.63,2,29C218.72,111.36,219,112.6,219.3,114Z" style="opacity:0.15"></path><path d="M218.72,147.49l.05-2.23h0c0,1.15-7.23-3-7.23-4.17v2.25C211.54,144.75,218.72,148.9,218.72,147.49Z" style="opacity:0.15"></path><path d="M259.87,169.37c.08,1.62-6.75-1.81-6.83-3.42l-1.77-31.29h0a29.11,29.11,0,0,0,1.12-6c.31-5.26.48-20.13,1.56-24.16,2.41,3.21,3.75,7.73,4.27,14.47S259.87,169.37,259.87,169.37Z" style="fill:#96D0A4"></path><path d="M259.87,169.37c.08,1.62-6.75-1.81-6.83-3.42l-1.77-31.29h0a29.11,29.11,0,0,0,1.12-6c.31-5.26.48-20.13,1.56-24.16,2.41,3.21,3.75,7.73,4.27,14.47S259.87,169.37,259.87,169.37Z" style="opacity:0.15"></path><path d="M259.87,169.37s0-.84-.07-2.27h0c.07,1.24-6.86-2.21-6.92-3.46h0L253,166C253.12,167.56,260,171,259.87,169.37Z" style="opacity:0.15"></path><path d="M216.55,81.35s1.24,23.64,2,28.94,1.56,31.3,1.56,34c8.76,7.14,22.53,15.21,31.33,18.09.47-4,.63-28.48.94-33.74s.47-20.12,1.56-24.15l-4.37-5.83s-1.24,18.9-14.34,11.34-13.87-27.63-13.87-27.63Z" style="fill:#96D0A4"></path><path d="M244,159.06c1.65.71,5.8,2.8,7.46,3.34.47-4,.63-28.48.94-33.74,0-.68.08-1.53.11-2.49C248,127.76,244,151.25,244,159.06Z" style="opacity:0.1"></path><path d="M218,105c.19,2.29.37,4.18.53,5.27.78,5.31,1.56,31.3,1.56,34,1.73,1.41,6,4.16,7.69,5.42C227.82,141,223,111.47,218,105Z" style="opacity:0.1"></path></g><g id="freepik--blouse--inject-235"><path d="M240,103.9s-3.9,3.64-13.85-2.1a39.59,39.59,0,0,1-14.36-14.19s-1.38,22.54,14.1,31.48S240,103.9,240,103.9Z" style="fill:#96D0A4"></path><path d="M240,103.9s-3.9,3.64-13.85-2.1a39.59,39.59,0,0,1-14.36-14.19s0,.09,0,.25v2.75c0,.1,0,.21,0,.32a39.54,39.54,0,0,0,14.35,14.17c9.78,5.64,13.71,2.23,13.84,2.11s0-.19,0-.29Z" style="fill:#96D0A4"></path><path d="M225.21,85.77H225L207.71,89.1a1.64,1.64,0,0,0-1.27,1.48,4.58,4.58,0,0,0,1.94,4.29l34.51,19.93a2,2,0,0,0,1,.29,1.37,1.37,0,0,0,1.05-.48c.85-1,.65-2.91-.44-4.38L227.23,87a3.73,3.73,0,0,0-.73-.75h0c0-2.29.08-2.86.81-3.11S230,81.82,229,77.56c-.61-2.65-2.82-4.85-4.67-4.67-.6.07-2,.52-2,3.31a.64.64,0,0,0,1.27,0c0-.59.08-2,.87-2.06s2.77,1.4,3.3,3.7c.49,2.15.15,3.71-.89,4.07-1.54.53-1.65,1.87-1.66,3.86m-17.63,5c0-.32.17-.5.35-.53l17.26-3.32c.23,0,.68.17,1.12.75l17.25,23.25c.86,1.16.88,2.5.51,2.92,0,0-.18.2-.6,0L209,93.87A3.46,3.46,0,0,1,207.58,90.77Z" style="fill:#455a64"></path><path d="M209.74,119.16l-.57,33.54c0,1.42-7.18-2.73-7.18-4.15V103.33c0-8.31.93-17.33,5-16.77,0,0,1.51,23.49,2.3,28.8C209.44,116.43,209.43,117.82,209.74,119.16Z" style="fill:#ebebeb"></path><path d="M209.17,152.7l.05-2.23h0c0,1.15-7.23-3-7.23-4.17v2.25C202,150,209.17,154.12,209.17,152.7Z" style="opacity:0.15"></path><path d="M250.32,174.58c.08,1.63-6.76-1.8-6.83-3.42l-1.77-31.28v0a29.66,29.66,0,0,0,1.12-6c.31-5.25.47-20.12,1.56-24.16,2.4,3.21,3.75,7.73,4.26,14.48S250.32,174.58,250.32,174.58Z" style="fill:#ebebeb"></path><path d="M250.32,174.58s0-.84-.07-2.27h0c.06,1.24-6.86-2.21-6.93-3.45h0l.17,2.3C243.56,172.78,250.4,176.21,250.32,174.58Z" style="opacity:0.15"></path><path d="M207,86.57s1.36,21.82,2,28.94c.49,5.2,1.56,31.29,1.56,34,8.76,7.15,22.52,15.22,31.33,18.09.47-4,.62-28.48.93-33.74s.47-20.12,1.56-24.15L240,103.9s-1.25,18.89-14.34,11.33-13.87-27.62-13.87-27.62Z" style="fill:#fafafa"></path></g><g id="freepik--blouse--inject-235"><path d="M229.1,109.73s-3.9,3.65-13.84-2.09a39.65,39.65,0,0,1-14.37-14.2S199.51,116,215,124.92,229.1,109.73,229.1,109.73Z" style="fill:#96D0A4"></path><path d="M229.1,109.73s-3.9,3.65-13.84-2.09a39.65,39.65,0,0,1-14.37-14.2S199.51,116,215,124.92,229.1,109.73,229.1,109.73Z" style="opacity:0.30000000000000004"></path><path d="M229.1,109.73s-3.9,3.65-13.84-2.09a39.65,39.65,0,0,1-14.37-14.2s0,.09,0,.25v2.75c0,.1,0,.22,0,.33a39.72,39.72,0,0,0,14.36,14.16c9.77,5.65,13.7,2.23,13.83,2.11a2.62,2.62,0,0,0,0-.28Z" style="opacity:0.30000000000000004"></path><path d="M214.5,92a1,1,0,0,0-.24,0L197,95.29a1.65,1.65,0,0,0-1.28,1.47,4.6,4.6,0,0,0,1.94,4.3L232.18,121a2,2,0,0,0,1,.29,1.39,1.39,0,0,0,1.06-.48c.84-1,.64-2.91-.45-4.38L216.53,93.17a3.73,3.73,0,0,0-.73-.75l0,0c0-2.28.08-2.86.81-3.11s2.69-1.28,1.71-5.55c-.61-2.65-2.81-4.85-4.67-4.67-.6.07-2,.53-2,3.32a.63.63,0,0,0,1.26,0c0-.59.09-2,.88-2.06s2.76,1.39,3.29,3.7c.49,2.15.15,3.71-.89,4.07-1.53.53-1.65,1.86-1.66,3.86m-17.63,5q.07-.48.36-.54l17.25-3.32c.23,0,.69.17,1.12.76l17.25,23.24c.87,1.17.88,2.51.51,2.92,0,.06-.17.2-.6,0l-34.51-19.93A3.44,3.44,0,0,1,196.87,97Z" style="fill:#455a64"></path><path d="M198.81,125l-.57,33.54c0,1.41-7.19-2.74-7.19-4.15V109.16c0-8.31.94-17.32,5-16.76,0,0,1.25,23.63,2,28.95C198.24,122.41,198.5,123.65,198.81,125Z" style="fill:#96D0A4"></path><path d="M198.81,125l-.57,33.54c0,1.41-7.19-2.74-7.19-4.15V109.16c0-8.31.94-17.32,5-16.76,0,0,1.25,23.63,2,28.95C198.24,122.41,198.5,123.65,198.81,125Z" style="fill:#fff;opacity:0.30000000000000004"></path><path d="M198.24,158.54l0-2.23h0c0,1.14-7.23-3-7.23-4.18v2.26C191.05,155.8,198.24,160,198.24,158.54Z" style="opacity:0.15"></path><path d="M239.39,180.41c.07,1.63-6.76-1.8-6.84-3.41l-1.77-31.29v0a28.9,28.9,0,0,0,1.12-6c.32-5.26.48-20.13,1.56-24.16,2.41,3.21,3.76,7.73,4.27,14.47S239.39,180.41,239.39,180.41Z" style="fill:#96D0A4"></path><path d="M239.39,180.41s0-.84-.07-2.26h0c.06,1.24-6.87-2.21-6.93-3.46h0l.16,2.31C232.63,178.61,239.46,182,239.39,180.41Z" style="opacity:0.15"></path><path d="M196.06,92.4s1.25,23.64,2,28.94,1.55,31.3,1.55,34c8.76,7.14,22.53,15.21,31.34,18.09.46-4,.62-28.49.93-33.74s.47-20.12,1.56-24.16l-4.37-5.82s-1.24,18.9-14.34,11.34-13.87-27.63-13.87-27.63Z" style="fill:#96D0A4"></path><g style="opacity:0.1"><path d="M196.06,92.4s1.25,23.64,2,28.94,1.55,31.3,1.55,34c8.76,7.14,22.53,15.21,31.34,18.09.46-4,.62-28.49.93-33.74s.47-20.12,1.56-24.16l-4.37-5.82s-1.24,18.9-14.34,11.34-13.87-27.63-13.87-27.63Z"></path></g></g><path id="freepik--Tube--inject-235" d="M180.78,103.86a.93.93,0,0,1-.95-.09,2.93,2.93,0,0,1-1.33-2.29.9.9,0,0,1,.4-.86l68-39.33a.93.93,0,0,1,.94.09,2.94,2.94,0,0,1,1.32,2.3.92.92,0,0,1-.38.85Z" style="fill:#f5f5f5"></path><path d="M215.35,79.54l-1.39.81a4.33,4.33,0,0,1,2.77,2.72l1.09-.63A6.33,6.33,0,0,0,215.35,79.54Z" style="fill:#455a64"></path><path d="M236.82,71.45l1.09-.63a6.48,6.48,0,0,0-2.39-2.95l-1.31.76A4.74,4.74,0,0,1,236.82,71.45Z" style="fill:#455a64"></path><path d="M227.43,76.87l1.09-.63a6.41,6.41,0,0,0-2.48-2.9l-1.41.82C225.44,74.22,226.74,75.25,227.43,76.87Z" style="fill:#455a64"></path></g></g><g id="freepik--Shelves--inject-235"><g id="freepik--wall--inject-235"><polygon points="198.46 323.75 156.52 299.54 156.52 57.38 198.46 81.6 198.46 323.75" style="fill:#96D0A4"></polygon><polygon points="198.46 323.75 156.52 299.54 156.52 57.38 198.46 81.6 198.46 323.75" style="opacity:0.1"></polygon><polygon points="198.46 323.75 156.52 299.54 156.52 57.38 198.46 81.6 198.46 323.75" style="fill:#fff;opacity:0.5"></polygon><polygon points="198.46 81.6 201.95 79.58 201.96 321.73 198.46 323.75 198.46 81.6" style="fill:#96D0A4"></polygon><polygon points="198.46 81.6 201.95 79.58 201.96 321.73 198.46 323.75 198.46 81.6" style="fill:#fff;opacity:0.6000000000000001"></polygon></g><g id="freepik--Ledge--inject-235"><polygon points="198.46 319.71 149.53 347.96 149.53 352 198.46 323.75 198.46 319.71" style="fill:#96D0A4"></polygon><polygon points="198.46 319.71 149.53 347.96 149.53 352 198.46 323.75 198.46 319.71" style="fill:#fff;opacity:0.6000000000000001"></polygon><polygon points="156.52 295.5 198.46 319.71 149.53 347.96 107.59 323.75 156.52 295.5" style="fill:#96D0A4"></polygon><polygon points="156.52 295.5 198.46 319.71 149.53 347.96 107.59 323.75 156.52 295.5" style="fill:#fff;opacity:0.7000000000000001"></polygon></g><g id="freepik--Tenis--inject-235"><g id="freepik--shadow--inject-235"><path d="M166.27,312.08c-2.94,1.51-1,3.58.51,4.17,2.85,1.1,3.33,1.05,5,3A13.05,13.05,0,0,0,182,324.18c5.42,0,9.88-2.32,7.51-5.15s-4.87-2.76-8.84-4.54-3.95-2.54-6.52-3.94C172,309.36,168.78,310.79,166.27,312.08Z" style="opacity:0.2"></path><path d="M153.55,319.41c-2.94,1.51-1,3.58.51,4.16,2.85,1.11,3.33,1.05,5,3a13.08,13.08,0,0,0,10.26,4.93c5.42,0,9.88-2.31,7.51-5.15s-4.87-2.76-8.84-4.54-3.95-2.53-6.52-3.94C159.27,316.69,156.06,318.11,153.55,319.41Z" style="opacity:0.2"></path></g><path d="M167.41,302.48a7.67,7.67,0,0,1,3-1,6.28,6.28,0,0,1,1.37,0,3.66,3.66,0,0,1,1.48.46,3.86,3.86,0,0,1,1.65,1.86,2.21,2.21,0,0,1,.19.88c0,1-1.19,1.64-1.83,2.08a5.3,5.3,0,0,1-2.9,1.09C168.05,307.81,166.78,304.58,167.41,302.48Z"></path><path d="M189.19,318.83a2.74,2.74,0,0,1-.68,2.49,9.58,9.58,0,0,1-7.48,1.89c-3.62-.56-5.51-1.75-6.87-3.14s-3.26-3.36-4.88-3.79a8.65,8.65,0,0,1-3.57-1.73c-.45-.54-.2-2.93-.2-2.93Z" style="fill:#96D0A4"></path><path d="M189.19,318.83a2.74,2.74,0,0,1-.68,2.49,9.58,9.58,0,0,1-7.48,1.89c-3.62-.56-5.51-1.75-6.87-3.14s-3.26-3.36-4.88-3.79a8.65,8.65,0,0,1-3.57-1.73c-.45-.54-.2-2.93-.2-2.93Z" style="opacity:0.1"></path><path d="M167.41,302.48s-.2,0-.33.54-.44,2.56-.76,3.64a22,22,0,0,0-.8,5.78c.1,1.23,2.55,2.1,4.09,2.8a18,18,0,0,1,4.91,3.74,12.78,12.78,0,0,0,7.48,3.31c2.82,0,6.08-1,6.92-2.47,1-1.82.41-2.88-3.6-5.11-.76-.42-3.4-2.3-4.3-3a15.32,15.32,0,0,1-5.71-7.63,1.67,1.67,0,0,0-.52-1A1.18,1.18,0,0,0,174,303a6.6,6.6,0,0,0-2.07.67c-.58.29-1.4.64-1.45,1.45a2.79,2.79,0,0,0,.09.82c0,.17.06.39-.08.49s-.28,0-.38-.13a11.68,11.68,0,0,1-1-1.54,4.46,4.46,0,0,0-.6-.76c-.21-.2-.5-.3-.68-.53A1.52,1.52,0,0,1,167.41,302.48Z" style="fill:#96D0A4"></path><path d="M179.74,315.25c2.51,1.2,1.36,1.74.62,1.85s-4.9-2.81-7.39-5.22-4.14-5.24-5.11-6.16c-.36-.34-.74-.77-1.08-1.16.12-.65.22-1.23.3-1.54.13-.55.33-.54.33-.54a1.52,1.52,0,0,0,.39,1c.18.23.47.33.68.53a4.46,4.46,0,0,1,.6.76,11.68,11.68,0,0,0,1,1.54C172.11,309.59,177.22,314.06,179.74,315.25Z" style="opacity:0.30000000000000004"></path><path d="M174.52,319a25.73,25.73,0,0,0-2.13-1.94h0s4.66,3.42,6.77,1.91a2.26,2.26,0,0,0,.83-2.57c0-.38,3.29-2,4.55-2.15h0a9.11,9.11,0,0,0,.78.49c4,2.23,4.64,3.29,3.6,5.11-.84,1.47-3.23,2.6-6.88,2.57A13.14,13.14,0,0,1,174.52,319Z" style="fill:#fafafa"></path><path d="M180.22,316.67a.27.27,0,0,0,.19-.11,5.85,5.85,0,0,1,4.46-1.87.29.29,0,0,0,.31-.26.27.27,0,0,0-.21-.32,6.31,6.31,0,0,0-4.93,2.08.32.32,0,0,0,0,.41A.23.23,0,0,0,180.22,316.67Z" style="fill:#e6e6e6"></path><path d="M178.07,315.07a.26.26,0,0,0,.19-.1,5.85,5.85,0,0,1,4.46-1.88.29.29,0,0,0,.31-.25.27.27,0,0,0-.21-.32,6.32,6.32,0,0,0-4.93,2.08.3.3,0,0,0,0,.4A.23.23,0,0,0,178.07,315.07Z" style="fill:#e6e6e6"></path><path d="M175.91,313.56a.28.28,0,0,0,.2-.1,5.82,5.82,0,0,1,4.46-1.88.28.28,0,0,0,.3-.25.25.25,0,0,0-.2-.32,6.32,6.32,0,0,0-4.93,2.07.32.32,0,0,0,0,.41A.23.23,0,0,0,175.91,313.56Z" style="fill:#e6e6e6"></path><path d="M173.94,311.84a.31.31,0,0,0,.2-.11,5.84,5.84,0,0,1,4.45-1.87.29.29,0,0,0,.31-.25.27.27,0,0,0-.21-.33,6.31,6.31,0,0,0-4.93,2.08.32.32,0,0,0,0,.41A.23.23,0,0,0,173.94,311.84Z" style="fill:#e6e6e6"></path><path d="M172,310.12a.31.31,0,0,0,.2-.11,5.84,5.84,0,0,1,4.89-1.89.29.29,0,0,0,.31-.26.27.27,0,0,0-.21-.32,6.38,6.38,0,0,0-5.37,2.1.32.32,0,0,0,0,.41A.23.23,0,0,0,172,310.12Z" style="fill:#e6e6e6"></path><path d="M154.57,309.73a8.05,8.05,0,0,1,3-1,6.86,6.86,0,0,1,1.36,0,3.75,3.75,0,0,1,1.49.46,3.86,3.86,0,0,1,1.64,1.87,2,2,0,0,1,.2.88c0,.94-1.19,1.64-1.83,2.07a5.34,5.34,0,0,1-2.9,1.1C155.22,315.06,154,311.83,154.57,309.73Z"></path><path d="M176.36,326.09a2.75,2.75,0,0,1-.69,2.48,9.57,9.57,0,0,1-7.47,1.9c-3.62-.57-5.51-1.75-6.87-3.15s-3.26-3.36-4.89-3.78a8.79,8.79,0,0,1-3.56-1.74c-.46-.54-.2-2.92-.2-2.92Z" style="fill:#96D0A4"></path><path d="M176.36,326.09a2.75,2.75,0,0,1-.69,2.48,9.57,9.57,0,0,1-7.47,1.9c-3.62-.57-5.51-1.75-6.87-3.15s-3.26-3.36-4.89-3.78a8.79,8.79,0,0,1-3.56-1.74c-.46-.54-.2-2.92-.2-2.92Z" style="opacity:0.1"></path><path d="M154.57,309.73s-.19,0-.33.54-.43,2.57-.75,3.64a22.14,22.14,0,0,0-.81,5.79c.11,1.22,2.55,2.09,4.1,2.79a18.41,18.41,0,0,1,4.91,3.74,12.69,12.69,0,0,0,7.47,3.31c2.83,0,6.08-1,6.92-2.47,1-1.82.42-2.88-3.6-5.1-.76-.42-3.4-2.3-4.29-3a15.29,15.29,0,0,1-5.71-7.64,1.68,1.68,0,0,0-.53-1,1.15,1.15,0,0,0-.8-.09,6.78,6.78,0,0,0-2.07.67c-.58.3-1.41.64-1.46,1.45a2.9,2.9,0,0,0,.1.83c0,.16.06.38-.08.48s-.28,0-.38-.13a10.13,10.13,0,0,1-1-1.53,3.83,3.83,0,0,0-.61-.77c-.21-.2-.49-.3-.67-.53A1.53,1.53,0,0,1,154.57,309.73Z" style="fill:#96D0A4"></path><path d="M166.9,322.51c2.51,1.19,1.36,1.73.62,1.84s-4.89-2.81-7.38-5.21S156,313.9,155,313a15.09,15.09,0,0,1-1.08-1.16c.12-.64.22-1.23.29-1.54.14-.55.33-.54.33-.54a1.53,1.53,0,0,0,.4,1c.18.23.46.33.67.53a3.83,3.83,0,0,1,.61.77,10.13,10.13,0,0,0,1,1.53A31.24,31.24,0,0,0,166.9,322.51Z" style="opacity:0.30000000000000004"></path><path d="M161.69,326.23a28,28,0,0,0-2.14-1.94h0s4.67,3.41,6.77,1.9a2.26,2.26,0,0,0,.84-2.56c0-.39,3.28-2,4.54-2.15h0l.78.49c4,2.22,4.65,3.28,3.6,5.1-.84,1.47-3.23,2.6-6.88,2.57A13,13,0,0,1,161.69,326.23Z" style="fill:#fafafa"></path><path d="M167.39,323.92a.26.26,0,0,0,.19-.1,5.84,5.84,0,0,1,4.46-1.88.28.28,0,0,0,.3-.25.25.25,0,0,0-.2-.32,6.29,6.29,0,0,0-4.93,2.07.32.32,0,0,0,0,.41A.24.24,0,0,0,167.39,323.92Z" style="fill:#e6e6e6"></path><path d="M165.24,322.33a.27.27,0,0,0,.19-.11,5.83,5.83,0,0,1,4.46-1.87.28.28,0,0,0,.3-.26.26.26,0,0,0-.2-.32,6.29,6.29,0,0,0-4.93,2.08.31.31,0,0,0,0,.41A.21.21,0,0,0,165.24,322.33Z" style="fill:#e6e6e6"></path><path d="M163.08,320.81a.23.23,0,0,0,.19-.1,5.81,5.81,0,0,1,4.46-1.87.29.29,0,0,0,.31-.26.26.26,0,0,0-.21-.32,6.32,6.32,0,0,0-4.93,2.08.32.32,0,0,0,0,.41A.19.19,0,0,0,163.08,320.81Z" style="fill:#e6e6e6"></path><path d="M161.11,319.09a.26.26,0,0,0,.19-.1,5.8,5.8,0,0,1,4.46-1.87.28.28,0,0,0,.3-.26.26.26,0,0,0-.2-.32,6.29,6.29,0,0,0-4.93,2.08.31.31,0,0,0,0,.41A.21.21,0,0,0,161.11,319.09Z" style="fill:#e6e6e6"></path><path d="M159.18,317.37a.24.24,0,0,0,.19-.11,5.92,5.92,0,0,1,4.9-1.89.28.28,0,0,0,.3-.25.25.25,0,0,0-.2-.32,6.34,6.34,0,0,0-5.37,2.1.31.31,0,0,0,0,.41A.27.27,0,0,0,159.18,317.37Z" style="fill:#e6e6e6"></path></g><g id="freepik--ledge--inject-235"><polygon points="198.46 291.46 149.53 319.71 149.53 323.75 198.46 295.5 198.46 291.46" style="fill:#e6e6e6"></polygon><polygon points="156.52 267.25 198.46 291.46 149.53 319.71 107.59 295.5 156.52 267.25" style="fill:#f5f5f5"></polygon></g><g id="freepik--tenis--inject-235"><g id="freepik--shadow--inject-235"><path d="M162.77,287.05c-2.94,1.51-1,3.58.51,4.16,2.85,1.11,3.33,1.05,5,3a13.1,13.1,0,0,0,10.26,4.94c5.42,0,9.88-2.32,7.51-5.16s-4.87-2.76-8.84-4.54-3.94-2.53-6.52-3.94C168.49,284.33,165.29,285.75,162.77,287.05Z" style="fill:#e6e6e6"></path><path d="M150.05,294.37c-2.94,1.51-1,3.58.51,4.17,2.85,1.1,3.33,1,5,3a13.05,13.05,0,0,0,10.26,4.94c5.42,0,9.88-2.32,7.51-5.15s-4.87-2.76-8.84-4.54-3.95-2.54-6.52-3.94C155.77,291.65,152.57,293.08,150.05,294.37Z" style="fill:#e6e6e6"></path></g><path d="M163.91,277.45a7.67,7.67,0,0,1,3-1,6.28,6.28,0,0,1,1.37,0,3.66,3.66,0,0,1,1.48.46,3.83,3.83,0,0,1,1.65,1.87,2.17,2.17,0,0,1,.19.88c0,.94-1.19,1.64-1.83,2.08a5.3,5.3,0,0,1-2.9,1.09C164.56,282.77,163.29,279.54,163.91,277.45Z"></path><path d="M185.69,293.8a2.73,2.73,0,0,1-.68,2.48,9.56,9.56,0,0,1-7.48,1.9c-3.61-.57-5.51-1.75-6.86-3.15s-3.27-3.36-4.89-3.78a8.77,8.77,0,0,1-3.57-1.74c-.45-.54-.2-2.92-.2-2.92Z" style="fill:#96D0A4"></path><path d="M163.91,277.45s-.2,0-.33.53-.43,2.57-.76,3.64a22.1,22.1,0,0,0-.8,5.79c.1,1.22,2.55,2.09,4.1,2.79a18.58,18.58,0,0,1,4.9,3.74,12.72,12.72,0,0,0,7.48,3.31c2.82,0,6.08-1,6.92-2.47,1-1.81.42-2.88-3.6-5.1-.76-.42-3.4-2.3-4.3-3a15.4,15.4,0,0,1-5.71-7.64,1.67,1.67,0,0,0-.52-1,1.23,1.23,0,0,0-.81-.09,7.26,7.26,0,0,0-2.07.67c-.58.3-1.4.64-1.45,1.45a2.86,2.86,0,0,0,.09.83c0,.17.06.39-.08.48s-.28,0-.38-.12a11.68,11.68,0,0,1-1-1.54,3.79,3.79,0,0,0-.6-.77c-.21-.2-.5-.3-.68-.53A1.48,1.48,0,0,1,163.91,277.45Z" style="fill:#96D0A4"></path><path d="M176.24,290.22c2.51,1.2,1.36,1.73.62,1.84s-4.9-2.81-7.39-5.21-4.14-5.24-5.11-6.17c-.36-.34-.74-.76-1.08-1.15.12-.65.22-1.24.3-1.55.13-.55.33-.53.33-.53a1.48,1.48,0,0,0,.39,1c.18.23.47.33.68.53a3.79,3.79,0,0,1,.6.77,11.68,11.68,0,0,0,1,1.54A31.35,31.35,0,0,0,176.24,290.22Z" style="opacity:0.30000000000000004"></path><path d="M171,293.94a27.81,27.81,0,0,0-2.13-1.94h0s4.66,3.41,6.77,1.9a2.25,2.25,0,0,0,.83-2.56c0-.38,3.29-2,4.55-2.15h0c.33.22.6.39.78.49,4,2.22,4.64,3.29,3.6,5.1-.84,1.47-3.23,2.6-6.88,2.57A13.08,13.08,0,0,1,171,293.94Z" style="fill:#fafafa"></path><path d="M176.72,291.63a.26.26,0,0,0,.19-.1,5.85,5.85,0,0,1,4.46-1.88.29.29,0,0,0,.31-.25.26.26,0,0,0-.21-.32,6.31,6.31,0,0,0-4.93,2.08.3.3,0,0,0,0,.4A.23.23,0,0,0,176.72,291.63Z" style="fill:#e6e6e6"></path><path d="M174.57,290a.31.31,0,0,0,.2-.11,5.81,5.81,0,0,1,4.45-1.87.29.29,0,0,0,.31-.25.27.27,0,0,0-.21-.33,6.32,6.32,0,0,0-4.93,2.08.33.33,0,0,0,0,.41A.23.23,0,0,0,174.57,290Z" style="fill:#e6e6e6"></path><path d="M172.42,288.53a.27.27,0,0,0,.19-.11,5.78,5.78,0,0,1,4.46-1.87.28.28,0,0,0,.3-.26.26.26,0,0,0-.2-.32,6.29,6.29,0,0,0-4.93,2.08.32.32,0,0,0,0,.41A.24.24,0,0,0,172.42,288.53Z" style="fill:#e6e6e6"></path><path d="M170.44,286.8a.3.3,0,0,0,.2-.1,5.8,5.8,0,0,1,4.46-1.87.29.29,0,0,0,.3-.26.26.26,0,0,0-.2-.32,6.29,6.29,0,0,0-4.93,2.08.32.32,0,0,0,0,.41A.19.19,0,0,0,170.44,286.8Z" style="fill:#e6e6e6"></path><path d="M168.51,285.08a.26.26,0,0,0,.2-.11,5.9,5.9,0,0,1,4.89-1.89.29.29,0,0,0,.31-.25.26.26,0,0,0-.21-.32,6.35,6.35,0,0,0-5.37,2.1.32.32,0,0,0,0,.41A.22.22,0,0,0,168.51,285.08Z" style="fill:#e6e6e6"></path><path d="M151.08,284.7a7.62,7.62,0,0,1,3-1,6.18,6.18,0,0,1,1.36,0,3.7,3.7,0,0,1,1.49.46,3.84,3.84,0,0,1,1.64,1.86,2.06,2.06,0,0,1,.2.88c0,.95-1.19,1.64-1.83,2.08a5.3,5.3,0,0,1-2.9,1.09C151.72,290,150.45,286.8,151.08,284.7Z"></path><path d="M172.86,301.06a2.76,2.76,0,0,1-.68,2.48,9.58,9.58,0,0,1-7.48,1.89c-3.62-.56-5.51-1.75-6.87-3.14s-3.26-3.36-4.88-3.79a8.65,8.65,0,0,1-3.57-1.73c-.45-.54-.2-2.93-.2-2.93Z" style="fill:#96D0A4"></path><path d="M151.08,284.7s-.2,0-.34.54-.43,2.56-.75,3.64a22.44,22.44,0,0,0-.81,5.78c.11,1.23,2.55,2.1,4.1,2.8a18.41,18.41,0,0,1,4.91,3.74,12.78,12.78,0,0,0,7.47,3.31c2.83,0,6.08-1,6.93-2.47,1-1.82.41-2.88-3.6-5.11-.77-.42-3.41-2.3-4.3-3a15.26,15.26,0,0,1-5.71-7.63,1.67,1.67,0,0,0-.52-1,1.18,1.18,0,0,0-.81-.09,6.52,6.52,0,0,0-2.07.67c-.58.29-1.41.64-1.46,1.45a2.79,2.79,0,0,0,.1.82c0,.17.06.39-.08.49s-.28,0-.38-.13a10.76,10.76,0,0,1-1-1.54,4.07,4.07,0,0,0-.61-.76c-.21-.2-.49-.3-.67-.53A1.47,1.47,0,0,1,151.08,284.7Z" style="fill:#96D0A4"></path><path d="M163.4,297.47c2.51,1.2,1.36,1.74.62,1.85s-4.89-2.81-7.38-5.22-4.14-5.24-5.11-6.16c-.36-.34-.74-.77-1.08-1.16.12-.64.22-1.23.29-1.54.14-.55.34-.54.34-.54a1.47,1.47,0,0,0,.39,1c.18.23.46.33.67.53a4.07,4.07,0,0,1,.61.76,10.76,10.76,0,0,0,1,1.54C155.78,291.81,160.89,296.28,163.4,297.47Z" style="opacity:0.30000000000000004"></path><path d="M158.19,301.2a24.33,24.33,0,0,0-2.14-1.94h0s4.67,3.42,6.77,1.91a2.27,2.27,0,0,0,.84-2.57c0-.38,3.29-2,4.54-2.15h0a9,9,0,0,0,.79.49c4,2.23,4.64,3.29,3.6,5.11-.85,1.47-3.24,2.6-6.88,2.57A13.14,13.14,0,0,1,158.19,301.2Z" style="fill:#fafafa"></path><path d="M163.89,298.89a.27.27,0,0,0,.19-.11,5.83,5.83,0,0,1,4.46-1.87.28.28,0,0,0,.3-.26.26.26,0,0,0-.2-.32,6.29,6.29,0,0,0-4.93,2.08.31.31,0,0,0,0,.41A.21.21,0,0,0,163.89,298.89Z" style="fill:#e6e6e6"></path><path d="M161.74,297.29a.26.26,0,0,0,.19-.1,5.85,5.85,0,0,1,4.46-1.88.28.28,0,0,0,.3-.25.26.26,0,0,0-.2-.32,6.29,6.29,0,0,0-4.93,2.08.31.31,0,0,0,0,.41A.25.25,0,0,0,161.74,297.29Z" style="fill:#e6e6e6"></path><path d="M159.58,295.78a.3.3,0,0,0,.2-.1,5.82,5.82,0,0,1,4.46-1.88.28.28,0,0,0,.3-.25.26.26,0,0,0-.2-.32,6.33,6.33,0,0,0-4.94,2.08.32.32,0,0,0,0,.4A.23.23,0,0,0,159.58,295.78Z" style="fill:#e6e6e6"></path><path d="M157.61,294.06a.24.24,0,0,0,.19-.11,5.88,5.88,0,0,1,4.46-1.87.29.29,0,0,0,.31-.25.27.27,0,0,0-.21-.32,6.29,6.29,0,0,0-4.93,2.07.31.31,0,0,0,0,.41A.23.23,0,0,0,157.61,294.06Z" style="fill:#e6e6e6"></path><path d="M155.68,292.34a.27.27,0,0,0,.19-.11,5.88,5.88,0,0,1,4.9-1.89.28.28,0,0,0,.3-.26.26.26,0,0,0-.2-.32,6.38,6.38,0,0,0-5.37,2.1.32.32,0,0,0,0,.41A.23.23,0,0,0,155.68,292.34Z" style="fill:#e6e6e6"></path></g><g id="freepik--ledge--inject-235"><polygon points="198.46 263.21 149.53 291.46 149.53 295.5 198.46 267.25 198.46 263.21" style="fill:#e6e6e6"></polygon><polygon points="156.52 239 198.46 263.21 149.53 291.46 107.59 267.25 156.52 239" style="fill:#f5f5f5"></polygon></g><g id="freepik--Heels--inject-235"><g id="freepik--shadow--inject-235"><path d="M160.11,258.79c-2.73,1.4-2.13,3.4,0,5.29a45.73,45.73,0,0,1,5,5c1.54,1.81,5.76,4.12,10.82,4.12s9.21-2.16,7-4.81-4.55-2.58-8.25-4.24-5.88-3.62-8.28-4.93C164.4,258.11,162.46,257.58,160.11,258.79Z" style="fill:#e6e6e6"></path><path d="M171.14,252.72c-2.74,1.41-2.14,3.4,0,5.29a45.58,45.58,0,0,1,5,5c1.54,1.81,5.76,4.12,10.82,4.12s9.21-2.16,7-4.81-4.54-2.57-8.25-4.24-5.87-3.62-8.28-4.93C175.42,252.05,173.49,251.51,171.14,252.72Z" style="fill:#e6e6e6"></path></g><path d="M169.87,245.92c-.5,1.6.12,3.56.51,5.06a32.46,32.46,0,0,1,.32,5.53h0a.52.52,0,0,0,.32.46,1.58,1.58,0,0,0,1.49.07.58.58,0,0,0,.33-.44h0c0-.13-.24-4.74,1.43-4.24C174,250.4,172,248.17,169.87,245.92Z" style="fill:#96D0A4"></path><path d="M169.87,245.92c-.5,1.6.12,3.56.51,5.06a32.46,32.46,0,0,1,.32,5.53h0a.52.52,0,0,0,.32.46,1.58,1.58,0,0,0,1.49.07.58.58,0,0,0,.33-.44h0c0-.13-.24-4.74,1.43-4.24C174,250.4,172,248.17,169.87,245.92Z" style="opacity:0.6000000000000001"></path><path d="M189.35,258.66c.87,1.2-2.15,2.82-5.67,1-3.08-1.56-4.06-4.51-5.89-8.21-1.34-2.69-3.4-8-4.23-9.32-1.33-2.11-1.45-3.34,0-3.78.34.45,8.59,11.61,6.91,7.54s-2.86-6.53-3.83-7.37a3.58,3.58,0,0,0-2.37-.84h-.16c-1.5,0-2.78.74-3,1.93a43.4,43.4,0,0,1-1.47,4.88c-.31.93-.63,3.58,1.41,5s3.76,3,4.41,5c.83,2.64,1.83,7.66,4.12,9.17,3.55,2.33,9.4,3.56,12.72,1.19C194.48,263.33,192.86,261.47,189.35,258.66Z" style="fill:#96D0A4"></path><path d="M189.35,258.66c.87,1.2-2.15,2.82-5.67,1-3.08-1.56-4.06-4.51-5.89-8.21-1.34-2.69-3.4-8-4.23-9.32-1.33-2.11-1.45-3.34,0-3.78.34.45,8.59,11.61,6.91,7.54s-2.86-6.53-3.83-7.37a3.58,3.58,0,0,0-2.37-.84h-.16c-1.5,0-2.78.74-3,1.93a43.4,43.4,0,0,1-1.47,4.88c-.31.93-.63,3.58,1.41,5s3.76,3,4.41,5c.83,2.64,1.83,7.66,4.12,9.17,3.55,2.33,9.4,3.56,12.72,1.19C194.48,263.33,192.86,261.47,189.35,258.66Z" style="opacity:0.1"></path><path d="M183.69,259.71c-3.09-1.55-4.07-4.5-5.91-8.21-1.32-2.7-3.39-8-4.22-9.31-1.37-2.19-1.48-3.44.19-3.85,1.29-.2,2.82-.39,4.6,3.17s4,7.82,5.47,10.44a30.41,30.41,0,0,0,5.52,6.71C190.22,259.86,187.19,261.48,183.69,259.71Z" style="fill:#96D0A4"></path><path d="M183.69,259.71c-3.09-1.55-4.07-4.5-5.91-8.21-1.32-2.7-3.39-8-4.22-9.31-1.37-2.19-1.48-3.44.19-3.85,1.29-.2,2.82-.39,4.6,3.17s4,7.82,5.47,10.44a30.41,30.41,0,0,0,5.52,6.71C190.22,259.86,187.19,261.48,183.69,259.71Z" style="opacity:0.2"></path><path d="M184.17,258.74c-2.54-2.31-5.08-8.73-6.07-10.64a5.16,5.16,0,0,0-3-2.78c.9,2.06,1.95,4.57,2.73,6.18,1.84,3.71,2.82,6.66,5.91,8.21a6.83,6.83,0,0,0,2.89.77A16.14,16.14,0,0,1,184.17,258.74Z" style="opacity:0.30000000000000004"></path><path d="M159.15,252c-.5,1.6.13,3.55.51,5.06a32.46,32.46,0,0,1,.32,5.53h0a.55.55,0,0,0,.32.46,1.58,1.58,0,0,0,1.49.07.58.58,0,0,0,.33-.44h0c0-.13-.23-4.74,1.43-4.23C163.33,256.5,161.28,254.27,159.15,252Z" style="fill:#96D0A4"></path><path d="M159.15,252c-.5,1.6.13,3.55.51,5.06a32.46,32.46,0,0,1,.32,5.53h0a.55.55,0,0,0,.32.46,1.58,1.58,0,0,0,1.49.07.58.58,0,0,0,.33-.44h0c0-.13-.23-4.74,1.43-4.23C163.33,256.5,161.28,254.27,159.15,252Z" style="opacity:0.6000000000000001"></path><path d="M178.63,264.77c.87,1.2-2.15,2.82-5.67,1-3.08-1.55-4.06-4.5-5.89-8.21-1.33-2.69-3.4-8-4.23-9.31-1.33-2.11-1.45-3.34,0-3.79.34.46,8.59,11.61,6.92,7.54s-2.86-6.52-3.83-7.37a3.61,3.61,0,0,0-2.38-.83h-.16c-1.5.05-2.77.74-3,1.93a44.32,44.32,0,0,1-1.48,4.88c-.31.93-.63,3.57,1.41,5s3.77,2.95,4.41,5c.83,2.64,1.84,7.66,4.12,9.16,3.55,2.33,9.4,3.57,12.72,1.2C183.76,269.43,182.14,267.58,178.63,264.77Z" style="fill:#96D0A4"></path><path d="M178.63,264.77c.87,1.2-2.15,2.82-5.67,1-3.08-1.55-4.06-4.5-5.89-8.21-1.33-2.69-3.4-8-4.23-9.31-1.33-2.11-1.45-3.34,0-3.79.34.46,8.59,11.61,6.92,7.54s-2.86-6.52-3.83-7.37a3.61,3.61,0,0,0-2.38-.83h-.16c-1.5.05-2.77.74-3,1.93a44.32,44.32,0,0,1-1.48,4.88c-.31.93-.63,3.57,1.41,5s3.77,2.95,4.41,5c.83,2.64,1.84,7.66,4.12,9.16,3.55,2.33,9.4,3.57,12.72,1.2C183.76,269.43,182.14,267.58,178.63,264.77Z" style="opacity:0.1"></path><path d="M173,265.82c-3.09-1.55-4.07-4.5-5.9-8.22-1.33-2.69-3.4-8-4.23-9.31-1.37-2.18-1.48-3.44.19-3.84,1.29-.2,2.82-.4,4.6,3.17s4,7.81,5.47,10.43a30.5,30.5,0,0,0,5.52,6.72C179.5,266,176.47,267.59,173,265.82Z" style="fill:#96D0A4"></path><path d="M173,265.82c-3.09-1.55-4.07-4.5-5.9-8.22-1.33-2.69-3.4-8-4.23-9.31-1.37-2.18-1.48-3.44.19-3.84,1.29-.2,2.82-.4,4.6,3.17s4,7.81,5.47,10.43a30.5,30.5,0,0,0,5.52,6.72C179.5,266,176.47,267.59,173,265.82Z" style="opacity:0.2"></path><path d="M173.46,264.85c-2.55-2.32-5.09-8.74-6.08-10.65a5.2,5.2,0,0,0-3-2.78c.9,2.06,1.95,4.58,2.74,6.18,1.83,3.72,2.81,6.67,5.9,8.22a7,7,0,0,0,2.89.77A16.23,16.23,0,0,1,173.46,264.85Z" style="opacity:0.30000000000000004"></path></g><g id="freepik--heels--inject-235"><g id="freepik--shadow--inject-235"><path d="M137.64,271.29c-2.74,1.41-2.14,3.4,0,5.29a45.58,45.58,0,0,1,5,5c1.54,1.81,5.77,4.12,10.82,4.12s9.21-2.16,7-4.81-4.55-2.57-8.25-4.24-5.88-3.62-8.29-4.93C141.93,270.61,140,270.08,137.64,271.29Z" style="fill:#e6e6e6"></path><path d="M148.66,265.22c-2.74,1.41-2.13,3.4,0,5.29a45.58,45.58,0,0,1,5,5c1.54,1.81,5.77,4.12,10.82,4.12s9.22-2.16,7-4.81-4.55-2.57-8.25-4.23-5.88-3.63-8.28-4.94C153,264.55,151,264,148.66,265.22Z" style="fill:#e6e6e6"></path></g><path d="M147.69,258.15c-.51,1.59.12,3.55.51,5.06a33.25,33.25,0,0,1,.31,5.53h0a.52.52,0,0,0,.31.45,1.6,1.6,0,0,0,1.5.08.61.61,0,0,0,.33-.45h0c0-.13-.24-4.74,1.43-4.24C151.86,262.62,149.82,260.39,147.69,258.15Z" style="fill:#96D0A4"></path><path d="M147.69,258.15c-.51,1.59.12,3.55.51,5.06a33.25,33.25,0,0,1,.31,5.53h0a.52.52,0,0,0,.31.45,1.6,1.6,0,0,0,1.5.08.61.61,0,0,0,.33-.45h0c0-.13-.24-4.74,1.43-4.24C151.86,262.62,149.82,260.39,147.69,258.15Z" style="opacity:0.6000000000000001"></path><path d="M167.17,270.89c.86,1.2-2.16,2.81-5.67,1-3.08-1.55-4.06-4.5-5.9-8.21-1.33-2.69-3.39-8-4.22-9.31-1.33-2.12-1.45-3.34,0-3.79.33.46,8.59,11.61,6.91,7.54s-2.86-6.53-3.83-7.37a3.54,3.54,0,0,0-2.38-.83H152c-1.49,0-2.77.74-3,1.92a44.4,44.4,0,0,1-1.47,4.89c-.31.92-.63,3.57,1.41,5s3.76,2.95,4.41,5c.82,2.64,1.83,7.66,4.12,9.16,3.54,2.33,9.39,3.57,12.72,1.2C172.29,275.55,170.68,273.7,167.17,270.89Z" style="fill:#96D0A4"></path><path d="M167.17,270.89c.86,1.2-2.16,2.81-5.67,1-3.08-1.55-4.06-4.5-5.9-8.21-1.33-2.69-3.39-8-4.22-9.31-1.33-2.12-1.45-3.34,0-3.79.33.46,8.59,11.61,6.91,7.54s-2.86-6.53-3.83-7.37a3.54,3.54,0,0,0-2.38-.83H152c-1.49,0-2.77.74-3,1.92a44.4,44.4,0,0,1-1.47,4.89c-.31.92-.63,3.57,1.41,5s3.76,2.95,4.41,5c.82,2.64,1.83,7.66,4.12,9.16,3.54,2.33,9.39,3.57,12.72,1.2C172.29,275.55,170.68,273.7,167.17,270.89Z" style="opacity:0.1"></path><path d="M167.17,270.89c.86,1.2-2.16,2.81-5.67,1-3.08-1.55-4.06-4.5-5.9-8.21-1.33-2.69-3.39-8-4.22-9.31-1.33-2.12-1.45-3.34,0-3.79.33.46,8.59,11.61,6.91,7.54s-2.86-6.53-3.83-7.37a3.54,3.54,0,0,0-2.38-.83H152c-1.49,0-2.77.74-3,1.92a44.4,44.4,0,0,1-1.47,4.89c-.31.92-.63,3.57,1.41,5s3.76,2.95,4.41,5c.82,2.64,1.83,7.66,4.12,9.16,3.54,2.33,9.39,3.57,12.72,1.2C172.29,275.55,170.68,273.7,167.17,270.89Z" style="fill:#fff;opacity:0.4"></path><path d="M161.5,271.93c-3.08-1.55-4.07-4.5-5.9-8.21-1.33-2.69-3.39-8-4.23-9.31-1.36-2.19-1.47-3.44.2-3.85,1.29-.19,2.82-.39,4.6,3.18s4,7.81,5.47,10.43a30.74,30.74,0,0,0,5.52,6.72C168,272.08,165,273.7,161.5,271.93Z" style="fill:#96D0A4"></path><path d="M162,271c-2.54-2.31-5.09-8.73-6.07-10.64a5.19,5.19,0,0,0-3-2.78c.89,2.06,1.94,4.58,2.73,6.18,1.83,3.71,2.82,6.66,5.9,8.21a6.94,6.94,0,0,0,2.9.78A16.19,16.19,0,0,1,162,271Z" style="opacity:0.30000000000000004"></path><path d="M137,264.25c-.5,1.6.12,3.56.51,5.06a32.46,32.46,0,0,1,.32,5.53h0a.52.52,0,0,0,.32.46,1.58,1.58,0,0,0,1.49.07.58.58,0,0,0,.33-.44h0c0-.13-.24-4.74,1.43-4.24C141.14,268.73,139.1,266.5,137,264.25Z" style="fill:#96D0A4"></path><path d="M137,264.25c-.5,1.6.12,3.56.51,5.06a32.46,32.46,0,0,1,.32,5.53h0a.52.52,0,0,0,.32.46,1.58,1.58,0,0,0,1.49.07.58.58,0,0,0,.33-.44h0c0-.13-.24-4.74,1.43-4.24C141.14,268.73,139.1,266.5,137,264.25Z" style="opacity:0.6000000000000001"></path><path d="M156.45,277c.87,1.2-2.15,2.82-5.67,1.05-3.08-1.56-4.06-4.51-5.9-8.21-1.33-2.69-3.39-8-4.22-9.32-1.33-2.11-1.45-3.34,0-3.78.34.45,8.59,11.61,6.91,7.54s-2.86-6.53-3.83-7.37a3.59,3.59,0,0,0-2.37-.84h-.16c-1.5.05-2.78.74-3,1.93a43.4,43.4,0,0,1-1.47,4.88c-.31.93-.63,3.58,1.41,5s3.76,3,4.41,5c.83,2.64,1.83,7.66,4.12,9.17,3.55,2.33,9.4,3.56,12.72,1.19C161.57,281.66,160,279.8,156.45,277Z" style="fill:#96D0A4"></path><path d="M156.45,277c.87,1.2-2.15,2.82-5.67,1.05-3.08-1.56-4.06-4.51-5.9-8.21-1.33-2.69-3.39-8-4.22-9.32-1.33-2.11-1.45-3.34,0-3.78.34.45,8.59,11.61,6.91,7.54s-2.86-6.53-3.83-7.37a3.59,3.59,0,0,0-2.37-.84h-.16c-1.5.05-2.78.74-3,1.93a43.4,43.4,0,0,1-1.47,4.88c-.31.93-.63,3.58,1.41,5s3.76,3,4.41,5c.83,2.64,1.83,7.66,4.12,9.17,3.55,2.33,9.4,3.56,12.72,1.19C161.57,281.66,160,279.8,156.45,277Z" style="opacity:0.1"></path><path d="M156.45,277c.87,1.2-2.15,2.82-5.67,1.05-3.08-1.56-4.06-4.51-5.9-8.21-1.33-2.69-3.39-8-4.22-9.32-1.33-2.11-1.45-3.34,0-3.78.34.45,8.59,11.61,6.91,7.54s-2.86-6.53-3.83-7.37a3.59,3.59,0,0,0-2.37-.84h-.16c-1.5.05-2.78.74-3,1.93a43.4,43.4,0,0,1-1.47,4.88c-.31.93-.63,3.58,1.41,5s3.76,3,4.41,5c.83,2.64,1.83,7.66,4.12,9.17,3.55,2.33,9.4,3.56,12.72,1.19C161.57,281.66,160,279.8,156.45,277Z" style="fill:#fff;opacity:0.4"></path><path d="M150.79,278c-3.09-1.55-4.07-4.5-5.91-8.21-1.32-2.7-3.39-8-4.23-9.31-1.36-2.19-1.47-3.44.2-3.85,1.29-.2,2.82-.39,4.6,3.17s4,7.82,5.47,10.44a30.41,30.41,0,0,0,5.52,6.71C157.31,278.19,154.29,279.81,150.79,278Z" style="fill:#96D0A4"></path><path d="M151.27,277.07c-2.54-2.31-5.09-8.73-6.07-10.64a5.16,5.16,0,0,0-3-2.78c.9,2.06,1.94,4.57,2.73,6.18,1.84,3.71,2.82,6.66,5.91,8.21a7,7,0,0,0,2.89.77A16.14,16.14,0,0,1,151.27,277.07Z" style="opacity:0.30000000000000004"></path></g><g id="freepik--ledge--inject-235"><polygon points="198.46 234.96 149.53 263.21 149.53 267.25 198.46 239 198.46 234.96" style="fill:#e6e6e6"></polygon><polygon points="156.52 210.75 198.46 234.96 149.53 263.21 107.59 239 156.52 210.75" style="fill:#f5f5f5"></polygon></g><g id="freepik--Clothes--inject-235"><path d="M112,223v5.67a2.51,2.51,0,0,0,1.25,2.17L154,254.33a2.41,2.41,0,0,0,2.4.25L193,233.45a2.09,2.09,0,0,0,.87-1.91,7.06,7.06,0,0,0-3.28-5.46l-41.94-24.21Z" style="fill:#96D0A4"></path><path d="M154,247.21,112,223v5.67a2.51,2.51,0,0,0,1.25,2.17L154,254.33c1.81,1,3.28.3,3.28-1.67A7,7,0,0,0,154,247.21Z" style="fill:#96D0A4"></path><path d="M154,247.21,112,223v5.67a2.51,2.51,0,0,0,1.25,2.17L154,254.33c1.81,1,3.28.3,3.28-1.67A7,7,0,0,0,154,247.21Z" style="opacity:0.2"></path><path d="M152.05,248.47a2.37,2.37,0,0,1,1.09,1.82c0,.66-.49.9-1.09.56l-40-23.11v-2.37Z" style="opacity:0.2"></path><path d="M112,215.17v5.67a2.51,2.51,0,0,0,1.25,2.17L154,246.5a2.41,2.41,0,0,0,2.4.25L193,225.62a2.09,2.09,0,0,0,.87-1.91,7.06,7.06,0,0,0-3.28-5.46L148.67,194Z" style="fill:#96D0A4"></path><g style="opacity:0.1"><path d="M112,215.17v5.67a2.51,2.51,0,0,0,1.25,2.17L154,246.5a2.41,2.41,0,0,0,2.4.25L193,225.62a2.09,2.09,0,0,0,.87-1.91,7.06,7.06,0,0,0-3.28-5.46L148.67,194Z"></path></g><path d="M154,239.38,112,215.17v5.67a2.51,2.51,0,0,0,1.25,2.17L154,246.5c1.81,1.05,3.28.3,3.28-1.67A7,7,0,0,0,154,239.38Z" style="opacity:0.2"></path><path d="M152.05,240.64a2.37,2.37,0,0,1,1.09,1.82c0,.66-.49.9-1.09.56l-40-23.11v-2.37Z" style="opacity:0.2"></path><path d="M112,207.45v5.68a2.51,2.51,0,0,0,1.25,2.16L154,238.78a2.44,2.44,0,0,0,2.4.26L193,217.9a2.09,2.09,0,0,0,.87-1.91,7.06,7.06,0,0,0-3.28-5.46l-41.94-24.21Z" style="fill:#96D0A4"></path><g style="opacity:0.5"><path d="M112,207.45v5.68a2.51,2.51,0,0,0,1.25,2.16L154,238.78a2.44,2.44,0,0,0,2.4.26L193,217.9a2.09,2.09,0,0,0,.87-1.91,7.06,7.06,0,0,0-3.28-5.46l-41.94-24.21Z" style="fill:#fff"></path></g><path d="M154,231.66,112,207.45v5.68a2.51,2.51,0,0,0,1.25,2.16L154,238.78c1.81,1.05,3.28.3,3.28-1.66A7.06,7.06,0,0,0,154,231.66Z" style="opacity:0.2"></path><path d="M152.05,232.92a2.37,2.37,0,0,1,1.09,1.82c0,.66-.49.91-1.09.56l-40-23.11v-2.37Z" style="opacity:0.2"></path></g><g id="freepik--ledge--inject-235"><polygon points="198.46 181.15 149.53 209.4 149.53 213.44 198.46 185.19 198.46 181.15" style="fill:#e6e6e6"></polygon><polygon points="156.52 156.94 198.46 181.15 149.53 209.4 107.59 185.19 156.52 156.94" style="fill:#f5f5f5"></polygon></g><g id="freepik--clothes--inject-235"><path d="M148.74,172.43v3.39a1.49,1.49,0,0,0,.74,1.29l24.3,14a1.42,1.42,0,0,0,1.43.16L194,180.45a1.25,1.25,0,0,0,.52-1.14,4.2,4.2,0,0,0-2-3.26l-25-14.46Z" style="fill:#96D0A4"></path><g style="opacity:0.1"><path d="M148.74,172.43v3.39a1.49,1.49,0,0,0,.74,1.29l24.3,14a1.42,1.42,0,0,0,1.43.16L194,180.45a1.25,1.25,0,0,0,.52-1.14,4.2,4.2,0,0,0-2-3.26l-25-14.46Z"></path></g><path d="M173.78,186.88l-25-14.45v3.39a1.49,1.49,0,0,0,.74,1.29l24.3,14c1.08.63,2,.19,2-1A4.23,4.23,0,0,0,173.78,186.88Z" style="opacity:0.2"></path><path d="M172.63,187.64a1.41,1.41,0,0,1,.66,1.08c0,.4-.3.54-.66.34l-23.89-13.8v-1.42Z" style="opacity:0.2"></path><path d="M148.74,167.82v3.39a1.49,1.49,0,0,0,.74,1.29l24.3,14a1.44,1.44,0,0,0,1.43.15L194,175.84a1.25,1.25,0,0,0,.52-1.14,4.2,4.2,0,0,0-2-3.26l-25-14.45Z" style="fill:#96D0A4"></path><g style="opacity:0.5"><path d="M148.74,167.82v3.39a1.49,1.49,0,0,0,.74,1.29l24.3,14a1.44,1.44,0,0,0,1.43.15L194,175.84a1.25,1.25,0,0,0,.52-1.14,4.2,4.2,0,0,0-2-3.26l-25-14.45Z" style="fill:#fff"></path></g><path d="M173.78,182.27l-25-14.45v3.39a1.49,1.49,0,0,0,.74,1.29l24.3,14c1.08.62,2,.18,2-1A4.23,4.23,0,0,0,173.78,182.27Z" style="opacity:0.2"></path><path d="M172.63,183a1.41,1.41,0,0,1,.66,1.09c0,.39-.3.53-.66.33l-23.89-13.8v-1.41Z" style="opacity:0.2"></path><path d="M148.74,162.92v3.39a1.49,1.49,0,0,0,.74,1.29l24.3,14a1.44,1.44,0,0,0,1.43.15L194,170.94a1.25,1.25,0,0,0,.52-1.14,4.2,4.2,0,0,0-2-3.26l-25-14.45Z" style="fill:#96D0A4"></path><path d="M173.78,177.37l-25-14.45v3.39a1.49,1.49,0,0,0,.74,1.29l24.3,14c1.08.62,2,.18,2-1A4.23,4.23,0,0,0,173.78,177.37Z" style="fill:#96D0A4"></path><path d="M173.78,177.37l-25-14.45v3.39a1.49,1.49,0,0,0,.74,1.29l24.3,14c1.08.62,2,.18,2-1A4.23,4.23,0,0,0,173.78,177.37Z" style="opacity:0.2"></path><path d="M172.63,178.13a1.41,1.41,0,0,1,.66,1.09c0,.39-.3.54-.66.33l-23.89-13.8v-1.41Z" style="opacity:0.2"></path><path d="M148.74,157.45v3.39a1.49,1.49,0,0,0,.74,1.29l24.3,14a1.44,1.44,0,0,0,1.43.15L194,165.48a1.28,1.28,0,0,0,.52-1.15,4.2,4.2,0,0,0-2-3.26l-25-14.45Z" style="fill:#96D0A4"></path><g style="opacity:0.1"><path d="M148.74,157.45v3.39a1.49,1.49,0,0,0,.74,1.29l24.3,14a1.44,1.44,0,0,0,1.43.15L194,165.48a1.28,1.28,0,0,0,.52-1.15,4.2,4.2,0,0,0-2-3.26l-25-14.45Z"></path></g><path d="M173.78,171.9l-25-14.45v3.39a1.49,1.49,0,0,0,.74,1.29l24.3,14c1.08.62,2,.18,2-1A4.23,4.23,0,0,0,173.78,171.9Z" style="opacity:0.2"></path><path d="M172.63,172.66a1.41,1.41,0,0,1,.66,1.09c0,.39-.3.54-.66.33l-23.89-13.8v-1.41Z" style="opacity:0.2"></path></g><g id="freepik--clothes--inject-235"><path d="M127,184.9v3.39a1.47,1.47,0,0,0,.74,1.29l24.29,14a1.43,1.43,0,0,0,1.44.15l18.83-10.83a1.26,1.26,0,0,0,.52-1.14,4.2,4.2,0,0,0-2-3.26l-25-14.46Z" style="fill:#96D0A4"></path><g style="opacity:0.5"><path d="M127,184.9v3.39a1.47,1.47,0,0,0,.74,1.29l24.29,14a1.43,1.43,0,0,0,1.44.15l18.83-10.83a1.26,1.26,0,0,0,.52-1.14,4.2,4.2,0,0,0-2-3.26l-25-14.46Z" style="fill:#fff"></path></g><path d="M152,199.36,127,184.9v3.39a1.47,1.47,0,0,0,.74,1.29l24.29,14c1.09.63,2,.18,2-1A4.18,4.18,0,0,0,152,199.36Z" style="opacity:0.2"></path><path d="M150.86,200.11a1.41,1.41,0,0,1,.65,1.09c0,.39-.29.54-.65.33L127,187.74v-1.42Z" style="opacity:0.2"></path><path d="M127,180.38v3.4a1.49,1.49,0,0,0,.74,1.29l24.29,14a1.46,1.46,0,0,0,1.44.16l18.83-10.84a1.25,1.25,0,0,0,.52-1.14,4.2,4.2,0,0,0-2-3.26l-25-14.46Z" style="fill:#96D0A4"></path><g style="opacity:0.1"><path d="M127,180.38v3.4a1.49,1.49,0,0,0,.74,1.29l24.29,14a1.46,1.46,0,0,0,1.44.16l18.83-10.84a1.25,1.25,0,0,0,.52-1.14,4.2,4.2,0,0,0-2-3.26l-25-14.46Z"></path></g><path d="M152,194.84l-25-14.46v3.4a1.49,1.49,0,0,0,.74,1.29l24.29,14c1.09.63,2,.18,2-1A4.22,4.22,0,0,0,152,194.84Z" style="opacity:0.2"></path><path d="M150.86,195.6a1.38,1.38,0,0,1,.65,1.08c0,.39-.29.54-.65.33L127,183.22V181.8Z" style="opacity:0.2"></path><path d="M127,175.39v3.39a1.5,1.5,0,0,0,.74,1.3l24.29,14a1.46,1.46,0,0,0,1.44.16l18.83-10.84a1.25,1.25,0,0,0,.52-1.14,4.2,4.2,0,0,0-2-3.26l-25-14.46Z" style="fill:#96D0A4"></path><path d="M152,189.85l-25-14.46v3.39a1.5,1.5,0,0,0,.74,1.3l24.29,14c1.09.63,2,.18,2-1A4.2,4.2,0,0,0,152,189.85Z" style="fill:#96D0A4"></path><path d="M152,189.85l-25-14.46v3.39a1.5,1.5,0,0,0,.74,1.3l24.29,14c1.09.63,2,.18,2-1A4.2,4.2,0,0,0,152,189.85Z" style="opacity:0.2"></path><path d="M150.86,190.61a1.38,1.38,0,0,1,.65,1.08c0,.39-.29.54-.65.33L127,178.23v-1.42Z" style="opacity:0.2"></path><path d="M127,169.92v3.4a1.49,1.49,0,0,0,.74,1.29l24.29,14a1.46,1.46,0,0,0,1.44.16L172.27,178a1.25,1.25,0,0,0,.52-1.14,4.2,4.2,0,0,0-2-3.26l-25-14.46Z" style="fill:#96D0A4"></path><g style="opacity:0.5"><path d="M127,169.92v3.4a1.49,1.49,0,0,0,.74,1.29l24.29,14a1.46,1.46,0,0,0,1.44.16L172.27,178a1.25,1.25,0,0,0,.52-1.14,4.2,4.2,0,0,0-2-3.26l-25-14.46Z" style="fill:#fff"></path></g><path d="M152,184.38l-25-14.46v3.4a1.49,1.49,0,0,0,.74,1.29l24.29,14c1.09.63,2,.18,2-1A4.22,4.22,0,0,0,152,184.38Z" style="opacity:0.2"></path><path d="M150.86,185.14a1.38,1.38,0,0,1,.65,1.08c0,.39-.29.54-.65.33L127,172.76v-1.42Z" style="opacity:0.2"></path></g><g id="freepik--ledge--inject-235"><polygon points="198.46 127.34 149.53 155.59 149.53 159.63 198.46 131.38 198.46 127.34" style="fill:#e6e6e6"></polygon><polygon points="156.52 103.13 198.46 127.34 149.53 155.59 107.59 131.38 156.52 103.13" style="fill:#f5f5f5"></polygon></g><g id="freepik--clothes--inject-235"><path d="M126.51,124v4a1.76,1.76,0,0,0,.88,1.52L155.9,146a1.7,1.7,0,0,0,1.68.18l30.26-17.47a1.47,1.47,0,0,0,.61-1.34,5,5,0,0,0-2.3-3.83l-29.39-17Z" style="fill:#96D0A4"></path><g style="opacity:0.1"><path d="M126.51,124v4a1.76,1.76,0,0,0,.88,1.52L155.9,146a1.7,1.7,0,0,0,1.68.18l30.26-17.47a1.47,1.47,0,0,0,.61-1.34,5,5,0,0,0-2.3-3.83l-29.39-17Z"></path></g><path d="M155.9,141l-29.39-17v4a1.76,1.76,0,0,0,.88,1.52L155.9,146c1.27.73,2.3.21,2.3-1.17A4.92,4.92,0,0,0,155.9,141Z" style="opacity:0.2"></path><path d="M154.55,141.87a1.65,1.65,0,0,1,.77,1.28c0,.46-.34.63-.77.39l-28-16.19v-1.67Z" style="opacity:0.2"></path><path d="M126.51,118.61v4a1.75,1.75,0,0,0,.88,1.52l28.51,16.46a1.7,1.7,0,0,0,1.68.18l30.26-17.47a1.46,1.46,0,0,0,.61-1.34,5,5,0,0,0-2.3-3.83l-29.39-17Z" style="fill:#96D0A4"></path><g style="opacity:0.5"><path d="M126.51,118.61v4a1.75,1.75,0,0,0,.88,1.52l28.51,16.46a1.7,1.7,0,0,0,1.68.18l30.26-17.47a1.46,1.46,0,0,0,.61-1.34,5,5,0,0,0-2.3-3.83l-29.39-17Z" style="fill:#fff"></path></g><path d="M155.9,135.58l-29.39-17v4a1.75,1.75,0,0,0,.88,1.52l28.51,16.46c1.27.73,2.3.21,2.3-1.17A4.92,4.92,0,0,0,155.9,135.58Z" style="opacity:0.2"></path><path d="M154.55,136.46a1.65,1.65,0,0,1,.77,1.28c0,.46-.34.63-.77.39l-28-16.19v-1.67Z" style="opacity:0.2"></path><path d="M126.51,112.86v4a1.73,1.73,0,0,0,.88,1.51l28.51,16.47a1.7,1.7,0,0,0,1.68.18l30.26-17.47a1.47,1.47,0,0,0,.61-1.34,5,5,0,0,0-2.3-3.83l-29.39-17Z" style="fill:#96D0A4"></path><path d="M155.9,129.83l-29.39-17v4a1.73,1.73,0,0,0,.88,1.51l28.51,16.47c1.27.73,2.3.21,2.3-1.17A4.92,4.92,0,0,0,155.9,129.83Z" style="fill:#96D0A4"></path><path d="M155.9,129.83l-29.39-17v4a1.73,1.73,0,0,0,.88,1.51l28.51,16.47c1.27.73,2.3.21,2.3-1.17A4.92,4.92,0,0,0,155.9,129.83Z" style="opacity:0.2"></path><path d="M154.55,130.71a1.65,1.65,0,0,1,.77,1.28c0,.46-.34.63-.77.39l-28-16.19v-1.67Z" style="opacity:0.2"></path></g></g><g id="freepik--wall--inject-235"><polygon points="146.03 354.02 104.09 329.81 104.09 87.66 146.03 111.87 146.03 354.02" style="fill:#96D0A4"></polygon><polygon points="146.03 354.02 104.09 329.81 104.09 87.66 146.03 111.87 146.03 354.02" style="opacity:0.1"></polygon><polygon points="146.03 354.02 104.09 329.81 104.09 87.66 146.03 111.87 146.03 354.02" style="fill:#fff;opacity:0.5"></polygon><polygon points="146.03 111.87 149.53 109.85 149.53 352 146.03 354.02 146.03 111.87" style="fill:#96D0A4"></polygon><polygon points="146.03 111.87 149.53 109.85 149.53 352 146.03 354.02 146.03 111.87" style="fill:#fff;opacity:0.6000000000000001"></polygon></g><g id="freepik--Top--inject-235"><polygon points="268.36 37.21 146.03 107.84 104.09 83.62 226.42 12.99 268.36 37.21" style="fill:#96D0A4"></polygon><polygon points="268.36 37.21 146.03 107.84 104.09 83.62 226.42 12.99 268.36 37.21" style="fill:#fff;opacity:0.8"></polygon><polygon points="146.04 111.87 146.03 107.84 268.36 37.21 268.36 41.25 146.04 111.87" style="fill:#96D0A4"></polygon><polygon points="146.04 111.87 146.03 107.84 268.36 37.21 268.36 41.25 146.04 111.87" style="fill:#fff;opacity:0.6000000000000001"></polygon><polygon points="146.04 111.87 104.09 87.66 104.09 83.62 146.03 107.84 146.04 111.87" style="fill:#96D0A4"></polygon><polygon points="146.04 111.87 104.09 87.66 104.09 83.62 146.03 107.84 146.04 111.87" style="opacity:0.1"></polygon><polygon points="146.04 111.87 104.09 87.66 104.09 83.62 146.03 107.84 146.04 111.87" style="fill:#fff;opacity:0.5"></polygon></g></g></g><g id="freepik--Mirror--inject-235"><g id="freepik--mirror--inject-235"><path d="M45.85,369.71a7.49,7.49,0,0,0,3.71-1.16L97.26,341a21.58,21.58,0,0,0,9.2-12.73l21.2-101.74a1.58,1.58,0,0,0-3.09-.64l-21.2,101.74a18.64,18.64,0,0,1-7.69,10.63L48,365.81c-1.34.78-2.3.87-2.66.61s-.56-1.19-.25-2.71L65.93,262.18a1.58,1.58,0,1,0-3.09-.64L42,363.07c-.75,3.66.62,5.28,1.51,5.92A4,4,0,0,0,45.85,369.71Z" style="fill:#455a64"></path><polygon points="138.16 352.61 67.59 393.35 53.5 150.37 124.07 109.62 138.16 352.61" style="fill:#96D0A4"></polygon><polygon points="138.16 352.61 67.59 393.35 53.5 150.37 124.07 109.62 138.16 352.61" style="opacity:0.2"></polygon><polygon points="133.27 349.96 119.77 117.58 58.39 153.01 71.9 385.4 133.27 349.96" style="fill:#fafafa"></polygon><polygon points="50.24 148.48 53.5 150.37 67.59 393.35 64.33 391.47 50.24 148.48" style="fill:#96D0A4"></polygon><polygon points="50.24 148.48 53.5 150.37 67.59 393.35 64.33 391.47 50.24 148.48" style="opacity:0.5"></polygon><polygon points="120.81 107.74 124.07 109.62 53.5 150.37 50.24 148.48 120.81 107.74" style="fill:#96D0A4"></polygon><polygon points="120.81 107.74 124.07 109.62 53.5 150.37 50.24 148.48 120.81 107.74" style="opacity:0.1"></polygon><g id="freepik--Shines--inject-235" style="opacity:0.1"><polygon points="127.91 257.16 128.41 266 61.1 198.68 60.59 189.84 127.91 257.16" style="fill:#96D0A4"></polygon><polygon points="122.15 157.62 122.66 166.46 87.56 136.18 92.83 133.13 122.15 157.62" style="fill:#96D0A4"></polygon><polygon points="65.93 148.67 79.1 141.07 123.48 180.62 124.75 202.65 65.93 148.67" style="fill:#96D0A4"></polygon><polygon points="61.82 211.13 129.13 278.45 130.05 294.28 62.73 226.97 61.82 211.13" style="fill:#96D0A4"></polygon><polygon points="69.19 338.68 67.92 316.65 112.96 361.69 99.8 369.29 69.19 338.68" style="fill:#96D0A4"></polygon><polygon points="67.03 301.29 66.52 292.45 127.41 353.34 122.14 356.39 67.03 301.29" style="fill:#96D0A4"></polygon><polygon points="63.77 244.94 63.26 236.1 130.58 303.42 131.09 312.25 63.77 244.94" style="fill:#96D0A4"></polygon></g></g></g><g id="freepik--character-2--inject-235"><g id="freepik--Character--inject-235"><g id="freepik--Bottom--inject-235"><path d="M356.14,328.84c3.44-2.19,9.05-8.56,10.63-11.36s1.28-7,.83-10c-2.43-16.29-4.5-35.78-5.46-44.81A322.29,322.29,0,0,1,361,230.1c.38-15.22,2.52-30.91,3.3-33.67,1.75-6.25,1.81-9.16,1.63-12.61l33.46,1.24c1.79,2.94,4.51,6.37,6.55,10.52s4.22,11,4.54,33.24c.22,15.09-.41,38.83-.41,38.83a72,72,0,0,1,3.77,7.25,48,48,0,0,1,3,11.17c1.28,7.49.93,23.17,2.65,32.83a26.88,26.88,0,0,0,1.85,6.09c1.36,2.95,3.31,7.36,4.35,9.2a10.43,10.43,0,0,1,1.36,8.05c-.67,3.15-5.33,6.18-5.33,6.18-.48,1.31-3.67,2-5.22-1.76a24.91,24.91,0,0,1-1.67-8c-.25-1.79-.78-4-1.48-6.88s-3.45-11.59-4.9-15.85c-3.9-11.39-10.06-29.4-13.07-36.92-2.43-6.07-8.69-25.29-11.16-38.73l-3.92,25.44a40.1,40.1,0,0,1,1.6,13.87c-.5,6.52-2.26,19.38-2.87,27.78a19.08,19.08,0,0,0,1.22,9.16c1,2.9.82,6.25-1.86,7.36-4.1,1.69-5.45,5.41-7.28,7.26a11.14,11.14,0,0,1-5.39,3.44,19.17,19.17,0,0,1-7.28.81c-4.17-.25-5.11-1.31-5.35-3S354.32,330,356.14,328.84Z" style="fill:#ffbda7"></path><path d="M363.2,195l42.7,1.22c2.35,4.46,4.5,11,5,23.69,1.14,27.05,1.26,28,1.26,28-5.15,6.14-22.46,6.14-26.93,3.27l-.47-4.63-.68,4.31c-6.57,2.49-21.56-.71-24.07-5.85C360.81,210.31,361.62,206.76,363.2,195Z" style="fill:#96D0A4"></path><path d="M384.79,246.55l-1.93-23.37s-11.35-1.75-15.36-5.88c0,0,5,7.56,12.66,9l4,19.93-.1,4.6Z" style="opacity:0.2"></path></g><g id="freepik--top--inject-235"><g id="freepik--arm-with-dress--inject-235"><path d="M374.59,146.73c-6.91.23-7.63,1.74-14.08,9.47l-7.89,9.47c-2.4-5.83-8.22-17.75-10.63-22.18s-4.06-5.3-7.82-6-7.18-1.45-9.05-.79-7.05,3.5-7,5.17a7.33,7.33,0,0,0,1.73,4.44,4.14,4.14,0,0,0,2.47,1.39,12.91,12.91,0,0,1,3.63,1c1.39.52,3.31,1.42,4.74,1.8,2.41.63,3.86.16,4.56,1.15.95,1.33,3,17.51,8.26,27.8,1.78,3.47,6.35,7.86,11.48,3.52,8.72-7.45,19.29-18.52,19.29-18.52C377.58,158.64,380.08,149.24,374.59,146.73Z" style="fill:#ffbda7"></path><path d="M332.8,137.2l1.37.27c.39.07.75.16,1.09.25l.38.8a50.31,50.31,0,0,1-6.11.77,4.16,4.16,0,0,1-2.75-1.1c.49-.59,1.31-.42,3-.49A16.84,16.84,0,0,0,332.8,137.2Z" style="fill:#f0997a"></path><path d="M334.07,147c-1.09-1-1.53-4.26-1.53-4.26a14,14,0,0,1-3.72-.69,3,3,0,0,1-2.18-2.33c-.13-.87,5.21,1.16,5.21,1.16s3.14,3.51,3.44,4.83a4.07,4.07,0,0,1-.44,3.16c-.43.46-.93,1.24-4.89-1.13s-4.53-2.61-4.53-2.61v-1.71l7.75,4.32Z" style="fill:#f0997a"></path><path d="M330,151.35c-1.55-3.93-4.67-13.1-5.2-21.49l-3.69-5h0l-1.1-1.47c.12,8.55-4.72,7.14-8,4.58-3.67-2.84-5.94-6.28-6.37-10s-1-4-1-4l-2.84.55s-.69,21,0,26.06,10.58,14.54,16.44,11.53a5.5,5.5,0,0,0,2.25-2.74,1.77,1.77,0,0,1,3.33.25v0c1.11,4,4.81,7.41,6.2,7.5S331.67,155.7,330,151.35Z" style="fill:#96D0A4"></path><path d="M330,151.35c-1.55-3.93-4.67-13.1-5.2-21.49l-3.69-5h0l-1.1-1.47c.12,8.55-4.72,7.14-8,4.58-3.67-2.84-5.94-6.28-6.37-10s-1-4-1-4l-2.84.55s-.69,21,0,26.06,10.58,14.54,16.44,11.53a5.5,5.5,0,0,0,2.25-2.74,1.77,1.77,0,0,1,3.33.25v0c1.11,4,4.81,7.41,6.2,7.5S331.67,155.7,330,151.35Z" style="opacity:0.30000000000000004"></path><path d="M290.5,123.93,332.19,148a2.48,2.48,0,0,0,1.2.35,1.67,1.67,0,0,0,1.27-.58c1-1.15.78-3.52-.53-5.29L313.28,114.4a4.47,4.47,0,0,0-.89-.9v-2.25c0-1.52-.66-2.85-1.81-4.63a8.72,8.72,0,0,1-1.6-5.28,1.54,1.54,0,0,1,.55-1.36,1.93,1.93,0,0,1,1.82.28,6.52,6.52,0,0,1,3,5.23.7.7,0,0,0,1.4,0A7.87,7.87,0,0,0,312,99.05a3.2,3.2,0,0,0-3.21-.28,2.81,2.81,0,0,0-1.24,2.57,10,10,0,0,0,1.82,6c1,1.56,1.59,2.69,1.59,3.87v1.68a1.76,1.76,0,0,0-.46,0l-20.85,4a2,2,0,0,0-1.54,1.79A5.53,5.53,0,0,0,290.5,123.93Zm-1-5c.06-.39.21-.6.43-.64l20.84-4c.28,0,.83.21,1.36.91L333,143.32c1.05,1.41,1.06,3,.62,3.53-.06.07-.22.24-.73,0L291.2,122.72A4.16,4.16,0,0,1,289.53,119Z" style="fill:#e0e0e0"></path><path d="M287.39,182.07c3.78-5.72,6.06-9.9,8.5-13.42,3.44-5,2.45-10.1,0-17.87a38.65,38.65,0,0,1-1.79-14.27,26.72,26.72,0,0,0,4.93-8.32c2.13-5.93,1.27-13.35,1.27-13.35l4.26-.82c-.61,4.26,0,11.66.25,17.53s2,13,7.22,15.9,6-2.53,6.53-7.78.5-9.31.92-16.91l4.28,5.76a57.66,57.66,0,0,0,.55,15.12c1.26,7.2,1.8,11.4,5.1,13.37a1.29,1.29,0,0,0,.91.18c.37-.1.88-.45.8-1.67a12.81,12.81,0,0,1-1.82,7.9c-4.15,6.56-4.2,8.19-.18,17.84,5.26,12.62,9.54,29.53,11.65,48.41,0,0-6.48,7.53-22.61,7.28-22.35-.35-37.78-12.43-41.27-26.91C276.89,210,280.48,192.54,287.39,182.07Z" style="fill:#96D0A4"></path><path d="M343.86,147.29a33.46,33.46,0,0,0-4.19-7.78,6.41,6.41,0,0,0-3.26-2c-1.66-.33-4.68.84-7.49.68a8.08,8.08,0,0,0-2.14,0c-.59.16-.53,1.18.35,2.05,1.44,1.42,4.59,1.28,6.26,1.6S340.29,148.84,343.86,147.29Z" style="fill:#ffbda7"></path><path d="M352.62,165.67a23.87,23.87,0,0,0-5.34,9.82c-.26-3.58,1.45-9,4.48-11.85Z" style="fill:#f0997a"></path></g><g id="freepik--Chest--inject-235"><path d="M367,176.05c.2,4.52-.66,19.21-.66,19.21,13.82,9.34,37.77,1.73,37.77,1.73-1.2-3.39-2.27-5.88-2-9l4.08-17.58a35.81,35.81,0,0,1-5.29-22l-10.1-1.52-9.7-.17-5.42.14c-2.14,1.82-5.47,6.54-8.63,11.91C363.21,165.32,363.13,171.53,367,176.05Z" style="fill:#ffbda7"></path><path d="M396.17,147.64s-1.19,1.72-4.95,8.11c-3.18,5.41-7,7.42-13.4,6.55-7.84-1.07-7.74-3.81.47-15.57h-3.7s-7.25,8.48-8.9,11.4-5.05,7.61-.89,16.92l-3.53,31A20.53,20.53,0,0,0,377.2,217.3c11.78,1.52,20.64-9.4,20.64-9.4a33.58,33.58,0,0,0,12.6,3.68,87.8,87.8,0,0,0-2.2-10.21c-2.35-7.52-4.73-9.26-4.94-12.89s1.46-11.83,1.46-11.83-5.33-3.64-6.17-9.18a50.94,50.94,0,0,1,1.14-19.2Z" style="fill:#f0f0f0"></path></g><g id="freepik--Arm--inject-235"><path d="M426.94,179.41s-6.67-11.54-11.67-21.06c-4.24-8.09-6.46-9.76-15-9.95-2.24,6.79,3,25.38,3,25.38s11.47,16.48,15,20.28,6.15,7,11.56,3.79c6.3-3.73,13-14.23,15.3-17,2.95-3.65,7-8,8-9.31.7-1,2.15-.53,4.57-1.16,1.43-.37,3.35-1.28,4.73-1.79a12.58,12.58,0,0,1,3.63-1,4.22,4.22,0,0,0,2.48-1.39,7.36,7.36,0,0,0,1.72-4.44c.1-1.67-5.09-4.51-7-5.18s-5.28.07-9,.79-4.57,1.64-7.76,5.5c-2.55,3.11-19.55,16.56-19.55,16.56" style="fill:#ffbda7"></path><path d="M426.94,179.41c-2.61,2.74-5.76,6.53-6,10.79-.84-3.79.38-8.81,5.21-12.42Z" style="fill:#f0997a"></path><path d="M455.62,157.09l-1.37.26c-.4.08-.76.16-1.1.26l-.38.79a51.83,51.83,0,0,0,6.12.78,4.19,4.19,0,0,0,2.75-1.1c-.5-.59-1.31-.43-3.05-.49A17.71,17.71,0,0,1,455.62,157.09Z" style="fill:#f0997a"></path><path d="M455,161.73a21.49,21.49,0,0,1-.39,3,4.4,4.4,0,0,1-1.3,2.74c2.19-.69,2.54-4.88,2.54-4.88a14.48,14.48,0,0,0,3.73-.69,3,3,0,0,0,2.17-2.34C461.9,158.7,455,161.73,455,161.73Z" style="fill:#f0997a"></path><path d="M440.27,155.17l2.8-.7s1.34.15,2,3.84,3.16,13.18,7.15,14.39,7.4-1.21,6.79-9.74l1.94,2.32h0l3.2,3.84c1,8.35,4.65,17.32,6.43,21.16,2,4.25,1.74,5.86.34,5.85s-5.29-3.19-6.62-7.13a82.59,82.59,0,0,1-2.06-8.55c-.16,5.1-1,9.9-3.38,11.31-5.69,3.34-16.1-5.56-17.08-10.57S440.27,155.17,440.27,155.17Z" style="fill:#37474f"></path><path d="M429.6,165.17l43,21.64a2.34,2.34,0,0,0,1.21.29,1.66,1.66,0,0,0,1.24-.66c.95-1.2.57-3.55-.84-5.25L451.8,154.35a4.33,4.33,0,0,0-.94-.85l-.13-2.25c-.08-1.52-.82-2.81-2.07-4.51a8.7,8.7,0,0,1-1.9-5.18,1.5,1.5,0,0,1,.47-1.39,1.93,1.93,0,0,1,1.83.17,6.51,6.51,0,0,1,3.32,5,.7.7,0,0,0,.74.65.69.69,0,0,0,.65-.73,7.88,7.88,0,0,0-4.09-6.22,3.2,3.2,0,0,0-3.22-.09,2.79,2.79,0,0,0-1.09,2.64,10.06,10.06,0,0,0,2.16,5.92c1.09,1.5,1.74,2.6,1.81,3.77l.09,1.68a1.73,1.73,0,0,0-.45.05l-20.58,5.2a2,2,0,0,0-1.44,1.87A5.55,5.55,0,0,0,429.6,165.17Zm-1.25-4.89c0-.39.17-.61.39-.67l20.58-5.2c.28-.07.84.16,1.4.83l22.43,26.85c1.12,1.34,1.23,3,.81,3.49,0,.07-.2.25-.73,0l-43-21.65A4.16,4.16,0,0,1,428.35,160.28Z" style="fill:#e0e0e0"></path><path d="M431.57,232.27c.94-6.56,3.46-12.72,4.75-16.81,3.14-10,.84-14.14-.89-22.11a75.69,75.69,0,0,1-1.46-8.93,23.33,23.33,0,0,1-.21-3.15s4.08-3.56,4.37-11.35.73-14.39.73-14.39l4.21-1.06a170.56,170.56,0,0,0-.46,19.95c.13,4.74.61,9.26,7.65,12.44,7.87,3.55,8.72-3.3,9.15-7.14.6-5.45.24-11.17.11-16.13l3.55,4.26a57.84,57.84,0,0,0,1.41,15.06c1.68,7.11,2.06,8.93,4.18,11.26a3.67,3.67,0,0,0,2.43,1.25c.38,0,1,.17.87-1,.13.94.06,1.52-1.13,7.37s-2.8,11.83-.14,19.13c4.69,12.85,8.51,36.94,8.5,51,0,0,.66,5.74-15.29,8.07s-32.49-7.55-34.47-17.12C429.43,262.79,428.82,251.41,431.57,232.27Z" style="fill:#455a64"></path><path d="M448.77,165.44c-1-1-2.28-2.59-2.28-2.59a37.2,37.2,0,0,1,2.26-3.46,6.43,6.43,0,0,1,3.25-2c1.67-.34,4.69.83,7.49.68a7.37,7.37,0,0,1,2.15,0c.58.16.53,1.17-.35,2-1.45,1.43-4.6,1.29-6.27,1.61S452.34,167,448.77,165.44Z" style="fill:#ffbda7"></path></g><g id="freepik--Head--inject-235"><path d="M398,101.24c3.19-.16,8.09,1.53,9,4.92.4,1.43.56,3,1.77,4s3.72,1.8,5.24,2.53c3.32,1.6,4.25,6.21.66,7.79a2.27,2.27,0,0,0-.45-3.18,4.92,4.92,0,0,1-.27,3.63c-1,1.81-3.59,2.24-4.39,4.23s1.31,3.63,1,5.79a4.47,4.47,0,0,1-2,3.26,4.39,4.39,0,0,1-3.54.45,2.27,2.27,0,0,0,1.45-2.92c-.29,1.85-2.51,2.81-4.17,3.05-2.11.31-4.73-.61-5.58-2.72,0,0-5.81-26.21-5.94-26.39A9.29,9.29,0,0,1,398,101.24Z" style="fill:#263238"></path><path d="M393.17,141.48c1.32-1.49,3.47-2.59,6.58-5.95,4.33-4.68,7-14.81.48-20.91-3.16-12.51-17.67-12.09-23.78-9.23-15.51,7.25-7.63,17.56-7.63,17.56Z" style="fill:#37474f"></path><path d="M401,127.24a2.74,2.74,0,0,0-4.42-.16c-.41.52-.68,1.13-1.08,1.66a2.08,2.08,0,0,1-1.65.95,1.47,1.47,0,0,1-1.26-.72,4.91,4.91,0,0,1-.32-1.87c-.9-8.91-3.5-11.77-9.73-10.25-2.79-2.61-4.4-3.71-7.69-3.46-3.59.28-6.11,1.9-6.15,13.59,0,9.14,3.11,13.49,4.63,14.37s3.44,1.14,6.5,1l-.24,5.19s-4.17,3.18-2.26,8a30.69,30.69,0,0,0,8.6-2c6.16-2.71,6.87-5.41,6.87-5.41l.81-13.83s1.9,2.95,5.18.65C401.47,133,402.7,129.41,401,127.24Z" style="fill:#ffbda7"></path><path d="M381.67,125.1a1.39,1.39,0,0,0,1.15,1.55,1.31,1.31,0,0,0,1.52-1.1,1.38,1.38,0,0,0-1.15-1.55A1.29,1.29,0,0,0,381.67,125.1Z" style="fill:#263238"></path><path d="M370.64,122l2.95-1.29a1.54,1.54,0,0,0-2.07-.87A1.7,1.7,0,0,0,370.64,122Z" style="fill:#263238"></path><path d="M382.69,121.33l2.78,1.62a1.54,1.54,0,0,0-.52-2.18A1.69,1.69,0,0,0,382.69,121.33Z" style="fill:#263238"></path><path d="M381.77,133.24l-5.32,1.52a2.77,2.77,0,0,0,3.68,1.81A2.59,2.59,0,0,0,381.77,133.24Z" style="fill:#9e6767"></path><path d="M378.6,136.68a2.91,2.91,0,0,1,3-2.48,2.23,2.23,0,0,1,.27,0,2.43,2.43,0,0,1-1.74,2.34A3,3,0,0,1,378.6,136.68Z" style="fill:#f28f8f"></path><path d="M371.4,124.32a1.4,1.4,0,0,0,1.14,1.56,1.32,1.32,0,0,0,1.53-1.1,1.39,1.39,0,0,0-1.15-1.55A1.29,1.29,0,0,0,371.4,124.32Z" style="fill:#263238"></path><polygon points="377.87 123.53 377.39 131.9 372.8 130.52 377.87 123.53" style="fill:#f0997a"></polygon><path d="M379.81,142.31c3.24-.33,10.12-1.73,11.41-4.2a7.46,7.46,0,0,1-2.78,3.49c-2.12,1.46-8.71,2.55-8.71,2.55Z" style="fill:#f0997a"></path></g></g></g></g><g id="freepik--character-1--inject-235"><g id="freepik--character--inject-235"><g id="freepik--Leg--inject-235"><path d="M338.39,391.67c-1.54-1.79-3.82.35-6.38,2.39a25,25,0,0,1-7.73,4c-2.69.94-6.76,2.14-8.66,1.37-1.21-.5-7.07-11.71-9.43-16l-14.84,6.78c5.78,6.37,12.83,16.31,14.64,18.85,2.71,3.79,2.17,8.32,6.62,9.95,3.36,1.22,6.68-.13,9.32-2.47,1.47-1.3,3.14-3.31,4.89-4.28a76.57,76.57,0,0,0,7.44-4.21c3.6-2.59,5.35-4.47,5.76-7.3C340.6,396.73,339.66,393.14,338.39,391.67Z" style="fill:#ffa8a7"></path><path d="M305.25,408h0c.28.38.54.72.74,1,2.71,3.79,2.17,8.32,6.62,9.95,3.36,1.22,6.68-.13,9.32-2.47,1.47-1.3,3.14-3.31,4.89-4.28a76.57,76.57,0,0,0,7.44-4.21c3.6-2.59,5.35-4.47,5.76-7.3.58-3.95-.36-7.54-1.63-9-1.54-1.79-3.82.35-6.38,2.39a25,25,0,0,1-7.73,4c-2.69.94-6.76,2.14-8.66,1.37C314.81,405.45,308.57,408.09,305.25,408Z" style="fill:#455a64"></path><path d="M332,394.06l-.26.19c1,4.22,2.66,9.75,5.21,11.58,1.8-1.63,2.94-3.16,3.24-5.15.57-3.95-.47-7.73-1.74-9.2C336.91,389.69,334.57,392,332,394.06Z" style="fill:#96D0A4"></path><path d="M318.76,412.19c-3-1.34-6.95-.88-11.17-.16,1,3.24,1.67,5.84,5,7.05s6.37.05,9-2.29c.22-.2.83-.74,1.07-1A9.18,9.18,0,0,0,318.76,412.19Z" style="fill:#96D0A4"></path><path d="M297.24,363.59l16.31,32.31c-.41,5-9.51,10-12.14,7.37l-21.26-25.42Z" style="fill:#455a64"></path></g><g id="freepik--Stool--inject-235"><polygon points="227.42 437.03 230.62 452.95 233.74 454.75 236.84 452.96 240.07 437.03 233.74 433.38 227.42 437.03" style="fill:#37474f"></polygon><polygon points="233.74 454.75 233.74 440.68 227.42 437.03 230.62 452.95 233.74 454.75" style="fill:#263238"></polygon><polygon points="227.42 437.03 229.49 447.31 233.74 449.77 237.98 447.32 240.07 437.03 233.74 433.38 227.42 437.03" style="opacity:0.2"></polygon><polygon points="182.65 411.18 185.86 427.1 188.98 428.9 192.07 427.12 195.31 411.19 188.98 407.53 182.65 411.18" style="fill:#37474f"></polygon><polygon points="188.98 428.9 188.98 414.84 182.65 411.18 185.86 427.1 188.98 428.9" style="fill:#263238"></polygon><polygon points="182.65 411.18 184.72 421.46 188.98 423.92 193.22 421.47 195.31 411.19 188.98 407.53 182.65 411.18" style="opacity:0.2"></polygon><polygon points="272.18 411.18 275.39 427.1 278.51 428.9 281.6 427.12 284.84 411.19 278.51 407.53 272.18 411.18" style="fill:#37474f"></polygon><polygon points="278.51 428.9 278.51 414.84 272.18 411.18 275.39 427.1 278.51 428.9" style="fill:#263238"></polygon><polygon points="272.18 411.18 274.25 421.46 278.51 423.92 282.75 421.47 284.84 411.19 278.51 407.53 272.18 411.18" style="opacity:0.2"></polygon><path d="M231.81,372.08l-52.09,30.06a7.55,7.55,0,0,0-3.41,5.9v2.62a7.53,7.53,0,0,0,3.41,5.9l50.75,29.3a7.52,7.52,0,0,0,6.82,0l52.07-30.07a7.5,7.5,0,0,0,3.41-5.9v-2.61a7.52,7.52,0,0,0-3.41-5.91l-50.74-29.29A7.5,7.5,0,0,0,231.81,372.08Z" style="fill:#263238"></path><path d="M289.36,401.37l-50.74-29.29a7.5,7.5,0,0,0-6.81,0l-52.09,30.06c-1.88,1.09-1.88,2.85,0,3.93l50.75,29.31a7.58,7.58,0,0,0,6.82,0l52.07-30.07C291.25,404.22,291.25,402.46,289.36,401.37Z" style="fill:#263238"></path><path d="M176.31,410.66V408c0-2.17,1.53-3.05,3.41-2l50.75,29.31a7.5,7.5,0,0,1,3.41,5.9v2.61c0,2.18-1.52,3.06-3.41,2l-50.75-29.3A7.53,7.53,0,0,1,176.31,410.66Z" style="fill:#263238"></path><path d="M233.88,443.89v-2.61a7.53,7.53,0,0,1,3.41-5.9l52.07-30.07c1.89-1.09,3.41-.21,3.41,2v2.61a7.5,7.5,0,0,1-3.41,5.9l-52.07,30.07C235.41,447,233.88,446.07,233.88,443.89Z" style="fill:#37474f"></path><path d="M231.81,351.89,179.72,382a7.53,7.53,0,0,0-3.41,5.9v10.84a7.55,7.55,0,0,0,3.41,5.91l50.75,29.29a7.52,7.52,0,0,0,6.82,0l52.07-30.07a7.5,7.5,0,0,0,3.41-5.9V387.09a7.52,7.52,0,0,0-3.41-5.91l-50.74-29.29A7.5,7.5,0,0,0,231.81,351.89Z" style="fill:#96D0A4"></path><path d="M231.81,351.89,179.72,382a7.53,7.53,0,0,0-3.41,5.9v10.84a7.55,7.55,0,0,0,3.41,5.91l50.75,29.29a7.52,7.52,0,0,0,6.82,0l52.07-30.07a7.5,7.5,0,0,0,3.41-5.9V387.09a7.52,7.52,0,0,0-3.41-5.91l-50.74-29.29A7.5,7.5,0,0,0,231.81,351.89Z" style="fill:#fff;opacity:0.4"></path><path d="M176.31,398.69V387.85c0-2.17,1.53-3.05,3.41-2l50.75,29.31a7.5,7.5,0,0,1,3.41,5.9v10.83c0,2.18-1.52,3.06-3.41,2L179.72,404.6A7.55,7.55,0,0,1,176.31,398.69Z" style="opacity:0.25"></path><path d="M233.88,431.92V421.09a7.53,7.53,0,0,1,3.41-5.9l52.07-30.07c1.89-1.09,3.41-.21,3.41,2v10.83a7.5,7.5,0,0,1-3.41,5.9l-52.07,30.07C235.41,435,233.88,434.1,233.88,431.92Z" style="opacity:0.1"></path></g><g id="freepik--Legs--inject-235"><path d="M208.92,365.14c3.26-4.53,8.54-8.3,13.5-10.8,10-5,23.51-11.15,29.47-12,8.75-1.28,13.3,5.06,18.84,10.47a36.1,36.1,0,0,1,6.23,8.3s-14.33,5-19.72,6.3C252.78,368.44,221.24,368.6,208.92,365.14Z" style="fill:#37474f"></path><path d="M201.46,364.93c-1.61,8.61-1.54,16.86,4.92,22.3,4.7,3.95,23.92,17.81,38.91,11.5,16.74-7,29.67-15.73,39.1-21.14,5.58-3.2,12.85-14,12.85-14-4.47-9.25-8.15-12.26-19.75-10-12.13,2.34-34.51,7.52-34.51,7.52Z" style="fill:#455a64"></path><path d="M223.24,389.43c-2.85-2.28-6.56-5.2-10.16-5.85s-5,.06-9.27-2.45c-1.14-.66-2.16-2.34-2.94-4.05a15.88,15.88,0,0,0,5.51,10.15c4.7,3.95,23.92,17.81,38.91,11.5,16.74-7,29.67-15.73,39.1-21.14,0,0-29.68,11.38-37.78,13.55C238.81,393.24,231,395.64,223.24,389.43Z" style="opacity:0.1"></path></g><g id="freepik--top--inject-235"><polygon points="234.54 293.03 231.43 311.32 217.28 309.9 219.47 289.59 234.54 293.03" style="fill:#ffa8a7"></polygon><path d="M206.61,346.91c2.23-5.88,2.12-10.66,1.5-13.4-2.68-11.86-5.05-16.56-3.79-23.91,1-5.91,4.29-12.46,11-12.07,1.28.07,2.07.22,3.26.37-.65,5.12,9.7,7.15,14.44,4.09,2.13.51,9.43,3.48,9.43,3.48C246.73,311,254.58,319.82,256,325c2.54,9.15-5,14.57-5,14.57.25,6.65-.92,14.89,2,24,0,0-3.55,15.55-26.16,13-20.11-2.26-26.19-12.09-26.19-12.09C202.42,356.74,203.62,354.81,206.61,346.91Z" style="fill:#96D0A4"></path><g style="opacity:0.2"><path d="M206.61,346.91c2.23-5.88,2.12-10.66,1.5-13.4-2.68-11.86-5.05-16.56-3.79-23.91,1-5.91,4.29-12.46,11-12.07,1.28.07,2.07.22,3.26.37-.65,5.12,9.7,7.15,14.44,4.09,2.13.51,9.43,3.48,9.43,3.48C246.73,311,254.58,319.82,256,325c2.54,9.15-5,14.57-5,14.57.25,6.65-.92,14.89,2,24,0,0-3.55,15.55-26.16,13-20.11-2.26-26.19-12.09-26.19-12.09C202.42,356.74,203.62,354.81,206.61,346.91Z"></path></g><path d="M242.45,305.47,256.34,307c9,1,30.51,2,30.51,2s16.17-15.34,17-16.76A4.66,4.66,0,0,0,304,288c-.5-1.36-1.45-4.41-1.89-5.24-.78-1.44,1.54-1.37,3.09-.15s2.57,3.94,3.31,4.31,4.91-6.2,6.94-9.38,2.88-5.32,4.7-4.41c1.31.65.8,2.44-.59,5.11a30.76,30.76,0,0,0-1.79,3.53c-.15.46.56.71.85.9.54.35,1.49.92,1.65,1.58a6.48,6.48,0,0,0,.23,1.08c.36.76,1.4,1,1.8,1.73.29.54.16,1.21.37,1.78.13.37.39.68.52,1.06a2.68,2.68,0,0,1-.48,2.18,14.86,14.86,0,0,1-4.52,4.74c-1.72,1.33-3.78,1.8-5.8,3.09-1.54,1-9.28,10.2-17.27,20.25-2.06,2.59-3.91,3.12-8.06,3.43s-22.37,1.64-31.78,2.26C245.21,326.53,238.86,316.68,242.45,305.47Z" style="fill:#ffa8a7"></path><path d="M244.82,277.88s3,4.52,2.65,5a7.51,7.51,0,0,1-2.33,1Z" style="fill:#f28f8f"></path><path d="M235.53,263.56c3,1.5,8.07,4.28,9.38,15,1.35,11-1.14,14.8-2.66,16.24-1,1-6.34,1.33-9.11.48-3.46-1.05-11-4.7-14.49-10.37-4.13-6.67-5-15.56-.21-19.05C225.16,260.94,233,262.29,235.53,263.56Z" style="fill:#ffa8a7"></path><path d="M242,295c-1.24.68-4.83,1.13-7.83.52l.36-1.87a27.81,27.81,0,0,0,3.65,1.1A12.62,12.62,0,0,0,242,295Z" style="fill:#f28f8f"></path><path d="M247.72,263.86a5.13,5.13,0,0,0-.37-1.18c-.81-1.81-2.68-3.35-4.72-2.72.13-3.12.42-5.14-2.59-7a8,8,0,0,0-5.15-1.06,6.38,6.38,0,0,0-2.91,1c-.32.21-.76.74-1.15.64s-.78-.94-1-1.18a6.91,6.91,0,0,0-11.6,3c-2.08-.46-5,.47-6,2.54-.77,1.71-.3,3.72-.17,5.65-7.49,5.3-6.15,15.66.95,23.12,2.51,2.64,4.9,4.8,6.06,7.25,4.14,2.69,10.92,1.59,10.92,1.59,4.82-2.12,5.73-7.88,5.34-9.77a2,2,0,0,1-1.66,1.27,4,4,0,0,1-3.58-1.34c-2.7-2.65-2.87-6.9.58-8,2.29-.75,3.45.79,5,2l1.6,4.37a2.54,2.54,0,0,0,1.56-3.27,2.51,2.51,0,0,0-1.09-1.3,7.61,7.61,0,0,0,2-3.21,4.6,4.6,0,0,0-.75-3.82,4.75,4.75,0,0,0,2.73-3.59c0,.34.9,1.56,1.07,1.91a9.11,9.11,0,0,1,.93,2.29c.17,1.14-.17,2.3.77,3.27s4.35,1,4.41-.72c-.71.48-1.69.28-1.79-.61-.14-1.25,1.49-2.25,1.85-3.31a2.89,2.89,0,0,0-2.79-3.59C247.24,266.52,248,265.42,247.72,263.86Z" style="fill:#37474f"></path></g></g></g><g id="freepik--Hearts--inject-235"><g id="freepik--hearts--inject-235"><path id="freepik--Heart--inject-235" d="M367.29,102.51l1.78-1.8c1.36-1.38,4.44-5,3.65-8.58a3.93,3.93,0,0,0-7.7.08,3.93,3.93,0,0,0-7,3.16c.8,3.62,5.1,5.58,6.91,6.25Z" style="fill:#96D0A4"></path><g id="freepik--heart--inject-235"><path d="M357.66,113.42l.72-1.55c.55-1.19,1.68-4.18.34-6.29a2.66,2.66,0,0,0-4.88,1.82,2.66,2.66,0,0,0-3.72,3.63c1.34,2.12,4.52,2.37,5.83,2.38Z" style="fill:#96D0A4"></path><path d="M357.66,113.42l.72-1.55c.55-1.19,1.68-4.18.34-6.29a2.66,2.66,0,0,0-4.88,1.82,2.66,2.66,0,0,0-3.72,3.63c1.34,2.12,4.52,2.37,5.83,2.38Z" style="opacity:0.35000000000000003"></path></g></g></g><g id="freepik--speech-bubble--inject-235"><g id="freepik--speech-bubble--inject-235"><g id="freepik--speech-bubble--inject-235"><path d="M391.69,95l3.64-9.42-2.92-8.45V71.94l8.95,5.17v5.17l-3.85,9.26a.63.63,0,0,1-.26.23h0Z" style="fill:#e0e0e0"></path><path d="M364.07,28.8a5.93,5.93,0,0,1,2.68-4.65l2.19-1.26a5.91,5.91,0,0,1,5.37,0l51.6,29.84a5.91,5.91,0,0,1,2.68,4.64V92.69a5.91,5.91,0,0,1-2.68,4.64l-2.19,1.27a6,6,0,0,1-5.36,0L395.74,85.54l-3.84,9.24a.58.58,0,0,1-1-.1L386.8,80.37,366.75,68.76a6,6,0,0,1-2.68-4.65Z" style="fill:#fafafa"></path><path d="M421,61.73V97c0,1.54-1,2.25-2.23,1.77a2.31,2.31,0,0,1-.45-.21L395.74,85.54l-3.85,9.24a.57.57,0,0,1-1-.1l-4.07-14.31-20-11.61a5.94,5.94,0,0,1-2.69-4.65l0-35.31a4.16,4.16,0,0,1,.07-.77c.33-1.13,1.36-1.5,2.6-.79l51.61,29.85a5.37,5.37,0,0,1,1.89,2A5.44,5.44,0,0,1,421,61.73Z" style="fill:#fafafa"></path><path d="M365.55,27.63h0a1.73,1.73,0,0,1,.82.26L418,57.74a4.61,4.61,0,0,1,1.62,1.73,4.68,4.68,0,0,1,.69,2.26V97c0,.44-.1,1.17-.73,1.17a1.34,1.34,0,0,1-.51-.11,1.54,1.54,0,0,1-.32-.15L396.11,84.89a.69.69,0,0,0-.37-.1.64.64,0,0,0-.24,0,.76.76,0,0,0-.46.42L391.43,94l-3.91-13.78a.79.79,0,0,0-.35-.45L367.12,68.11a5.22,5.22,0,0,1-2.31-4l0-35.31a4.18,4.18,0,0,1,0-.56c.18-.61.56-.61.68-.61m0-.75a1.43,1.43,0,0,0-1.4,1.15,4.16,4.16,0,0,0-.07.77l0,35.31a5.94,5.94,0,0,0,2.69,4.65l20,11.61,4.07,14.31a.55.55,0,0,0,.54.39.57.57,0,0,0,.49-.29l3.85-9.24L418.36,98.6a2.31,2.31,0,0,0,.45.21,2.17,2.17,0,0,0,.75.15c.88,0,1.48-.7,1.48-1.92V61.73a5.44,5.44,0,0,0-.79-2.64,5.37,5.37,0,0,0-1.89-2L366.75,27.24a2.52,2.52,0,0,0-1.2-.36Z" style="fill:#e0e0e0"></path><path d="M428.59,92.69a6,6,0,0,1-2.68,4.65l-2.19,1.26a6,6,0,0,1-4.91.21c1.27.48,2.23-.23,2.23-1.76V61.74a5.45,5.45,0,0,0-.79-2.65l7.56-4.36a5.53,5.53,0,0,1,.78,2.64Z" style="fill:#e0e0e0"></path><path d="M364.16,28c.31-1.14,1.35-1.51,2.59-.79l51.61,29.84a5.37,5.37,0,0,1,1.89,2l7.55-4.35a5.4,5.4,0,0,0-1.89-2l-51.6-29.84a6,6,0,0,0-5.37,0l-2.19,1.26A5.91,5.91,0,0,0,364.16,28Z" style="fill:#ebebeb"></path></g><path id="freepik--Dress--inject-235" d="M380.85,69.39a11.38,11.38,0,0,0,6,1.61c0-5.52-2.14-11.28-2.39-12.41s-.75-2.84,0-3.67a8.41,8.41,0,0,0,1.19-3,5.32,5.32,0,0,1-1.19-2.53V44.81l-1.2-.69v2.33c0,1.76-1.06,2.56-2.38,1.8h0a5.71,5.71,0,0,1-2.39-4.56V41.36l-1.19-.69v4.6c0,1.09-1.2,1.14-1.2,1.14a22.62,22.62,0,0,0,1.2,4.37,4.62,4.62,0,0,1,0,3.68,21.46,21.46,0,0,0-2.39,9.65,25.89,25.89,0,0,0,6,5.28" style="fill:#96D0A4"></path><path id="freepik--dress--inject-235" d="M403.87,82.69a11.38,11.38,0,0,0,6,1.61c0-5.51-2.14-11.28-2.39-12.41s-.75-2.84,0-3.67a8.41,8.41,0,0,0,1.19-3,5.32,5.32,0,0,1-1.19-2.53V58.11l-1.2-.69v2.33c0,1.76-1.06,2.57-2.38,1.81h0A5.74,5.74,0,0,1,401.48,57V54.66L400.29,54v4.6c0,1.09-1.2,1.15-1.2,1.15a22.6,22.6,0,0,0,1.2,4.36,4.61,4.61,0,0,1,0,3.68,21.46,21.46,0,0,0-2.39,9.65,25.89,25.89,0,0,0,6,5.28" style="fill:#455a64"></path></g></g></svg>