<svg xmlns="http://www.w3.org/2000/svg" viewBox="0 0 500 500"><g id="freepik--Background--inject-149"><path id="freepik--background--inject-149" d="M30.51,119.9c4.32.58,9.16-6.6,17-17,25-34.14,61.41-54.69,101-72.12,11-9.37-20.68-12.37-26.21-10.79-46,4.39-89.53,37.51-96.14,84.21C24.8,113.36,25.46,119.22,30.51,119.9Zm414.13,18.73C353.65,7.44,206-4.68,93.7,81.48-2.38,155.19,2.05,307.57,28,364.29c24.75,54.13,91.07,113,201.44,121.26,84.56,6.34,157.33-18.82,195.93-52.29C500.76,367.86,504.35,224.74,444.64,138.63Z" style="fill:#37474f"></path></g><g id="freepik--Shadow--inject-149"><ellipse id="freepik--shadow--inject-149" cx="255" cy="364.86" rx="170.03" ry="98.17" style="fill:#263238"></ellipse></g><g id="freepik--Mug--inject-149"><g id="freepik--mug--inject-149"><g id="freepik--Plate--inject-149"><path d="M370.54,282.36c-63.81-36.84-167.27-36.84-231.07,0-31.91,18.42-47.86,42.57-47.86,66.71v6.84c0,24.14,16,48.28,47.86,66.7,63.81,36.85,167.26,36.85,231.07,0,31.91-18.42,47.86-42.56,47.85-66.7v-6.76C418.43,325,402.48,300.8,370.54,282.36Z" style="fill:#E1879F"></path><path d="M370.54,282.36c-63.81-36.84-167.27-36.84-231.07,0-31.91,18.42-47.86,42.57-47.86,66.71v6.84c0,24.14,16,48.28,47.86,66.7,63.81,36.85,167.26,36.85,231.07,0,31.91-18.42,47.86-42.56,47.85-66.7v-6.76C418.43,325,402.48,300.8,370.54,282.36Z" style="fill:#fff;opacity:0.30000000000000004"></path><path d="M200.75,438.08v-178c-22.38,4.54-43.39,12-61.28,22.3-31.91,18.42-47.86,42.57-47.86,66.71v6.84c0,24.14,16,48.28,47.86,66.71C161,435,187,443.25,214.41,447.3,201.5,445,200.75,438.08,200.75,438.08Z" style="opacity:0.1"></path><path d="M370.54,282.36c-63.81-36.84-167.27-36.84-231.07,0s-63.81,96.57,0,133.41,167.26,36.84,231.07,0S434.35,319.2,370.54,282.36Z" style="fill:#E1879F"></path><path d="M370.54,282.36c-63.81-36.84-167.27-36.84-231.07,0s-63.81,96.57,0,133.41,167.26,36.84,231.07,0S434.35,319.2,370.54,282.36Z" style="fill:#fff;opacity:0.8"></path><path d="M339.63,303.64c-46.74-27-122.51-27-169.25,0s-46.73,70.73,0,97.71,122.51,27,169.25,0S386.36,330.62,339.63,303.64Z" style="fill:#E1879F;opacity:0.15"></path><path d="M329.15,314.33c-40.95-23.64-107.34-23.64-148.29,0s-41,62,0,85.62,107.34,23.64,148.29,0S370.1,338,329.15,314.33Z" style="fill:#E1879F"></path><path d="M329.15,314.33c-40.95-23.64-107.34-23.64-148.29,0s-41,62,0,85.62,107.34,23.64,148.29,0S370.1,338,329.15,314.33Z" style="fill:#fff;opacity:0.8"></path><path d="M138.51,410.33a193.8,193.8,0,0,0,42.89,16.24,262.89,262.89,0,0,0,45.19,7.29,298.46,298.46,0,0,0,45.74-.14,272.32,272.32,0,0,0,45.08-7.34,199.67,199.67,0,0,0,42.68-15.75c13.46-6.91,26.09-15.77,35.82-27.29a66.24,66.24,0,0,0,11.49-19.23A51.76,51.76,0,0,0,410.75,342a55.73,55.73,0,0,0-6.1-21.71,71.69,71.69,0,0,0-6-9.73,87.1,87.1,0,0,0-7.34-8.84,88.61,88.61,0,0,1,7.87,8.44,72.1,72.1,0,0,1,6.5,9.59,57.2,57.2,0,0,1,7.21,22.07,54.31,54.31,0,0,1-2.79,23.23,69.05,69.05,0,0,1-11.56,20.41,97.12,97.12,0,0,1-16.86,16.25A139.78,139.78,0,0,1,362,414.26a200.63,200.63,0,0,1-43.53,16.25,275.41,275.41,0,0,1-92.14,6.62,245.35,245.35,0,0,1-45.46-8.58,204.2,204.2,0,0,1-21.77-7.78A157,157,0,0,1,138.51,410.33Z" style="fill:#fff"></path><path d="M313.84,316.21c-32.49-18.76-85.18-18.76-117.67,0s-32.5,49.18,0,67.94,85.18,18.76,117.67,0S346.34,335,313.84,316.21Z" style="fill:#E1879F;opacity:0.2"></path><path d="M313.65,372.43,206.56,313.09,91.61,349.3c.1,24.06,16,48.11,47.86,66.47,17.89,10.34,38.9,17.77,61.28,22.3Z" style="fill:#E1879F;opacity:0.2"></path></g><g id="freepik--mug--inject-149"><path d="M86.12,279.65c0,25.11,24.1,38,42.66,45.83,13.93,5.85,24.53,7.82,31.77,13.78-.66-3.47-16.66-88.46-16.66-88.46A39.45,39.45,0,0,0,121.52,245a29.3,29.3,0,0,0-13.61,3.8l-8.62,5C92.21,257.81,86.12,265.68,86.12,279.65Zm24.63-5a15.34,15.34,0,0,1,3.69-9.74,15.84,15.84,0,0,1,2.89-.27,25.19,25.19,0,0,1,18.16,7.09,245.53,245.53,0,0,1,10,36.1c-.79-.31-1.58-.63-2.41-1C119.85,297.13,110.75,287.2,110.75,274.69Z" style="fill:#fafafa"></path><path d="M86.12,279.65c0,25.11,24.1,38,42.66,45.83,13.93,5.85,24.53,7.82,31.77,13.78-5.13-27-17.85-66.19-25.24-83.5a39.41,39.41,0,0,0-22.38-5.85C102.7,250.15,86.12,256.6,86.12,279.65Zm16,0a15.08,15.08,0,0,1,15.16-15,25.19,25.19,0,0,1,18.16,7.09c4.52,11.77,10.8,35.55,11.14,44.66-3.92-1.39-7.74-2.74-12.12-4.58C111.27,302.08,102.17,292.15,102.17,279.65Z" style="fill:#e0e0e0"></path><path d="M133.12,311.25a121.06,121.06,0,0,0,10.78,19.89c6.75,2.41,12.31,4.55,16.65,8.12-5.13-27-17.85-66.19-25.24-83.5a39.72,39.72,0,0,0-11.86-4.87V263.7c0,.54,0,1.07,0,1.61a25.36,25.36,0,0,1,12,6.46c4.52,11.77,10.8,35.55,11.14,44.66-3.92-1.39-7.74-2.74-12.12-4.58Z" style="opacity:0.1"></path><path d="M378.14,238.82c0-17.94-11.85-35.88-35.56-49.57-47.42-27.37-124.29-27.37-171.71,0-23.7,13.69-35.56,31.63-35.56,49.57h0v26.34A121.42,121.42,0,0,0,256.73,386.58h0A121.42,121.42,0,0,0,378.14,265.16V238.82Z" style="fill:#fafafa"></path><path d="M256.73,169.78c32.25,0,62.55,7.24,85.32,20.39,22.59,13,35,30.32,35,48.65v26.34a120.36,120.36,0,1,1-240.72,0V238.82c0-18.33,12.44-35.61,35-48.65,22.78-13.15,53.08-20.39,85.33-20.39m0-1.06c-31.08,0-62.15,6.84-85.86,20.53s-35.56,31.63-35.56,49.57v26.34A121.42,121.42,0,0,0,256.73,386.58h0A121.42,121.42,0,0,0,378.14,265.16V238.82c0-17.94-11.85-35.88-35.56-49.57s-54.78-20.53-85.85-20.53Z" style="fill:#e0e0e0"></path><path d="M218.83,367.94c-50.7-21.67-48.71-62-31.84-60.07s48,7.9,89.18.14l.37-111.9-121.42,4.31c-13.2,11.62-19.81,25-19.81,38.4v26.34A121.42,121.42,0,0,0,256.73,386.58h0a120.94,120.94,0,0,0,77.93-28.32C315.27,372.41,269.54,389.61,218.83,367.94Z" style="fill:#e0e0e0"></path><path d="M342.58,189.25c-47.42-27.37-124.29-27.37-171.71,0s-47.41,71.76,0,99.14,124.3,27.37,171.71,0S390,216.63,342.58,189.25ZM338.88,282c-21.82,12.6-51,19.54-82.15,19.54S196.4,294.58,174.57,282c-20.55-11.86-31.86-27.19-31.86-43.16s11.31-31.3,31.86-43.17c21.83-12.6,51-19.54,82.16-19.54s60.33,6.94,82.15,19.54c20.55,11.87,31.87,27.2,31.87,43.17S359.43,270.12,338.88,282Z" style="fill:#fff"></path><path d="M338.88,195.66c-21.82-12.61-51-19.55-82.15-19.55s-60.34,6.94-82.16,19.55C154,207.52,142.7,222.84,142.7,238.82a35.09,35.09,0,0,0,2.69,13.35c4.46-11,14.45-21.31,29.18-29.81,21.82-12.6,51-19.54,82.16-19.54s60.33,6.94,82.15,19.54c14.73,8.5,24.71,18.78,29.19,29.81a35.08,35.08,0,0,0,2.68-13.35C370.75,222.85,359.43,207.52,338.88,195.66Z" style="fill:#ebebeb"></path><path d="M256.73,176.11c-31.16,0-60.34,6.94-82.16,19.55C154,207.52,142.7,222.84,142.7,238.82a35.09,35.09,0,0,0,2.69,13.35c4.46-11,14.45-21.31,29.18-29.81,21.82-12.6,51-19.54,82.16-19.54,1.94,0,3.88,0,5.81.08-7.49-.08-23.29-3.86-18-14.11,5.56-10.72,19.62-12.58,30-11.9C268.7,176.38,262.75,176.11,256.73,176.11Z" style="fill:#e0e0e0"></path><path d="M256.73,176.11c-31.16,0-60.34,6.94-82.16,19.55C154,207.52,142.7,222.84,142.7,238.82a35.09,35.09,0,0,0,2.69,13.35c4.46-11,14.45-21.31,29.18-29.81,21.82-12.6,51-19.54,82.16-19.54,1.94,0,3.88,0,5.81.08-7.49-.08-23.29-3.86-18-14.11,5.56-10.72,19.62-12.58,30-11.9C268.7,176.38,262.75,176.11,256.73,176.11Z" style="opacity:0.1"></path><path d="M370.75,238.82c0-14.11-8.84-27.72-25.07-38.88,7.62,8.83,3.33,24.63-13.13,19l-.12,0c2.21,1.09,4.37,2.22,6.45,3.43,14.73,8.5,24.71,18.78,29.19,29.81A35.08,35.08,0,0,0,370.75,238.82Z" style="fill:#e0e0e0"></path><path d="M370.75,238.82c0-14.11-8.84-27.72-25.07-38.88,7.62,8.83,3.33,24.63-13.13,19l-.12,0c2.21,1.09,4.37,2.22,6.45,3.43,14.73,8.5,24.71,18.78,29.19,29.81A35.08,35.08,0,0,0,370.75,238.82Z" style="opacity:0.1"></path><path d="M338.88,222.36c-21.82-12.6-51-19.54-82.15-19.54s-60.34,6.94-82.16,19.54c-14.73,8.5-24.72,18.78-29.18,29.81,4.47,11,14.45,21.31,29.19,29.81,21.81,12.6,51,19.54,82.15,19.54s60.33-6.94,82.15-19.54c14.73-8.5,24.71-18.79,29.19-29.81C363.59,241.14,353.61,230.86,338.88,222.36Z" style="fill:#E1879F"></path><path d="M338.88,222.36c-21.82-12.6-51-19.54-82.15-19.54s-60.34,6.94-82.16,19.54c-14.73,8.5-24.72,18.78-29.18,29.81,4.47,11,14.45,21.31,29.19,29.81,21.81,12.6,51,19.54,82.15,19.54s60.33-6.94,82.15-19.54c14.73-8.5,24.71-18.79,29.19-29.81C363.59,241.14,353.61,230.86,338.88,222.36Z" style="opacity:0.4"></path><path d="M174.57,222.36c-14.73,8.5-24.72,18.78-29.18,29.81,4.47,11,14.45,21.31,29.19,29.81,16.06,9.28,36.11,15.47,58,18.1-6.55-3.5-15.2-10.49-22.43-12-2.5-.52-4.91-1.28-7.37-2-6.95-2-9.13-4.27-10.52-6-2.33-2.8-3.45-6.82-2.1-10.2a13,13,0,0,1,4.55-5.28c6.71-4.93,15.23-6.79,22.23-11.29,1.81-1.16,3.6-2.63,4.2-4.68.67-2.26-.27-4.7-1.65-6.6s-3.18-3.46-4.6-5.33-2.46-4.25-1.95-6.54a6.94,6.94,0,0,1,2.24-3.73c4.8-4,11-4.73,15.07-5.68a10.93,10.93,0,0,0,7.21-5.26c1.57-2.65-.12-5.95,1.41-8.61a10.29,10.29,0,0,1,3.67-3.63C216.79,205.1,193,211.69,174.57,222.36Zm-1.26,35.69a2,2,0,0,1-1.82,0,.55.55,0,0,1,0-1.05,2,2,0,0,1,1.82,0A.56.56,0,0,1,173.31,258.05Zm11.41,16.48a6.23,6.23,0,0,1-5.64,0c-1.56-.9-1.56-2.35,0-3.25a6.23,6.23,0,0,1,5.64,0C186.28,272.18,186.28,273.63,184.72,274.53Zm2.44-7.35a2,2,0,0,1-1.82,0,.55.55,0,0,1,0-1.05,2.08,2.08,0,0,1,1.82,0A.56.56,0,0,1,187.16,267.18Zm1.16-12a9.85,9.85,0,0,1-8.91,0c-2.46-1.42-2.46-3.72,0-5.14a9.85,9.85,0,0,1,8.91,0C190.78,251.48,190.78,253.78,188.32,255.2ZM207.18,226a3.16,3.16,0,0,1,2.87,0,.87.87,0,0,1,0,1.66,3.16,3.16,0,0,1-2.87,0A.88.88,0,0,1,207.18,226Zm-13.06,10.31c-2.46-1.42-2.46-3.72,0-5.14a9.83,9.83,0,0,1,8.9,0c2.46,1.42,2.46,3.72,0,5.14A9.83,9.83,0,0,1,194.12,236.32ZM200,255.77a3.18,3.18,0,0,1-2.88,0,.87.87,0,0,1,0-1.65,3.18,3.18,0,0,1,2.88,0A.87.87,0,0,1,200,255.77ZM212.88,243c2.81,1.63,2.81,4.26,0,5.88a11.25,11.25,0,0,1-10.17,0c-2.81-1.62-2.81-4.25,0-5.88A11.25,11.25,0,0,1,212.88,243Zm9.34-24.15a2,2,0,0,1-1.81,0,.56.56,0,0,1,0-1,2,2,0,0,1,1.81,0A.55.55,0,0,1,222.22,218.89Z" style="fill:#E1879F;opacity:0.30000000000000004"></path><path d="M338.88,222.36a123.76,123.76,0,0,0-16-7.71,26.43,26.43,0,0,0-4.43,1.38,8.35,8.35,0,0,0-4.05,2.92c-2.18,3.42.49,7.84,3.37,10.69a79.62,79.62,0,0,0,14.55,10.92c2.75,1.69,5.62,3.34,7.66,5.84s3.11,6.09,1.73,9c-1,2.14-3.09,3.52-4.86,5.1s-3.38,3.79-2.94,6.11c.34,1.78,1.79,3.1,3,4.48s2.18,3.28,1.45,4.94-2.76,2.19-4.55,2.44c-6.65.92-13.53.5-20,2.36a12.24,12.24,0,0,0-6.46,3.8c-1.38,1.77-1.94,4.08-3.4,5.78-3.3,3.86-9.31,3-14.38,3.29-6.52.36-12.65,3.13-18.5,6.05-.95.47-1.88,1-2.82,1.44C295,299.71,319.76,293,338.88,282c14.73-8.5,24.71-18.79,29.19-29.81C363.59,241.14,353.61,230.86,338.88,222.36Zm-9.24,3.77a9.85,9.85,0,0,1-8.91,0c-2.46-1.42-2.46-3.72,0-5.14a9.85,9.85,0,0,1,8.91,0C332.1,222.41,332.1,224.71,329.64,226.13Zm7.45,7.3a5.4,5.4,0,0,1-4.86,0c-1.34-.78-1.34-2,0-2.81a5.4,5.4,0,0,1,4.86,0C338.43,231.4,338.43,232.65,337.09,233.43ZM318.8,287.86a6.06,6.06,0,0,1-5.5,0c-1.52-.87-1.52-2.3,0-3.17a6.06,6.06,0,0,1,5.5,0C320.32,285.56,320.32,287,318.8,287.86Zm6.65-2.92a3.48,3.48,0,0,1-3.17,0,1,1,0,0,1,0-1.82,3.48,3.48,0,0,1,3.17,0A1,1,0,0,1,325.45,284.94Zm23-30.33a2.88,2.88,0,0,1,2.59,0c.72.42.72,1.09,0,1.5a2.82,2.82,0,0,1-2.59,0C347.74,255.7,347.74,255,348.46,254.61Zm3.79,14.67a12.88,12.88,0,0,1-11.63,0c-3.21-1.86-3.21-4.87,0-6.72a12.88,12.88,0,0,1,11.63,0C355.47,264.41,355.47,267.42,352.25,269.28Zm4.14-21.51a7.05,7.05,0,0,1-6.39,0c-1.77-1-1.77-2.68,0-3.7a7.05,7.05,0,0,1,6.39,0C358.16,245.09,358.16,246.75,356.39,247.77Zm6.66,1.88a2.82,2.82,0,0,1-2.59,0c-.72-.41-.72-1.08,0-1.5a2.88,2.88,0,0,1,2.59,0C363.77,248.57,363.77,249.24,363.05,249.65Z" style="fill:#E1879F;opacity:0.30000000000000004"></path><path d="M240.68,203.45c-25,2-48.08,8.5-66.11,18.91-14.73,8.5-24.72,18.78-29.18,29.81,4.47,11,14.45,21.31,29.19,29.81a125.44,125.44,0,0,0,17.57,8.34c-12-6.92-24.2-17.34-24.25-31.24C167.81,231.55,201.2,207.78,240.68,203.45Z" style="opacity:0.4"></path></g></g></g><g id="freepik--Spoon--inject-149"><g id="freepik--tea-spoon--inject-149"><path id="freepik--shadow--inject-149" d="M271.33,453.1a1.54,1.54,0,0,0,0-.3.53.53,0,0,0,0-.12,1.59,1.59,0,0,0-.12-.27l-.06-.12a1.71,1.71,0,0,0-.22-.25,1.09,1.09,0,0,0-.1-.11,3,3,0,0,0-.43-.31h0L119.9,368.48a21.28,21.28,0,0,0,3.91-10.84,7.7,7.7,0,0,0,0-1s0-.08,0-.12h0c-.12-4.86-3.73-10.13-11.64-15.57-16.48-11.35-54.41-21.32-70.58-12-5.64,3.26-7.2,8.06-6,13.32h0c1.09,5.66,4.82,13,12.51,21.09l.06.07c.5.52,1,1,1.56,1.57l.21.21c.6.59,1.23,1.19,1.88,1.79a59,59,0,0,0,14.5,10.17,47.85,47.85,0,0,0,4.75,2A50.29,50.29,0,0,0,79,381.32a66.53,66.53,0,0,0,12.28,1.07,37.49,37.49,0,0,0,19.65-5.49l143.18,86.35c4.51,2.61,17.25-4,17.26-7.84,0-.37,0-1.87,0-2.27C271.34,453.13,271.33,453.12,271.33,453.1Z" style="opacity:0.1"></path><g id="freepik--tea-spoon--inject-149"><path d="M91.24,376.8c17.9,0,32.61-12.39,32.61-25.83L35.6,336.73c1.25,6.51,6,15.28,16.22,24.73S73.33,376.8,91.24,376.8Z" style="fill:#ebebeb"></path><path d="M91.24,376.8c17.9,0,32.61-12.39,32.61-25.83L35.6,336.73c1.25,6.51,6,15.28,16.22,24.73S73.33,376.8,91.24,376.8Z" style="opacity:0.15"></path><path d="M119.37,353c.21,9.63-11.3,21.57-29.21,21.51-17.38-.07-33.26-7.77-45.13-20.1a77.26,77.26,0,0,0,6.79,7.07c10.23,9.46,21.51,15.34,39.42,15.34s32.61-12.39,32.61-25.83l-4.53-.73C119.34,351.23,119.35,352.15,119.37,353Z" style="opacity:0.15"></path><path d="M112.2,335.4c-16.48-11.35-54.41-21.32-70.58-12s1.11,31.23,20.77,40.75c19.45,9.42,37.63,8.3,50.91.64S128.52,346.63,112.2,335.4Z" style="fill:#e6e6e6"></path><path d="M59.18,320.66c18.75,0,41.41,7.89,52.49,15.51,7.65,5.27,11.43,10.46,11.24,15.41-.18,4.41-3.66,8.7-10.08,12.4a46.09,46.09,0,0,1-23,6,61.89,61.89,0,0,1-27-6.63C48.21,356.25,36.52,343.37,36.18,334c-.15-4.12,1.84-7.4,5.91-9.75s9.85-3.57,17.09-3.57m0-.94c-6.91,0-13.07,1.1-17.56,3.69-16.16,9.33,1.11,31.23,20.77,40.75a63,63,0,0,0,27.4,6.73,46.8,46.8,0,0,0,23.51-6.09c13.28-7.67,15.22-18.17-1.1-29.4-11.91-8.2-35-15.68-53-15.68Z" style="fill:#e0e0e0"></path><path d="M102.9,337.76c-16.08-10.71-49.73-20.84-61.25-13S49,352.9,67.36,362.06c18.14,9.07,33.05,8.62,42.53,2.14S118.81,348.36,102.9,337.76Z" style="fill:#f0f0f0"></path><path d="M84.87,333.86c-11.41-7.59-35.27-14.77-43.45-9.18s5.23,19.92,18.24,26.42,23.44,6.11,30.16,1.52S96.15,341.38,84.87,333.86Z" style="fill:#fafafa"></path><path d="M270.32,446,117.8,361.73a46.41,46.41,0,0,1-9.73,5.62v2.26l146,88.06c4.51,2.6,17.25-4.05,17.26-7.85,0-.36,0-1.87,0-2.26A1.73,1.73,0,0,0,270.32,446Z" style="fill:#e0e0e0"></path><path d="M270.32,446,117.8,361.73a45.27,45.27,0,0,1-9.73,5.62v2.26l146,88.06c4.51,2.6,17.25-4.05,17.26-7.85,0-.36,0-1.87,0-2.26A1.73,1.73,0,0,0,270.32,446Z" style="opacity:0.25"></path><path d="M254.07,455.41c5.22,3,21.47-6.37,16.25-9.38L117.8,361.73a45.26,45.26,0,0,1-9.73,5.62Z" style="fill:#f0f0f0"></path><path d="M118.71,364.11s127.34,70,136.83,75.22c10.4,5.7,16.74,8.3,10.13,12.12-7.76,4.48-9.65,2.49-9.65,2.49a17,17,0,0,0,7.27-2.49c3.9-2.5.51-5.83-7.13-9.49S118.71,364.11,118.71,364.11Z" style="fill:#fafafa"></path></g></g></g><g id="freepik--Steam--inject-149"><g id="freepik--steam--inject-149"><path d="M263.76,254.76c1.68-10.35-3-18.32-13.1-25.17-11.66-7.91-31-18.77-35.58-41.86-8.53-43.47,47.08-67.4,58.06-75.52,12.44-9.2,19.19-16.5,17.42-34.1,19.91,16.93,28,53.74-8.63,75.61-28.16,16.8-43.5,36.07-27.72,57C270.85,232.83,272.33,241.7,263.76,254.76Z" style="fill:#fff;opacity:0.2"></path><path d="M295.32,105.85c-1.33,13.45-17,22.86-27.63,29s-22.17,11.54-31.2,20.27c-7.63,7.38-13,17.71-12.74,28.68.45,17.35,10.77,26.72,21.1,31.84.41.2.68,0-.6-1-6-5-11.35-11.45-13.18-17.22-2.39-7.56-2.77-14.67-.8-21.09,3.79-12.34,13.82-20.76,24.34-27.46,15.75-10,40.42-21.26,41.15-43.06C295.77,105.34,295.35,105.59,295.32,105.85Z" style="fill:#fff;opacity:0.2"></path><path d="M267.66,44C282,62,280.38,87.8,259.11,101.65S204.52,131.93,205.3,159c-12.3-16.58-13.37-39.75,7.48-55.7,10.24-7.84,30.38-16.44,41.08-26.76C263.12,67.59,269.23,56.15,267.66,44Z" style="fill:#fff;opacity:0.2"></path></g></g><g id="freepik--Sparkles--inject-149"><g id="freepik--Shine--inject-149"><path d="M115.94,100.19c0,3.54-.08,6.94-5.19,7.74,5.39-.08,5,3.32,5.25,7.58.14-4.26.52-7.31,4.72-7.51C116.37,107.28,116.49,105.26,115.94,100.19Z" style="fill:#455a64"></path><path d="M431.27,159.75c0,3.53-.09,6.94-5.2,7.73,5.4-.07,5,3.33,5.25,7.59.15-4.26.52-7.32,4.73-7.52C431.7,166.83,431.81,164.81,431.27,159.75Z" style="fill:#455a64"></path><path d="M139.75,165.81c0,3.54-.09,6.94-5.2,7.74,5.4-.08,5,3.32,5.26,7.58.14-4.26.51-7.31,4.72-7.51C140.18,172.9,140.29,170.88,139.75,165.81Z" style="fill:#455a64"></path><path d="M35.55,242.65c0,2.47.06,4.84,3.62,5.39-3.76,0-3.47,2.32-3.66,5.28-.1-3-.36-5.09-3.29-5.23C35.25,247.59,35.17,246.18,35.55,242.65Z" style="fill:#ebebeb"></path><path d="M364.27,127.09c0,2.46.06,4.84,3.62,5.39-3.76,0-3.48,2.32-3.66,5.28-.1-3-.36-5.09-3.29-5.23C364,132,363.89,130.62,364.27,127.09Z" style="fill:#ebebeb"></path><path d="M66.38,216.13c0,3.54.09,7,5.21,7.75-5.41-.07-5,3.34-5.27,7.61-.14-4.27-.52-7.34-4.74-7.54C66,223.23,65.83,221.21,66.38,216.13Z" style="fill:#e0e0e0"></path><path d="M376.8,165.26c0,3.55.09,7,5.21,7.76-5.41-.08-5,3.33-5.26,7.6-.15-4.27-.52-7.33-4.74-7.53C376.37,172.36,376.26,170.34,376.8,165.26Z" style="fill:#e0e0e0"></path><path d="M323.66,50.05c0,3.55.09,7,5.21,7.75-5.41-.07-5,3.34-5.27,7.61-.14-4.27-.52-7.33-4.73-7.54C323.23,57.15,323.11,55.13,323.66,50.05Z" style="fill:#e0e0e0"></path><path d="M58.42,248.9C58,259,57,262.43,48.18,264c8.94.77,9.73,6.49,10.24,14.79.28-8.3,2.13-14.54,10.33-14.93C60.27,262.43,59.48,258.78,58.42,248.9Z" style="fill:#455a64"></path><path d="M353.13,139.34c-.51,11-1.58,14.78-11.19,16.47,9.76.85,10.62,7.09,11.19,16.17.3-9.08,2.33-15.89,11.28-16.32C355.15,154.13,354.29,150.14,353.13,139.34Z" style="fill:#455a64"></path><path d="M210.08,48.36c-.86,9.09-.43,12.88-9.54,14.2,9.11.62,9.06,6,9.54,13.81.27-7.79.46-13.09,8.69-13.81C210.54,61.36,211.08,57.63,210.08,48.36Z" style="fill:#455a64"></path><path d="M194.25,70.42c0,2.47-.06,4.84-3.62,5.39,3.76,0,3.48,2.32,3.66,5.29.1-3,.36-5.1,3.29-5.24C194.55,75.36,194.63,74,194.25,70.42Z" style="fill:#ebebeb"></path><path d="M156.79,140.06c-.46,10.09-1.44,13.53-10.24,15.08,8.93.77,9.72,6.49,10.24,14.79.28-8.3,2.13-14.54,10.33-14.94C158.64,153.59,157.85,149.94,156.79,140.06Z" style="fill:#e0e0e0"></path><path d="M419.59,245.54c.46,10.09,1.44,13.53,10.24,15.08-8.93.77-9.72,6.49-10.24,14.8-.28-8.31-2.13-14.55-10.33-14.94C417.74,259.07,418.53,255.42,419.59,245.54Z" style="fill:#e0e0e0"></path><path d="M443.05,270.22c.29,6.41.91,8.6,6.5,9.58-5.67.49-6.17,4.12-6.5,9.4-.18-5.28-1.35-9.24-6.56-9.49C441.87,278.82,442.38,276.5,443.05,270.22Z" style="fill:#455a64"></path><path d="M436.5,234.12c.16,3.49.5,4.68,3.55,5.22-3.09.27-3.37,2.24-3.55,5.12-.09-2.88-.73-5-3.57-5.17C435.86,238.8,436.14,237.54,436.5,234.12Z" style="fill:#455a64"></path></g></g></svg>