<svg xmlns="http://www.w3.org/2000/svg" viewBox="0 0 500 500"><g id="freepik--Floor--inject-85"><ellipse id="freepik--floor--inject-85" cx="250" cy="347.14" rx="229.21" ry="132.34" style="fill:#fafafa"></ellipse></g><g id="freepik--Shadows--inject-85"><ellipse id="freepik--Shadow--inject-85" cx="324.33" cy="318.64" rx="96.59" ry="55.77" style="fill:#e0e0e0"></ellipse><ellipse id="freepik--shadow--inject-85" cx="212.23" cy="385.18" rx="98.74" ry="57.01" style="fill:#e0e0e0"></ellipse><ellipse id="freepik--shadow--inject-85" cx="183.81" cy="300.84" rx="103.02" ry="59.48" style="fill:#e0e0e0"></ellipse></g><g id="freepik--Leaves--inject-85"><g id="freepik--Leaf--inject-85"><path d="M257.25,150.26c-8.62-11.54-18.62-19.52-22.16-33.74s.29-31.84-10.91-45.8S196,55.14,181.28,51.47s-20.14-4.57-20.14-4.57,13.13,1.69,23.49.16,27.83-12.13,45.22,5.56,17.7,18.18,24.89,24.21,29.46,18.26,27,46.08-4.58,39.54-13.52,59C268.26,181.92,262.55,157.36,257.25,150.26Z" style="fill:#455a64"></path><path d="M261.15,228.63c-2.23-10.56,1.52-14.45,6.06-30.08,4.19-14.42-1.6-34.5-10-48.29,3.53,6.41,6.29,25.14,3.67,41.69S255.63,216,261.15,228.63Z" style="fill:#263238"></path><path d="M161.14,46.9c23,6.94,42,15.18,52.92,25,8.59,7.77,18.11,18.15,19.06,28.63,0,0,4.53-19.68-10.54-33.34S177.39,49.13,161.14,46.9Z" style="fill:#263238"></path><path d="M271,106.93a86.27,86.27,0,0,1-1,13.77,80.85,80.85,0,0,1-1.86,9.19c0-.17-.08-.35-.13-.52A121.57,121.57,0,0,0,263.24,116a.26.26,0,0,0,0-.08,136.37,136.37,0,0,0-6.06-12.46,29.61,29.61,0,0,0,.34-4.69c0-1.58.05-3.15,0-4.72s-.22-3.11-.44-4.64a33.69,33.69,0,0,0-1.15-4.81c-.06-.19-.31-.26-.27,0,.2,1.5.27,3.05.42,4.56s.25,3.07.29,4.61,0,3.08-.08,4.63c-.06.94-.19,1.88-.32,2.82A174.05,174.05,0,0,0,236.1,73.58c-7.31-8.4-15.13-16.9-26-21.11-.18-.07-.15.27,0,.33a55.09,55.09,0,0,1,12.09,8.39,113.44,113.44,0,0,1,9.43,10.18,216.86,216.86,0,0,1,18.55,25.24,146.58,146.58,0,0,1,9.31,17.45,45.61,45.61,0,0,1-18.58-14.59c-.2-.26-.36.06-.23.27a38.93,38.93,0,0,0,9,10,41.18,41.18,0,0,0,10.69,6.18,120.39,120.39,0,0,1,7.5,23.94c-1.85-.94-3.73-1.81-5.52-2.84a75.28,75.28,0,0,1-7.27-4.78,70.77,70.77,0,0,1-12.2-11.17c-.14-.17-.21.11-.13.22a66.45,66.45,0,0,0,11,11.63c4.26,3.42,9.21,6.83,14.49,8.76.59,3.21,1.1,6.45,1.39,9.73a104.35,104.35,0,0,1-1,27c-.15.84-.31,1.68-.46,2.52.14.58.22.94.22.94,1.31-2.85,2.45-5.52,3.49-8.11.1-.72.22-1.45.3-2.18a103.08,103.08,0,0,0,.56-14.14,111,111,0,0,0-3.4-23.76,78.83,78.83,0,0,0,2.33-12.82,71.94,71.94,0,0,0-.26-13.93C271.27,106.84,271,106.72,271,106.93Z" style="fill:#37474f"></path></g><g id="freepik--leaf--inject-85"><path d="M278.39,419c8.32,2.83,19.61-2.63,27.69-7.14s27.12-9.05,36.57-11.31,17.9-4.26,29.12-14.87,31.1-10.15,43.27-2.39a53.43,53.43,0,0,1,17.82,19.54s2-14.66-17-25.05c0,0-9.92-20.15-37.12-19.57s-48.27,11.62-61.09,23.57-18.07,23.45-24.56,30.6A19.56,19.56,0,0,1,278.39,419Z" style="fill:#455a64"></path><path d="M350.29,398.55a94,94,0,0,1-18-1.37c-10.17-1.72-13.78,5-26.22,14.67,8.07-4.51,27.12-9.05,36.57-11.31C345.25,399.92,347.77,399.32,350.29,398.55Z" style="fill:#263238"></path><path d="M380.3,366.41A51.13,51.13,0,0,1,399,368.84a56.43,56.43,0,0,1,16.8,8.93A53.91,53.91,0,0,0,399.33,368a51.65,51.65,0,0,0-19-3,68.81,68.81,0,0,0-19.2,3.56,129.35,129.35,0,0,0-15.94,6.15c2.58-3.71,6.25-6.67,9.79-9.25.13-.09.25-.48,0-.38-5.06,2-8.67,6.21-11.88,10.62-.08.05-.17.08-.26.13A93.06,93.06,0,0,0,326.27,387c-2.07,1.7-4.09,3.44-6.1,5.19.77-1.73,1.31-3.61,2-5.29a28.17,28.17,0,0,1,5.24-8.54c.13-.14.13-.51-.11-.32a20.93,20.93,0,0,0-6.24,8.1c-.65,1.57-1.14,3.21-1.8,4.78a12.73,12.73,0,0,1-1.23,2.34c-.43.64-.87,1.35-1.33,2.08-1.78,1.69-3.53,3.42-5.22,5.19-4.63,4.78-9.21,9.67-14.76,13.13a32.71,32.71,0,0,1-8.82,4,38.81,38.81,0,0,1-9.52,1.37,33.92,33.92,0,0,0,18.78-4.53c5.77-3.4,10.55-8.25,15.28-12.9,2.38-2.33,4.75-4.65,7.22-6.83l2.64-2.25c.06,0,.1,0,.19,0,1.85-.35,5.32-.89,7.18-1.12,1.67-.21,3.34-.45,5-.6a56.23,56.23,0,0,1,9.71,0c.14,0,.42-.32.24-.42-2.85-1.63-6.37-1.41-9.57-1.23-1.73.1-3.46.14-5.19.19-1.36,0-2.73.18-4.09.23l1.47-1.21a106.88,106.88,0,0,1,9.24-6.75c9.38-1.08,19.85,5.37,28.76-.16.11-.07.2-.41,0-.31-8.53,4.18-16.56-1.22-25.08-1.79,1.11-.64,2.22-1.27,3.36-1.85,2.56-1.33,5.18-2.5,7.84-3.59a12,12,0,0,0,3.26-.23,35.68,35.68,0,0,1,4.62-.17,52.5,52.5,0,0,1,7.73.56c2.5.41,5,.83,7.45,1.35,2.8.6,5.5,1,8.35.26.14,0,.43-.46.18-.48a46.79,46.79,0,0,1-8.57-1.36c-2.76-.73-5.38-1.82-8.22-2.27a32.21,32.21,0,0,0-7.66-.36c1-.35,2-.7,3-1A72.83,72.83,0,0,1,380.3,366.41Z" style="fill:#37474f"></path></g></g><g id="freepik--peach-2--inject-85"><g id="freepik--Peach--inject-85"><path d="M117.2,148.76c-20.58,3.7-47.87,18.87-54.83,56.11,0,0-13.06,34.44,12.35,77.37,29.12,49.18,77.6,50.28,104.19,53.65,45.8,5.82,46.27-4.23,61.17-23.33,9-11.5,29.11-43,29.15-79.25S256,156.3,210,137.2c-39.24-16.29-59.16-7.24-68.62.62C134.36,143.63,129.77,146.5,117.2,148.76Z" style="fill:#E1879F"></path><path d="M117.2,148.76c-20.58,3.7-47.87,18.87-54.83,56.11,0,0-13.06,34.44,12.35,77.37,29.12,49.18,77.6,50.28,104.19,53.65,45.8,5.82,46.27-4.23,61.17-23.33,9-11.5,29.11-43,29.15-79.25S256,156.3,210,137.2c-39.24-16.29-59.16-7.24-68.62.62C134.36,143.63,129.77,146.5,117.2,148.76Z" style="fill:#fff;opacity:0.2"></path><path d="M269.23,233.31a139.08,139.08,0,0,0-.79-15c-5.52-21-20.44-56.53-47.87-70.83-42.55-22.17-70.52-.35-83.5,15.2-11.82,14.15-31.69,13.1-34.83,23.3-.17.13-.35.25-.52.39s-.31,1.36.2,1a24.69,24.69,0,0,1,8.84-3.74h0a26.21,26.21,0,0,1,3.23-.53c4.09-.46,8.27-1.36,12.32-2.13a63,63,0,0,0,10.44-2.86,18.52,18.52,0,0,0,5.17-3.43l0,0,.33-.33c2.25-2,4.45-4.35,6.45-6.29,21.37-18.76,45.1-20,70.64-3.52,20.6,13.29,36.7,37.65,42,63.6a98.34,98.34,0,0,1-11.17,69.63,149.43,149.43,0,0,0,12.58-27.49c.08-.34.15-.68.23-1A114.49,114.49,0,0,0,269.23,233.31Z" style="fill:#E1879F;opacity:0.7000000000000001"></path><path d="M262.81,270.27a149.43,149.43,0,0,1-12.58,27.49,98.34,98.34,0,0,0,11.17-69.63c-5.32-25.95-21.42-50.31-42-63.6-25.54-16.45-49.27-15.24-70.64,3.52-2,1.94-4.2,4.29-6.45,6.29l-.33.33,0,0a18.52,18.52,0,0,1-5.17,3.43,63,63,0,0,1-10.44,2.86c-4,.77-8.23,1.67-12.32,2.13a26.21,26.21,0,0,0-3.23.53h0a24.69,24.69,0,0,0-8.84,3.74c-.51.35-.51-.77-.2-1a42.18,42.18,0,0,1,10.4-5.57,17,17,0,0,1,2.07-.74,71.52,71.52,0,0,1,8.73-1.94c2.75-.53,5.47-1.1,8.14-1.89a44.33,44.33,0,0,0,4.39-1.47c1.72-.66,4.16-2.47,6.71-4.45s5.43-4.4,7.65-6c21.42-17.17,45.66-17.79,70.75-1.62,21.09,13.59,37.56,38.48,43,65A97.26,97.26,0,0,1,262.81,270.27Z" style="opacity:0.2"></path><path d="M196.42,299.06c-6.62.56-13.42.29-19.72-1.82-11.51-3.86-20.32-13.61-25.58-24.55-8.38-17.45-8.63-37.69-17.22-55.05-8.93-18-31.14-28.79-50.74-22.48-.53.17-1,.35-1.57.54C67.71,200.81,58.83,214.43,59,229.22c.18,13.82,3.52,32.44,15.7,53,26.13,44.14,67.87,49.55,95.37,52.63,13.26-1.27,26.22-4.24,37.38-11.27,4.38-2.76,8.54-6.26,10-11.48a10.38,10.38,0,0,0-.73-7.79C213.09,297.61,203.85,298.44,196.42,299.06Z" style="fill:#E1879F;opacity:0.4"></path><path d="M213.72,328.88c-3.8.31-15.36-.86-28.35-3.91-15.25-3.59-30.05-3.27-46.9-7.24-37-8.71-66.93-33.16-75.66-63a115.81,115.81,0,0,0,11.91,27.46c29.12,49.18,77.6,50.28,104.19,53.65,45.8,5.82,46.27-4.23,61.17-23.33,1.6-2.06,3.57-4.77,5.72-8C243.19,307.83,230.07,327.56,213.72,328.88Z" style="fill:#E1879F;opacity:0.5"></path><path d="M213.72,328.88c-3.8.31-15.36-.86-28.35-3.91-15.25-3.59-30.05-3.27-46.9-7.24-37-8.71-66.93-33.16-75.66-63a115.81,115.81,0,0,0,11.91,27.46c29.12,49.18,77.6,50.28,104.19,53.65,45.8,5.82,46.27-4.23,61.17-23.33,1.6-2.06,3.57-4.77,5.72-8C243.19,307.83,230.07,327.56,213.72,328.88Z" style="opacity:0.05"></path><path d="M232.27,188.12a34.78,34.78,0,0,0-12.49-15.35c-22.69-15.69-61.39-14.81-75.11,12.46a15.83,15.83,0,0,0-2,7.28c.12,6.49,6.6,11.34,13,12.24s12.87-1.07,19.2-2.49c9-2,18.37-2.92,27.45-1.29s19.3,8.24,28.17,3.85C236.52,201.84,234.28,193.15,232.27,188.12Zm1.34,23.45a7.34,7.34,0,0,0-2.8,2.89,6.42,6.42,0,0,0-.71,2.34,7.12,7.12,0,0,0,2.79,6.1,9.65,9.65,0,0,0,9,1.52,5.48,5.48,0,0,0,4.2-5.84A8.17,8.17,0,0,0,233.61,211.57Z" style="fill:#fff;opacity:0.1"></path><path d="M230.06,186.93c-1.45-3.31-3.93-5.89-6.55-8.41a45.68,45.68,0,0,0-13-9.21,60,60,0,0,0-24.91-4.79c-4.82.07-10.49.28-14.51,3.11-.21.14-.36.72,0,.8a32.69,32.69,0,0,0,7.2.33c2.42,0,4.84-.11,7.27-.07a68,68,0,0,1,13,1.46,66.45,66.45,0,0,1,11.14,3.61A61.55,61.55,0,0,1,220.06,179c3.65,2.42,6.31,5.7,9.65,8.42C230,187.66,230.12,187.08,230.06,186.93Z" style="fill:#fff;opacity:0.15"></path><path d="M139.57,152.15a29.08,29.08,0,0,0,2.59,18.12c-2.55,2-5,3.79-6.71,4.45a44.33,44.33,0,0,1-4.39,1.47c0-.09-.09-.59-.42-3.3-.42-3.32-3.87-4-8.93,0a88.8,88.8,0,0,0-7.52,7.13c-1.42,1.46-2.26,2.34-3.43,3.58-2.51,2.68-4.5,5.05-5.33,5.81-1.59,1.46-6.11,1.94-9.23-1.8-4.34-5.18-1.3-9.14-1.3-9.14s9.28-6.35,14.84-11,16.41-13.15,19.34-17.18,1.28-6.21-.77-7.32c-1.8-1-3.19-3.19,0-4.42s7.12-5.41,10.79-11.33,5.13-10,7.31-10,1.16,4.62,4.2,6.38,9.41-1.1,6.84,2.31S140.84,145.82,139.57,152.15Z" style="fill:#455a64"></path><path d="M94.9,178.47s-3,4,1.3,9.14c3.12,3.74,7.64,3.26,9.23,1.8C109.57,184.88,100.48,174.54,94.9,178.47Z" style="fill:#37474f"></path><path d="M134.07,172.6c-1.27-1-.8-4.68-3-5.48s-6.68,3.07-9.88,6.2h0l.52-.44c5.06-4,8.51-3.32,8.93,0,.33,2.71.39,3.21.42,3.3a44.33,44.33,0,0,0,4.39-1.47c1.72-.66,4.16-2.47,6.71-4.45C142.16,170.27,135.35,173.64,134.07,172.6Z" style="fill:#37474f"></path><path d="M126.37,153.29h0s6.85-5,6.9-7.73-2.54-3.08-4.17-3.3-2.69-1.71-2.42-2.57c-.8,1.18.3,2.57,1.63,3.29,2.05,1.11,3.71,3.3.77,7.32A26.06,26.06,0,0,1,126.37,153.29Z" style="fill:#37474f"></path><path d="M150.61,123.56c-1.71-1-2.15-2.88-2.58-4.35a27.37,27.37,0,0,1-.78,9.59c-.67,3.18.34,4,3.09,1.88s8.12-6.14,6.86-4.49l.25-.32C160,122.46,153.62,125.3,150.61,123.56Z" style="fill:#37474f"></path><path d="M85.39,189.28C71.94,201,51.77,233,43.38,250.85s-4,50.63-.45,63.48,18,35.47,28.48,41.92,17.54,11.54,20,12,2.79-5.3,8.88-11.85,11.94-24.07,12.51-48-6.21-35.92-12.93-58.74-10.13-46.95-10.07-55.45C89.83,185.3,89.33,185.85,85.39,189.28Z" style="fill:#455a64"></path><path d="M98.17,334.35a30,30,0,0,0-1.8-2.91A109.13,109.13,0,0,0,88,320.62a190.13,190.13,0,0,0-17.92-17.76c-.1-.83-.22-1.66-.31-2.49a186.44,186.44,0,0,1-1.13-19.2,88.84,88.84,0,0,1,8.66,5.67,131.42,131.42,0,0,1,10.4,8.6,110.47,110.47,0,0,1,9.49,9.62,69.35,69.35,0,0,1,8,10.9,56.44,56.44,0,0,0-7.13-11.65A110.38,110.38,0,0,0,89,294.08a107,107,0,0,0-10.41-8.95,73.09,73.09,0,0,0-10-6.41c0-.24,0-.48,0-.72,0-6.84.39-13.68,1.06-20.49,2.76,1.74,5.49,3.55,8.18,5.4,3.45,2.42,6.88,4.88,10.16,7.53a106,106,0,0,1,9.52,8.3,59.11,59.11,0,0,1,8.16,9.67,48.76,48.76,0,0,0-7.3-10.48A103.3,103.3,0,0,0,89.26,269,153.29,153.29,0,0,0,70,255.12q1-9.17,2.76-18.24c3.61,2.8,7.17,5.71,10.66,8.68a158.55,158.55,0,0,1,11.85,11.21,71.44,71.44,0,0,0-5-6.53q-2.76-3.06-5.68-6a129.28,129.28,0,0,0-11.36-9.79l.21-1.06c1-4.76,2.2-9.5,3.55-14.18,2.15,1.77,4.27,3.62,6.36,5.49,1.27,1.15,2.54,2.31,3.79,3.5s2.48,2.4,3.76,3.59a50.68,50.68,0,0,0-2.94-4.33c-1.08-1.38-2.2-2.72-3.39-4A70.1,70.1,0,0,0,77.62,217c.53-1.75,1.09-3.5,1.68-5.23,2.41-7.11,4.83-14.49,8.92-20.87C83.31,196.68,80.41,204,77.3,211c-.78,1.86-1.52,3.75-2.22,5.64a67.5,67.5,0,0,0-7.6,5.25,43.08,43.08,0,0,0-3.72,3.29,27.6,27.6,0,0,0-3.21,3.8,76.78,76.78,0,0,1,7.92-5.72c1.8-1.17,3.64-2.3,5.47-3.42-1.46,4.23-2.76,8.51-3.86,12.84-.15.56-.27,1.13-.41,1.69a95,95,0,0,0-11,9.07c-1.87,1.82-3.67,3.71-5.37,5.69a51.34,51.34,0,0,0-4.53,6.36,92.19,92.19,0,0,1,11-10.83c3-2.44,6-4.79,9.14-7q-2,8.84-3.12,17.84c-1.91,1.57-3.73,3.21-5.48,4.94a78.91,78.91,0,0,0-6.14,6.91,64.75,64.75,0,0,0-5.28,7.56,55.85,55.85,0,0,0-4.06,8.25,73.33,73.33,0,0,1,4.83-7.75,83.85,83.85,0,0,1,5.66-7.1,100.19,100.19,0,0,1,10.14-9.84A193.7,193.7,0,0,0,64.28,278c0,.44,0,.88,0,1.32a39,39,0,0,0-5.12,6.26,65.4,65.4,0,0,0-4.84,8.69,81.77,81.77,0,0,0-3.71,9.17,49.09,49.09,0,0,0-2.27,9.6,59.22,59.22,0,0,1,3.13-9.28c1.29-3,2.64-6,4.19-8.82a78.35,78.35,0,0,1,5.09-8.27,43.27,43.27,0,0,1,3.57-4.39,168.12,168.12,0,0,0,1.83,21.84,52,52,0,0,0-2.42,6.27,83,83,0,0,0-2.27,9c-.58,3-1.1,6.11-1.39,9.19a57.58,57.58,0,0,0-.28,9.28,69,69,0,0,1,1-9.19c.51-3,1.07-6.06,1.79-9.05s1.59-5.93,2.54-8.83c.46-1.35,1-2.68,1.5-4a150.63,150.63,0,0,0,3.71,16.5,122.15,122.15,0,0,0,20.1,40.75,144.54,144.54,0,0,1-10-20.25,146.76,146.76,0,0,1-6.81-21.38c-1.33-5.69-2.42-11.44-3.2-17.22,2.41,2.17,4.79,4.39,7.14,6.63C80.8,315,84,318.21,87,321.55A120.58,120.58,0,0,1,95.63,332c2.61,3.65,5.16,7.47,6.16,11.92a20.36,20.36,0,0,0-2-6.49A28.15,28.15,0,0,0,98.17,334.35Z" style="fill:#37474f"></path><path d="M88.05,191.25c1-2.29,6.43-12.17,8.36-13.65,1.12-.86,2.55-2,3.76-2.84s2.56-1.83,3.74-2.73-2.49.11-3.74.54a25.31,25.31,0,0,0-4.25,2A11.57,11.57,0,0,0,91,180.31c-1.48,3.16-2.63,5.06-5.32,10.52s-4,8.55-9.12,21.87c.08.05,2.13.46,3.48-3.17A192.37,192.37,0,0,1,88.05,191.25Z" style="fill:#37474f"></path></g></g><g id="freepik--peach-1--inject-85"><g id="freepik--half-peach--inject-85"><path d="M394.54,248.28c-24.48-31.26-49.66-47.57-65.72-51.16h0c-14-3.5-17.43.6-26.7-1.28s-23.71-9.52-39.16-5.36h0a28,28,0,0,0-13.21,6.64c-8.89,7.24-15.61,20.26-19.16,43a91.58,91.58,0,0,0,31.15,83.44C306,360.69,352.38,350.79,366,348.68c17.79-2.75,25-6.37,34-18.41a81.15,81.15,0,0,0,7.06-8.9C414.91,310.09,423.75,285.6,394.54,248.28Z" style="fill:#E1879F"></path><path d="M366,348.68c17.79-2.75,25-6.37,34-18.41a81.15,81.15,0,0,0,7.06-8.9,42.85,42.85,0,0,0,3.1-5.22l-1-5.09S386.82,339.3,374,338.87s-39.1,5.31-65.18-.32C259.88,328,240,293.31,234.4,282.93l-.06.16a91,91,0,0,0,27.4,40.51C306,360.69,352.38,350.79,366,348.68Z" style="opacity:0.15"></path><path d="M394.54,248.28c-28-35.73-56.86-51.93-72-51.93h-.24c-8.82.1-9.73,5.49-10.33,9.06a9,9,0,0,1-.7,2.73,1.21,1.21,0,0,1-1.2.66H310c-1.74,0-5.16-2.52-8.77-5.19-7.84-5.8-18.57-13.75-32.33-13.75h0a28,28,0,0,0-23.65,12.56c-5.33,8.23-9.24,23.52,2.44,49.65,16.92,37.84,56.7,64.86,88.28,77.53,21.76,8.73,35.69,10.49,43.38,10.49a26.18,26.18,0,0,0,7.49-.8c6.95-2.22,13-7.58,20.22-17.93C414.91,310.09,423.75,285.6,394.54,248.28Zm10.07,71.39c-6.74,9.64-12.5,14.83-18.69,16.81-.14,0-14.24,4.27-48.86-9.62-31.05-12.45-70.12-39-86.69-76-8.69-19.42-9.62-36.05-2.65-46.82a25,25,0,0,1,21.16-11.2h0c12.78,0,23.06,7.61,30.57,13.16,4.5,3.33,7.82,5.78,10.51,5.78h.22c3.74-.16,4.29-3.45,4.7-5.86.58-3.5,1.09-6.51,7.43-6.58h.19c12.1,0,40.47,13.47,69.7,50.79C420.24,285.93,412,309.06,404.61,319.67Z" style="fill:#E1879F"></path><path d="M394.54,248.28c-28-35.73-56.86-51.93-72-51.93h-.24c-8.82.1-9.73,5.49-10.33,9.06a9,9,0,0,1-.7,2.73,1.21,1.21,0,0,1-1.2.66H310c-1.74,0-5.16-2.52-8.77-5.19-7.84-5.8-18.57-13.75-32.33-13.75h0a28,28,0,0,0-23.65,12.56c-5.33,8.23-9.24,23.52,2.44,49.65,16.92,37.84,56.7,64.86,88.28,77.53,21.76,8.73,35.69,10.49,43.38,10.49a26.18,26.18,0,0,0,7.49-.8c6.95-2.22,13-7.58,20.22-17.93C414.91,310.09,423.75,285.6,394.54,248.28Zm10.07,71.39c-6.74,9.64-12.5,14.83-18.69,16.81-.14,0-14.24,4.27-48.86-9.62-31.05-12.45-70.12-39-86.69-76-8.69-19.42-9.62-36.05-2.65-46.82a25,25,0,0,1,21.16-11.2h0c12.78,0,23.06,7.61,30.57,13.16,4.5,3.33,7.82,5.78,10.51,5.78h.22c3.74-.16,4.29-3.45,4.7-5.86.58-3.5,1.09-6.51,7.43-6.58h.19c12.1,0,40.47,13.47,69.7,50.79C420.24,285.93,412,309.06,404.61,319.67Z" style="fill:#fff;opacity:0.25"></path><path d="M404.61,319.67c-6.74,9.64-12.5,14.83-18.69,16.81-.14,0-14.24,4.27-48.86-9.62-31.05-12.45-70.12-39-86.69-76-8.69-19.42-9.62-36.05-2.65-46.82a25,25,0,0,1,21.16-11.2h0c12.78,0,23.06,7.61,30.57,13.16,4.5,3.33,7.82,5.78,10.51,5.78h.22c3.74-.16,4.29-3.45,4.7-5.86.58-3.5,1.09-6.51,7.43-6.58h.19c12.1,0,40.47,13.47,69.7,50.79C420.24,285.93,412,309.06,404.61,319.67Z" style="fill:#E1879F"></path><path d="M404.61,319.67c-6.74,9.64-12.5,14.83-18.69,16.81-.14,0-14.24,4.27-48.86-9.62-31.05-12.45-70.12-39-86.69-76-8.69-19.42-9.62-36.05-2.65-46.82a25,25,0,0,1,21.16-11.2h0c12.78,0,23.06,7.61,30.57,13.16,4.5,3.33,7.82,5.78,10.51,5.78h.22c3.74-.16,4.29-3.45,4.7-5.86.58-3.5,1.09-6.51,7.43-6.58h.19c12.1,0,40.47,13.47,69.7,50.79C420.24,285.93,412,309.06,404.61,319.67Z" style="fill:#fff;opacity:0.85"></path><path d="M342.83,297.37a12.53,12.53,0,0,1,2.52,1.42c1.92,1.42,3.36,3.44,5.36,4.73,2.91,1.86,6.07,1.28,9.35,1.12,2.49-.12,5.14.07,7.15,1.53,1.21.88,2.1,2.16,3.39,2.9,3,1.71,5.79,1.86,8.28,4.55-.72-.78,0-2.89,0-3.84,0-1.72-.94-3.41-1.42-5a17,17,0,0,1-.55-7.1,21.38,21.38,0,0,0,.49-4.42,23.42,23.42,0,0,0-1.33-4.67c-1.21-4.08.67-8.42.23-12.56a23.47,23.47,0,0,0-5-11.58c-2.05-2.65-4.56-5.11-5.49-8.33a40.9,40.9,0,0,1-.77-5.64,17.81,17.81,0,0,0-5.34-10.29c-3.43-3.24-8.32-5.34-10-9.75-.42-1.1-.6-2.29-1-3.41-1.56-4.35-6.08-6.89-10.46-8.36-4.85-1.62-10.62-2.34-13.91-6.54-1.3-1.67-3.33-2.12-4.65-3.57-1.9-2.08-1.67-6.13,1.25-7.25,1.74-.67,4.19-.44,5.36-1.61a21.55,21.55,0,0,0-3.71-.35h-.19c-6.34.07-6.85,3.08-7.43,6.58-.41,2.41-1,5.7-4.7,5.86H310c-2.69,0-6-2.45-10.51-5.78-1.08-.8-2.22-1.64-3.41-2.49a3.62,3.62,0,0,0,1.42,3.42c1.18.84,3.08,1.25,3.13,2.7,0,.82-.64,1.52-.67,2.34-.08,2.34,3.79,3.21,1.43,5.81a11.53,11.53,0,0,1-3.15,2,11.15,11.15,0,0,0-5.44,10.95c.45,3.27,2.37,6.29,2.32,9.59,0,3-1.75,5.81-1.93,8.83a9,9,0,0,0,2.45,6.69c1.75,1.84,4.28,2.91,5.66,5,1.85,2.83,1.12,6.56,1.8,9.87a11.63,11.63,0,0,0,5.5,7.65c2.81,1.63,6.27,2.05,8.79,4.09,2.93,2.36,4,6.4,6.7,9C328.84,296.09,336.8,294.8,342.83,297.37Z" style="fill:#E1879F;opacity:0.2"></path><path d="M374,292.76c.47,3.62-2.28,6.52-2.12,10.31a11.4,11.4,0,0,0-6.77-3,33.33,33.33,0,0,1-4.9-.32c-1.8-.43-3.33-1.45-5.21-1.55-2.31-.12-4.6.39-6.81-.56-2.54-1.1-4.12-3.75-6.58-5-2.91-1.5-6.47-.81-9.59-1.79a9.31,9.31,0,0,1-5.71-5.22c-.61-1.47-.85-3.11-1.69-4.47-2.19-3.53-7.25-3.66-10.77-5.87a10,10,0,0,1-4.51-7.17c-.27-2.42.33-5.06-.86-7.19s-3.71-3-5.52-4.62a8.72,8.72,0,0,1-2.75-7.84c.38-2.27,1.69-4.44,1.35-6.73-.27-1.82-1.55-3.32-2.15-5.06-1.5-4.3,1.62-8.09,3.75-11.5,1.49-2.38,2.41-5.12,4.15-7.33a9.31,9.31,0,0,1,4.16-3,14.33,14.33,0,0,1,11,1c4.91,2.42,6.88,7.48,11.15,10.45s9.81,3.59,14.08,6.65a15,15,0,0,1,4.26,4.77c2.27,4,2.61,9.07,5.41,12.77,1.69,2.22,4.12,3.76,6.05,5.78a16.91,16.91,0,0,1,4.53,9.74,17.16,17.16,0,0,0,.72,4.64c1,2.53,3.71,4.07,4.79,6.58,1.57,3.64-.78,7.83-.27,11.76C373.29,290.19,373.78,291.45,374,292.76Z" style="fill:#E1879F;opacity:0.2"></path><path d="M371.07,282.15c1.69-6.56,3.83-16.6-1.71-33.42s-15.21-26.41-27.58-33.06-23.38-6.23-32.65-.25c-5.77,4.62-6.9,28.64,5.49,49.35,11.88,19.85,29.63,25.4,44,26.84,5.09.51,9.72,1.66,10.66,3-1.07-4.57.63-6.81,1.76-12.42Z" style="fill:#b16668"></path><path d="M371.21,271.88c-.7.15-1,.77-1.45,1.29s-1.14,1.33-1.76,1.94a16.53,16.53,0,0,1-4.13,3.17,8,8,0,0,1-5,.81c-1.61-.28-3.17-.87-4.84-.69a12.56,12.56,0,0,0-4.07,1.53,10.41,10.41,0,0,1-5.9,1,26.33,26.33,0,0,1-10.68-3.41c-.17-.1-.32.27-.19.38A23.79,23.79,0,0,0,344,282.74a10.81,10.81,0,0,0,5.18-.25c1.58-.54,3-1.53,4.68-1.84,1.89-.36,3.67.46,5.51.79a8.45,8.45,0,0,0,5-.65,11.61,11.61,0,0,0,4.39-3.59c1-1.32,2.55-3.19,2.72-4.86C371.49,272.18,371.46,271.83,371.21,271.88Z" style="fill:#9a4a4d"></path><path d="M370.11,259.31c-.06-.49-.57-.1-.54.25.29,4.18-1.78,10.29-6.87,10.06-2.16-.09-4-1.21-6.16-.59-1.79.5-3.22,1.7-4.84,2.54a10.82,10.82,0,0,1-5.79,1.13,29.8,29.8,0,0,1-6.43-1.07c-3.25-1-7.18-2-9-5.15-.17-.28-.38.26-.34.42.93,3.16,4.35,4.39,7.08,5.63,3.49,1.58,7.05,3.18,11,3a11.55,11.55,0,0,0,4.88-1.36c1.52-.83,2.89-2.09,4.59-2.55,1.93-.53,3.77.65,5.72.46s2.68-1.49,3.85-2.87A12.87,12.87,0,0,0,370.11,259.31Z" style="fill:#9a4a4d"></path><path d="M347.1,264.6a2.15,2.15,0,0,0-1.6-.58c-.68-.07-1.37,0-2.05,0a8.41,8.41,0,0,1-3.34-.47,17.47,17.47,0,0,0-2.75-1.17,10,10,0,0,0-2.82-.33c-.29,0-.39.77-.08.8a4.77,4.77,0,0,1,2.85,1.44,11.64,11.64,0,0,0,3.15,2,4.71,4.71,0,0,0,3.57.21,12.55,12.55,0,0,1,1.58-.49c.53-.13,1.15,0,1.5-.48A.76.76,0,0,0,347.1,264.6Z" style="fill:#9a4a4d"></path><path d="M359.94,260.89c-1.11-.78-2.41-.49-3.68-.67a3.87,3.87,0,0,1-1.38-.41c-.48-.26-.89-.62-1.36-.88a4.39,4.39,0,0,0-3.23-.18c-1.06.23-2.1.54-3.12.87-.27.09-.38.78,0,.72a10.9,10.9,0,0,1,3.32-.22,7.07,7.07,0,0,1,3.35,1.58,6,6,0,0,0,3.39,1.3,8.33,8.33,0,0,0,1.58-.07,1.52,1.52,0,0,0,1.34-1.07A.89.89,0,0,0,359.94,260.89Z" style="fill:#9a4a4d"></path><path d="M365.39,252.59c-.14-.42-.37.07-.44.24a3.44,3.44,0,0,1-1.28,1.37,6.34,6.34,0,0,1-1.38.76,3.26,3.26,0,0,1-3.21-.46.6.6,0,0,0-1,.24,1.46,1.46,0,0,0,.36,1.46,4.45,4.45,0,0,0,3.48,1.36,4.2,4.2,0,0,0,1.71-.43,3.25,3.25,0,0,0,1.28-1.39,4.86,4.86,0,0,0,.54-2.19A3.09,3.09,0,0,0,365.39,252.59Z" style="fill:#9a4a4d"></path><path d="M365.21,286.66a4.52,4.52,0,0,0-1.75-1.18,15.8,15.8,0,0,0-5.65-1.27,19.62,19.62,0,0,0-2.87,0c-2.66.28-5.31,1.62-7.88.89,1.66,1.38,4,1.46,6.17,1.28a33.09,33.09,0,0,1,4-.24,16,16,0,0,1,5.85.94,4.27,4.27,0,0,0,2.1.54.46.46,0,0,0,.33-.16.48.48,0,0,0-.05-.5A1.85,1.85,0,0,0,365.21,286.66Z" style="fill:#9a4a4d"></path><path d="M337.91,277.18c-1-.6-1.79-1.38-2.73-2s-2.12-1.38-3.16-2.09a29.66,29.66,0,0,1-4.62-3.39c-1.38-1.42-1.83-3.24-2.65-5a31.09,31.09,0,0,0-2.81-4.53,38,38,0,0,1-2.79-4.33,15.2,15.2,0,0,1-1.48-5.53c-.38-3.63-1.16-7.18-4.22-9.47-.16-.12-.31.25-.19.37,1.75,1.7,1.82,4.36,1.75,6.66a21.2,21.2,0,0,0,.57,6.3c1,3.44,3.37,6.12,5.27,9.07a49.46,49.46,0,0,1,2.42,4.76,13.37,13.37,0,0,0,3.59,4.36,26.76,26.76,0,0,0,5.29,3.23,20.15,20.15,0,0,0,2.78,1.21c.95.28,1.94.36,2.89.65C337.93,277.47,338,277.24,337.91,277.18Z" style="fill:#9a4a4d"></path><path d="M352.36,240.93a5.44,5.44,0,0,1-1-3.06,23.94,23.94,0,0,1,.37-3.15c.72-4.71-2.42-8.33-6.45-10.17a10.29,10.29,0,0,1-2.61-1.41,16.53,16.53,0,0,1-1.75-2.23,14.78,14.78,0,0,0-5.11-4.07c-3.92-1.91-8.62-1.91-12.89-1.93-.15,0-.26.39-.1.41,4.36.72,8.63,1.41,12.48,3.7a11.76,11.76,0,0,1,4.09,3.87,9.92,9.92,0,0,0,4.24,4.05c1.57.76,3.19,1.3,4.26,2.76a9.21,9.21,0,0,1,1.67,5.84,10.07,10.07,0,0,0,.86,5.23c.7,1.32,2.37,2.83,2.16,4.43,0,.25.19.36.35.16C354.1,243.86,353.19,242.31,352.36,240.93Z" style="fill:#9a4a4d"></path><path d="M357.4,249.72c-2.9-.24-4.83,1.92-7.09,3.27a7.24,7.24,0,0,1-4.5,1,26.45,26.45,0,0,0-4.53-.29c-3.1.26-5.89,1.65-8.9,2.27-2.56.53-6.13.48-7.9-1.75-.1-.13-.26.2-.2.3,3.52,5.72,10.45,2.81,15.61,1.8a14.63,14.63,0,0,1,4.94-.05,10.65,10.65,0,0,0,4.46,0c1.8-.53,2.38-2.39,3.68-3.56a23.34,23.34,0,0,1,4.4-2.71C357.45,250,357.55,249.73,357.4,249.72Z" style="fill:#9a4a4d"></path><path d="M363.68,243.8a15.27,15.27,0,0,0-1.15-2.89c-.47-1-.87-2.06-1.28-3.09a20,20,0,0,0-2.18-4.69c-.19-.27-.42.28-.31.47a15.85,15.85,0,0,1,1.59,5.65c.26,1.69,1.21,3.13,1.53,4.79.13.65.07,1.4-.67,1.62a5.65,5.65,0,0,1-2.41-.22,2.07,2.07,0,0,0-2.08.58,2.36,2.36,0,0,0-.46,1.69c0,.18.11.44.35.31a4.64,4.64,0,0,1,2.61-.16,6.26,6.26,0,0,0,2.61.25C363.8,247.7,364.08,245.45,363.68,243.8Z" style="fill:#9a4a4d"></path><path d="M357,240.9a3.84,3.84,0,0,1-.22-.89c0-.35-.09-.38-.08-.57a3.38,3.38,0,0,1,.14-.63,6.5,6.5,0,0,0,.13-3.22,7.14,7.14,0,0,0-.56-1.67,5.46,5.46,0,0,0-.87-1.11c-.23-.29-.44.3-.33.5a3.81,3.81,0,0,1,.23,2.87,8.59,8.59,0,0,0-.77,2.93,4.53,4.53,0,0,0,1.49,2.8,2.76,2.76,0,0,1,.81,1.35c0,.11.14.06.17,0A3.14,3.14,0,0,0,357,240.9Z" style="fill:#9a4a4d"></path><path d="M353.93,227.8a5.09,5.09,0,0,0-.59-1.47l-.31-.45c-.19-.29-.37-.58-.57-.87a6.13,6.13,0,0,0-1.54-1.67,9.6,9.6,0,0,0-1.9-.94,9.07,9.07,0,0,0-1.1-.4,6.64,6.64,0,0,0-1.18-.11c-.09,0-.15.19-.09.24a11.56,11.56,0,0,0,1,.76c.32.21.69.38,1,.58a9.49,9.49,0,0,1,2,1.68,9,9,0,0,1,1.22,1.72c.39.66.93,1.73,1.84,1.51C353.94,228.32,354,228,353.93,227.8Z" style="fill:#9a4a4d"></path><path d="M312,245.39c-.82-2.53-1.79-5.13-1.61-7.83.19-2.87,1.48-5.53,1.78-8.39a18.77,18.77,0,0,0-.63-8c0-.16-.19,0-.17.13a16.82,16.82,0,0,1-.36,8.54c-.87,2.4-2,4.82-2.15,7.41a18.22,18.22,0,0,0,1.14,6.61,71.64,71.64,0,0,1,2.38,8.84c.07.34.42.28.51,0C313.57,250.29,312.71,247.64,312,245.39Z" style="fill:#9a4a4d"></path><path d="M345.35,249.29a6.24,6.24,0,0,1-4.57-.85,17.75,17.75,0,0,0-3.95-1.36c-2-.45-4.09-.13-6.1-.48-1.43-.25-3.6-.53-4.64-1.66s-1-3-1.48-4.33a8.58,8.58,0,0,0-2.73-4c-1.06-.89-2.55-1.56-3.16-2.86a9.31,9.31,0,0,1-.47-4.74c.28-3.35.78-7.55-1.93-10.12-.44-.42-.72.61-.44.94,2.36,2.73.26,6.69-.16,9.79a8.55,8.55,0,0,0,.67,5.21,11.11,11.11,0,0,0,3.42,3.54A5.44,5.44,0,0,1,322,242a10.66,10.66,0,0,0,1.85,4.43c2.52,3.12,7,3.24,10.65,2.9a10.91,10.91,0,0,0,2.78-.57,4.78,4.78,0,0,1,3.18.25c1.5.45,3.38,1.3,4.91.58C345.41,249.54,345.49,249.26,345.35,249.29Z" style="fill:#9a4a4d"></path><path d="M348.11,242.05a1.92,1.92,0,0,0-1.72.61c-.09.11-.16.23-.26.34s-.1.05-.17.06a6.12,6.12,0,0,1-2.58-.09,12.11,12.11,0,0,0-2.78-.79,7.46,7.46,0,0,0-2.36.74c-.22.15-.27.85.1.67a1.48,1.48,0,0,1,1.48,0,15.22,15.22,0,0,1,1.37.75,16.5,16.5,0,0,0,1.57,1,6.59,6.59,0,0,0,1.54.55,7.73,7.73,0,0,0,1.59.16,4.54,4.54,0,0,0,1.6-.11,2.22,2.22,0,0,0,1.08-.83,2.57,2.57,0,0,0,.45-1.38h0A1.38,1.38,0,0,0,348.11,242.05Z" style="fill:#9a4a4d"></path><path d="M344.64,235.67a12.71,12.71,0,0,0-.24-3.26c-.69-2.59-2.66-4-5-4.88a7.2,7.2,0,0,1-3.36-2.69,10.09,10.09,0,0,0-2.41-2.38c-1.78-1.12-4.36-1.1-5.8-2.75-.2-.24-.42.26-.3.44a5.49,5.49,0,0,0,2.26,1.84,8.93,8.93,0,0,1,3.11,1.75c1,1.15,1.39,2.77,2.29,4a7.74,7.74,0,0,0,3,2.41,9.13,9.13,0,0,1,2.72,1.36,5.56,5.56,0,0,1,.91,2.19c.36,1.23.61,2.49,1.09,3.68.29.7.86,2.19,1.85,2,.25,0,.32-.45.31-.64C345,237.73,344.65,236.74,344.64,235.67Z" style="fill:#9a4a4d"></path><path d="M333.71,242.57c-1-1-2.28-1.74-2.59-3.22-.27-1.28-.12-2.61-.41-3.88-.52-2.21-2-3.52-3.9-4.67a6.26,6.26,0,0,1-2.05-1.59c-.63-1-.38-2.4-.52-3.5a26.87,26.87,0,0,0-.66-3,5.38,5.38,0,0,0-1.31-2.55s-.11.08-.09.12a5.79,5.79,0,0,1,.78,4.22,9.86,9.86,0,0,0-.61,3.84c.22,2.4,2,3.72,3.85,4.92.86.56,1.79,1.06,2.06,2.12.3,1.21.09,2.51.3,3.74a7.52,7.52,0,0,0,4.62,5.5C334.39,245.07,334.2,243.08,333.71,242.57Z" style="fill:#9a4a4d"></path><path d="M339.36,238.57l-.14-.39a2.11,2.11,0,0,0-.16-.34,10.67,10.67,0,0,0-.57-.91,6.38,6.38,0,0,1-.65-1.46,6.33,6.33,0,0,0-1.15-2.08,3.05,3.05,0,0,0-1.18-.75,10,10,0,0,1-2.16-1.22,4,4,0,0,1-.88-1,6,6,0,0,0-.51-.8l-.46-.5s-.05,0-.05.06a4.84,4.84,0,0,0,.26,1.31,6.16,6.16,0,0,0,.72,1.24,9.28,9.28,0,0,0,2.27,1.81,1.92,1.92,0,0,1,.8,1,5.39,5.39,0,0,1-.13.77,4.37,4.37,0,0,0,.17,1.14A5.62,5.62,0,0,0,338,240a.88.88,0,0,0,1.31-.69,1.87,1.87,0,0,0-.2-1Z" style="fill:#9a4a4d"></path><path d="M327.44,262.38s0,0,0,0Z" style="fill:#9a4a4d"></path><path d="M330.1,263.15s0,0-.05-.11h0l-.1-.17s0,0,0,0l-.05,0,0,0h0l-.17-.21s0,0,0-.08a2.1,2.1,0,0,0-.26-.33h0l-.09-.15a2.5,2.5,0,0,1-.21-.35c-.14-.24-.26-.49-.42-.72a3.28,3.28,0,0,0-1.12-1,7.1,7.1,0,0,0-1.32-.52,4.6,4.6,0,0,1-.61-.25l-.26-.14-.18-.12c-.09-.05-.2-.07-.29-.11-.29-.13-.45.31-.4.53a1.81,1.81,0,0,0,.6,1,5.26,5.26,0,0,0,.65.49l.78.51.17.11.07.06a3.31,3.31,0,0,1,.34.3c-.05-.05,0,.07.07.11l0,.08c.07.14.15.26.22.39l.08.16-.07-.12.07.13c.09.19.19.38.29.57a3.84,3.84,0,0,0,.61.88,1.6,1.6,0,0,0,1.29.53c.32,0,.47-.46.49-.71A1.36,1.36,0,0,0,330.1,263.15Z" style="fill:#9a4a4d"></path><path d="M328.42,252.84a4.29,4.29,0,0,0-1-.91,8.56,8.56,0,0,1-1.28-1.13,4.75,4.75,0,0,0-1.38-.8c-.5-.24-1-.44-1.52-.65a4.79,4.79,0,0,1-1.74-.89,4.64,4.64,0,0,1-.94-2.3c-.05-.22-.26,0-.27.14a6.5,6.5,0,0,0,.18,3.07,4.79,4.79,0,0,0,2.43,2.22c.45.26.91.53,1.38.75a5.2,5.2,0,0,0,1.44.61,9,9,0,0,1,1.16,0,6,6,0,0,0,.83.22,3,3,0,0,0,.6,0C328.45,253.14,328.49,252.92,328.42,252.84Z" style="fill:#9a4a4d"></path><path d="M363.25,275.49l-.41-.14a1.58,1.58,0,0,0-.54-.25l-.65-.16a9,9,0,0,0-1.86-.36,3.16,3.16,0,0,0-1.59.05,2.06,2.06,0,0,0-1,.82.93.93,0,0,0,.07.84,4.1,4.1,0,0,0,1.64,1,3.74,3.74,0,0,0,1.25.09l.56,0a3.16,3.16,0,0,0,.88-.27c.17-.09.28-.21.43-.3l.41-.26a1.14,1.14,0,0,0,.35-.26,1.69,1.69,0,0,1,.41-.39C363.33,275.83,363.4,275.55,363.25,275.49Z" style="fill:#9a4a4d"></path><path d="M347.82,277.85a.91.91,0,0,0-.44-.14,3.44,3.44,0,0,0-.45.05l-.88.05a13.09,13.09,0,0,1-1.77-.06c-.58-.05-1.16-.11-1.74-.2-.27,0-.55-.1-.82-.16s-.44-.16-.66,0a.1.1,0,0,0,0,.11c.09.25.32.29.56.39s.54.21.82.3a8.6,8.6,0,0,0,1.8.44,14.23,14.23,0,0,0,1.84.13l.86,0a3.27,3.27,0,0,0,.45,0,1,1,0,0,0,.44-.26C347.91,278.33,348,277.94,347.82,277.85Z" style="fill:#9a4a4d"></path><path d="M367.31,261.11c-.21-.31-.68-.56-1-.17a8,8,0,0,0-1,2.09,5.16,5.16,0,0,1-.71,1.71,3.65,3.65,0,0,1-3.3,1.15c-.21,0-.35.42-.14.48a4,4,0,0,0,3.59-.73,5.11,5.11,0,0,0,1.36-1.42,7,7,0,0,1,1.16-1.74C367.66,262.16,367.53,261.46,367.31,261.11Z" style="fill:#9a4a4d"></path><path d="M353.89,266.58c-.66-.26-1.33.41-1.86.74s-1.09.68-1.66,1a9.12,9.12,0,0,1-1.8.68c-.64.16-1.3.25-1.93.43-.19.05-.37.5-.15.61,1.3.67,2.91.21,4.18-.31a12.42,12.42,0,0,0,1.86-.93c.63-.38,1.36-.73,1.54-1.51C354.12,267.07,354.13,266.67,353.89,266.58Z" style="fill:#9a4a4d"></path><path d="M368.51,280.28c-3.27,2.91-11.61,6.9-35.36-6.49s-28-39.21-27.07-52.71c-2.56,9.41-1.12,27.56,8.54,43.69,11.88,19.85,29.63,25.4,44,26.84,5.09.51,9.72,1.66,10.66,3-1.07-4.57.63-6.81,1.76-12.42h0a49.45,49.45,0,0,0,1.64-17.85C373,270.27,372.21,277,368.51,280.28Z" style="opacity:0.2"></path><path d="M339.12,161.34c6.23-4.4,15.12-9.66,22.39-8s12.15,4.39,16,16.66,15.79,25.81,24,21.05c-19.16,8.89-31.19,11.52-46.72,7s-29.56-29.06-40.46-23.8-10.52,14-10.52,14-5.14-12.53,2.5-16.53S331.14,168,339.12,161.34Z" style="fill:#263238"></path><path d="M381.68,194.19c-2-.6-4-.9-5.89-1.7a32.17,32.17,0,0,1-5.43-2.9,96,96,0,0,1-10.21-8c-3.24-2.8-6.58-5.55-10-8.16a33.93,33.93,0,0,0-11.57-6.23,19.92,19.92,0,0,0-6.43-.7c-2.38.15-5.07.62-6.44,2.76-.46.72.38,2.36,1.31,2.18,1.83-.33,3.57-1,5.41-1.27a16.34,16.34,0,0,1,5.79.19c4.09.83,7.77,3.08,11.12,5.49,6.9,5,13.29,10.8,20.67,15.08a34.76,34.76,0,0,0,5.68,2.7,15.14,15.14,0,0,0,5.88,1.19C381.83,194.81,381.93,194.26,381.68,194.19Z" style="fill:#37474f"></path><path d="M307.93,206c-3.21-9.65-4.82-17.36,4.5-22.51s19.62-8.68,26.69-22.18c-5.57,2.39-12.93,0-20.69,1.55-6.77-4.77-13.53-3-15.32-4.77a28.14,28.14,0,0,0-6.43,20.58C297.64,191.56,307.93,206,307.93,206Z" style="fill:#455a64"></path><path d="M315.24,174.25c3.54-1.68,7-3.47,9.39-6.71.13-.19,0-.77-.25-.48-4.85,5.16-12.58,5.77-17.71,10.43q.54-1.34,1.2-2.64a33.62,33.62,0,0,1,5.9-8.19,34.69,34.69,0,0,1,3.81-3.36l.72-.49a19.76,19.76,0,0,0-2.1-1.26,27.79,27.79,0,0,0-3.84,3.34,34.81,34.81,0,0,0-5.75,8.13l-.52-.66c-.25-.34-.48-.7-.7-1.06a19.47,19.47,0,0,1-1.17-2.27,14.41,14.41,0,0,1-1.24-4.69c0-.28-.29-.1-.3.09a15.59,15.59,0,0,0,.68,5.68,12.54,12.54,0,0,0,1.21,2.6c.23.39.49.77.76,1.14a5.14,5.14,0,0,0,.53.68,33.08,33.08,0,0,0-2.81,9.82c-.42,3.65-.74,7.69.57,11.21.1.26.34,0,.34-.18,0-3.64-.21-7.24.54-10.83.23-1.09.51-2.16.82-3.22l.05-.09a8.33,8.33,0,0,1,.84-1.2,16.42,16.42,0,0,1,4.11-3.2A50.1,50.1,0,0,1,315.24,174.25Z" style="fill:#37474f"></path></g></g><g id="freepik--Slice--inject-85"><g id="freepik--peach-slice--inject-85"><path d="M136.1,338.55a71.54,71.54,0,0,0-13.79,37.37c-.36,7.27,13.09,33.8,57.06,43.61s86.71-11.34,101-22.75Z" style="fill:#E1879F"></path><path d="M136.1,338.55a71.54,71.54,0,0,0-13.79,37.37c-.36,7.27,13.09,33.8,57.06,43.61s86.71-11.34,101-22.75Z" style="fill:#fff;opacity:0.1"></path><path d="M149.8,386.24a53.28,53.28,0,0,1-14.35-41.8c.15-1.39.3-2.93-.55-4l-.06-.06a71.42,71.42,0,0,0-12.53,35.57c-.18,3.69,3.2,12.34,12.32,21.25,7.05,4.15,14.9,6.53,22.7,4.69a4.33,4.33,0,0,0,2.69-1.48c1-1.54,0-3.6-1.21-5C156.1,392.05,152.76,389.32,149.8,386.24Z" style="fill:#fff;opacity:0.1"></path><path d="M272.41,393.58c-15.42,5.92-33.1,6.63-49.49,3.48-9.51-1.83-19.42-4.81-28.63-1.83-.08,4.6,5.05,8,5.21,12.57.19,5.28-6,8.35-11.24,9-11.23,1.43-22-1.65-32.86-5.44a110.72,110.72,0,0,0,24,8.15c44,9.81,86.71-11.34,101-22.75Z" style="fill:#E1879F;opacity:0.4"></path><path d="M272.41,393.58c-15.42,5.92-33.1,6.63-49.49,3.48-9.51-1.83-19.42-4.81-28.63-1.83-.08,4.6,5.05,8,5.21,12.57.19,5.28-6,8.35-11.24,9-11.23,1.43-22-1.65-32.86-5.44a110.72,110.72,0,0,0,24,8.15c44,9.81,86.71-11.34,101-22.75Z" style="opacity:0.05"></path><path d="M278.34,305.18C263.15,294.61,250.49,293,244.22,293a23.48,23.48,0,0,0-4.24.31h0c-2,0-4.45,7.52-6.08,8.13a6,6,0,0,0-1.67.62c-1.2.94-.39,3.1-1.42,4.23a5.89,5.89,0,0,1-1.8,1c-2,1-2.71,3.42-3.34,5.54s-1.72,4.53-3.88,5a6.47,6.47,0,0,0-2.11.52c-1.25.82-.84,2.8-1.59,4.11-1.33,2.31-5.26,1.23-7.14,3.13-1.23,1.25-1.26,3.55-2.83,4.36a3.35,3.35,0,0,1-1.5.29c-.47,0-.95-.05-1.43-.05a4.28,4.28,0,0,0-1,.11c-2.69.67-3.67,4.84-6.44,4.9h-.07c-2.12,0-4-2.53-5.84-2.53a1.86,1.86,0,0,0-.95.24c-1.31.71-1.51,2.73-2.88,3.31a1.78,1.78,0,0,1-.71.15c-1.17,0-2.29-1.15-2.83-2.31-.64-1.38-1.05-3.06-2.35-3.87-1.92-1.19-5.11-.05-6.27-2a10.1,10.1,0,0,1-.61-2.22c-.43-1.31-2.27-1.75-4.46-1.75a38.17,38.17,0,0,0-8.93,1.41c-9.27,2.65-25.72,12.9-25.72,12.9,7.82,29.6,49.7,69.26,92.15,70.37,1.59,0,3.15.06,4.67.06,38.91,0,53.3-13.62,64.59-31.9C309.23,358.09,305.26,323.93,278.34,305.18ZM295.83,376c-11.81,19.12-26.46,31-62.91,31-1.51,0-3.06,0-4.61-.06-19-.51-39.57-9.05-57.87-24.06-15.93-13.08-27.8-29.2-32-43.43,4-2.42,16.52-9.79,24-11.91a36.43,36.43,0,0,1,8.39-1.33,4.82,4.82,0,0,1,2.59.44,3.49,3.49,0,0,1,.12.55,6,6,0,0,0,.66,2c1.19,2,3.33,2.16,4.9,2.28a5.81,5.81,0,0,1,2,.38,4.61,4.61,0,0,1,1.15,2c.15.35.29.7.45,1,.74,1.59,2.4,3.45,4.62,3.45a3.65,3.65,0,0,0,1.49-.31,5.37,5.37,0,0,0,2.44-2.51,3.37,3.37,0,0,1,.61-.89,5.74,5.74,0,0,1,1.64.87,7.73,7.73,0,0,0,4.2,1.66h.11c2.38-.05,3.79-1.77,4.9-3.14.69-.85,1.35-1.65,2-1.81a2.37,2.37,0,0,1,.53-.05l.63,0,.8,0a5.18,5.18,0,0,0,2.42-.52,6,6,0,0,0,2.59-3.34,5,5,0,0,1,.74-1.39,5.27,5.27,0,0,1,2.42-.8c1.71-.3,3.83-.7,5-2.73a7.34,7.34,0,0,0,.77-2.45,5.84,5.84,0,0,1,.23-1c.13,0,.36-.06.54-.08s.58-.08.91-.16c3.66-.87,4.9-5,5.33-6.45.54-1.81,1.11-3.69,2.31-4.3l.43-.18a5,5,0,0,0,1.94-1.22,5.19,5.19,0,0,0,1.15-3.22,7.93,7.93,0,0,1,.11-.79l.29-.08a6.81,6.81,0,0,0,.79-.24c1.35-.5,2.21-2,3.59-4.57a19.68,19.68,0,0,1,2.16-3.46h0a22.69,22.69,0,0,1,3.86-.27c6,0,18.22,1.54,33,11.83a57,57,0,0,1,23.28,34.65C303.21,354,301.47,366.9,295.83,376Z" style="fill:#E1879F"></path><path d="M278.34,305.18C263.15,294.61,250.49,293,244.22,293a23.48,23.48,0,0,0-4.24.31h0c-2,0-4.45,7.52-6.08,8.13a6,6,0,0,0-1.67.62c-1.2.94-.39,3.1-1.42,4.23a5.89,5.89,0,0,1-1.8,1c-2,1-2.71,3.42-3.34,5.54s-1.72,4.53-3.88,5a6.47,6.47,0,0,0-2.11.52c-1.25.82-.84,2.8-1.59,4.11-1.33,2.31-5.26,1.23-7.14,3.13-1.23,1.25-1.26,3.55-2.83,4.36a3.35,3.35,0,0,1-1.5.29c-.47,0-.95-.05-1.43-.05a4.28,4.28,0,0,0-1,.11c-2.69.67-3.67,4.84-6.44,4.9h-.07c-2.12,0-4-2.53-5.84-2.53a1.86,1.86,0,0,0-.95.24c-1.31.71-1.51,2.73-2.88,3.31a1.78,1.78,0,0,1-.71.15c-1.17,0-2.29-1.15-2.83-2.31-.64-1.38-1.05-3.06-2.35-3.87-1.92-1.19-5.11-.05-6.27-2a10.1,10.1,0,0,1-.61-2.22c-.43-1.31-2.27-1.75-4.46-1.75a38.17,38.17,0,0,0-8.93,1.41c-9.27,2.65-25.72,12.9-25.72,12.9,7.82,29.6,49.7,69.26,92.15,70.37,1.59,0,3.15.06,4.67.06,38.91,0,53.3-13.62,64.59-31.9C309.23,358.09,305.26,323.93,278.34,305.18ZM295.83,376c-11.81,19.12-26.46,31-62.91,31-1.51,0-3.06,0-4.61-.06-19-.51-39.57-9.05-57.87-24.06-15.93-13.08-27.8-29.2-32-43.43,4-2.42,16.52-9.79,24-11.91a36.43,36.43,0,0,1,8.39-1.33,4.82,4.82,0,0,1,2.59.44,3.49,3.49,0,0,1,.12.55,6,6,0,0,0,.66,2c1.19,2,3.33,2.16,4.9,2.28a5.81,5.81,0,0,1,2,.38,4.61,4.61,0,0,1,1.15,2c.15.35.29.7.45,1,.74,1.59,2.4,3.45,4.62,3.45a3.65,3.65,0,0,0,1.49-.31,5.37,5.37,0,0,0,2.44-2.51,3.37,3.37,0,0,1,.61-.89,5.74,5.74,0,0,1,1.64.87,7.73,7.73,0,0,0,4.2,1.66h.11c2.38-.05,3.79-1.77,4.9-3.14.69-.85,1.35-1.65,2-1.81a2.37,2.37,0,0,1,.53-.05l.63,0,.8,0a5.18,5.18,0,0,0,2.42-.52,6,6,0,0,0,2.59-3.34,5,5,0,0,1,.74-1.39,5.27,5.27,0,0,1,2.42-.8c1.71-.3,3.83-.7,5-2.73a7.34,7.34,0,0,0,.77-2.45,5.84,5.84,0,0,1,.23-1c.13,0,.36-.06.54-.08s.58-.08.91-.16c3.66-.87,4.9-5,5.33-6.45.54-1.81,1.11-3.69,2.31-4.3l.43-.18a5,5,0,0,0,1.94-1.22,5.19,5.19,0,0,0,1.15-3.22,7.93,7.93,0,0,1,.11-.79l.29-.08a6.81,6.81,0,0,0,.79-.24c1.35-.5,2.21-2,3.59-4.57a19.68,19.68,0,0,1,2.16-3.46h0a22.69,22.69,0,0,1,3.86-.27c6,0,18.22,1.54,33,11.83a57,57,0,0,1,23.28,34.65C303.21,354,301.47,366.9,295.83,376Z" style="fill:#fff;opacity:0.25"></path><path d="M295.83,376c-11.81,19.12-26.46,31-62.91,31-1.51,0-3.06,0-4.61-.06-19-.51-39.57-9.05-57.87-24.06-15.93-13.08-27.8-29.2-32-43.43-.36-1.11-.54-1.86-.57-2h0c4.46-2.68,16.53-9.72,24-11.84a38.17,38.17,0,0,1,8.93-1.41c2.19,0,4,.44,4.46,1.75a10.1,10.1,0,0,0,.61,2.22c1.16,1.94,4.35.8,6.27,2a3.37,3.37,0,0,1,.77.69l.12.15.1.18c.75,1.59,1.36,5.44,3.58,5.44.52,0,1.62,1.6,2.1,1.39a5.37,5.37,0,0,0,2.44-2.51,3.37,3.37,0,0,1,.61-.89,5.74,5.74,0,0,1,1.64.87,7.73,7.73,0,0,0,4.2,1.66h.11c2.38-.05,3.79-1.77,4.9-3.14.69-.85,1.35-1.65,2-1.81a2.37,2.37,0,0,1,.53-.05l.63,0,.8,0a5.18,5.18,0,0,0,2.42-.52,6,6,0,0,0,2.59-3.34,5,5,0,0,1,.74-1.39,5.27,5.27,0,0,1,2.42-.8c1.71-.3,3.83-.7,5-2.73a7.34,7.34,0,0,0,.77-2.45,5.84,5.84,0,0,1,.23-1c.13,0,.36-.06.54-.08s.58-.08.91-.16c3.66-.87,4.9-5,5.33-6.45.54-1.81,1.11-3.69,2.31-4.3l.43-.18a5,5,0,0,0,1.94-1.22,5.19,5.19,0,0,0,1.15-3.22,7.93,7.93,0,0,1,.11-.79l.29-.08a6.81,6.81,0,0,0,.79-.24c1.35-.5,2.21-2,3.59-4.57.57-1.05.34-3,2.16-3.46h0a22.69,22.69,0,0,1,3.86-.27c6,0,18.22,1.54,33,11.83a57,57,0,0,1,23.28,34.65C303.21,354,301.47,366.9,295.83,376Z" style="fill:#E1879F"></path><path d="M295.83,376c-11.81,19.12-26.46,31-62.91,31-1.51,0-3.06,0-4.61-.06-19-.51-39.57-9.05-57.87-24.06-15.93-13.08-27.8-29.2-32-43.43-.36-1.11-.54-1.86-.57-2h0c4.46-2.68,16.53-9.72,24-11.84a38.17,38.17,0,0,1,8.93-1.41c2.19,0,4,.44,4.46,1.75a10.1,10.1,0,0,0,.61,2.22c1.16,1.94,4.35.8,6.27,2a3.37,3.37,0,0,1,.77.69l.12.15.1.18c.75,1.59,1.36,5.44,3.58,5.44.52,0,1.62,1.6,2.1,1.39a5.37,5.37,0,0,0,2.44-2.51,3.37,3.37,0,0,1,.61-.89,5.74,5.74,0,0,1,1.64.87,7.73,7.73,0,0,0,4.2,1.66h.11c2.38-.05,3.79-1.77,4.9-3.14.69-.85,1.35-1.65,2-1.81a2.37,2.37,0,0,1,.53-.05l.63,0,.8,0a5.18,5.18,0,0,0,2.42-.52,6,6,0,0,0,2.59-3.34,5,5,0,0,1,.74-1.39,5.27,5.27,0,0,1,2.42-.8c1.71-.3,3.83-.7,5-2.73a7.34,7.34,0,0,0,.77-2.45,5.84,5.84,0,0,1,.23-1c.13,0,.36-.06.54-.08s.58-.08.91-.16c3.66-.87,4.9-5,5.33-6.45.54-1.81,1.11-3.69,2.31-4.3l.43-.18a5,5,0,0,0,1.94-1.22,5.19,5.19,0,0,0,1.15-3.22,7.93,7.93,0,0,1,.11-.79l.29-.08a6.81,6.81,0,0,0,.79-.24c1.35-.5,2.21-2,3.59-4.57.57-1.05.34-3,2.16-3.46h0a22.69,22.69,0,0,1,3.86-.27c6,0,18.22,1.54,33,11.83a57,57,0,0,1,23.28,34.65C303.21,354,301.47,366.9,295.83,376Z" style="fill:#fff;opacity:0.85"></path><path d="M238.68,331c2-3-.13-7.43,1.75-10.53,1.2-2,3.89-3.05,4.27-5.33s-2-4.38-2.15-6.78c-.08-1.54.79-3,.95-4.51.19-1.87-.7-3.67-1.59-5.33-.56-1.05-1.16-2.1-1.8-3.12-1.56.61-1.4,2.37-1.94,3.37-1.38,2.59-2.24,4.07-3.59,4.57a6.81,6.81,0,0,1-.79.24l-.29.08a7.93,7.93,0,0,0-.11.79,5.19,5.19,0,0,1-1.15,3.22,5,5,0,0,1-1.94,1.22l-.43.18c-1.2.61-1.77,2.49-2.31,4.3-.43,1.42-1.67,5.58-5.33,6.45-.33.08-.64.12-.91.16s-.41.05-.54.08a5.84,5.84,0,0,0-.23,1,7.34,7.34,0,0,1-.77,2.45c-1.18,2-3.3,2.43-5,2.73a5.27,5.27,0,0,0-2.42.8,5,5,0,0,0-.74,1.39,6,6,0,0,1-2.59,3.34,5.18,5.18,0,0,1-2.42.52l-.8,0-.63,0a2.37,2.37,0,0,0-.53.05c-.63.16-1.29,1-2,1.81-1.11,1.37-2.52,3.09-4.9,3.14h-.11a7.73,7.73,0,0,1-4.2-1.66,5.74,5.74,0,0,0-1.64-.87,3.37,3.37,0,0,0-.61.89,5.37,5.37,0,0,1-2.44,2.51c-.48.21-1.58-1.39-2.1-1.39-2.22,0-2.83-3.85-3.58-5.44L183,331l-.12-.15a3.37,3.37,0,0,0-.77-.69c-1.92-1.19-5.11-.05-6.27-2a10.1,10.1,0,0,1-.61-2.22,2.17,2.17,0,0,0-1.31-1.25,1.56,1.56,0,0,1,0,.91,3.47,3.47,0,0,1-1.23,1.52c-1.83,1.56-3.61,4.05-2.5,6.19,1.39,2.68,5.52,1.83,8.1,3.38,3.25,1.95,3.1,7,6,9.44,3.51,2.95,9,.41,13.38,1.66,2.52.72,4.49,2.62,6.76,3.9s5.43,1.85,7.3,0c.95-.92,1.36-2.26,2.2-3.28,2-2.42,5.67-2.32,8.81-2.15s6.91-.12,8.46-2.85c1.33-2.35.36-5.54,1.82-7.82C234.34,333.58,237.27,333,238.68,331Z" style="fill:#E1879F;opacity:0.2"></path><g style="opacity:0.5"><path d="M237.21,355.3c-1.81-4.06-4.56-7.86-7.11-11.49a59.51,59.51,0,0,0-4.78-6,29.44,29.44,0,0,0-4.9-4.7,1.51,1.51,0,0,0-2.09.14,1.81,1.81,0,0,0,.43,2.21c1.65,1.88,3.83,3.4,5.62,5.15,1.55,1.5,3.08,3,4.56,4.6a51.5,51.5,0,0,1,4,4.71c1.38,1.87,2.59,3.86,4,5.73C237.11,355.9,237.28,355.45,237.21,355.3Z" style="fill:#E1879F"></path><path d="M257.71,326.16a76.3,76.3,0,0,0-28.3-5.92c-2.54-.07-1.28,3.61.77,3.56a87.61,87.61,0,0,1,15.27.82c4,.61,8.09,1.47,12.05,2.43C257.86,327.14,258,326.29,257.71,326.16Z" style="fill:#E1879F"></path><path d="M203.2,335.47a19.9,19.9,0,0,0-3.16,4.89c-1,1.85-1.88,3.76-2.71,5.7-1.65,3.85-2.81,7.88-4.14,11.84-.05.16.1.3.18.12,1.63-3.58,3.41-7.08,5.28-10.53.94-1.74,1.94-3.44,3-5.08s2.57-3.22,3.52-5C205.74,336.42,204.22,334.49,203.2,335.47Z" style="fill:#E1879F"></path><path d="M240.11,335.91c-1.21-.91-2.36-1.85-3.66-2.64s-2.75-1.64-4.17-2.38a41.55,41.55,0,0,0-9.11-3.37c-1.54-.38-1.09,2.51.27,2.73a61.08,61.08,0,0,1,8.65,2.15,31.74,31.74,0,0,1,4.09,1.59c1.31.62,2.67,1.21,3.92,1.95C240.11,336,240.12,335.91,240.11,335.91Z" style="fill:#E1879F"></path><path d="M251.16,309.93c-.39,0-.74-.18-1.12-.23a9,9,0,0,0-1.47.06c-1,.07-1.95.2-2.91.35a45,45,0,0,0-5.39,1.17,43.86,43.86,0,0,0-5.37,1.78,20,20,0,0,0-5.44,2.93c-1,.91.67,3,1.83,2.44,1.46-.69,2.79-1.76,4.23-2.53a48.63,48.63,0,0,1,4.45-2.23,39.86,39.86,0,0,1,4.66-1.57c.79-.22,1.6-.42,2.4-.59l1.22-.25.69-.13a5.66,5.66,0,0,0,2.13-.6C251.26,310.49,251.42,309.94,251.16,309.93Z" style="fill:#E1879F"></path><path d="M210.94,335.56a70.93,70.93,0,0,0-.31,10.31,48.45,48.45,0,0,0,1.19,9.68c.07.31.36-.07.34-.24a93,93,0,0,1-.52-9.87,56.92,56.92,0,0,1,1-9.19C212.84,335.11,211.12,334,210.94,335.56Z" style="fill:#E1879F"></path><path d="M196.42,337.45c-4.81,1.49-9.74,4.21-13,8.12,0,.06-.05.26.06.17a50,50,0,0,1,6.25-4.12,30.77,30.77,0,0,1,6.95-2.59C197.47,338.84,197.24,337.2,196.42,337.45Z" style="fill:#E1879F"></path></g><path d="M238.06,313.24c.55-1.53-.74-3.12-.74-4.75,0-2.71,3.47-4.62,3.15-7.31a9.81,9.81,0,0,0-1-2.47,6.71,6.71,0,0,1,.11-5.29s0,0,0-.05c-1.94.72-4.21,7.5-5.76,8.07a5.8,5.8,0,0,0-1.66.62c-1.21.93-.4,3.1-1.43,4.23a6,6,0,0,1-1.8,1c-2,1-2.7,3.41-3.34,5.54s-1.72,4.53-3.88,5a6.41,6.41,0,0,0-2.11.52c-1.25.83-.84,2.8-1.59,4.1-1.34,2.32-5.26,1.24-7.13,3.14-1.24,1.25-1.27,3.54-2.84,4.35-1.18.62-2.64.05-3.93.36-2.7.67-3.68,4.83-6.45,4.9-2.52.06-4.65-3.49-6.86-2.29-1.31.71-1.51,2.73-2.88,3.32s-2.89-.78-3.54-2.17a20.09,20.09,0,0,0-1.36-2.84c.25,2.19.86,4.31,2.56,5.59a17.65,17.65,0,0,1,2.61,1.78c.85.91,1.14,2.29,2.14,3,1.59,1.17,3.81.06,5.78.16,1.76.08,3.3,1.15,4.9,1.92s3.63,1.19,5,.11c.81-.63,1.25-1.66,2.1-2.24,1.4-1,3.29-.35,4.91.16s3.73.72,4.72-.66.32-3.7,1.71-4.66c1-.71,2.4-.15,3.63-.25a3.4,3.4,0,0,0,2.91-2.28c.72-2.21-.71-5.27,1.2-6.58.92-.64,2.22-.42,3.21-.95,1.52-.81,1.69-2.9,1.52-4.61s-.44-3.66.7-4.95C234.16,315.14,237.32,315.31,238.06,313.24Z" style="fill:#E1879F"></path><path d="M238.06,313.24c.55-1.53-.74-3.12-.74-4.75,0-2.71,3.47-4.62,3.15-7.31a9.81,9.81,0,0,0-1-2.47,6.71,6.71,0,0,1,.11-5.29s0,0,0-.05c-1.94.72-4.21,7.5-5.76,8.07a5.8,5.8,0,0,0-1.66.62c-1.21.93-.4,3.1-1.43,4.23a6,6,0,0,1-1.8,1c-2,1-2.7,3.41-3.34,5.54s-1.72,4.53-3.88,5a6.41,6.41,0,0,0-2.11.52c-1.25.83-.84,2.8-1.59,4.1-1.34,2.32-5.26,1.24-7.13,3.14-1.24,1.25-1.27,3.54-2.84,4.35-1.18.62-2.64.05-3.93.36-2.7.67-3.68,4.83-6.45,4.9-2.52.06-4.65-3.49-6.86-2.29-1.31.71-1.51,2.73-2.88,3.32s-2.89-.78-3.54-2.17a20.09,20.09,0,0,0-1.36-2.84c.25,2.19.86,4.31,2.56,5.59a17.65,17.65,0,0,1,2.61,1.78c.85.91,1.14,2.29,2.14,3,1.59,1.17,3.81.06,5.78.16,1.76.08,3.3,1.15,4.9,1.92s3.63,1.19,5,.11c.81-.63,1.25-1.66,2.1-2.24,1.4-1,3.29-.35,4.91.16s3.73.72,4.72-.66.32-3.7,1.71-4.66c1-.71,2.4-.15,3.63-.25a3.4,3.4,0,0,0,2.91-2.28c.72-2.21-.71-5.27,1.2-6.58.92-.64,2.22-.42,3.21-.95,1.52-.81,1.69-2.9,1.52-4.61s-.44-3.66.7-4.95C234.16,315.14,237.32,315.31,238.06,313.24Z" style="fill:#fff;opacity:0.4"></path><path d="M233.88,301.44c-.62.26-1.38.32-1.81.85a3.26,3.26,0,0,0-.51,1.91,4,4,0,0,1-.52,2.06,4.12,4.12,0,0,1-1.8,1.14,5.21,5.21,0,0,0-2.43,3c-.52,1.23-.77,2.58-1.27,3.91a6.74,6.74,0,0,1-2.52,3.51,4.86,4.86,0,0,1-2.12.64,1.71,1.71,0,0,0-1.41.76A5.75,5.75,0,0,0,219,321a4.37,4.37,0,0,1-.83,2.12,4,4,0,0,1-2,1.2,18.94,18.94,0,0,1-2.07.46c-1.33.23-2.6.58-3.25,1.61a12.83,12.83,0,0,0-.86,1.78,4.73,4.73,0,0,1-1.27,1.87,3.31,3.31,0,0,1-2.22.64,13.41,13.41,0,0,0-2,0c-1.2.15-2.13,1.17-3,2.2a18.7,18.7,0,0,1-1.42,1.56,3.83,3.83,0,0,1-2,1,3.54,3.54,0,0,1-2.16-.41,14.56,14.56,0,0,1-1.79-1.11,7.71,7.71,0,0,0-1.73-1,2,2,0,0,0-1.82.25c-1.06.77-1.33,2.46-2.68,3,1.29-.67,1.39-2.29,2.52-3.24a2.28,2.28,0,0,1,2.08-.39,7.65,7.65,0,0,1,1.9.94c1.14.71,2.35,1.54,3.58,1.3s2.05-1.4,2.9-2.45a11.1,11.1,0,0,1,1.43-1.58,4.08,4.08,0,0,1,2-1,15.14,15.14,0,0,1,2.12,0,2.45,2.45,0,0,0,1.66-.46c.89-.74,1.1-2.2,1.9-3.47a4,4,0,0,1,1.77-1.47,9.4,9.4,0,0,1,2.09-.59c1.34-.25,2.75-.42,3.48-1.3a3.39,3.39,0,0,0,.65-1.68,6.63,6.63,0,0,1,.62-2.12,2.33,2.33,0,0,1,.93-.86,3.66,3.66,0,0,1,1.13-.3,4.17,4.17,0,0,0,1.8-.51,6.35,6.35,0,0,0,2.26-3.05c.51-1.23.81-2.6,1.39-3.89A5.78,5.78,0,0,1,229,307a3.9,3.9,0,0,0,1.71-.92,3.77,3.77,0,0,0,.55-1.87,3.48,3.48,0,0,1,.66-2C232.49,301.65,233.25,301.65,233.88,301.44Z" style="fill:#E1879F"></path><path d="M233.88,301.44c-.62.26-1.38.32-1.81.85a3.26,3.26,0,0,0-.51,1.91,4,4,0,0,1-.52,2.06,4.12,4.12,0,0,1-1.8,1.14,5.21,5.21,0,0,0-2.43,3c-.52,1.23-.77,2.58-1.27,3.91a6.74,6.74,0,0,1-2.52,3.51,4.86,4.86,0,0,1-2.12.64,1.71,1.71,0,0,0-1.41.76A5.75,5.75,0,0,0,219,321a4.37,4.37,0,0,1-.83,2.12,4,4,0,0,1-2,1.2,18.94,18.94,0,0,1-2.07.46c-1.33.23-2.6.58-3.25,1.61a12.83,12.83,0,0,0-.86,1.78,4.73,4.73,0,0,1-1.27,1.87,3.31,3.31,0,0,1-2.22.64,13.41,13.41,0,0,0-2,0c-1.2.15-2.13,1.17-3,2.2a18.7,18.7,0,0,1-1.42,1.56,3.83,3.83,0,0,1-2,1,3.54,3.54,0,0,1-2.16-.41,14.56,14.56,0,0,1-1.79-1.11,7.71,7.71,0,0,0-1.73-1,2,2,0,0,0-1.82.25c-1.06.77-1.33,2.46-2.68,3,1.29-.67,1.39-2.29,2.52-3.24a2.28,2.28,0,0,1,2.08-.39,7.65,7.65,0,0,1,1.9.94c1.14.71,2.35,1.54,3.58,1.3s2.05-1.4,2.9-2.45a11.1,11.1,0,0,1,1.43-1.58,4.08,4.08,0,0,1,2-1,15.14,15.14,0,0,1,2.12,0,2.45,2.45,0,0,0,1.66-.46c.89-.74,1.1-2.2,1.9-3.47a4,4,0,0,1,1.77-1.47,9.4,9.4,0,0,1,2.09-.59c1.34-.25,2.75-.42,3.48-1.3a3.39,3.39,0,0,0,.65-1.68,6.63,6.63,0,0,1,.62-2.12,2.33,2.33,0,0,1,.93-.86,3.66,3.66,0,0,1,1.13-.3,4.17,4.17,0,0,0,1.8-.51,6.35,6.35,0,0,0,2.26-3.05c.51-1.23.81-2.6,1.39-3.89A5.78,5.78,0,0,1,229,307a3.9,3.9,0,0,0,1.71-.92,3.77,3.77,0,0,0,.55-1.87,3.48,3.48,0,0,1,.66-2C232.49,301.65,233.25,301.65,233.88,301.44Z" style="opacity:0.15"></path><path d="M213.94,341.54c-2-.5-3.51-2.13-5.6-1.17-1.91.89-4,3.43-6.28,2.56s-3.61-2.33-6.15-2c-1.87.23-6.59,2.25-6.62-1.37,0-.23-.24-.08-.25.07-.21,2.19,1.86,3.5,3.8,3.65,1.79.14,3.81-.36,5.52.25,1.2.43,2.19,1.33,3.37,1.82a4.09,4.09,0,0,0,3.27.14,7.84,7.84,0,0,0,2.51-2.58c1.11-1.4,2.33-1.79,3.91-.91.89.49,1.73,1.14,2.6.34C214.21,342.15,214.24,341.62,213.94,341.54Zm5.24-9.89a.78.78,0,0,0-.38-.69c-.48-.21-.75,0-1.25,0a4.4,4.4,0,0,1-1.4-.06c-1-.18-2-.58-3-.71-2.55-.33-3.36,1.49-4.19,3.52a3.29,3.29,0,0,1-2.67,2.17,9.5,9.5,0,0,1-2.23-.4,5.2,5.2,0,0,0-1.62.13c-2.65.51-5.42,4.24-8.27,2.58-.13-.07-.24.27-.15.35,2.23,1.92,4.74-.09,6.86-1.06a3.42,3.42,0,0,1,3.14-.2,7,7,0,0,0,1.76.67,4.28,4.28,0,0,0,3.42-.93,7.24,7.24,0,0,0,1.69-3.07c.61-1.45,1.63-1.71,3.08-1.4S219.32,334.37,219.18,331.65ZM230.7,325c-.26.29-.53.32-.84.5s-.33.26-.52.36a3.89,3.89,0,0,1-1.63.19,2.58,2.58,0,0,0-2.14,1.43c-1.18,2.14-.24,4.84-.88,7.11-.78,2.76-3.86,0-5.55,1a3.54,3.54,0,0,0-1.3,2,6.75,6.75,0,0,0-.07,3.16c0,.3.32,0,.31-.16-.08-1.38-.18-3.15,1.53-3.45,1-.18,2.09.75,3.11,1a2.93,2.93,0,0,0,2.62-.55,3.85,3.85,0,0,0,.84-2.94c0-1.1,0-2.2,0-3.31s-.11-2.47.84-3.16c.73-.54,1.79-.14,2.63-.49a2.49,2.49,0,0,0,1.35-2.38C231.06,325,230.88,324.74,230.7,325Zm5-17.88c-.06-.08-.13.09-.13.13a4.52,4.52,0,0,1-.51,2.45,4.68,4.68,0,0,1-2.09,1.87,36.19,36.19,0,0,0-3.48,1.56,4,4,0,0,0-2.11,2.69,16.67,16.67,0,0,0-.1,3.6c0,3-3.24,2.17-5.18,3.07s-2.25,3.66-1.31,5.46c.13.25.35-.22.31-.36-.43-1.43.94-2.56,2.19-2.94,1.08-.33,2.23-.25,3.32-.55,2.69-.72,2.68-3.25,2.48-5.56a5,5,0,0,1,1.23-3.93,25.86,25.86,0,0,1,3.1-2.6,7.23,7.23,0,0,0,2.13-2.24A2.61,2.61,0,0,0,235.74,307.07Z" style="fill:#E1879F;opacity:0.7000000000000001"></path></g></g><g id="freepik--Flowers--inject-85"><g id="freepik--Flower--inject-85"><path d="M66.65,386.3c-7.88,1.32-14.05-5.57-22.79-1.45S30.1,395.7,30.51,401.58c0,0-.74,6.62.67,10.74s2.12,12-.19,16c4.31-5.16,8.55-7.25,12.34-7.68s13.19-3.38,16.59-9.94,3.69-8.18,4-13.51S64.23,388.9,66.65,386.3Z" style="fill:#455a64"></path><path d="M64.09,387.21a19.63,19.63,0,0,0-6.61,2.58,3.45,3.45,0,0,0-1.14-.27,25.66,25.66,0,0,0-2.89-.37,29,29,0,0,0-6,.22c-.08,0-.16.19-.05.2,2.83.29,5.65.66,8.44,1.19l-1.66,1.09a41.8,41.8,0,0,0-4.6,3.56,33.59,33.59,0,0,0-12.18,1.18c-.13,0-.2.39,0,.37a61.51,61.51,0,0,1,11.18-.59c-.83.78-1.63,1.59-2.38,2.44-.3.33-.56.68-.84,1a23.8,23.8,0,0,0-5.43,1.39,40.44,40.44,0,0,0-6.13,3.09s-.08.15,0,.13a64.2,64.2,0,0,1,10.11-2.72,56.16,56.16,0,0,0-3.79,6,45.57,45.57,0,0,0-4.63,10.68c0,.1.08.08.1,0,1.16-3.58,3.46-6.69,5.51-9.8q1.71-2.57,3.61-5A99.64,99.64,0,0,1,43.6,416.9c0,.2.15.14.19,0a56.3,56.3,0,0,0,1.83-14.16.58.58,0,0,0,0-.19c.38-.47.78-.92,1.17-1.38a.53.53,0,0,0,.22-.25c.21-.24.41-.49.62-.72a40.42,40.42,0,0,1,4.08-3.88A41.87,41.87,0,0,1,52,411.93c0,.11.11.05.13,0a36.21,36.21,0,0,0,.4-16.24c.94-.75,1.91-1.47,2.9-2.15,2.91-2,6.12-3.45,8.78-5.77C64.3,387.63,64.35,387.17,64.09,387.21Z" style="fill:#37474f"></path><path d="M86.91,399.9c0,3.07-3.22,6.27-4.68,12.34s1.46,9.92,4.09,12.53,3.37,3.78,5.85,4.81a65.8,65.8,0,0,1,7.75,4.09c-1.17-2.92-2.19-4.78,0-8.9s5-9.68.88-16.4S86.91,399.9,86.91,399.9Z" style="fill:#455a64"></path><path d="M100.32,414.78a16.31,16.31,0,0,0-4.62-4.67,36.68,36.68,0,0,1-4.29-3.33l0-.16c-.49-1.9-1.33-4.71-3.14-5.75-.31-.18-.51.23-.48.47.13,1.05,1,1.93,1.43,2.88a3,3,0,0,1,.17.41,2.73,2.73,0,0,1,0,.57,5.84,5.84,0,0,1-.3,1.54,25.41,25.41,0,0,1-1.33,3,23.87,23.87,0,0,0-1.14,2.78,28,28,0,0,0-.88,3.5c0,.07.06.07.08,0a43.27,43.27,0,0,1,3-6.57A13.93,13.93,0,0,0,90,406.78a.83.83,0,0,0,.07.13.6.6,0,0,1,.08.08c.06.24.12.48.17.72A53.43,53.43,0,0,1,91,415c0,.42.06.86.09,1.29l-.09.2c-.17.34-.32.68-.46,1a16.94,16.94,0,0,0-.7,2,13.48,13.48,0,0,0-.4,4.47c0,.09.08,0,.08,0a23.21,23.21,0,0,1,.86-4.12,16.62,16.62,0,0,1,.69-1.9c0-.1.1-.2.14-.31a22.87,22.87,0,0,0,1,5,27.7,27.7,0,0,0,3.93,6.78c.1.16.24-.15.17-.27A25.84,25.84,0,0,1,93,421.67a30.53,30.53,0,0,1-.65-5.11c1.22.58,2.46,1.13,3.65,1.77.56.3,1.1.63,1.67.89a4.28,4.28,0,0,1,1.45,1c.09.1.2-.17.14-.25a10.51,10.51,0,0,0-1.32-1.43,11,11,0,0,0-1.72-1.19,35,35,0,0,0-3.93-2.18l-.06-1.63a43.5,43.5,0,0,0-.44-5A33.51,33.51,0,0,0,95,410.87c1.85,1.21,3.86,2.27,5.27,4C100.28,414.94,100.34,414.82,100.32,414.78Z" style="fill:#37474f"></path><path d="M104,373.9c2.92,1.69,4.67,7.19,5.67,11.41s3.42,7.25,7.88,9.42C117.5,394.73,115.87,376.29,104,373.9Z" style="fill:#263238"></path><path d="M144.79,394.91c-4.79.87-8.44-2.1-11.24-1.8a12.88,12.88,0,0,0-5,1.62s1.05-6.41,6.06-6.19S144.79,394.91,144.79,394.91Z" style="fill:#263238"></path><path d="M110.07,379.25c1.77,3.5,1.54,7.75,3.31,11.25a11.09,11.09,0,0,0,14,4.88c3.23-1.47,6.16-4.63,9.64-3.91,2.25.47,3.88,2.48,6.07,3.17,2.95.93,6-.73,9-1.46a14.9,14.9,0,0,1,6.34-.15,28,28,0,0,1-11.36-7.8c-1.85-2.11-3.37-4.5-5.26-6.58a25.51,25.51,0,0,0-23.54-7.7c-2.85.59-5.57,1.66-8.4,2.33a49.36,49.36,0,0,1-5.91.62C106.5,375.1,108.76,376.64,110.07,379.25Z" style="fill:#455a64"></path><path d="M148.68,390.63c-3.89-.12-7.35-1.73-10.55-3.84l-.61-.41h.13c.79,0,1.6-.11,2.4-.08,1.67.05,3.34.3,5,.33.11,0,.16-.25.05-.29a19.43,19.43,0,0,0-4.91-.84l-2.61-.24c-.37,0-.74-.05-1.1-.09a4.59,4.59,0,0,0-1-.12A32.94,32.94,0,0,0,128,381c-.54-.18-1.09-.35-1.64-.5.95-.12,1.89-.25,2.84-.35a23,23,0,0,1,7.44.27c.1,0,.17-.2.07-.24a21.76,21.76,0,0,0-7.94-1q-2,0-4,.18l-2,.14a5.67,5.67,0,0,0-.62.06c-1.66-.32-3.32-.62-5-1a31.33,31.33,0,0,1-4.53-1.43,17.31,17.31,0,0,1-2.2-1.09,13.65,13.65,0,0,0-1.84-1.14c-.41-.16-.34.59-.23.76a9.68,9.68,0,0,0,3.84,2.83,24.41,24.41,0,0,0,5,1.77c.68.17,1.35.31,2,.44l0,.06,0,0,0,0,.07.07,0,0v0l.12.08c.24.16.48.31.71.48a10.88,10.88,0,0,1,1.21,1,25.06,25.06,0,0,1,2.16,2.45,21.2,21.2,0,0,0,4.55,4.57c.1.06.18-.16.11-.23-2.73-2.41-4.38-5.86-7.14-8.23a52.2,52.2,0,0,1,7.32,1.71c3.7,1.26,6.83,3.57,10.26,5.37,3.08,1.61,6.24,3.1,9.8,2.83C148.75,391,148.81,390.64,148.68,390.63Z" style="fill:#37474f"></path><path d="M85.45,378.19c2.63-1.91,6.07-1.7,11.23.48s12.55,1.91,16.9-3.1,7.93-10.51,7-13.62a7.43,7.43,0,0,0-3.35-4.3s3.11-4.53-.95-5.49-5.73.24-10.75-.48-12.42,1.91-15.76,7.89-1.67,13.13-6.45,13.37c-2.57.13-4.06-3.58,0-6.93s6.45-8.83,4.3-16.24-8.83-14.09-11.7-14.33-2.39,3.83-4.06,3.83-1.43-5-4.78-2.87-7.16,13.36-7.16,17.79c0,3.7.85,7,4.07,9.22a14.58,14.58,0,0,0-6.22-.74c-10,.72-15,3.82-17.67,7.88s1.91,5.73,1.19,7.17-2.63,2.62-.24,5.73,10.51,6.21,16.48,4.77,9.31-4.06,11.46-6.44,6-1.44,3.59.71-4.78,2.87-10.51,6.09-6.69,13.26-3.35,18.75,4.54,10,7.17,10a3.12,3.12,0,0,0,3.1-2.47s-.24,4.14,3.59,3.66,6.21-3.34,9.31-6,7.82-6.73,6.54-12.92c0,0,1.58,4.56,8,5.76s12.18.95,13.61-1.67,0-4.09,0-4.09,2.63.27,3.34-3.08-.47-11-6.21-13.85-8.35-2.15-14.09-1.43S82.82,380.1,85.45,378.19Zm-9.31-6.45c-.72,1.68-2.87,3.11-4.78,0-1.14-1.86-2.22-5-5-7.07C71.28,366.82,76.84,370.1,76.14,371.74Zm6,18.66c-2.54-3.62-2.9-8.21,0-8.09S82.64,387,82.16,390.4Z" style="fill:#E1879F"></path><path d="M85.45,378.19c2.63-1.91,6.07-1.7,11.23.48s12.55,1.91,16.9-3.1,7.93-10.51,7-13.62a7.43,7.43,0,0,0-3.35-4.3s3.11-4.53-.95-5.49-5.73.24-10.75-.48-12.42,1.91-15.76,7.89-1.67,13.13-6.45,13.37c-2.57.13-4.06-3.58,0-6.93s6.45-8.83,4.3-16.24-8.83-14.09-11.7-14.33-2.39,3.83-4.06,3.83-1.43-5-4.78-2.87-7.16,13.36-7.16,17.79c0,3.7.85,7,4.07,9.22a14.58,14.58,0,0,0-6.22-.74c-10,.72-15,3.82-17.67,7.88s1.91,5.73,1.19,7.17-2.63,2.62-.24,5.73,10.51,6.21,16.48,4.77,9.31-4.06,11.46-6.44,6-1.44,3.59.71-4.78,2.87-10.51,6.09-6.69,13.26-3.35,18.75,4.54,10,7.17,10a3.12,3.12,0,0,0,3.1-2.47s-.24,4.14,3.59,3.66,6.21-3.34,9.31-6,7.82-6.73,6.54-12.92c0,0,1.58,4.56,8,5.76s12.18.95,13.61-1.67,0-4.09,0-4.09,2.63.27,3.34-3.08-.47-11-6.21-13.85-8.35-2.15-14.09-1.43S82.82,380.1,85.45,378.19Zm-9.31-6.45c-.72,1.68-2.87,3.11-4.78,0-1.14-1.86-2.22-5-5-7.07C71.28,366.82,76.84,370.1,76.14,371.74Zm6,18.66c-2.54-3.62-2.9-8.21,0-8.09S82.64,387,82.16,390.4Z" style="fill:#fff;opacity:0.85"></path><path d="M82.16,390.4a9.21,9.21,0,0,0,.49,2.88A9.35,9.35,0,0,0,84,395.79a18.93,18.93,0,0,0,4.37,3.87,11.6,11.6,0,0,1-2.64-1.42,10.18,10.18,0,0,1-2.21-2.09,7.56,7.56,0,0,1-1.35-2.74A6.52,6.52,0,0,1,82.16,390.4Z" style="fill:#E1879F;opacity:0.2"></path><path d="M57.51,388.22A22.58,22.58,0,0,0,67,383.67c-.61.25-1.2.59-1.79.89a22.15,22.15,0,0,1-10.94,2,18.5,18.5,0,0,1-5.73-1A9.36,9.36,0,0,1,44,382.11c-.63-1-1-2.37-.15-3.17.23-.23.55-.4.69-.69a1,1,0,0,0-.25-1.05,2.65,2.65,0,0,0-1-.55,24.11,24.11,0,0,1-2.72-1c-.14-.07-.27-.15-.4-.23.68,1,1.45,1.67,1.12,2.33-.72,1.43-2.63,2.62-.24,5.73S51.54,389.66,57.51,388.22Z" style="fill:#E1879F;opacity:0.2"></path><path d="M81.87,412.58c-3.1,2.63-5.49,5.5-9.31,6a2.77,2.77,0,0,1-3.23-1.64c.87.88,2.2,2.08,5,.73S78,414.12,82,407.86s3-9.17,1.55-11.71a10.37,10.37,0,0,0,2.2,2.09,12.51,12.51,0,0,0,2.64,1.43C89.69,405.85,85,410,81.87,412.58Z" style="fill:#E1879F;opacity:0.2"></path><path d="M120.56,362a8.14,8.14,0,0,0-.63-1.49c.51,4-1.73,7.21-4.67,9.87-3.42,3.08-7.65,5.64-12.36,5.85-3,.13-6-.71-9-.76A17.56,17.56,0,0,0,86.3,377a3.17,3.17,0,0,0-1.17.8,1.29,1.29,0,0,0-.3,1,2.2,2.2,0,0,1,.62-.66c2.63-1.91,6.07-1.7,11.23.48s12.55,1.91,16.9-3.1S121.51,365.06,120.56,362Z" style="fill:#E1879F;opacity:0.2"></path><path d="M64,363.41a11.88,11.88,0,0,0,2.34,1.26c5,2.15,10.53,5.43,9.83,7.07L76,372h0a1.4,1.4,0,0,0,.3-1.46c-.73-3.38-3.62-5.79-6.33-7.93s-5.59-4.57-6.3-7.95a11.37,11.37,0,0,1,0-3.86,38.26,38.26,0,0,1,4.21-12.4c.2-.39.45-.82.87-.92.59-.14,1.08.41,1.55.78a1.47,1.47,0,0,0,.55.26c-.79-1.31-1.29-3.69-3.79-2.09-3.34,2.15-7.16,13.36-7.16,17.79C59.9,357.89,60.75,361.17,64,363.41Z" style="fill:#E1879F;opacity:0.2"></path><path d="M79,368.59c.28-1.36.71-2.68,1.08-4,.72-2.59,1.47-5.22,1.09-7.93,0-.23-.25-.07-.26.09-.08,2.95-1,5.67-1.83,8.48-.2.67-.41,1.39-.6,2.12-.28-1.13-.61-2.25-1-3.36C76,359,74.1,353.61,74.3,348.37c0-.26-.23-.16-.26,0a20.94,20.94,0,0,0-.11,6.07,54.56,54.56,0,0,0,1.62,6.91c.64,2.22,1.21,4.47,1.65,6.75-.67-1-1.45-2-2.12-2.81a34.31,34.31,0,0,1-4.48-7.44c-.16-.35-.47.13-.39.35a27.18,27.18,0,0,0,3.58,7c.8,1.14,1.67,2.23,2.45,3.4a11.72,11.72,0,0,1,1.58,3.82,34.4,34.4,0,0,1,.13,4.65.36.36,0,0,0,0,.11,20.45,20.45,0,0,0-2.93-.68c-.64-.15-1.28-.33-1.91-.52-.27-.19-.55-.37-.81-.57-1.11-.86-2.15-1.8-3.23-2.68-2-1.61-4-3.07-6.6-3.26,0,0-.09.12,0,.14a21,21,0,0,1,6.65,4.1l1.64,1.41c-1.42-.58-2.81-1.22-4.26-1.72-4.18-1.45-8.06-.47-12.12.85-.06,0-.11.19,0,.18,4.4-.54,8.7-.65,12.9,1,1.13.44,2.24.95,3.36,1.42A13.51,13.51,0,0,0,67.15,378c-2.3,1-4.55,2.26-6.93,3.13-.07,0-.13.25,0,.24,2.3-.28,4.29-1.36,6.45-2.11a20.47,20.47,0,0,1,4-1,10.65,10.65,0,0,1,3.94,0,5.21,5.21,0,0,0,3.71,0c.24-.13.36-.66.06-.81l-.11,0a.37.37,0,0,0,.11-.15,14.3,14.3,0,0,0,.55-8C78.94,369,79,368.81,79,368.59Zm-.89,19.56c-.09-.47-.16-1-.27-1.43a5.07,5.07,0,0,1-.23-1,22.9,22.9,0,0,1,.13-2.86,18,18,0,0,0,.21-3c0-.34-.37-.78-.66-.36a9.92,9.92,0,0,0-1,3.09c-.17.61-.35,1.22-.55,1.83-.23.29-.43.65-.63.9-.46.58-.94,1.15-1.44,1.7-1,1.07-2,2.05-3.07,3.09a18.82,18.82,0,0,0-4.88,7.35c-.05.17.11.21.17.06,1.1-2.8,3.36-4.75,5.52-6.73,1-1,2.11-1.92,3.1-2.95l.06-.07c-.61,1.65-1.24,3.28-1.84,4.93-1.65,4.43-3.17,9.23-2.65,14,0,.11.12,0,.13-.08a51.3,51.3,0,0,1,3.82-14.26c.83-2.09,1.68-4.18,2.42-6.3a.88.88,0,0,1,0-.15c.11.44.24.87.32,1.25.33,1.57.7,3.14,1,4.72a21.2,21.2,0,0,1,0,7.94c0,.12.11.12.14,0a22.46,22.46,0,0,0,.6-7.4A37.47,37.47,0,0,0,78.13,388.15Zm24.22-25.37c.11,0,.15-.38,0-.34a27.54,27.54,0,0,0-11.92,6.88c-.85.82-1.69,1.67-2.54,2.51.15-.3.31-.6.46-.91,1.22-2.44,2.54-5,4.82-6.58.16-.11.16-.64-.07-.48a14.51,14.51,0,0,0-4.67,5.62c-.69,1.28-1.34,2.59-2.12,3.82l-.07.11c-.35.32-.69.64-1,.95a25.06,25.06,0,0,1-2.88,2.15c-.9.57-2.26.93-2.9,1.76-.19.24-.11.85.25.88a2.41,2.41,0,0,0,1-.17c.85,1.86,3,2.7,4.43,4a31.06,31.06,0,0,1,3,3.8c1.29,1.67,2.57,3.33,3.89,5,0,.05.12-.09.09-.13-1.16-1.89-2.36-3.76-3.57-5.62-.45-.69-.92-1.37-1.4-2.06.83.45,1.65.89,2.46,1.36a62.3,62.3,0,0,1,10.16,8c.15.14.29-.28.17-.4a58.5,58.5,0,0,0-9.5-8.43l-.09-.06,1.26.26c1.41.29,2.83.56,4.24.88.7.16,1.4.32,2.09.51s1.3.25,2,.42c.15,0,.26-.3.13-.37a13.56,13.56,0,0,0-2-1c-.7-.23-1.41-.43-2.12-.62-1.42-.36-2.86-.66-4.29-1s-2.84-.75-4.23-1.21l-.69-.26-1.32-.87c-.81-.55-1.63-1.11-2.4-1.73-.27-.21-1.3-.8-.93-1.16a1.14,1.14,0,0,1,.34-.19A12.74,12.74,0,0,0,84.64,377c.57-.38,1.14-.74,1.72-1.1a32.33,32.33,0,0,1,4-2A23.54,23.54,0,0,1,98.7,372c.13,0,.21-.31.07-.35a13.94,13.94,0,0,0-9,.85c-.53.22-1,.47-1.56.74l2-2C93.7,367.66,97.54,364.45,102.35,362.78Z" style="fill:#E1879F;opacity:0.2"></path><path d="M76.14,382.6a1.31,1.31,0,0,1,.83.14,3.42,3.42,0,0,1,.62.64,1.21,1.21,0,0,0,1.7.05c.13-.15.22-.35.35-.5.32-.37.79-.13,1.18-.07a.9.9,0,0,0,.83-.27c.37-.46.07-1.26.51-1.64s.84-.1,1.23-.28.38-.43.48-.88c.06-.29.34-.47.5-.72a1,1,0,0,0-.2-1.26c-.14-.12-.33-.21-.4-.38a.68.68,0,0,1,0-.42,8.25,8.25,0,0,0,.31-1,1,1,0,0,0-.24-.93,1.75,1.75,0,0,0-1.18-.23c-.41,0-.91-.2-.94-.61a2.81,2.81,0,0,1,.19-.67.91.91,0,0,0-.51-1,1.4,1.4,0,0,0-1.15,0,3.19,3.19,0,0,1-.88.31c-.79,0-1.1-.79-2-.73a1.33,1.33,0,0,0-1.3,1.17c0,.37.18.8-.07,1.06a.67.67,0,0,1-.43.18c-.56.07-1.13-.07-1.69,0s-1.13.59-1,1.14c.09.33.41.54.67.78s.46.63.27.92a.92.92,0,0,1-.41.31,2,2,0,0,0-.91,1,1.1,1.1,0,0,0,.26,1.23,2.72,2.72,0,0,0,1,.37c.33.11.67.36.67.71,0,.61-.54,1.38.45,1.63a2.61,2.61,0,0,0,1,0Z" style="fill:#ffbda7"></path><path d="M77.81,375.68a13.46,13.46,0,0,0-.42-1.41,14.53,14.53,0,0,0-1.24-2.65A12.18,12.18,0,0,0,72,367.39s-.1.09-.07.12a17.11,17.11,0,0,1,3.88,4.39,13.81,13.81,0,0,1,1.24,2.64,14,14,0,0,1,.41,1.44,4.5,4.5,0,0,0,.3,1.2c.08.16.21-.1.23-.17A3.54,3.54,0,0,0,77.81,375.68Z" style="fill:#E1879F"></path><path d="M76.77,376.53a9.47,9.47,0,0,0-.77-.78,10.73,10.73,0,0,0-1.76-1.31A9.13,9.13,0,0,0,70,373.12s0,.1,0,.11a12.48,12.48,0,0,1,4.09,1.52,10.59,10.59,0,0,1,1.75,1.3,9.7,9.7,0,0,1,.77.8,3.66,3.66,0,0,0,.62.68c.12.08.11-.14.09-.19A2.46,2.46,0,0,0,76.77,376.53Z" style="fill:#E1879F"></path><path d="M80.7,377.57a10,10,0,0,1,1-.51,10.8,10.8,0,0,1,2.07-.72,8.94,8.94,0,0,1,4.42,0s0,.1,0,.09a12.78,12.78,0,0,0-4.36.23,9.78,9.78,0,0,0-2.05.72,7.86,7.86,0,0,0-1,.53,3.14,3.14,0,0,1-.79.46c-.13,0-.06-.16,0-.21A2.63,2.63,0,0,1,80.7,377.57Z" style="fill:#E1879F"></path><path d="M80.9,379.35a10.43,10.43,0,0,1,1,.75,12.19,12.19,0,0,1,1.73,1.79,10.2,10.2,0,0,1,2.12,4.58s-.1,0-.11,0a14.48,14.48,0,0,0-2.33-4.41,12.65,12.65,0,0,0-1.73-1.78c-.33-.27-.67-.52-1-.76a3.71,3.71,0,0,1-.87-.59c-.1-.12.14-.15.2-.13A2.68,2.68,0,0,1,80.9,379.35Z" style="fill:#E1879F"></path><path d="M77.29,379.28c-.25.26-.5.54-.72.82a10.46,10.46,0,0,0-1.18,1.84,9,9,0,0,0-1,4.3s.1,0,.11,0A12.57,12.57,0,0,1,75.7,382a10.38,10.38,0,0,1,1.18-1.83,9.74,9.74,0,0,1,.74-.83,3.33,3.33,0,0,0,.64-.66c.07-.12-.15-.1-.2-.08A2.49,2.49,0,0,0,77.29,379.28Z" style="fill:#E1879F"></path><path d="M76.6,378.06a10,10,0,0,0-1.09.08,11.13,11.13,0,0,0-2.13.48A9,9,0,0,0,69.63,381s.05.09.08.06a12.76,12.76,0,0,1,3.82-2.11,11,11,0,0,1,2.12-.48,10.51,10.51,0,0,1,1.12-.06,3.54,3.54,0,0,0,.92,0c.13,0,0-.18-.09-.2A2.58,2.58,0,0,0,76.6,378.06Z" style="fill:#E1879F"></path><path d="M79.29,376q0-.54.06-1.08a10.94,10.94,0,0,0-.22-2.14,9,9,0,0,0-1.84-4s-.09,0-.07.07a12.88,12.88,0,0,1,1.61,4A10.91,10.91,0,0,1,79,375a10,10,0,0,1-.07,1.1,3.48,3.48,0,0,0-.09.9c0,.14.17,0,.2-.05A2.68,2.68,0,0,0,79.29,376Z" style="fill:#E1879F"></path><path d="M79.38,379.8c.1.34.19.69.26,1a9.65,9.65,0,0,1,.21,2.14,8.79,8.79,0,0,1-1,4.24s-.1,0-.09-.05a12.85,12.85,0,0,0,.8-4.24,10.2,10.2,0,0,0-.22-2.13,9.9,9.9,0,0,0-.28-1.07,3.31,3.31,0,0,1-.27-.86c0-.14.18,0,.21,0A2.66,2.66,0,0,1,79.38,379.8Z" style="fill:#E1879F"></path><path d="M80,376.14c.17-.41.36-.82.57-1.22a13.31,13.31,0,0,1,1.5-2.22,11,11,0,0,1,4.34-3.26s.08.1,0,.12A15.68,15.68,0,0,0,82.34,373a12.26,12.26,0,0,0-1.48,2.22,9.4,9.4,0,0,0-.57,1.25,4.34,4.34,0,0,1-.44,1c-.1.13-.18-.12-.18-.18A3.13,3.13,0,0,1,80,376.14Z" style="fill:#E1879F"></path><path d="M71.55,367a.68.68,0,1,1-.68-.68A.68.68,0,0,1,71.55,367Z" style="fill:#E1879F"></path><path d="M75.64,373.12a.68.68,0,0,1-1.36,0,.68.68,0,0,1,1.36,0Z" style="fill:#E1879F"></path><path d="M84.69,380a.68.68,0,1,1-.68-.67A.67.67,0,0,1,84.69,380Z" style="fill:#E1879F"></path><path d="M75.76,384.05a.68.68,0,0,1,.94-.18.69.69,0,0,1,.18.95.68.68,0,0,1-.95.17A.67.67,0,0,1,75.76,384.05Z" style="fill:#E1879F"></path><path d="M82.51,374.53a.67.67,0,0,1,.94-.17.68.68,0,1,1-.76,1.12A.69.69,0,0,1,82.51,374.53Z" style="fill:#E1879F"></path><circle cx="69.11" cy="373.36" r="0.45" style="fill:#E1879F"></circle><path d="M69.79,380a.46.46,0,0,1-.45.46.47.47,0,0,1-.46-.46.46.46,0,0,1,.46-.45A.45.45,0,0,1,69.79,380Z" style="fill:#E1879F"></path><circle cx="86.51" cy="385.5" r="0.45" style="fill:#E1879F"></circle><path d="M88.4,375.34a.45.45,0,0,1-.45.45.46.46,0,0,1-.46-.45.47.47,0,0,1,.46-.46A.46.46,0,0,1,88.4,375.34Z" style="fill:#E1879F"></path><circle cx="71.64" cy="368.44" r="0.45" style="fill:#E1879F"></circle><path d="M87.27,370.76a.46.46,0,0,1-.46.45.45.45,0,0,1-.45-.45.46.46,0,0,1,.45-.46A.47.47,0,0,1,87.27,370.76Z" style="fill:#E1879F"></path><circle cx="72.54" cy="366.74" r="0.3" style="fill:#E1879F"></circle><circle cx="76.93" cy="369.65" r="0.3" style="fill:#E1879F"></circle><circle cx="70.87" cy="381.33" r="0.3" style="fill:#E1879F"></circle><circle cx="73.38" cy="385.5" r="0.3" style="fill:#E1879F"></circle><circle cx="73.38" cy="372.91" r="0.3" style="fill:#E1879F"></circle><path d="M87.57,377.07a.3.3,0,0,1-.3.3.3.3,0,0,1,0-.6A.3.3,0,0,1,87.57,377.07Z" style="fill:#E1879F"></path><circle cx="84.51" cy="386.27" r="0.3" style="fill:#E1879F"></circle><circle cx="78.04" cy="368.59" r="0.3" style="fill:#E1879F"></circle><circle cx="86.06" cy="368.9" r="0.3" style="fill:#E1879F"></circle><path d="M69.79,381.71a.68.68,0,0,1-1.36,0,.68.68,0,0,1,1.36,0Z" style="fill:#E1879F"></path><path d="M75,387.23a.68.68,0,1,1-1.36,0,.68.68,0,1,1,1.36,0Z" style="fill:#E1879F"></path><path d="M86.44,387.38a.68.68,0,1,1-.68-.68A.68.68,0,0,1,86.44,387.38Z" style="fill:#E1879F"></path><path d="M88.17,369.12a.68.68,0,0,1-1.36,0,.68.68,0,0,1,1.36,0Z" style="fill:#E1879F"></path><path d="M78.92,387.81a.43.43,0,1,1-.42-.43A.42.42,0,0,1,78.92,387.81Z" style="fill:#E1879F"></path><path d="M89.26,376.64a.43.43,0,1,1-.85,0,.43.43,0,1,1,.85,0Z" style="fill:#E1879F"></path><path d="M77.36,368.38a.43.43,0,1,1-.85,0,.43.43,0,1,1,.85,0Z" style="fill:#E1879F"></path></g><g id="freepik--flower--inject-85"><path d="M415.52,268.58c1.09,2.35,3.76,3,7.43,3.81s8.24,5.21,8.55,8,4.73,5,5.87,6.62,2.2,5.94.71,11-14.82-18.86-14.82-18.86S416.56,273.55,415.52,268.58Z" style="fill:#455a64"></path><path d="M426.28,331.14c-3-8.93,8.27-13.06,10.77-20.43s3.48-12.86.79-15.95S434.06,284,429,280.28c-5.19-3.81-12.18-6.57-13.51-11.7.41,6.19,5.84,9.56,5.87,13.79s1.71,7.23.2,10.86-1,7.86-.8,10.68-2.7,12-1.8,18.12S426.28,331.14,426.28,331.14Z" style="fill:#263238"></path><path d="M446,335.63c1.8-6.83-2.17-14.65-1.78-19s1.19-4.59,1.19-4.59-2.19-4.89,1.06-7.73a23.13,23.13,0,0,1,13.24-5.57c5.7-.58,6.07-3.25,6.28-6.48s2.66-5,3-7.29c0,0,1,1.92-.17,5.18s2.05,3.95,1.51,9.1-1.45,8.08-3,10.09-1.14,2.5-.09,5-.07,7.34-2.62,11S455.79,333.45,446,335.63Z" style="fill:#455a64"></path><path d="M459.37,318.07c2.82-5.57,4.91-11.18,5.39-17.46,0-.16-.17-.22-.2,0A46.74,46.74,0,0,1,460.7,313a17,17,0,0,0-.28-2.23q-.29-1.53-.72-3a11.11,11.11,0,0,0-1-2.69c-.06-.1-.12,0-.12.09.2,1.78.87,3.47,1.14,5.25a14.34,14.34,0,0,1,.13,2.62,6.59,6.59,0,0,1-.17,2.1c-.61,1.14-1.26,2.26-2,3.33-.44.67-.89,1.33-1.35,2A11.34,11.34,0,0,0,456,318a23.75,23.75,0,0,0-3.49-8.33s-.05,0-.05.07c1.05,2.67,2.5,5.26,2.65,8.19a17.66,17.66,0,0,1-.11,3.41c-.07.46-.19.91-.3,1.36-1,1.39-2.07,2.74-3.18,4.07-1.76,2.1-4.14,4.38-3.66,7.34.05.3.58.8.78.35a21.8,21.8,0,0,1,2.24-4.21c.67-.92,2-1.29,2.95-1.78a27.45,27.45,0,0,0,3.78-2.21,31.62,31.62,0,0,0,6.16-5.85c.06-.07,0-.32-.1-.22a23.11,23.11,0,0,1-5.8,4.71,28.7,28.7,0,0,1-3.37,1.57c-.3.13-.62.25-.94.36l.55-.67A50.54,50.54,0,0,0,459.37,318.07Z" style="fill:#37474f"></path><path d="M425.19,320.44c-1.38-3.34-2.37-4.9-2.42-9s-2.67-8.17-5-5.24-2.63-1-4.74-.58-17.26,11.11-6.89,25.79c-3.13,7.85-4.45,9.65-2.06,14s3.87,7.45,6.5,8.35,4.39,1.65,6.08-1.89,5.43-10.72,5.8-8.39-1,6.76-3.93,10.71-2.87,11.87,2,15.19,7.36,7.87,11.92,8.86,5.39-2.7,5.39-2.7,2.35,3.27,4.51.35,3.06-9,.17-13.93-6-8.78-6.32-10.48a15.2,15.2,0,0,1,4.95,1.25c2.1.86,5.28,3.42,11.43,2.59s11-2.63,11.49-4.38,1.21-4.36-.58-9-6.31-8.15-8.67-8.22S445.7,335,445.7,335s5.38-2.81,7.7-6.65,1.85-11.09-.16-12.46-4.92.1-4.92.1,2.95-4,.1-5.14-7.35-1-12.58.82S424.62,318.13,425.19,320.44Z" style="fill:#E1879F"></path><path d="M425.19,320.44c-1.38-3.34-2.37-4.9-2.42-9s-2.67-8.17-5-5.24-2.63-1-4.74-.58-17.26,11.11-6.89,25.79c-3.13,7.85-4.45,9.65-2.06,14s3.87,7.45,6.5,8.35,4.39,1.65,6.08-1.89,5.43-10.72,5.8-8.39-1,6.76-3.93,10.71-2.87,11.87,2,15.19,7.36,7.87,11.92,8.86,5.39-2.7,5.39-2.7,2.35,3.27,4.51.35,3.06-9,.17-13.93-6-8.78-6.32-10.48a15.2,15.2,0,0,1,4.95,1.25c2.1.86,5.28,3.42,11.43,2.59s11-2.63,11.49-4.38,1.21-4.36-.58-9-6.31-8.15-8.67-8.22S445.7,335,445.7,335s5.38-2.81,7.7-6.65,1.85-11.09-.16-12.46-4.92.1-4.92.1,2.95-4,.1-5.14-7.35-1-12.58.82S424.62,318.13,425.19,320.44Z" style="fill:#fff;opacity:0.85"></path><path d="M412.75,352c-1.51-.91-2-2.89-1.61-5.94s-.68-3.54-2.42-5.66-1.58-4.26-1.29-6.63,2.79-1.86,2.79-1.86-2.27-2.21-4.13-.44c-3.13,7.85-4.45,9.65-2.06,14s3.87,7.45,6.5,8.35,4.39,1.65,6.08-1.89C415.79,353.72,414.27,352.89,412.75,352Z" style="fill:#E1879F;opacity:0.4"></path><path d="M426.74,344.27c5,4.43,6.77,6.47,8.29,9.9,3,6.83,8.39,7.59,9.16,12.6a13.47,13.47,0,0,0-1.67-4.78c-2.89-4.94-6-8.78-6.32-10.48C435.15,349.62,431.65,345.09,426.74,344.27Z" style="fill:#E1879F;opacity:0.30000000000000004"></path><path d="M464.07,351c.52-1.75,1.21-4.36-.58-9a14.26,14.26,0,0,0-1.4-2.65c.87,1.22.53,2.18-.32,3.25s-1.26,1.22-.94,3.06a3.54,3.54,0,0,1-2,4.18c-1.71.74-3.57.44-7,.75-3.15.28-2.59,3.34-10.61,2.15,2.1.86,5.28,3.42,11.43,2.59S463.54,352.72,464.07,351Z" style="fill:#E1879F;opacity:0.4"></path><path d="M425.19,320.44l0-.47A1.77,1.77,0,0,0,425.19,320.44Z" style="fill:#E1879F;opacity:0.4"></path><path d="M424.72,326.25c1.38-1.85.82-4.07.47-5.81-1.38-3.34-2.37-4.9-2.42-9,0,0-2.29,4.92-1.47,7.12s1.61,3,1.27,5.44-2,4.82-1.12,7.69-1.13,5.43.62,7.83c-.57-1,.63-4.4.49-6.65A10.57,10.57,0,0,1,424.72,326.25Z" style="fill:#E1879F;opacity:0.30000000000000004"></path><path d="M415.11,306.78c-.95-.85-2.77.26-4.8,2.93s-3.84,4.55-3.77,10.9a30.71,30.71,0,0,0,1.63,10.21h0a2.25,2.25,0,0,0-2.08.63c-10.37-14.68,4.77-25.4,6.89-25.78C414,305.48,414.53,306.22,415.11,306.78Z" style="fill:#E1879F;opacity:0.30000000000000004"></path><path d="M447.86,342.91c-3.72-1.37-7.89-.75-11.75-.47a32.48,32.48,0,0,1-5.49-.06q-.8-.08-1.59-.21l1.77-.2a39.69,39.69,0,0,0,5.9-1.25c.14,0,.19-.4,0-.37-2,.32-3.94.57-5.92.77-1,.1-1.91.18-2.86.22a10.41,10.41,0,0,1-1.25,0,7.83,7.83,0,0,0-1.36-.13.15.15,0,0,0-.1.06h0c-.22-.19-.45-.38-.68-.55a5.52,5.52,0,0,0,.4-.66,20.1,20.1,0,0,0,1.94-2,15,15,0,0,1,6-4,13.48,13.48,0,0,1,1.67-.52c.68-.16,1.29-.55,2-.69.07,0,.13-.19,0-.21a9,9,0,0,0-1.92-.32,11.63,11.63,0,0,0-2,.34,12.86,12.86,0,0,0-3.67,1.53,18.4,18.4,0,0,0-1.79,1.23,29,29,0,0,1,3.57-4.76,28.24,28.24,0,0,1,9.58-7c.15-.06.21-.49,0-.43a24.36,24.36,0,0,0-10.7,6.35,24.8,24.8,0,0,0-3.59,4.81,13.45,13.45,0,0,0-2.16,5.89l-.23-.11h0a4,4,0,0,0-.43-.29c-1-3.3-3.38-6.12-4.86-9.2a22.69,22.69,0,0,1-2-12.39c0-.14-.12-.13-.15,0a20.54,20.54,0,0,0,.41,10.41,26.78,26.78,0,0,0,2.7,5.79c1,1.76,2,3.53,3,5.31l-.3-.26a13.85,13.85,0,0,0-1.55-1.08,10.65,10.65,0,0,0-3.6-1.37c-.11,0-.17.2-.07.24a16,16,0,0,1,3.47,1.72,12.35,12.35,0,0,1,1,.76,12.92,12.92,0,0,0-2.13-.5,9.85,9.85,0,0,0-5,.73c-.1,0-.14.33,0,.31a14.28,14.28,0,0,1,9.36,1.77c.69,1.78.56,4,.55,5.79a31.91,31.91,0,0,0,.39,7.44s0,0,0,0c-.09-2.88.13-5.74.22-8.62a19.33,19.33,0,0,0-.14-3.57,12,12,0,0,1,1.42,2.36,26.39,26.39,0,0,1,1.62,5.86c.67,3.55,1,7.3,2.85,10.48,0,.08.11-.07.09-.12-1.6-4.1-1.49-8.41-2.28-12.66a24.68,24.68,0,0,0-1.09-4.09c.42.49.83,1,1.21,1.52a19.27,19.27,0,0,1,3.11,6.49c.09.39.4,0,.35-.27a17.32,17.32,0,0,0-2.09-5.84,24.13,24.13,0,0,0-2.5-3.52c2.51.74,5.44.41,7.94.24,2.06-.13,4.1-.36,6.16-.47a37.28,37.28,0,0,1,6.51.31C448,343.49,448.05,343,447.86,342.91Z" style="fill:#E1879F;opacity:0.30000000000000004"></path><path d="M420.94,343c.23,0,.4.14.41.55,0,.24-.06.48,0,.72a1,1,0,0,0,1.16.8c.37-.1.7-.44,1.08-.38s.57.42.81.7a1.48,1.48,0,0,0,1,.55.88.88,0,0,0,.89-.59c0-.13,0-.27.07-.4.14-.38.66-.46,1.07-.41a1.74,1.74,0,0,0,1.2-.1,1,1,0,0,0,.12-1.33c-.66-1.09-1.93-1.35-1.55-2.83.13-.51.18-1.17-.27-1.42s-1.21.21-1.61-.18-.17-.71-.22-1.08a1.26,1.26,0,0,0-1-1.05c-.53-.11-2.74.6-2.72,1.27,0,.3.23.64,0,.88s-.35.16-.54.22a.85.85,0,0,0-.44,1.19c.16.28.5.47.55.79s-.33.67-.65.91-.61.66-.38,1S420.62,343,420.94,343Z" style="fill:#ffbda7"></path><path d="M424,342.43a12.43,12.43,0,0,0,1.08-.7A12.62,12.62,0,0,0,427,340a10.69,10.69,0,0,0,2.51-4.58s-.1-.06-.12,0a14.88,14.88,0,0,1-2.72,4.39,11.5,11.5,0,0,1-1.91,1.71,11.71,11.71,0,0,1-1.11.72,3.93,3.93,0,0,0-.93.55c-.11.11.13.16.2.15A3,3,0,0,0,424,342.43Z" style="fill:#E1879F"></path><path d="M429.35,334.83a.54.54,0,0,1,.22-1.05.54.54,0,0,1-.22,1.05Z" style="fill:#E1879F"></path><path d="M424,339.88c.3-.31.61-.61.93-.89a12.4,12.4,0,0,1,2.12-1.48,10.7,10.7,0,0,1,5-1.42s0,.12,0,.12a15.33,15.33,0,0,0-4.88,1.66,12.41,12.41,0,0,0-2.1,1.48,11.76,11.76,0,0,0-.95.92,4,4,0,0,1-.75.78c-.13.09-.12-.16-.1-.23A3.11,3.11,0,0,1,424,339.88Z" style="fill:#E1879F"></path><path d="M422.72,338.48c.06-.52.15-1.05.26-1.56a15.22,15.22,0,0,1,1-3,13,13,0,0,1,3.89-5.1s.11.09.08.13a18.32,18.32,0,0,0-3.57,5.23,14.4,14.4,0,0,0-1,3,12.38,12.38,0,0,0-.25,1.6,4.94,4.94,0,0,1-.16,1.33c-.07.18-.24-.07-.27-.15A3.78,3.78,0,0,1,422.72,338.48Z" style="fill:#E1879F"></path><path d="M425,335.85a.81.81,0,1,1,.51,1A.81.81,0,0,1,425,335.85Z" style="fill:#E1879F"></path><path d="M432,334.87a.53.53,0,0,1-.37.66.54.54,0,1,1-.29-1A.53.53,0,0,1,432,334.87Z" style="fill:#E1879F"></path><path d="M429.23,330a.53.53,0,0,1-.37.66.54.54,0,0,1-.29-1A.53.53,0,0,1,429.23,330Z" style="fill:#E1879F"></path><path d="M431.6,337.1a.35.35,0,1,1-.68.2.36.36,0,0,1,.25-.44A.35.35,0,0,1,431.6,337.1Z" style="fill:#E1879F"></path><path d="M427.6,328.21a.36.36,0,1,1-.69.19.36.36,0,0,1,.69-.19Z" style="fill:#E1879F"></path><path d="M429.73,327.88a.79.79,0,0,1-.55,1,.8.8,0,1,1,.55-1Z" style="fill:#E1879F"></path><path d="M433.39,336.07a.51.51,0,0,1-.34.63.51.51,0,1,1-.28-1A.5.5,0,0,1,433.39,336.07Z" style="fill:#E1879F"></path><path d="M426.63,342.53a16.91,16.91,0,0,0,1.71.28,17.39,17.39,0,0,0,3.46,0,14.35,14.35,0,0,0,6.62-2.26c.05,0-.05-.15-.1-.13a20.35,20.35,0,0,1-6.65,1.89,16.66,16.66,0,0,1-5.18-.32,5.14,5.14,0,0,0-1.43-.3c-.22,0,0,.28.06.33A4,4,0,0,0,426.63,342.53Z" style="fill:#E1879F"></path><path d="M425.54,344c.37.22.74.42,1.12.61a12.19,12.19,0,0,0,2.39.86,10.44,10.44,0,0,0,5.15.06c.05,0,0-.12,0-.11a14.92,14.92,0,0,1-5.07-.32,12.44,12.44,0,0,1-3.52-1.5,3.61,3.61,0,0,0-.91-.56c-.16,0-.08.19,0,.24A3.1,3.1,0,0,0,425.54,344Z" style="fill:#E1879F"></path><path d="M439.1,340.31a.8.8,0,0,1-.38-1.07.79.79,0,0,1,1.07-.37.8.8,0,0,1,.38,1.07A.79.79,0,0,1,439.1,340.31Z" style="fill:#E1879F"></path><path d="M430.45,341.53a.79.79,0,0,1-.37-1.07.8.8,0,0,1,1.07-.38.79.79,0,0,1,.37,1.07A.8.8,0,0,1,430.45,341.53Z" style="fill:#E1879F"></path><path d="M437.25,340.13a.53.53,0,1,1,.71-.25A.52.52,0,0,1,437.25,340.13Z" style="fill:#E1879F"></path><path d="M438.68,341.81a.36.36,0,1,1,.48-.17A.37.37,0,0,1,438.68,341.81Z" style="fill:#E1879F"></path><path d="M433.34,345a.34.34,0,0,1-.17-.47.35.35,0,0,1,.47-.17.37.37,0,0,1,.17.48A.35.35,0,0,1,433.34,345Z" style="fill:#E1879F"></path><path d="M431.68,339.55a.36.36,0,0,1-.16-.48.35.35,0,0,1,.47-.17.36.36,0,1,1-.31.65Z" style="fill:#E1879F"></path><path d="M433.9,346.71a.36.36,0,1,1,.48-.17A.37.37,0,0,1,433.9,346.71Z" style="fill:#E1879F"></path><path d="M434.63,345.78a.51.51,0,1,1,.44-.91.51.51,0,0,1-.44.91Z" style="fill:#E1879F"></path></g></g><g id="freepik--Sparkles--inject-85"><g id="freepik--sparkles--inject-85"><path d="M434,165.84c0,3.81-.1,7.48-5.6,8.34,5.81-.08,5.37,3.59,5.66,8.18.15-4.59.56-7.89,5.09-8.11C434.46,173.48,434.58,171.3,434,165.84Z" style="fill:#455a64"></path><path d="M98,80.25c0,3-.08,5.92-4.43,6.59,4.6-.06,4.25,2.84,4.48,6.48.12-3.64.44-6.24,4-6.41C98.32,86.29,98.41,84.57,98,80.25Z" style="fill:#455a64"></path><path d="M420.3,201.47c.06,5.82-.15,11.42-8.55,12.73,8.88-.12,8.2,5.48,8.64,12.49.24-7,.85-12,7.77-12.37C421,213.13,421.19,209.81,420.3,201.47Z" style="fill:#E1879F"></path><path d="M323.06,106.6c.05,4.89-.12,9.59-7.18,10.69,7.46-.1,6.89,4.6,7.26,10.49.2-5.89.71-10.11,6.53-10.39C323.66,116.39,323.81,113.61,323.06,106.6Z" style="fill:#E1879F"></path><path d="M382.06,82.49c0,2.15-.05,4.23-3.16,4.71,3.29,0,3,2,3.2,4.62.09-2.59.31-4.45,2.87-4.58C382.33,86.8,382.4,85.58,382.06,82.49Z" style="fill:#E1879F"></path><path d="M450.74,189.86c0,3-.6,6-4.91,6.64,4.55-.06,4.73,2.68,4.95,6.27.12-3.59,1.11-6.35,4.65-6.52C451.77,195.64,451.2,194.13,450.74,189.86Z" style="fill:#e0e0e0"></path><path d="M455.55,253c0,2.82-.57,6-4.65,6.15,4.29-.06,4.44,2.65,4.65,6,.12-3.39.69-6.09,4.41-6C456.21,258.94,456,257.05,455.55,253Z" style="fill:#E1879F"></path><path d="M197.56,100.38c0,3.18-.64,6.37-5.24,7.09,4.86-.07,5.05,2.87,5.29,6.7.13-3.83,1.18-6.79,5-7C198.66,106.55,198.05,104.94,197.56,100.38Z" style="fill:#e0e0e0"></path><path d="M286.94,53.82c0,3.18-.63,6.37-5.23,7.09,4.86-.07,5.05,2.87,5.28,6.7.13-3.83,1.18-6.79,5-7C288,60,287.44,58.38,286.94,53.82Z" style="fill:#e0e0e0"></path><path d="M399.23,87.16c0,4.82-.32,9.68-7.12,10.31,6.8.31,6.76,4.77,7.12,10.57.19-5.8.35-10.29,6.48-10.57C399.53,96.94,400,94.06,399.23,87.16Z" style="fill:#e0e0e0"></path><path d="M40.19,158.16c.05,4.82-.32,9.68-7.12,10.31,6.8.32,6.76,4.77,7.12,10.58.2-5.81.35-10.29,6.48-10.58C40.49,168,40.93,165.07,40.19,158.16Z" style="fill:#e0e0e0"></path><path d="M76.7,114c.06-5.49-.14-10.38-8.06-11.61,8.37.11,7.74-5.55,8.15-12.16.22,6.61,1.23,12.27,7.75,12.59C77.79,104,77.54,106.17,76.7,114Z" style="fill:#E1879F"></path></g></g></svg>